<?xml version="1.0" encoding="UTF-8"?>
<svg id="Layer_1" xmlns="http://www.w3.org/2000/svg" viewBox="0 0 2256.02 2251.59">
  <defs>
    <style>
      .cls-1 {
        fill: #fff;
      }
    </style>
  </defs>
  <path class="cls-1" d="M558.24,157.8c5.85-9.32,15.34-11.67,23.44-15.67,6.55-3.24,13.65-5.26,18.59-11.16.81-.97,2.12-1.75,3.34-2.1,15.68-4.45,28.81-15.44,45.37-17.59,2.56-.33,4.33-1.83,5.34-4.03,2.48-5.4,7.25-7.5,12.45-9.13,14.29-4.49,27.9-10.41,41.21-17.37,8.72-4.56,18.25-8.41,28.76-5.73,2.82.72,5.12-.38,7.15-2.48,4.35-4.53,9.85-6.56,16.03-7.19,4.36-.44,7.95-2.79,11.84-4.72,11.52-5.72,23.02-11.59,36.21-13.27,13.16-1.67,25.93-5.54,38.79-8.79,15.75-3.98,30.99-9.55,46.99-12.96,14.25-3.03,28.53-5.83,42.87-8.38,4.32-.77,8.5-1.2,12.84-.08,3.29.85,6.59.46,9.74-1.04,4.56-2.16,9.13-4.03,14.3-1.63,1.95.91,3.95.09,5.51-1.36,5.71-5.31,12.59-5.57,19.68-4.4,4.36.72,8.54.62,12.83-.54,6.78-1.82,13.82-1.92,20.74-2.8,19.47-2.47,39-5.24,58.56-3.2,13.72,1.43,27.09-1.7,40.46-1.17,18.52.73,37.33-1.96,55.6,3.23,1.24.35,2.76.6,3.93.22,12.05-3.89,23.64,2.19,35.53,1.58.95-.05,1.98.37,2.87.79,2.22,1.05,6.15.12,6.15,3.74,0,2.76-3.27,2.8-5.41,3.53-1.2.41-2.63.52-3.24,3.2,9.54-2.22,18.73,1.62,28.15-.99,7.92-2.19,16.66-.03,24.34-4.2,1.04-.57,2.82-.61,3.91-.12,13.18,5.81,27.6,2.31,41.14,5.64,8.35,2.05,17.2,2.03,24.89,6.71,2.59,1.58,5.78,1.51,8.78,1.51,14.16,0,27.72,2.52,40.54,8.86,7.05,3.49,15.09,1.95,22.54,3.64,4.66,1.06,9.25,2,10.21,7.86.74,4.53,3.81,9.88,1.09,13.41-3.01,3.9-8.03-.23-11.95-1.21-11.54-2.87-22.9-6.43-34.34-9.71-2.24-.64-4.46-1.72-6.72-1.83-27.42-1.34-53.47-10.22-80.25-15.02-17.09-3.06-34.13-3.64-51.16-5.59-2.97-.34-6.23-.02-8.84-1.17-6.99-3.1-14.23-3.25-21.56-2.9-5.49.26-10.48-.06-14.6-4.58-3.09-3.39-6.63-3.27-10.61-.33-6.21,4.6-6.95,4.51-10.88-1.25-2.82-4.13-6.32-5.68-10.97-5.33-7.3.54-14.63.84-21.87,1.86-6.15.86-12.05,3.73-18.43.74-1.79-.84-4.17.19-5.49,1.68-4.16,4.7-7.23,2.7-11.78-.17-9.01-5.68-19.3-4.22-29.08-1.85-5.58,1.35-10.65,3.22-16.38.34-3.25-1.63-5.98-.03-6.13,3.97-.12,3.43-1.79,4.91-5.01,4.64-3.18-.27-5.88-1.13-5.67-5.32.18-3.63-2.5-4.38-5.37-4.37-6.43.03-12.97.53-17.43,5.76-3.82,4.47-8.09,5.45-13.35,3.91-11.28-3.31-22.23-.53-31.93,4.3-8.41,4.18-16.33,5.26-24.94,3.27-4.59-1.06-8.41-.62-12.24,2.09-6.39,4.53-13.06,6.53-20.37,1.69-2.98-1.98-5.79-.96-7.93,1.69-4.36,5.4-10.26,7.53-16.83,7.08-12.41-.85-23.61,3.8-34.88,7.52-11.33,3.74-22.07,9.24-34.45,8.85-2.7-.08-5.29,1.01-7.48,2.54-6.17,4.32-13.25,6.04-20.42,7.67-8.07,1.84-16.06,3.62-23.9,6.77-7.56,3.04-16.15,3.81-24.59,2.56-5.71-.84-10.78-.2-12.53,6.64-1.17,4.58-4.19,5.51-8.42,4.31-2.74-.78-5.47-.39-7.27,1.97-5.18,6.78-13.06,7.76-20.45,9.05-7.59,1.32-15.42,4.27-23.1-.88-2.6-1.75-5.88.04-8.11,2.3-1.86,1.89-3.58,3.94-5.15,6.08-11.27,15.42-26.72,25.19-43.83,32.82-6.98,3.11-13.85,6.48-20.59,10.07-6.01,3.2-11.93,3.71-18.18.99-1.51-.66-3.2-.92-4.79-1.4-4.86-1.46-8.14,0-10.69,4.6-3.4,6.16-3.68,6-13.12,3.34Z"/>
  <path class="cls-1" d="M1112.57,2233.19c.93,2.01-.26,3-.57,4.21-2.71,10.72-2.86,11.56-13.89,10.79-12.57-.88-25.36,1.33-37.74-2.43-.93-.28-2.08-.49-2.96-.2-15.1,4.84-29.57-1.59-44.3-2.75-10.3-.81-20.59-.38-30.87-1.22-8.96-.73-17.5-2.21-26.25-4.77-11.69-3.42-24.3-3.53-36.41-5.66-21.59-3.8-43.34-6.93-64.15-14.29-5.32-1.88-10.79-3.44-16.29-4.72-12.62-2.94-25.26-5.79-37.97-8.32-5.3-1.06-10.38-2.94-15.03-5.22-13.55-6.67-28.14-10.14-42.26-15.03-4.66-1.61-9.68-2.53-12.91-7.01-2.19-3.04-5.77-2.95-9.09-3.21-8.75-.69-16.79-3.29-24.64-7.4-9.69-5.08-20.22-8.47-29.54-14.42-1.86-1.19-4.39-1.43-6.66-1.87-7.3-1.43-13.85-4.55-19.97-8.68-2.75-1.86-5.43-3.96-8.43-5.29-20.66-9.17-40-20.9-60.14-30.98-12.27-6.14-22.16-15.7-34.83-21-5.7-2.38-6.54-15.51-1.89-19.29,2.29-1.86,4.56-.47,6.36.92,8.68,6.7,18.98,10.55,27.97,16.98,15.37,11,32.92,18.59,49.93,26.9,5.06,2.47,10.58,4.14,14.26,8.84.4.51.99,1.05,1.58,1.19,9.52,2.3,17.23,8.25,25.78,12.53,11.82,5.92,24.18,10.7,36.15,16.38,8.63,4.1,18.65,4.83,27.31,9.28,2.65,1.36,5.69,2.18,8,3.96,7.95,6.16,16.88,8.86,26.83,9.47,7.97.49,15.64,2.64,23,6.08,7.51,3.51,15.71,5.36,23.48,8.09,15.98,5.61,32.93,7.65,48.56,14.63,9.91,4.43,20.45,7.34,31.76,7.67,15.66.45,30.81,5.1,46.17,7.95,11.07,2.06,22.42,2.95,33.02,7.28,2.1.86,4.7,1.57,6.82,1.12,9.13-1.93,17.78-1.48,26.05,3.29,1.28.74,3.28.57,4.89.36,12.39-1.69,24.56.96,36.82,1.71,12.22.75,24.34,2.42,36.27,5.24,3.46.82,6.55-.3,9.74-1.27,8.84-2.67,17.62-2.56,26.04.17Z"/>
  <path class="cls-1" d="M1650.5,128.26c8,4.69,14.73,8.68,21.5,12.6,12.6,7.31,24.09,16.54,38.1,21.4,4.06,1.41,7.68,3.73,11.06,6.61,8.1,6.89,17.79,11.48,26.57,17.4,7.7,5.2,15.43,10.36,23.07,15.64,10.38,7.18,19.58,16.02,30.96,21.8,4.57,2.32,7.11,7,11.03,10.04,5.24,4.08,10.69,7.91,16.19,11.65,4.54,3.09,8.52,6.52,9.31,12.32.86,6.4,5.35,9.15,10.85,10.1,9.5,1.63,16.15,7.11,22.11,14.21,13.25,15.77,29.09,28.81,44.82,41.96,1.26,1.06,2.54,2.19,3.49,3.53,4.84,6.84,10.81,12.63,16.82,18.4,2.4,2.31,5.54,4.41,6.74,7.28,3.5,8.34,10.35,12.56,17.79,16.34,3.1,1.58,5.23,4.13,6.88,7.05,8.15,14.41,20.34,25.35,31.77,36.9,3.38,3.41,5.82,7.24,7.93,11.38,1.69,3.32.37,5.03-3.19,5.25-1.99.12-4,.07-5.99.26-12.01,1.14-12.78.75-17.44-10.83-2.62-6.5-5.18-12.34-12.26-16.05-5.32-2.78-9.2-8.46-13.45-13.09-10.97-11.97-20.92-24.77-33.66-35.25-6.98-5.74-12.08-14.01-18.08-21.11-3.88-4.59-7.93-8.93-12.13-13.2-4.19-4.26-8.63-8.31-9.06-14.99-.25-3.93-3.03-5.23-6.41-3.64-5.2,2.45-8.65.11-12.52-3.06-5.42-4.43-9.92-9.89-15.08-14.29-8.46-7.22-15.39-16.37-26.07-21.15-10.69-4.79-19.12-13.25-28.39-20.23-15.08-11.36-29.79-23.23-45.82-33.2-5.71-3.55-10.77-8-15.57-12.24-7.9-6.98-18.15-9.59-25.93-16.38-1.89-1.65-4.76-2.31-7.29-3.08-7.18-2.19-13.61-5.38-17.62-12.14-1.24-2.09-2.94-3.86-5.41-4.03-5.85-.41-8.66-4-10.75-8.97-2.08-4.93-5.02-9.31-9.4-12.71-3.19-2.48-5.6-5.68-5.45-12.51Z"/>
  <path class="cls-1" d="M549.49,163.37c-3.29,7.53-6.01,13.9-8.89,20.21-.67,1.47-1.61,3.16-2.91,3.96-17.12,10.55-31.11,25.81-50.36,33.19-3.31,1.27-7.2,3.4-8.81,6.26-3.8,6.77-10.15,10.6-15.81,14.95-11.86,9.12-23.93,17.97-35.55,27.42-1.02.83-2.27,1.38-3.46,1.99-7.73,3.92-15.4,7.89-18.72,16.74-.11.29-.37.59-.65.75-12.45,7.03-20.67,19.08-32.26,27.15-5.99,4.16-11.74,8.4-15.57,15.14-3.23,5.69-8.34,10.76-13.32,14.55-12.4,9.43-19.7,23.42-31.71,32.98-6.48,5.16-10.91,12.45-17.81,17.19-3.69,2.54-5.17,6.87-7.66,10.3-11.12,15.36-26.22,27.22-36.96,42.84-2.73,3.96-6.86,5.16-11.16,5.82-4.36.67-6.05-1.36-5.19-5.91.91-4.77,3.3-8.91,7.25-11.57,4.08-2.75,5.85-6.99,8.69-10.54,9.23-11.52,15.37-25.56,27.72-34.56,1.66-1.21,2.81-2.83,3.53-4.74,1.07-2.87,2.77-5.4,4.99-7.4,9.07-8.21,15.61-18.76,24.99-26.68,4.32-3.65,8.02-7.79,11.16-12.63,4.94-7.62,12.25-13.07,19.22-18.72,7.23-5.86,13.28-12.98,19.96-19.23,10.54-9.87,20.56-20.48,32.01-29.33,10.76-8.32,21.11-17.07,31.49-25.84,14.95-12.64,29.97-25.21,46.73-35.58,10.99-6.8,21.4-14.58,31.7-22.4,4.3-3.27,9.22-5.22,13.71-8.03,7.05-4.43,14.07-8.66,20.23-14.36,3.06-2.83,7.1-4.77,13.43-3.87Z"/>
  <path class="cls-1" d="M12.92,979.25c-2.68-6.37-.96-12.91,1.67-18.26,4.63-9.42,4.51-19.35,5.35-29.19,1.09-12.91,2.29-25.48,7.73-37.73,3.68-8.31,4.29-18.07,5.68-27.28,1.51-10.02,4.33-19.53,9.61-28.15,2.58-4.21,3.61-8.54,3.26-13.3-.45-6.14,1.46-11.7,3.3-17.48,3.32-10.42,6.84-20.75,8.9-31.63,2.54-13.42,8.9-25.71,14.95-37.89,2.1-4.23,4.38-8.1,4.54-12.96.21-6.59,2.7-12.33,7.26-17.08,3.13-3.27,4.88-6.99,5.2-11.55.48-6.77,2.93-12.66,6.93-18.37,3.95-5.64,6.65-12.25,9.31-18.67,2.8-6.75,4.65-13.91,9.78-19.48.43-.46.8-1.2.79-1.8-.27-15.61,11.55-25.7,17.36-38.52,5.23-11.53,14.25-20.84,18.19-33.04,1.14-3.53,3.72-6.12,8.43-7.38.8,6.81-1.98,12.14-4.35,17.29-3.22,7-6.54,13.82-6.82,21.74-.06,1.88-.76,4.22-2.02,5.49-8.62,8.62-10.97,20.28-15.36,30.94-1.01,2.46-1.31,5.49-3.52,7.05-5.5,3.88-6.77,9.73-7.71,15.64-1.5,9.43-5.31,17.76-10.82,25.45-3.12,4.35-5.98,8.84-5.78,14.56.03.96-.22,2.05-.69,2.89-10.07,18.09-12.23,39.19-21.93,57.41-6.46,12.14-8.57,25.68-12.86,38.46-6.25,18.64-9.41,38.07-16.24,56.46-1.4,3.76-2.07,7.71-2.11,11.75-.07,6.09-1.04,11.97-4.74,17.05-4.05,5.57-3.01,12.1-3.52,18.33-.26,3.27,1.03,7.21-1.59,9.61-7.12,6.54-6.55,15.68-8.33,23.86-1.07,4.94-1.41,9.7-5.1,13.63-2.92,3.11-3.42,7.12-2.79,11.25.2,1.32.52,2.61.73,3.93,2.05,12.93.99,14.37-12.7,16.97Z"/>
  <path class="cls-1" d="M1462.13,2198.92c-2.94-.5-3.85-2.27-2.13-4.2,3.37-3.79,5.46-8.31,8.17-12.48,1.32-2.03,3.34-3.61,5.79-3.43,10.49.8,18.07-6.12,26.6-10.17,7.22-3.42,14.12-7.47,22-9.24,16.34-3.68,30.43-13.34,46.6-17.48,2.11-.54,3.87-2.5,5.77-3.83,4.4-3.1,9.09-5.94,14.46-6.45,12.89-1.22,22.99-7.86,32.61-15.68.51-.42,1.03-.93,1.63-1.14,14.54-5.03,26.6-15.07,41.06-20.25,6.11-2.19,10.59-6.82,15.58-10.59,10.15-7.66,22.3-11.66,32.67-19.01,13.51-9.58,27.86-17.97,41.89-26.8,4.5-2.84,9.14-5.46,13.72-8.17,3.38-2.01,6.33-1.99,8.34,1.91,1.72,3.34,5.42,6.35,1.18,10.55-4.95,4.9-9.32,10.25-16.57,12.28-7.44,2.08-13.26,7.59-19.38,11.86-7.84,5.48-16.2,10.28-23.67,16.45-4.7,3.88-11.26,5.55-17.02,8.12-3.09,1.38-5.86,3.17-8.14,5.66-5.1,5.59-11.69,8.59-18.66,11.01-2.82.98-6.12,1.58-8.21,3.46-8.29,7.42-18.18,11.78-28.03,16.54-5.97,2.89-12.27,5.28-17.93,8.52-13.55,7.75-28.12,12.89-42.23,19.16-10.44,4.64-21.35,8.92-31.48,14.59-3.1,1.74-6.89,2.68-10.46,3.06-5.8.6-11.15,1.72-15.36,6.13-.65.69-1.69,1.29-2.61,1.39-15.7,1.82-28.36,12.88-44.09,14.48-4.41.45-8.07,3.05-12.13,3.77Z"/>
  <path class="cls-1" d="M306.14,1871.53c-1.29,4.64-3.89,7.42-6.49,9.76-2.85,2.57-4.73-1.1-6.59-2.54-8.97-6.97-16.38-15.47-23.06-24.6-8.65-11.8-17.33-23.56-28.29-33.39-.74-.66-1.7-1.38-1.94-2.25-3.71-13.56-16.41-20.6-23.12-31.96-1.18-2-2.87-3.81-3.59-5.96-3.87-11.4-12.05-19.67-19.93-28.2-5.19-5.62-8.48-12.62-12.65-18.9-9.87-14.9-19.01-30.21-25.62-47.2-3.8-9.76-9.33-19.85-17.35-27.6-3.96-3.83-6.33-8.47-8.15-13.53-1.35-3.77-2.97-7.39-5.75-10.42-1.33-1.45-2.54-3.16-3.31-4.96-5.5-12.81-10.91-25.67-16.26-38.54-.73-1.76-1.91-3.85-.27-5.6,1.66-1.77,3.74-.63,5.57.01,5.77,2.02,9.53,5.76,13.47,10.8,7.81,9.97,11.09,21.8,16.88,32.5,5.19,9.6,11.7,18.49,16.33,28.45,1.82,3.92,4.63,7.62,5.41,11.73,1.47,7.73,6.24,13.03,11.31,18.27,2.1,2.18,4.45,4.21,5.28,7.15,4.18,14.75,14.71,25.79,22.42,38.46,2.55,4.2,6.48,7.55,9.58,11.43,1.44,1.8,2.92,3.82,3.55,5.99,3.98,13.58,15.3,22.25,22.22,33.76,5.14,8.54,13.49,14.58,17.22,24.07,1.88,4.79,6.83,7.15,10.11,10.9,11.12,12.72,22.52,25.2,33.63,37.93,3.93,4.5,4.72,10.97,9.38,14.42Z"/>
  <path class="cls-1" d="M37.97,1331.73c-3.19-1.81-3.63-4.64-4.95-6.86-2.06-3.45-4.47-5.97-8.86-3.8-1.94.96-3.92,1.67-4.99-.86-1.07-2.52-1.23-5.07.91-7.41,7.64-8.37,8.35-12.24,3.09-21.28-2.28-3.91-3.65-7.77-3.31-12.25.51-6.65-1.14-12.53-6.07-17.28-2.85-2.74-3.6-6.17-3.53-10.02.26-13.38-.99-26.56-4.88-39.46-2.55-8.47.66-17.17-.62-25.83-1.45-9.83.07-19.96-2.55-29.76-.59-2.2-.96-5.29.72-6.73,5-4.32,2.93-9.04,1.31-13.61-3.68-10.41-2.75-21.11-1.67-31.64.78-7.63,2.21-15.35,1.48-22.85-1.41-14.53,3.48-28.23,4.24-42.43.27-5,2.18-5.85,6.54-3.92,3.93,1.73,6.06,4.34,6.71,8.98,1.22,8.73,1.07,17.29-1.14,25.75-1.47,5.63-1.19,11.03-.47,16.75,1.7,13.55,2.19,27.18-.72,40.7-.62,2.9-1.52,5.82-.55,8.85,2.36,7.43,2.09,15.12,2.25,22.77.61,30.26,2.63,60.42,5.48,90.56.86,9.07.54,17.82,5.08,26.27,2.05,3.81,1.05,9.16,1.9,13.73,2.04,11.03-.06,22.68,5.28,33.26,1.06,2.09,1.19,5.19-.67,8.36Z"/>
  <path class="cls-1" d="M2205.96,1433.51c-3.5-2.58-1.88-4.88-1-6.78,4.18-9.06,1.76-17.75-2.09-25.9-1.89-4.01-2.62-7.28-.94-11.25,6.12-14.47,9.88-29.24,9.79-45.3-.06-9.42,3.16-18.97,5.65-28.26,3.28-12.24,5.38-24.5,6.48-37.18.81-9.37,5.2-18.42,7.94-27.64,1.23-4.14,2.27-8.34,3.49-12.49.49-1.65,1.49-3.33,3.38-3.04,1.75.27,2.56,2.07,2.81,3.74.29,1.96.33,3.96.36,5.95.04,2.99-.74,6.18.06,8.94,3.85,13.29,1,26.41-.39,39.58-.14,1.32-.01,2.76-.51,3.94-6.42,15.26-7.15,31.61-9.28,47.69-.13.99-.15,2.03-.49,2.95-7.94,21.5-9.92,44.59-17.6,66.17-2.26,6.36-3.59,13.11-7.65,18.88Z"/>
  <path class="cls-1" d="M1285.28,2223.99c4.56-.81,9.23-1.23,13.67-2.5,24.63-7.06,49.83-11.48,75.01-15.69,19.38-3.24,38-8.99,56.86-14.02,2.24-.6,4.53-1.08,6.83-1.42,7.79-1.15,10.28,1.1,10.26,8.85-.01,3.44-1.18,5.62-4.74,6.53-3.53.9-6.87,2.85-10.42,3.3-19.16,2.42-36.78,11.52-56.2,12.75-2.93.19-5.96.98-8.66,2.15-9.33,4.07-19.12,5.58-29.16,5.66-11.72.09-22.82,4.28-34.53,4.76-7.82.33-15.84.65-23.15,4.84-3.01,1.72-7.05,1.81-10.67,2.23-2.81.33-6.5,1.63-8.08-1.62-1.44-2.97,2.12-4.42,3.75-6.33,1.51-1.76,3.19-3.39,4.9-4.97,5.27-4.88,6.29-5.21,14.32-4.54Z"/>
  <path class="cls-1" d="M2015.04,443.86c5.27-.5,8.89,2.23,11.67,6.24,6.22,8.99,12.37,18.03,18.42,27.14,1.65,2.48,2.9,5.26,2.98,8.35.15,6.24,3.71,11,8.25,14.17,5.33,3.71,8.81,8.91,13.28,13.26.95.92,1.78,1.98,2.76,2.86,5.69,5.05,1.09,14.86,8.79,18.98,6.88,3.67,9.42,10.87,13.74,16.67,4.66,6.26,2.48,11.99-.47,17.67-2.29,4.4-5.41,4.62-8.48.57-5.39-7.12-11.14-14.13-12.37-23.48-.36-2.7-1.07-5.24-3.91-6.48-5.91-2.58-9.29-7.85-11.73-13.14-9.46-20.45-24.89-36.51-38.26-54.12-4.36-5.75-7.48-12.46-10.99-18.83-4.1-7.46-2.59-9.73,6.29-9.85Z"/>
  <path class="cls-1" d="M1577.14,96.83c-2.66,2.4-5.11,2.02-7.12.99-10.17-5.21-20.85-2.36-31.32-2.12-3.67.08-7.32.91-10.7-1-11.09-6.28-23.75-8.27-35.4-13.04-6.13-2.51-12.74-3.94-17.85-8.57-3.24-2.94-7.3-2.81-11.29-3.06-11.41-.72-11.38-.76-14.91-11.68-.61-1.89-1.56-3.67-2.33-5.51-.77-1.82-1.91-3.77-.03-5.47,1.72-1.55,3.79-.78,5.66-.14,2.52.85,5.23,1.5,7.4,2.92,12.27,8.04,26.72,9.76,40.25,14.15,7.89,2.56,16,4.4,23.12,9.08,2.39,1.57,5.61,1.96,8.49,2.71,16.45,4.28,31.58,11.35,46.02,20.75Z"/>
  <path class="cls-1" d="M1985.95,1828.79c-.21-2.94,1.22-5.19,2.73-7.41,5.85-8.58,14.08-14.93,21.11-22.41,1.06-1.13,2.86-1.66,4.42-2.18,5-1.68,11.35-2.17,6.02-10.27-1.65-2.51,1.13-5.18,3.1-6.73,5.45-4.3,7.74-10.43,11.02-16.18,6.06-10.62,13.36-20.53,20.14-30.74,1.12-1.68,2.37-3.17,4.29-4.02,4.62-2.05,8.19-.06,8.18,4.95-.02,4.69-1.34,9.2-3.48,13.4-8.19,16.01-19.16,30.05-31,43.45-8.85,10.01-14.91,21.9-22.56,32.7-4.59,6.49-9.89,12.48-14.92,18.66-2.25,2.77-4.61,3.02-5.86-.67-1.38-4.08-2.16-8.35-3.2-12.54Z"/>
  <path class="cls-1" d="M66.38,1449.18c3.74,6.08,1.39,12.45,4.63,17.21,3,4.42,6.15,8.97,7.29,14.09,3.34,14.98,11.98,28.05,15.05,43.08.53,2.59,1.95,5.08,2.09,7.66.26,4.76.37,9.25,5.73,11.4.74.3,1.3,1.54,1.56,2.45,2.26,7.9,4.43,15.83,6.94,24.88-9.32-1.54-17.21-2.56-19.36-12.98-.79-3.84-4.12-7.47-3.99-11.11.32-8.5-3.03-14.35-9.4-19.53-6.87-5.59-7.5-13.95-7.23-21.95.25-7.29-.53-13.1-6.58-18.57-6.79-6.13-6.99-16.83-1.43-24.46,2.55-3.5,1.25-7.84,4.69-12.19Z"/>
  <path class="cls-1" d="M384.92,1965.24c-14.59-5.2-24.77-15.01-34.53-25.51-11.49-12.37-23.3-24.45-34.85-36.78-2.11-2.25-5.83-4.19-3.97-8.24,1.49-3.25,8.38-4.64,12.54-3,8.99,3.54,14.78,10.83,21.26,17.48,11.51,11.82,21.25,25.4,35.28,34.76,8.03,5.36,8.65,9.82,4.26,21.29Z"/>
  <path class="cls-1" d="M1974.56,1863.8c-.03,2.04-.78,3.48-1.88,4.79-8.27,9.9-16.21,20.16-26.04,28.58-9.6,8.23-16.07,19.4-26.2,27.08-1.57,1.19-2.8,2.84-4.33,4.11-.72.59-1.76,1.08-2.66,1.11-2.33.06-10.15-11.76-8.97-13.73,2.04-3.4,3.82-7.42,6.84-9.68,7.27-5.45,12.21-13.17,18.9-18.83,9.81-8.31,17.91-18.48,28.63-25.72,2.95-1.99,11.6-2.04,14.25.11.71.57,1.07,1.58,1.46,2.19Z"/>
  <path class="cls-1" d="M1812.87,2004.04c-1.89-7.51,3.38-12.61,10.2-17.05,12.85-8.35,22.7-20.14,33.97-30.3,4.26-3.84,8.49-5.96,14.13-5.92,4.74.04,7.3,2.89,9.06,6.59,1.91,4.01-2.25,4.85-4.1,6.84-8.34,9-16.61,18.34-27.12,24.67-9.54,5.74-17.01,13.52-25,20.88-.49.45-.97.92-1.52,1.28-2.45,1.59-4.86,4.24-8.02,2.65-3.54-1.77-1.66-5.23-1.6-9.66Z"/>
  <path class="cls-1" d="M2146.81,1597.49c-.62,4.27-1.12,7.86-2.88,11.2-4.32,8.17-9.01,16.31-12.96,24.46-5.63,11.62-11.36,21.78-22.39,29.14-4.78,3.18-7.18,9.34-5.25,16.1.75,2.64.67,6.97-3.31,6.78-3.46-.17-3.8-4.03-3.39-7.19,1.33-10.44,4.05-20.48,7.76-30.35,2.69-7.16,9.45-10.94,12.95-17.48,2.21-4.13,4.55-8.05,5.48-12.64,1.68-8.26,6.2-15.39,9.12-23.15,1.68-4.46,5.75-5.29,10.02-4.01,3.72,1.12,4.99,4.08,4.86,7.13Z"/>
  <path class="cls-1" d="M1233.56,2242.8c-.62.59-1.15,1.46-1.55,1.4-11.22-1.62-22.43,1.54-33.62.13-3.8-.48-7.23-.45-10.49,1.78-3.41,2.33-7.42,3.38-11.37,3.27-10.25-.28-20.45-1.35-30.77-.47-4.81.41-5.61-1.79-3.56-6.43,2.76-6.25,6.83-9.65,14.36-10.2,12.94-.95,25.91,1.38,38.79-1.02,5.22-.97,10.6-1.06,15.81-2.04,8.62-1.63,15.88-.83,19.67,8.55.7,1.74,2.71,2.89,2.71,5.02Z"/>
  <path class="cls-1" d="M2249.68,1060.93c2.76,12.41,5.22,22.91,3.02,33.88-1.79,8.94-1.1,17.8-.21,26.82,1.96,19.92,2.22,39.87-1.86,59.65-.84,4.06-1.74,8-7.11,8.04-5.3.04-9.15-3.4-9.96-9.11-.28-1.97-.29-3.99-.29-5.98,0-4.27,1.48-7.43,6.46-6.49,4.89.93,6.93-1.5,7.37-5.73.59-5.61,1.36-11.29,1.08-16.89-.28-5.56-1.27-10.94-5.81-15.42-6.68-6.6-6.69-9.8-2.01-18.62,2.52-4.76,6.19-10.11,4.56-14.95-2.96-8.8-1.26-16.37,2.01-24.32,1.09-2.65-.06-5.97,2.74-10.87Z"/>
  <path class="cls-1" d="M2185.44,746.04c-5.62-1.36-9.78-2.18-14.02-.64-4.09,1.49-6.37-1.05-7.53-4.48-2.99-8.84-5.85-17.46.13-26.64,3.81-5.85,3-6.14-3.69-8.62-7.82-2.9-13.68-7.94-15.85-16.4-1.33-5.17,0-6.66,5.5-5.97,4.79.6,9.33,1.66,10.07,7.7.25,2.02,1.03,4.02,2.62,5.27,11.94,9.33,13.57,23.95,18.85,36.67,1.51,3.63,2.28,7.56,3.91,13.11Z"/>
  <path class="cls-1" d="M2197.48,785.83c3.3,1.63,4.58,4.64,5.43,7.94,3.4,13.18,6.84,26.34,10.14,39.54.55,2.21,1.26,6.14-.24,6.56-6.32,1.76-3.72,9.77-9.11,11.88-2.21.86-4.04.7-5.13-1.3-.93-1.7-1.32-3.72-1.82-5.63-2.6-9.95-3.47-20.33-7.43-29.94-1.55-3.76-.31-7.15,1.52-10.45,3.25-5.85,5.7-12.01,6.73-18.67l-.08.07Z"/>
  <path class="cls-1" d="M1639.29,125c-.31,1.53-1.6,2-2.77,2.59-2.02,1.02-4.74,1.43-4.75,4.41-.01,3.52,2.49,5.27,5.37,6.46,3.37,1.4,6.85,2.55,10.18,4.04.64.29,1.21,1.66,1.13,2.46-.16,1.55-1.59,2.16-2.94,1.99-1.25-.16-2.68-.58-3.59-1.39-9.72-8.58-22.74-10.62-33.6-17.08-8.87-5.28-19.18-16.39-21.98-27.29,10.19.09,44.8,15.65,52.97,23.8Z"/>
  <path class="cls-1" d="M2226.54,890.89c-.67,5.92-.09,10.72-3.01,14.79-1.42,1.99-3.09,3.62-5.75,3.12-2.37-.44-3.08-2.27-2.96-4.47.16-2.84-1.3-4.91-2.78-7.21-7.17-11.14-8.85-23.33-6.09-36.19.65-3.04,2.04-5.68,4.95-7.1,2.97-1.45,5.82-1.47,7.84,1.69.89,1.39,1.98,2.82,2.31,4.37,2.26,10.7,4.91,21.34,5.49,31Z"/>
  <path class="cls-1" d="M475.16,2038.68c-8.09-.23-13.77-4.67-17.27-11.32-3.19-6.07-7.81-9.8-14-11.84-9.33-3.08-16.04-10.47-24.65-14.74-1.96-.97-3.87-3.03-2.74-5.72.95-2.26,3.37-1.47,5.22-1.89,12.65-2.85,21.95,3.8,29.47,12.11,5.22,5.76,11.15,10.25,17.19,14.74,7.79,5.8,8.96,8.23,6.78,18.65Z"/>
  <path class="cls-1" d="M222.92,479.85c-.18,4.26-2.52,6.21-4.89,8.03-4.35,3.33-6.45,7.43-7.89,12.98-3.03,11.7-11.55,20.55-18.73,29.98-1.42,1.87-3.12,1.82-5.24.85-8.45-3.89-10.62-10.63-3.44-16.49,9.03-7.37,13.54-18.96,24.24-24.49,2.29-1.18,2.6-3.71,3.11-5.97,1.01-4.48,4.3-6.5,8.34-7.57,2.92-.77,4.34.67,4.5,2.68Z"/>
  <path class="cls-1" d="M2154.37,665.73c.31,3.2-.65,4.79-2.76,5.6-.92.35-1.93.45-2.89.69-11.29,2.82-11.22,2.8-15.62-7.85-2.63-6.37-5.41-12.57-7.23-19.36-1.89-7.03,2.22-10.5,5.22-14.95,1.05-1.56,3.41-1.6,4.16.12,5.06,11.56,13.17,21.39,18.44,32.81.54,1.17.6,2.57.69,2.95Z"/>
  <path class="cls-1" d="M2147.13,1559.89c-.09-3.09.71-6.02,2.32-8.55,6.44-10.13,12.1-20.53,14.6-32.47.65-3.08,2.09-6.45,6.47-6.45,6.87,0,10.98,6.33,6.25,11.42-6.95,7.48-7.61,16.65-9.88,25.44-1.58,6.08-4.98,10.74-8.98,15.24-2.18,2.45-4.65,3.88-7.86,2.27-2.82-1.41-2.88-4.2-2.93-6.9Z"/>
  <path class="cls-1" d="M2101.04,574.02c1.78-.06,3.61.44,4.1,2.14,1.27,4.41,4.14,7.38,7.7,9.97,1.72,1.25,2.48,3.03,1.7,5.24-.41,1.14-1.23,3.16.61,3.06,8.7-.48,7.41,6.96,9.4,11.63,1.1,2.59-4.51,16.48-6.71,17.81-1.36.82-2.7.34-3.44-.81-1.97-3.06-4.25-6.06-5.46-9.43-2.15-5.95-4.19-11.81-8.94-16.33-1.53-1.46-2.07-3.74-.68-5.46,3.39-4.19,1.52-6.64-1.77-9.92-2.97-2.96-.56-7.59,3.49-7.91Z"/>
  <path class="cls-1" d="M2197.57,785.76c-2.85-1.36-5.95-2.04-8.58-.13-5.79,4.19-8.07,1.12-9.9-4.08-.76-2.16-2.48-3.97-3.28-6.12-1.51-4.05-2.62-8.24-2.5-12.65.16-5.91,6.09-5.33,9.05-8.09,1.2-1.12,2.2-2.54,4.84-2.87,8.05,9.71,9.76,21.67,10.29,34.02,0,0,.08-.07.08-.07Z"/>
  <path class="cls-1" d="M522.45,2064.21c-.03.38,0,1.72-.24,3.01-.85,4.57-3.53,6.02-6.83,3.14-6.99-6.1-15.53-9.89-22.66-15.74-1.75-1.44-4.4-2.31-3.68-5.21.9-3.6,3.93-2.66,6.51-2.64,2.3.01,4.62-.02,6.9-.28,12.56-1.47,19.79,4.58,19.99,17.73Z"/>
  <path class="cls-1" d="M2244.07,1011.42c-1.47-8.74-2.92-17.49-4.44-26.23-.51-2.94-.89-5.95-1.87-8.74-2.5-7.09-5.06-14.35-16.32-11.77,3.9-7.8,8.37-13.46,11.18-20.07,1.31-3.08,4.03-1.7,4.89,1.07,1.07,3.45,2.39,7.1,2.25,10.61-.38,9.46,1.94,18.46,4.04,27.47,2.14,9.2,2.41,18.3.27,27.66Z"/>
  <path class="cls-1" d="M29.65,1369.82c-.13-3.3-.17-5.53,2.65-5.52,2.15,0,4.49,1.59,4.09,3.52-2.49,11.83,2.69,21.09,9,30.28,1.88,2.73-.41,4.97-3.11,6.14-2.15.93-4.37.4-4.73-1.94-1.77-11.46-6.94-22.1-7.9-32.48Z"/>
  <path class="cls-1" d="M420.68,1980.13c-11.78,5.88-21.27,1.28-21.58-10.18-.05-2.03.21-4.12,2.34-5.04,1.7-.74,3.39.04,4.43,1.36,4.21,5.33,12.51,6.41,14.8,13.86Z"/>
  <path class="cls-1" d="M1799.93,2024.48c-.03,2.96-1,5.37-3.57,6.71-2.54,1.33-4.33-.44-6.1-1.94-1-.85-2.04-1.67-3-2.56-2.3-2.14-6.34-3.8-4.35-7.76,1.8-3.6,5.44-5.63,9.5-6.39,2.21-.41,3.87.68,4.78,2.65,1.39,2.99,2.5,6.08,2.73,9.29Z"/>
  <path class="cls-1" d="M1877.86,1942.42c1.11-3.84,4.36-4.57,6.6-6.39,2.24-1.83,4.24-4.6,7.74-3.1,2.18.93,5.28,8.85,4.53,11.61-.91,3.34-2.98,5.3-6.63,3.71-4.15-1.81-8.18-3.88-12.23-5.82Z"/>
  <path class="cls-1" d="M1136.73,2232.52c2.58-.16,3.89.15,4.44,1.57.75,1.93-.37,3.43-1.96,4-4.64,1.67-9.79,1.21-14.35,3.62-1.74.92-2.88-1.08-3.25-2.82-.46-2.19.06-4.51,2.5-4.5,4.74.01,9.18-1.52,12.63-1.87Z"/>
  <path class="cls-1" d="M1250.5,2231.43c-.8,4.01-3.63,6.41-7.1,7.51-3.7,1.18-4.18-2.23-4.74-4.75-.73-3.26.83-5.14,4.09-5.31,2.81-.14,6.04-1.09,7.76,2.55Z"/>
  <path class="cls-1" d="M21.73,1016.14c-3.74-5.68-4.12-11.11-3.61-16.69.12-1.35.83-2.58,2.35-2.73,1.64-.17,2.21,1.13,2.48,2.43,1.14,5.46,3.73,11.05-1.21,17Z"/>
  <path class="cls-1" d="M2087.79,1703.77c-4.16.91-6.59-1.55-9.14-3.28-3.14-2.13-2.34-5.1-.75-7.76,1.25-2.1,3.47-2.42,4.67-.32,2.01,3.51,4.58,6.9,5.22,11.36Z"/>
  <path class="cls-1" d="M2189.13,1454.91c-.27-7.52,7.76-10.68,7.4-17.65,4.14,7.09,1.62,12.64-7.4,17.65Z"/>
</svg>