<svg width="321" height="395" viewBox="0 0 321 395" fill="none" xmlns="http://www.w3.org/2000/svg">
<path d="M190.776 391.373C182.025 391.373 177.274 387.164 177.274 379.618V242.994H143.52V379.618C143.52 387.672 139.186 391.373 130.018 391.373H17.7519C8.50062 391.373 4.25 387.6 4.25 379.618V68.3492C4.25 36.2065 29.7536 3.62842 78.5938 3.62842H242.034C285.123 3.62842 316.377 30.8373 316.377 68.3492V379.618C316.377 385.496 312.21 391.373 302.876 391.373H190.86H190.776ZM177.274 219.485V102.741C177.274 100.419 176.191 96.4287 172.107 96.4287H151.021C146.27 96.4287 143.52 98.8957 143.52 102.959V219.485H177.274Z" fill="white"/>
<path d="M241.951 7.25569C284.04 7.25569 312.128 33.9567 312.128 68.3487V379.618C312.128 383.681 309.46 387.744 302.793 387.744H190.777C183.776 387.744 181.442 384.697 181.442 379.618V239.365H139.353V379.618C139.353 386.003 136.436 387.744 130.018 387.744H17.7526C10.7516 387.744 8.41787 385.422 8.41787 379.618V68.3487C8.41787 35.7706 35.005 7.25569 78.5944 7.25569H242.034M139.27 223.113H181.359V102.741C181.359 97.6616 178.109 92.8003 172.024 92.8003H150.938C143.937 92.8003 139.27 96.8636 139.27 102.958V223.113ZM241.951 0H78.5111C39.5056 0 0 23.5085 0 68.3487V379.618C0 389.558 6.25091 395 17.6692 395H129.935C141.353 395 147.604 389.558 147.604 379.618V246.621H173.024V379.618C173.024 389.268 179.609 395 190.694 395H302.709C313.128 395 320.379 388.687 320.379 379.618V68.3487C320.379 28.7326 287.374 0 241.868 0H241.951ZM147.604 215.857V102.958C147.604 100.854 148.521 100.056 150.938 100.056H172.024C172.024 100.056 173.024 101.144 173.024 102.741V215.857H147.604Z" fill="white"/>
</svg>
