<svg width="132" height="163" viewBox="0 0 132 163" fill="none" xmlns="http://www.w3.org/2000/svg">
<path d="M78.5868 161.219C74.9818 161.219 73.0249 159.485 73.0249 156.377V100.097H59.1202V156.377C59.1202 159.695 57.3349 161.219 53.5583 161.219H7.31245C3.50154 161.219 1.75058 159.665 1.75058 156.377V28.1552C1.75058 14.9146 12.2563 1.49463 32.3752 1.49463H99.7013C117.451 1.49463 130.326 12.7028 130.326 28.1552V156.377C130.326 158.798 128.609 161.219 124.764 161.219H78.5868ZM73.0249 90.413V42.3223C73.0249 41.3659 72.5786 39.722 70.8963 39.722H62.2102C60.2532 39.722 59.1202 40.7383 59.1202 42.412V90.413H73.0249Z" fill="white"/>
<path d="M99.6673 2.98885C117.005 2.98885 128.575 13.9878 128.575 28.155V156.377C128.575 158.051 127.477 159.724 124.73 159.724H78.5871C75.7032 159.724 74.7419 158.469 74.7419 156.377V98.6022H57.404V156.377C57.404 159.007 56.2023 159.724 53.5587 159.724H7.31284C4.42891 159.724 3.46759 158.768 3.46759 156.377V28.155C3.46759 14.7351 14.4197 2.98885 32.3756 2.98885H99.7017M57.3696 91.9072H74.7076V42.3221C74.7076 40.2299 73.3686 38.2274 70.8623 38.2274H62.1762C59.2923 38.2274 57.3696 39.9012 57.3696 42.4118V91.9072ZM99.6673 0H32.3413C16.2736 0 0 9.6839 0 28.155V156.377C0 160.471 2.57495 162.713 7.2785 162.713H53.5244C58.228 162.713 60.8029 160.471 60.8029 156.377V101.591H71.2743V156.377C71.2743 160.352 73.9866 162.713 78.5528 162.713H124.696C128.987 162.713 131.974 160.113 131.974 156.377V28.155C131.974 11.8359 118.379 0 99.633 0H99.6673ZM60.8029 88.9184V42.4118C60.8029 41.5451 61.1806 41.2163 62.1762 41.2163H70.8623C70.8623 41.2163 71.2743 41.6646 71.2743 42.3221V88.9184H60.8029Z" fill="white"/>
</svg>
