<svg width="1781" height="358" viewBox="0 0 1781 358" fill="none" xmlns="http://www.w3.org/2000/svg">
<mask id="path-1-outside-1_774_21019" maskUnits="userSpaceOnUse" x="0" y="0" width="1781" height="358" fill="black">
<rect fill="white" width="1781" height="358"/>
<path d="M271.232 33.7917L338.525 28.6667C334.643 38.9167 329.035 51.4444 321.702 66.25C314.369 80.4861 306.388 96.1458 297.761 113.229C289.134 129.743 280.291 147.111 271.232 165.333C262.605 182.986 254.624 200.354 247.291 217.437C239.958 233.951 233.919 249.611 229.174 264.417C224.86 278.653 222.703 290.896 222.703 301.146C222.703 315.382 228.095 322.5 238.88 322.5C249.232 322.5 263.252 314.528 280.938 298.583C298.624 282.639 317.173 261.569 336.584 235.375C344.78 224.556 352.976 212.882 361.172 200.354C369.799 187.826 377.995 175.583 385.76 163.625C393.525 151.097 400.642 139.708 407.113 129.458C413.583 118.639 418.76 109.812 422.642 102.979L427.171 106.396C415.956 126.326 403.015 148.535 388.348 173.021C373.682 196.938 355.996 222.562 335.29 249.896C314.584 277.229 294.095 299.722 273.82 317.375C253.977 334.458 234.134 343 214.292 343C200.488 343 189.704 338.444 181.939 329.333C174.606 319.653 170.939 307.979 170.939 294.312C170.939 289.757 171.155 285.486 171.586 281.5C172.018 277.514 172.665 274.382 173.527 272.104H172.233C158.861 292.035 143.763 308.833 126.94 322.5C110.116 336.167 91.999 343 72.5875 343C62.2347 343 53.3917 340.437 46.0584 335.312C38.7252 330.187 32.6861 323.354 27.941 314.812C23.6273 305.701 20.3921 295.736 18.2353 284.917C16.0784 273.528 15 261.854 15 249.896C15 221.993 20.8235 194.09 32.4704 166.188C44.1173 138.285 58.7838 113.229 76.4698 91.0208C94.1559 68.2431 113.783 50.0208 135.351 36.3542C157.351 22.1181 178.272 15 198.115 15C213.213 15 225.076 19.2708 233.703 27.8125C242.33 36.3542 249.448 49.7361 255.056 67.9583L271.232 33.7917ZM77.1169 252.458C77.1169 268.972 79.058 283.493 82.9403 296.021C87.254 307.979 96.097 313.958 109.469 313.958C118.528 313.389 128.018 308.549 137.94 299.438C147.861 289.757 157.351 277.799 166.41 263.562C175.9 249.326 184.743 233.667 192.939 216.583C201.566 198.931 208.9 181.278 214.939 163.625C221.409 145.972 226.37 129.458 229.821 114.083C233.703 98.1389 235.644 84.757 235.644 73.9375C235.644 58.5625 233.487 46.6042 229.174 38.0625C224.86 29.5208 216.448 25.25 203.939 25.25C194.017 25.25 183.88 29.2361 173.527 37.2084C163.606 45.1806 153.9 55.7153 144.41 68.8125C135.351 81.9097 126.508 96.7153 117.881 113.229C109.685 129.174 102.568 145.688 96.5284 162.771C90.4893 179.854 85.7442 196.368 82.2933 212.312C78.8423 227.687 77.1169 241.069 77.1169 252.458Z"/>
<path d="M593.175 170.458C601.371 156.792 611.077 141.132 622.292 123.479C633.508 105.257 645.586 88.1736 658.527 72.2292C671.9 56.2847 685.703 42.9028 699.939 32.0833C714.605 20.6944 729.056 15 743.291 15C757.095 15 768.094 20.6944 776.29 32.0833C784.918 43.4722 789.232 56.5695 789.232 71.375C789.232 90.7361 784.486 110.667 774.996 131.167C765.506 151.097 754.938 171.028 743.291 190.958C731.644 210.889 721.076 230.25 711.585 249.042C702.095 267.833 697.35 284.917 697.35 300.292C697.35 306.556 698.429 311.965 700.586 316.521C702.742 320.507 706.193 322.5 710.938 322.5C728.624 322.5 757.526 296.021 797.643 243.062C814.035 221.424 829.996 198.646 845.525 174.729C861.485 150.243 875.289 128.035 886.936 108.104L892.113 111.521C886.936 120.063 880.897 129.743 873.995 140.562C867.525 151.382 860.407 163.056 852.642 175.583C844.878 187.542 836.466 200.069 827.407 213.167C818.78 226.264 809.937 238.792 800.878 250.75C788.8 266.694 777.8 280.361 767.879 291.75C757.957 302.569 748.683 311.396 740.056 318.229C731.86 325.062 723.879 329.903 716.115 332.75C708.782 336.167 701.233 337.875 693.468 337.875C678.37 337.875 666.508 332.465 657.88 321.646C649.684 310.257 645.586 296.021 645.586 278.937C645.586 260.715 650.331 241.069 659.821 220C669.311 198.931 679.88 178.431 691.527 158.5C703.174 138.569 713.742 120.063 723.232 102.979C732.722 85.3264 737.467 71.0903 737.467 60.2708C737.467 52.2986 735.742 46.3194 732.291 42.3333C728.84 37.7778 724.742 35.5 719.997 35.5C710.938 35.5 700.37 41.1945 688.292 52.5834C676.645 63.4028 664.351 77.6389 651.41 95.2917C638.469 112.944 625.528 132.59 612.587 154.229C600.077 175.868 587.999 197.507 576.352 219.146C565.136 240.785 554.999 261 545.94 279.792C537.313 298.583 530.411 313.958 525.235 325.917L456.647 329.333C471.314 298.583 485.549 269.542 499.353 242.208C513.588 214.306 526.098 188.965 536.882 166.188C548.097 142.84 556.94 122.34 563.411 104.688C570.313 87.0347 573.764 73.0834 573.764 62.8333C573.764 56 572.254 49.7361 569.234 44.0417C566.215 38.3472 561.47 35.5 554.999 35.5C545.94 35.5 535.372 41.1945 523.294 52.5834C511.647 63.4028 499.353 77.6389 486.412 95.2917C473.471 112.944 460.314 132.59 446.942 154.229C434.001 175.868 421.707 197.507 410.06 219.146C398.413 240.785 388.06 261 379.001 279.792C369.943 298.583 362.825 313.958 357.649 325.917L292.297 329.333C316.022 279.222 339.531 229.396 362.825 179.854C386.119 129.743 408.981 78.7778 431.412 26.9584L507.117 21.8333L421.06 177.292L422.354 179C431.412 165.333 441.55 149.104 452.765 130.312C464.412 111.521 476.922 93.5833 490.294 76.5C503.666 59.4167 517.902 44.8959 532.999 32.9375C548.529 20.9792 564.921 15 582.175 15C594.254 15 604.391 19.2708 612.587 27.8125C621.214 36.3542 625.528 49.1667 625.528 66.25C625.528 74.2222 624.449 82.7639 622.292 91.875C620.136 100.986 617.332 110.097 613.881 119.208C610.861 127.75 607.195 136.576 602.881 145.688C598.999 154.229 595.332 161.917 591.881 168.75L593.175 170.458Z"/>
<path d="M1205.08 108.104C1196.45 122.91 1186.1 136.292 1174.02 148.25C1162.37 160.208 1149.43 166.188 1135.2 166.188C1125.27 166.188 1116.65 163.34 1109.31 157.646C1101.98 151.951 1095.29 143.979 1089.26 133.729C1084.08 162.201 1075.45 189.25 1063.37 214.875C1051.73 239.931 1037.49 262.139 1020.67 281.5C1003.85 300.292 985.081 315.382 964.375 326.771C943.669 337.59 922.101 343 899.67 343C875.945 343 856.965 334.174 842.729 316.521C828.494 298.299 821.377 273.528 821.377 242.208C821.377 212.028 827.2 183.271 838.847 155.938C850.494 128.035 865.592 103.833 884.141 83.3333C902.689 62.2639 923.179 45.75 945.61 33.7917C968.042 21.2639 990.041 15 1011.61 15C1034.9 15 1053.24 23.2569 1066.61 39.7708C1079.98 56.2847 1088.18 76.2153 1091.2 99.5625C1093.35 116.646 1098.1 130.312 1105.43 140.562C1113.2 150.812 1123.12 155.938 1135.2 155.938C1146.84 155.938 1157.84 151.382 1168.2 142.271C1178.55 133.16 1189.55 119.493 1201.2 101.271L1205.08 108.104ZM904.199 332.75C914.983 332.75 925.768 327.91 936.552 318.229C947.336 308.549 957.689 296.021 967.61 280.646C977.532 265.271 986.59 247.903 994.786 228.542C1003.41 209.181 1010.75 189.819 1016.79 170.458C1023.26 151.097 1028.22 132.59 1031.67 114.937C1035.12 97.2847 1036.84 82.4792 1036.84 70.5209C1036.84 56.2847 1034.47 45.1806 1029.73 37.2084C1025.41 29.2361 1018.3 25.25 1008.37 25.25C997.59 25.25 986.806 30.0903 976.022 39.7708C965.238 49.4514 954.885 61.9792 944.963 77.3542C935.042 92.7292 925.768 110.097 917.14 129.458C908.944 148.819 901.611 168.181 895.141 187.542C889.101 206.903 884.356 225.41 880.905 243.062C877.454 260.715 875.729 275.521 875.729 287.479C875.729 301.715 877.886 312.819 882.2 320.792C886.945 328.764 894.278 332.75 904.199 332.75Z"/>
<path d="M1434.42 25.25C1417.6 62.2639 1401.85 95.2917 1387.19 124.333C1372.95 153.375 1360.66 179.285 1350.31 202.062C1339.95 224.271 1331.76 243.632 1325.72 260.146C1320.11 276.66 1317.31 291.181 1317.31 303.708C1317.31 316.236 1321.4 322.5 1329.6 322.5C1334.78 322.5 1341.03 320.222 1348.36 315.667C1355.7 310.542 1363.46 304.278 1371.66 296.875C1379.85 288.903 1388.27 279.792 1396.89 269.542C1405.52 259.292 1413.72 249.042 1421.48 238.792C1430.97 225.694 1440.25 212.597 1449.3 199.5C1458.79 185.833 1467.42 172.736 1475.19 160.208C1483.38 147.681 1490.72 136.292 1497.19 126.042C1503.66 115.222 1509.05 106.111 1513.36 98.7083L1518.54 103.833C1508.19 122.056 1495.03 143.979 1479.07 169.604C1463.11 194.66 1446.07 219.431 1427.95 243.917C1405.95 273.528 1385.68 296.59 1367.13 313.104C1348.58 329.618 1330.25 337.875 1312.13 337.875C1299.19 337.875 1288.84 332.75 1281.07 322.5C1273.31 312.25 1269.42 299.438 1269.42 284.062C1269.42 273.243 1270.07 263.562 1271.37 255.021C1273.09 246.479 1275.03 239.931 1277.19 235.375L1275.89 233.667C1268.13 244.486 1259.72 256.16 1250.66 268.688C1241.6 280.646 1231.9 291.75 1221.54 302C1211.19 312.25 1199.97 320.792 1187.9 327.625C1176.25 334.458 1163.52 337.875 1149.72 337.875C1136.35 337.875 1126.21 332.465 1119.31 321.646C1112.41 310.257 1108.96 297.16 1108.96 282.354C1108.96 260.715 1117.8 229.396 1135.48 188.396C1153.17 147.396 1177.11 94.1528 1207.31 28.6667L1275.89 25.25C1241.82 94.1528 1213.99 150.812 1192.42 195.229C1171.29 239.076 1160.72 271.819 1160.72 293.458C1160.72 300.292 1162.01 305.986 1164.6 310.542C1167.62 315.097 1171.5 317.375 1176.25 317.375C1184.44 317.375 1194.15 312.819 1205.37 303.708C1217.01 294.597 1229.09 282.354 1241.6 266.979C1254.11 251.604 1266.4 233.951 1278.48 214.021C1290.99 194.09 1302.21 173.306 1312.13 151.667L1367.78 32.0833L1434.42 25.25Z"/>
<path d="M1388.77 329.333C1410.77 279.222 1432.98 229.396 1455.42 179.854C1478.28 130.312 1500.92 79.9167 1523.36 28.6667L1597.12 25.25L1511.71 184.125L1513 185.833C1529.4 159.069 1543.85 137.715 1556.36 121.771C1569.3 105.257 1580.51 91.875 1590 81.625C1599.49 71.375 1607.47 63.6875 1613.94 58.5625C1620.41 52.8681 1625.16 48.0278 1628.18 44.0417C1632.92 37.7778 1637.24 32.9375 1641.12 29.5208C1645.43 25.5347 1650.39 22.6875 1656 20.9792C1661.61 18.7014 1668.3 17.2778 1676.06 16.7083C1684.26 16.1389 1694.39 15.5695 1706.47 15C1698.28 30.375 1690.73 46.6042 1683.82 63.6875C1676.92 80.2014 1673.47 98.1389 1673.47 117.5C1673.47 141.986 1682.75 154.229 1701.29 154.229C1707.33 154.229 1713.16 152.521 1718.77 149.104C1724.8 145.688 1730.41 141.417 1735.59 136.292C1740.76 131.167 1745.73 125.757 1750.47 120.063C1755.22 113.799 1759.53 108.104 1763.41 102.979L1766 107.25C1753.92 127.181 1739.69 143.41 1723.29 155.938C1706.9 168.465 1689 174.729 1669.59 174.729C1652.33 174.729 1638.75 168.75 1628.83 156.792C1618.9 144.833 1613.94 127.181 1613.94 103.833C1613.94 89.0278 1617.18 75.0764 1623.65 61.9792L1622.35 60.2708C1604.24 76.2153 1586.98 94.7222 1570.59 115.792C1554.2 136.861 1538.89 159.069 1524.65 182.417C1510.85 205.764 1497.91 229.965 1485.83 255.021C1474.18 279.507 1463.61 303.424 1454.12 326.771L1388.77 329.333Z"/>
</mask>
<path d="M271.232 33.7917L338.525 28.6667C334.643 38.9167 329.035 51.4444 321.702 66.25C314.369 80.4861 306.388 96.1458 297.761 113.229C289.134 129.743 280.291 147.111 271.232 165.333C262.605 182.986 254.624 200.354 247.291 217.437C239.958 233.951 233.919 249.611 229.174 264.417C224.86 278.653 222.703 290.896 222.703 301.146C222.703 315.382 228.095 322.5 238.88 322.5C249.232 322.5 263.252 314.528 280.938 298.583C298.624 282.639 317.173 261.569 336.584 235.375C344.78 224.556 352.976 212.882 361.172 200.354C369.799 187.826 377.995 175.583 385.76 163.625C393.525 151.097 400.642 139.708 407.113 129.458C413.583 118.639 418.76 109.812 422.642 102.979L427.171 106.396C415.956 126.326 403.015 148.535 388.348 173.021C373.682 196.938 355.996 222.562 335.29 249.896C314.584 277.229 294.095 299.722 273.82 317.375C253.977 334.458 234.134 343 214.292 343C200.488 343 189.704 338.444 181.939 329.333C174.606 319.653 170.939 307.979 170.939 294.312C170.939 289.757 171.155 285.486 171.586 281.5C172.018 277.514 172.665 274.382 173.527 272.104H172.233C158.861 292.035 143.763 308.833 126.94 322.5C110.116 336.167 91.999 343 72.5875 343C62.2347 343 53.3917 340.437 46.0584 335.312C38.7252 330.187 32.6861 323.354 27.941 314.812C23.6273 305.701 20.3921 295.736 18.2353 284.917C16.0784 273.528 15 261.854 15 249.896C15 221.993 20.8235 194.09 32.4704 166.188C44.1173 138.285 58.7838 113.229 76.4698 91.0208C94.1559 68.2431 113.783 50.0208 135.351 36.3542C157.351 22.1181 178.272 15 198.115 15C213.213 15 225.076 19.2708 233.703 27.8125C242.33 36.3542 249.448 49.7361 255.056 67.9583L271.232 33.7917ZM77.1169 252.458C77.1169 268.972 79.058 283.493 82.9403 296.021C87.254 307.979 96.097 313.958 109.469 313.958C118.528 313.389 128.018 308.549 137.94 299.438C147.861 289.757 157.351 277.799 166.41 263.562C175.9 249.326 184.743 233.667 192.939 216.583C201.566 198.931 208.9 181.278 214.939 163.625C221.409 145.972 226.37 129.458 229.821 114.083C233.703 98.1389 235.644 84.757 235.644 73.9375C235.644 58.5625 233.487 46.6042 229.174 38.0625C224.86 29.5208 216.448 25.25 203.939 25.25C194.017 25.25 183.88 29.2361 173.527 37.2084C163.606 45.1806 153.9 55.7153 144.41 68.8125C135.351 81.9097 126.508 96.7153 117.881 113.229C109.685 129.174 102.568 145.688 96.5284 162.771C90.4893 179.854 85.7442 196.368 82.2933 212.312C78.8423 227.687 77.1169 241.069 77.1169 252.458Z" fill="black"/>
<path d="M593.175 170.458C601.371 156.792 611.077 141.132 622.292 123.479C633.508 105.257 645.586 88.1736 658.527 72.2292C671.9 56.2847 685.703 42.9028 699.939 32.0833C714.605 20.6944 729.056 15 743.291 15C757.095 15 768.094 20.6944 776.29 32.0833C784.918 43.4722 789.232 56.5695 789.232 71.375C789.232 90.7361 784.486 110.667 774.996 131.167C765.506 151.097 754.938 171.028 743.291 190.958C731.644 210.889 721.076 230.25 711.585 249.042C702.095 267.833 697.35 284.917 697.35 300.292C697.35 306.556 698.429 311.965 700.586 316.521C702.742 320.507 706.193 322.5 710.938 322.5C728.624 322.5 757.526 296.021 797.643 243.062C814.035 221.424 829.996 198.646 845.525 174.729C861.485 150.243 875.289 128.035 886.936 108.104L892.113 111.521C886.936 120.063 880.897 129.743 873.995 140.562C867.525 151.382 860.407 163.056 852.642 175.583C844.878 187.542 836.466 200.069 827.407 213.167C818.78 226.264 809.937 238.792 800.878 250.75C788.8 266.694 777.8 280.361 767.879 291.75C757.957 302.569 748.683 311.396 740.056 318.229C731.86 325.062 723.879 329.903 716.115 332.75C708.782 336.167 701.233 337.875 693.468 337.875C678.37 337.875 666.508 332.465 657.88 321.646C649.684 310.257 645.586 296.021 645.586 278.937C645.586 260.715 650.331 241.069 659.821 220C669.311 198.931 679.88 178.431 691.527 158.5C703.174 138.569 713.742 120.063 723.232 102.979C732.722 85.3264 737.467 71.0903 737.467 60.2708C737.467 52.2986 735.742 46.3194 732.291 42.3333C728.84 37.7778 724.742 35.5 719.997 35.5C710.938 35.5 700.37 41.1945 688.292 52.5834C676.645 63.4028 664.351 77.6389 651.41 95.2917C638.469 112.944 625.528 132.59 612.587 154.229C600.077 175.868 587.999 197.507 576.352 219.146C565.136 240.785 554.999 261 545.94 279.792C537.313 298.583 530.411 313.958 525.235 325.917L456.647 329.333C471.314 298.583 485.549 269.542 499.353 242.208C513.588 214.306 526.098 188.965 536.882 166.188C548.097 142.84 556.94 122.34 563.411 104.688C570.313 87.0347 573.764 73.0834 573.764 62.8333C573.764 56 572.254 49.7361 569.234 44.0417C566.215 38.3472 561.47 35.5 554.999 35.5C545.94 35.5 535.372 41.1945 523.294 52.5834C511.647 63.4028 499.353 77.6389 486.412 95.2917C473.471 112.944 460.314 132.59 446.942 154.229C434.001 175.868 421.707 197.507 410.06 219.146C398.413 240.785 388.06 261 379.001 279.792C369.943 298.583 362.825 313.958 357.649 325.917L292.297 329.333C316.022 279.222 339.531 229.396 362.825 179.854C386.119 129.743 408.981 78.7778 431.412 26.9584L507.117 21.8333L421.06 177.292L422.354 179C431.412 165.333 441.55 149.104 452.765 130.312C464.412 111.521 476.922 93.5833 490.294 76.5C503.666 59.4167 517.902 44.8959 532.999 32.9375C548.529 20.9792 564.921 15 582.175 15C594.254 15 604.391 19.2708 612.587 27.8125C621.214 36.3542 625.528 49.1667 625.528 66.25C625.528 74.2222 624.449 82.7639 622.292 91.875C620.136 100.986 617.332 110.097 613.881 119.208C610.861 127.75 607.195 136.576 602.881 145.688C598.999 154.229 595.332 161.917 591.881 168.75L593.175 170.458Z" fill="black"/>
<path d="M1205.08 108.104C1196.45 122.91 1186.1 136.292 1174.02 148.25C1162.37 160.208 1149.43 166.188 1135.2 166.188C1125.27 166.188 1116.65 163.34 1109.31 157.646C1101.98 151.951 1095.29 143.979 1089.26 133.729C1084.08 162.201 1075.45 189.25 1063.37 214.875C1051.73 239.931 1037.49 262.139 1020.67 281.5C1003.85 300.292 985.081 315.382 964.375 326.771C943.669 337.59 922.101 343 899.67 343C875.945 343 856.965 334.174 842.729 316.521C828.494 298.299 821.377 273.528 821.377 242.208C821.377 212.028 827.2 183.271 838.847 155.938C850.494 128.035 865.592 103.833 884.141 83.3333C902.689 62.2639 923.179 45.75 945.61 33.7917C968.042 21.2639 990.041 15 1011.61 15C1034.9 15 1053.24 23.2569 1066.61 39.7708C1079.98 56.2847 1088.18 76.2153 1091.2 99.5625C1093.35 116.646 1098.1 130.312 1105.43 140.562C1113.2 150.812 1123.12 155.938 1135.2 155.938C1146.84 155.938 1157.84 151.382 1168.2 142.271C1178.55 133.16 1189.55 119.493 1201.2 101.271L1205.08 108.104ZM904.199 332.75C914.983 332.75 925.768 327.91 936.552 318.229C947.336 308.549 957.689 296.021 967.61 280.646C977.532 265.271 986.59 247.903 994.786 228.542C1003.41 209.181 1010.75 189.819 1016.79 170.458C1023.26 151.097 1028.22 132.59 1031.67 114.937C1035.12 97.2847 1036.84 82.4792 1036.84 70.5209C1036.84 56.2847 1034.47 45.1806 1029.73 37.2084C1025.41 29.2361 1018.3 25.25 1008.37 25.25C997.59 25.25 986.806 30.0903 976.022 39.7708C965.238 49.4514 954.885 61.9792 944.963 77.3542C935.042 92.7292 925.768 110.097 917.14 129.458C908.944 148.819 901.611 168.181 895.141 187.542C889.101 206.903 884.356 225.41 880.905 243.062C877.454 260.715 875.729 275.521 875.729 287.479C875.729 301.715 877.886 312.819 882.2 320.792C886.945 328.764 894.278 332.75 904.199 332.75Z" fill="black"/>
<path d="M1434.42 25.25C1417.6 62.2639 1401.85 95.2917 1387.19 124.333C1372.95 153.375 1360.66 179.285 1350.31 202.062C1339.95 224.271 1331.76 243.632 1325.72 260.146C1320.11 276.66 1317.31 291.181 1317.31 303.708C1317.31 316.236 1321.4 322.5 1329.6 322.5C1334.78 322.5 1341.03 320.222 1348.36 315.667C1355.7 310.542 1363.46 304.278 1371.66 296.875C1379.85 288.903 1388.27 279.792 1396.89 269.542C1405.52 259.292 1413.72 249.042 1421.48 238.792C1430.97 225.694 1440.25 212.597 1449.3 199.5C1458.79 185.833 1467.42 172.736 1475.19 160.208C1483.38 147.681 1490.72 136.292 1497.19 126.042C1503.66 115.222 1509.05 106.111 1513.36 98.7083L1518.54 103.833C1508.19 122.056 1495.03 143.979 1479.07 169.604C1463.11 194.66 1446.07 219.431 1427.95 243.917C1405.95 273.528 1385.68 296.59 1367.13 313.104C1348.58 329.618 1330.25 337.875 1312.13 337.875C1299.19 337.875 1288.84 332.75 1281.07 322.5C1273.31 312.25 1269.42 299.438 1269.42 284.062C1269.42 273.243 1270.07 263.562 1271.37 255.021C1273.09 246.479 1275.03 239.931 1277.19 235.375L1275.89 233.667C1268.13 244.486 1259.72 256.16 1250.66 268.688C1241.6 280.646 1231.9 291.75 1221.54 302C1211.19 312.25 1199.97 320.792 1187.9 327.625C1176.25 334.458 1163.52 337.875 1149.72 337.875C1136.35 337.875 1126.21 332.465 1119.31 321.646C1112.41 310.257 1108.96 297.16 1108.96 282.354C1108.96 260.715 1117.8 229.396 1135.48 188.396C1153.17 147.396 1177.11 94.1528 1207.31 28.6667L1275.89 25.25C1241.82 94.1528 1213.99 150.812 1192.42 195.229C1171.29 239.076 1160.72 271.819 1160.72 293.458C1160.72 300.292 1162.01 305.986 1164.6 310.542C1167.62 315.097 1171.5 317.375 1176.25 317.375C1184.44 317.375 1194.15 312.819 1205.37 303.708C1217.01 294.597 1229.09 282.354 1241.6 266.979C1254.11 251.604 1266.4 233.951 1278.48 214.021C1290.99 194.09 1302.21 173.306 1312.13 151.667L1367.78 32.0833L1434.42 25.25Z" fill="black"/>
<path d="M1388.77 329.333C1410.77 279.222 1432.98 229.396 1455.42 179.854C1478.28 130.312 1500.92 79.9167 1523.36 28.6667L1597.12 25.25L1511.71 184.125L1513 185.833C1529.4 159.069 1543.85 137.715 1556.36 121.771C1569.3 105.257 1580.51 91.875 1590 81.625C1599.49 71.375 1607.47 63.6875 1613.94 58.5625C1620.41 52.8681 1625.16 48.0278 1628.18 44.0417C1632.92 37.7778 1637.24 32.9375 1641.12 29.5208C1645.43 25.5347 1650.39 22.6875 1656 20.9792C1661.61 18.7014 1668.3 17.2778 1676.06 16.7083C1684.26 16.1389 1694.39 15.5695 1706.47 15C1698.28 30.375 1690.73 46.6042 1683.82 63.6875C1676.92 80.2014 1673.47 98.1389 1673.47 117.5C1673.47 141.986 1682.75 154.229 1701.29 154.229C1707.33 154.229 1713.16 152.521 1718.77 149.104C1724.8 145.688 1730.41 141.417 1735.59 136.292C1740.76 131.167 1745.73 125.757 1750.47 120.063C1755.22 113.799 1759.53 108.104 1763.41 102.979L1766 107.25C1753.92 127.181 1739.69 143.41 1723.29 155.938C1706.9 168.465 1689 174.729 1669.59 174.729C1652.33 174.729 1638.75 168.75 1628.83 156.792C1618.9 144.833 1613.94 127.181 1613.94 103.833C1613.94 89.0278 1617.18 75.0764 1623.65 61.9792L1622.35 60.2708C1604.24 76.2153 1586.98 94.7222 1570.59 115.792C1554.2 136.861 1538.89 159.069 1524.65 182.417C1510.85 205.764 1497.91 229.965 1485.83 255.021C1474.18 279.507 1463.61 303.424 1454.12 326.771L1388.77 329.333Z" fill="black"/>
<path d="M271.232 33.7917L338.525 28.6667C334.643 38.9167 329.035 51.4444 321.702 66.25C314.369 80.4861 306.388 96.1458 297.761 113.229C289.134 129.743 280.291 147.111 271.232 165.333C262.605 182.986 254.624 200.354 247.291 217.437C239.958 233.951 233.919 249.611 229.174 264.417C224.86 278.653 222.703 290.896 222.703 301.146C222.703 315.382 228.095 322.5 238.88 322.5C249.232 322.5 263.252 314.528 280.938 298.583C298.624 282.639 317.173 261.569 336.584 235.375C344.78 224.556 352.976 212.882 361.172 200.354C369.799 187.826 377.995 175.583 385.76 163.625C393.525 151.097 400.642 139.708 407.113 129.458C413.583 118.639 418.76 109.812 422.642 102.979L427.171 106.396C415.956 126.326 403.015 148.535 388.348 173.021C373.682 196.938 355.996 222.562 335.29 249.896C314.584 277.229 294.095 299.722 273.82 317.375C253.977 334.458 234.134 343 214.292 343C200.488 343 189.704 338.444 181.939 329.333C174.606 319.653 170.939 307.979 170.939 294.312C170.939 289.757 171.155 285.486 171.586 281.5C172.018 277.514 172.665 274.382 173.527 272.104H172.233C158.861 292.035 143.763 308.833 126.94 322.5C110.116 336.167 91.999 343 72.5875 343C62.2347 343 53.3917 340.437 46.0584 335.312C38.7252 330.187 32.6861 323.354 27.941 314.812C23.6273 305.701 20.3921 295.736 18.2353 284.917C16.0784 273.528 15 261.854 15 249.896C15 221.993 20.8235 194.09 32.4704 166.188C44.1173 138.285 58.7838 113.229 76.4698 91.0208C94.1559 68.2431 113.783 50.0208 135.351 36.3542C157.351 22.1181 178.272 15 198.115 15C213.213 15 225.076 19.2708 233.703 27.8125C242.33 36.3542 249.448 49.7361 255.056 67.9583L271.232 33.7917ZM77.1169 252.458C77.1169 268.972 79.058 283.493 82.9403 296.021C87.254 307.979 96.097 313.958 109.469 313.958C118.528 313.389 128.018 308.549 137.94 299.438C147.861 289.757 157.351 277.799 166.41 263.562C175.9 249.326 184.743 233.667 192.939 216.583C201.566 198.931 208.9 181.278 214.939 163.625C221.409 145.972 226.37 129.458 229.821 114.083C233.703 98.1389 235.644 84.757 235.644 73.9375C235.644 58.5625 233.487 46.6042 229.174 38.0625C224.86 29.5208 216.448 25.25 203.939 25.25C194.017 25.25 183.88 29.2361 173.527 37.2084C163.606 45.1806 153.9 55.7153 144.41 68.8125C135.351 81.9097 126.508 96.7153 117.881 113.229C109.685 129.174 102.568 145.688 96.5284 162.771C90.4893 179.854 85.7442 196.368 82.2933 212.312C78.8423 227.687 77.1169 241.069 77.1169 252.458Z" stroke="#FF70AB" stroke-width="30" stroke-linejoin="round" mask="url(#path-1-outside-1_774_21019)"/>
<path d="M593.175 170.458C601.371 156.792 611.077 141.132 622.292 123.479C633.508 105.257 645.586 88.1736 658.527 72.2292C671.9 56.2847 685.703 42.9028 699.939 32.0833C714.605 20.6944 729.056 15 743.291 15C757.095 15 768.094 20.6944 776.29 32.0833C784.918 43.4722 789.232 56.5695 789.232 71.375C789.232 90.7361 784.486 110.667 774.996 131.167C765.506 151.097 754.938 171.028 743.291 190.958C731.644 210.889 721.076 230.25 711.585 249.042C702.095 267.833 697.35 284.917 697.35 300.292C697.35 306.556 698.429 311.965 700.586 316.521C702.742 320.507 706.193 322.5 710.938 322.5C728.624 322.5 757.526 296.021 797.643 243.062C814.035 221.424 829.996 198.646 845.525 174.729C861.485 150.243 875.289 128.035 886.936 108.104L892.113 111.521C886.936 120.063 880.897 129.743 873.995 140.562C867.525 151.382 860.407 163.056 852.642 175.583C844.878 187.542 836.466 200.069 827.407 213.167C818.78 226.264 809.937 238.792 800.878 250.75C788.8 266.694 777.8 280.361 767.879 291.75C757.957 302.569 748.683 311.396 740.056 318.229C731.86 325.062 723.879 329.903 716.115 332.75C708.782 336.167 701.233 337.875 693.468 337.875C678.37 337.875 666.508 332.465 657.88 321.646C649.684 310.257 645.586 296.021 645.586 278.937C645.586 260.715 650.331 241.069 659.821 220C669.311 198.931 679.88 178.431 691.527 158.5C703.174 138.569 713.742 120.063 723.232 102.979C732.722 85.3264 737.467 71.0903 737.467 60.2708C737.467 52.2986 735.742 46.3194 732.291 42.3333C728.84 37.7778 724.742 35.5 719.997 35.5C710.938 35.5 700.37 41.1945 688.292 52.5834C676.645 63.4028 664.351 77.6389 651.41 95.2917C638.469 112.944 625.528 132.59 612.587 154.229C600.077 175.868 587.999 197.507 576.352 219.146C565.136 240.785 554.999 261 545.94 279.792C537.313 298.583 530.411 313.958 525.235 325.917L456.647 329.333C471.314 298.583 485.549 269.542 499.353 242.208C513.588 214.306 526.098 188.965 536.882 166.188C548.097 142.84 556.94 122.34 563.411 104.688C570.313 87.0347 573.764 73.0834 573.764 62.8333C573.764 56 572.254 49.7361 569.234 44.0417C566.215 38.3472 561.47 35.5 554.999 35.5C545.94 35.5 535.372 41.1945 523.294 52.5834C511.647 63.4028 499.353 77.6389 486.412 95.2917C473.471 112.944 460.314 132.59 446.942 154.229C434.001 175.868 421.707 197.507 410.06 219.146C398.413 240.785 388.06 261 379.001 279.792C369.943 298.583 362.825 313.958 357.649 325.917L292.297 329.333C316.022 279.222 339.531 229.396 362.825 179.854C386.119 129.743 408.981 78.7778 431.412 26.9584L507.117 21.8333L421.06 177.292L422.354 179C431.412 165.333 441.55 149.104 452.765 130.312C464.412 111.521 476.922 93.5833 490.294 76.5C503.666 59.4167 517.902 44.8959 532.999 32.9375C548.529 20.9792 564.921 15 582.175 15C594.254 15 604.391 19.2708 612.587 27.8125C621.214 36.3542 625.528 49.1667 625.528 66.25C625.528 74.2222 624.449 82.7639 622.292 91.875C620.136 100.986 617.332 110.097 613.881 119.208C610.861 127.75 607.195 136.576 602.881 145.688C598.999 154.229 595.332 161.917 591.881 168.75L593.175 170.458Z" stroke="#FF70AB" stroke-width="30" stroke-linejoin="round" mask="url(#path-1-outside-1_774_21019)"/>
<path d="M1205.08 108.104C1196.45 122.91 1186.1 136.292 1174.02 148.25C1162.37 160.208 1149.43 166.188 1135.2 166.188C1125.27 166.188 1116.65 163.34 1109.31 157.646C1101.98 151.951 1095.29 143.979 1089.26 133.729C1084.08 162.201 1075.45 189.25 1063.37 214.875C1051.73 239.931 1037.49 262.139 1020.67 281.5C1003.85 300.292 985.081 315.382 964.375 326.771C943.669 337.59 922.101 343 899.67 343C875.945 343 856.965 334.174 842.729 316.521C828.494 298.299 821.377 273.528 821.377 242.208C821.377 212.028 827.2 183.271 838.847 155.938C850.494 128.035 865.592 103.833 884.141 83.3333C902.689 62.2639 923.179 45.75 945.61 33.7917C968.042 21.2639 990.041 15 1011.61 15C1034.9 15 1053.24 23.2569 1066.61 39.7708C1079.98 56.2847 1088.18 76.2153 1091.2 99.5625C1093.35 116.646 1098.1 130.312 1105.43 140.562C1113.2 150.812 1123.12 155.938 1135.2 155.938C1146.84 155.938 1157.84 151.382 1168.2 142.271C1178.55 133.16 1189.55 119.493 1201.2 101.271L1205.08 108.104ZM904.199 332.75C914.983 332.75 925.768 327.91 936.552 318.229C947.336 308.549 957.689 296.021 967.61 280.646C977.532 265.271 986.59 247.903 994.786 228.542C1003.41 209.181 1010.75 189.819 1016.79 170.458C1023.26 151.097 1028.22 132.59 1031.67 114.937C1035.12 97.2847 1036.84 82.4792 1036.84 70.5209C1036.84 56.2847 1034.47 45.1806 1029.73 37.2084C1025.41 29.2361 1018.3 25.25 1008.37 25.25C997.59 25.25 986.806 30.0903 976.022 39.7708C965.238 49.4514 954.885 61.9792 944.963 77.3542C935.042 92.7292 925.768 110.097 917.14 129.458C908.944 148.819 901.611 168.181 895.141 187.542C889.101 206.903 884.356 225.41 880.905 243.062C877.454 260.715 875.729 275.521 875.729 287.479C875.729 301.715 877.886 312.819 882.2 320.792C886.945 328.764 894.278 332.75 904.199 332.75Z" stroke="#FF70AB" stroke-width="30" stroke-linejoin="round" mask="url(#path-1-outside-1_774_21019)"/>
<path d="M1434.42 25.25C1417.6 62.2639 1401.85 95.2917 1387.19 124.333C1372.95 153.375 1360.66 179.285 1350.31 202.062C1339.95 224.271 1331.76 243.632 1325.72 260.146C1320.11 276.66 1317.31 291.181 1317.31 303.708C1317.31 316.236 1321.4 322.5 1329.6 322.5C1334.78 322.5 1341.03 320.222 1348.36 315.667C1355.7 310.542 1363.46 304.278 1371.66 296.875C1379.85 288.903 1388.27 279.792 1396.89 269.542C1405.52 259.292 1413.72 249.042 1421.48 238.792C1430.97 225.694 1440.25 212.597 1449.3 199.5C1458.79 185.833 1467.42 172.736 1475.19 160.208C1483.38 147.681 1490.72 136.292 1497.19 126.042C1503.66 115.222 1509.05 106.111 1513.36 98.7083L1518.54 103.833C1508.19 122.056 1495.03 143.979 1479.07 169.604C1463.11 194.66 1446.07 219.431 1427.95 243.917C1405.95 273.528 1385.68 296.59 1367.13 313.104C1348.58 329.618 1330.25 337.875 1312.13 337.875C1299.19 337.875 1288.84 332.75 1281.07 322.5C1273.31 312.25 1269.42 299.438 1269.42 284.062C1269.42 273.243 1270.07 263.562 1271.37 255.021C1273.09 246.479 1275.03 239.931 1277.19 235.375L1275.89 233.667C1268.13 244.486 1259.72 256.16 1250.66 268.688C1241.6 280.646 1231.9 291.75 1221.54 302C1211.19 312.25 1199.97 320.792 1187.9 327.625C1176.25 334.458 1163.52 337.875 1149.72 337.875C1136.35 337.875 1126.21 332.465 1119.31 321.646C1112.41 310.257 1108.96 297.16 1108.96 282.354C1108.96 260.715 1117.8 229.396 1135.48 188.396C1153.17 147.396 1177.11 94.1528 1207.31 28.6667L1275.89 25.25C1241.82 94.1528 1213.99 150.812 1192.42 195.229C1171.29 239.076 1160.72 271.819 1160.72 293.458C1160.72 300.292 1162.01 305.986 1164.6 310.542C1167.62 315.097 1171.5 317.375 1176.25 317.375C1184.44 317.375 1194.15 312.819 1205.37 303.708C1217.01 294.597 1229.09 282.354 1241.6 266.979C1254.11 251.604 1266.4 233.951 1278.48 214.021C1290.99 194.09 1302.21 173.306 1312.13 151.667L1367.78 32.0833L1434.42 25.25Z" stroke="#FF70AB" stroke-width="30" stroke-linejoin="round" mask="url(#path-1-outside-1_774_21019)"/>
<path d="M1388.77 329.333C1410.77 279.222 1432.98 229.396 1455.42 179.854C1478.28 130.312 1500.92 79.9167 1523.36 28.6667L1597.12 25.25L1511.71 184.125L1513 185.833C1529.4 159.069 1543.85 137.715 1556.36 121.771C1569.3 105.257 1580.51 91.875 1590 81.625C1599.49 71.375 1607.47 63.6875 1613.94 58.5625C1620.41 52.8681 1625.16 48.0278 1628.18 44.0417C1632.92 37.7778 1637.24 32.9375 1641.12 29.5208C1645.43 25.5347 1650.39 22.6875 1656 20.9792C1661.61 18.7014 1668.3 17.2778 1676.06 16.7083C1684.26 16.1389 1694.39 15.5695 1706.47 15C1698.28 30.375 1690.73 46.6042 1683.82 63.6875C1676.92 80.2014 1673.47 98.1389 1673.47 117.5C1673.47 141.986 1682.75 154.229 1701.29 154.229C1707.33 154.229 1713.16 152.521 1718.77 149.104C1724.8 145.688 1730.41 141.417 1735.59 136.292C1740.76 131.167 1745.73 125.757 1750.47 120.063C1755.22 113.799 1759.53 108.104 1763.41 102.979L1766 107.25C1753.92 127.181 1739.69 143.41 1723.29 155.938C1706.9 168.465 1689 174.729 1669.59 174.729C1652.33 174.729 1638.75 168.75 1628.83 156.792C1618.9 144.833 1613.94 127.181 1613.94 103.833C1613.94 89.0278 1617.18 75.0764 1623.65 61.9792L1622.35 60.2708C1604.24 76.2153 1586.98 94.7222 1570.59 115.792C1554.2 136.861 1538.89 159.069 1524.65 182.417C1510.85 205.764 1497.91 229.965 1485.83 255.021C1474.18 279.507 1463.61 303.424 1454.12 326.771L1388.77 329.333Z" stroke="#FF70AB" stroke-width="30" stroke-linejoin="round" mask="url(#path-1-outside-1_774_21019)"/>
</svg>
