<svg width="1760" height="395" viewBox="0 0 1760 395" fill="none" xmlns="http://www.w3.org/2000/svg">
<path d="M190.777 391.373C182.025 391.373 177.275 387.164 177.275 379.618V242.994H143.52V379.618C143.52 387.672 139.186 391.373 130.018 391.373H17.7522C8.50087 391.373 4.25024 387.6 4.25024 379.618V68.3492C4.25024 36.2065 29.7538 3.62842 78.5941 3.62842H242.034C285.123 3.62842 316.378 30.8373 316.378 68.3492V379.618C316.378 385.496 312.21 391.373 302.876 391.373H190.86H190.777ZM177.275 219.485V102.741C177.275 100.419 176.191 96.4287 172.107 96.4287H151.021C146.27 96.4287 143.52 98.8957 143.52 102.959V219.485H177.275Z" fill="white"/>
<path d="M241.951 7.25569C284.04 7.25569 312.128 33.9567 312.128 68.3487V379.618C312.128 383.681 309.46 387.744 302.793 387.744H190.777C183.776 387.744 181.442 384.697 181.442 379.618V239.365H139.353V379.618C139.353 386.003 136.436 387.744 130.018 387.744H17.7526C10.7516 387.744 8.41787 385.422 8.41787 379.618V68.3487C8.41787 35.7706 35.005 7.25569 78.5944 7.25569H242.034M139.27 223.113H181.359V102.741C181.359 97.6616 178.109 92.8003 172.024 92.8003H150.938C143.937 92.8003 139.27 96.8636 139.27 102.958V223.113ZM241.951 0H78.5111C39.5056 0 0 23.5085 0 68.3487V379.618C0 389.558 6.25091 395 17.6692 395H129.935C141.353 395 147.604 389.558 147.604 379.618V246.621H173.024V379.618C173.024 389.268 179.609 395 190.694 395H302.709C313.128 395 320.379 388.687 320.379 379.618V68.3487C320.379 28.7326 287.374 0 241.868 0H241.951ZM147.604 215.857V102.958C147.604 100.854 148.521 100.056 150.938 100.056H172.024C172.024 100.056 173.024 101.144 173.024 102.741V215.857H147.604Z" fill="white"/>
<path d="M536.076 391.373C523.991 391.373 522.574 384.625 522.574 379.618V237.334C522.574 235.303 519.741 232.836 517.407 232.836H491.153V379.618C491.153 386.802 485.819 391.373 477.651 391.373H365.385C357.134 391.373 351.884 386.729 351.884 379.618V15.3827C351.884 8.19952 357.218 3.62842 365.385 3.62842H545.161C603.002 3.62842 661.594 35.8437 661.594 97.372V156.941C661.594 190.245 639.174 211.286 612.504 220.283C645.508 227.829 661.594 249.379 661.594 285.512V379.691C661.594 385.496 660.01 391.445 648.092 391.445H536.076V391.373ZM517.324 209.255C519.657 209.255 522.491 206.788 522.491 204.756V102.959C522.491 100.855 519.657 98.4603 517.324 98.4603H491.07V209.327H517.324V209.255Z" fill="white"/>
<path d="M545.076 7.25569C618.503 7.25569 657.342 51.2978 657.342 97.3714V156.941C657.342 198.661 621.67 217.743 591.833 221.081C621.087 222.895 657.342 232.545 657.342 285.512V379.69C657.342 385.06 656.175 387.817 648.007 387.817H535.991C528.407 387.817 526.657 384.987 526.657 379.69V237.406C526.657 233.343 521.989 229.28 517.322 229.28H486.901V379.69C486.901 385.06 483.067 387.817 477.566 387.817H365.301C358.3 387.817 355.966 383.754 355.966 379.69V15.4547C355.966 11.3915 358.3 7.32827 365.301 7.32827H545.076M486.901 212.882H517.322C521.989 212.882 526.657 208.819 526.657 204.756V102.958C526.657 98.8952 521.989 94.8319 517.322 94.8319H486.901V212.955M545.076 0H365.301C354.716 0 347.631 6.16736 347.631 15.3821V379.618C347.631 388.833 354.716 395 365.301 395H477.566C487.984 395 495.236 388.687 495.236 379.618V236.463H517.322C517.322 236.463 518.239 237.116 518.322 237.479V379.618C518.322 392.315 527.907 395 535.991 395H648.007C659.759 395 665.676 389.848 665.676 379.618V285.439C665.676 251.773 651.591 229.715 623.67 219.775C647.257 208.819 665.676 187.922 665.676 156.941V97.3714C665.676 71.6137 654.675 47.6699 634.672 29.966C612.585 10.3757 581.581 0 545.076 0ZM495.236 102.015H517.322C517.322 102.015 518.239 102.741 518.322 103.103V204.756C518.322 204.756 517.489 205.554 517.072 205.699H495.152V102.088L495.236 102.015Z" fill="white"/>
<path d="M937.133 391.373C929.299 391.373 923.631 386.439 923.631 379.618V225.58L894.71 345.734C892.46 354.804 886.793 360.463 879.875 360.463C872.957 360.463 867.623 354.949 865.456 345.734L836.286 225.29V379.618C836.286 387.672 831.952 391.373 822.784 391.373H710.518C702.183 391.373 697.016 386.874 697.016 379.618V15.3827C697.016 8.56231 702.683 3.62842 710.518 3.62842H822.784C839.619 3.62842 849.621 11.4646 852.621 26.9918L879.959 188.503L909.629 27.0643C912.296 15.3827 918.214 3.62842 941.801 3.62842H1049.4C1057.48 3.62842 1062.9 8.34464 1062.9 15.3827V379.618C1062.9 386.584 1057.32 391.373 1049.4 391.373H937.133Z" fill="white"/>
<path d="M1049.4 7.25569C1055.23 7.25569 1058.73 10.3031 1058.73 15.3821V379.618C1058.73 384.189 1055.48 387.744 1049.4 387.744H937.134C930.966 387.744 927.799 383.899 927.799 379.618V190.535L890.627 345.008C888.71 352.772 884.293 356.835 879.876 356.835C875.459 356.835 871.458 352.989 869.541 345.008L832.119 190.535V379.618C832.119 385.713 829.452 387.744 822.785 387.744H710.519C704.934 387.744 701.184 385.205 701.184 379.618V15.3821C701.184 10.5208 705.018 7.25569 710.519 7.25569H822.785C839.12 7.25569 846.204 15.3821 848.538 27.6442L879.793 212.447L913.714 27.6442C916.048 17.4863 920.715 7.25569 941.801 7.25569H1049.4ZM1049.4 0H941.801C911.547 0 907.213 19.0099 905.546 26.1931L880.126 164.632L856.789 26.5559C852.539 4.57111 835.953 0 822.785 0H710.519C700.434 0 692.849 6.6027 692.849 15.3821V379.618C692.849 388.833 699.934 395 710.519 395H822.785C834.203 395 840.454 389.558 840.454 379.618V260.044L861.373 346.459C865.207 362.785 876.459 364.091 879.876 364.091C886.877 364.091 895.545 359.447 898.712 346.532L919.381 260.625V379.618C919.381 388.542 926.799 395 937.051 395H1049.32C1059.57 395 1066.99 388.542 1066.99 379.618V15.3821C1066.99 6.31247 1059.73 0 1049.32 0H1049.4Z" fill="white"/>
<path d="M1172.75 391.373C1131.07 391.373 1098.4 363.075 1098.4 326.942V68.3492C1098.4 32.6512 1131.74 3.62842 1172.75 3.62842H1336.19C1377.19 3.62842 1410.53 32.6512 1410.53 68.3492V326.942C1410.53 363.075 1377.86 391.373 1336.19 391.373H1172.75ZM1241.17 96.3562C1239.09 96.3562 1237.76 98.678 1237.76 100.855V292.26C1237.76 294.364 1238.34 296.758 1242.92 296.758H1266.34C1270.93 296.758 1271.51 294.364 1271.51 292.26V100.855C1271.51 96.3562 1268.68 96.3562 1267.51 96.3562H1241.17Z" fill="white"/>
<path d="M1336.19 7.25569C1375.94 7.25569 1406.36 35.7706 1406.36 68.3487V326.942C1406.36 361.334 1375.94 387.744 1336.19 387.744H1172.75C1132.99 387.744 1102.57 361.261 1102.57 326.942V68.3487C1102.57 35.7706 1132.99 7.25569 1172.75 7.25569H1336.19ZM1242.92 300.458H1266.34C1271.01 300.458 1275.68 298.427 1275.68 292.332V100.927C1275.68 96.8635 1273.6 92.8003 1267.51 92.8003H1241.17C1236.51 92.8003 1233.59 96.8635 1233.59 100.927V292.332C1233.59 298.427 1238.26 300.458 1242.92 300.458ZM1336.19 0H1172.75C1129.49 0 1094.24 30.6916 1094.24 68.3487V326.942C1094.24 365.107 1128.74 395 1172.75 395H1336.19C1380.19 395 1414.7 365.107 1414.7 326.942V68.3487C1414.7 30.6916 1379.44 0 1336.19 0ZM1242.09 99.9835H1267.26C1267.26 99.9835 1267.26 100.491 1267.26 100.854V292.259C1267.26 292.622 1267.26 292.912 1267.26 293.057C1267.09 293.057 1266.76 293.13 1266.34 293.13H1242.92C1242.51 293.13 1242.17 293.13 1242.01 293.057C1242.01 292.912 1242.01 292.622 1242.01 292.259V100.854C1242.01 100.854 1242.01 100.201 1242.17 99.9835H1242.09Z" fill="white"/>
<path d="M1630.31 391.373C1618.23 391.373 1616.81 384.625 1616.81 379.618V237.334C1616.81 235.303 1613.98 232.836 1611.64 232.836H1585.39V379.618C1585.39 386.802 1580.06 391.373 1571.89 391.373H1459.62C1451.37 391.373 1446.12 386.729 1446.12 379.618V15.3827C1446.12 8.19952 1451.45 3.62842 1459.62 3.62842H1639.4C1697.24 3.62842 1755.83 35.8437 1755.83 97.372V156.941C1755.83 190.245 1733.41 211.286 1706.74 220.283C1739.75 227.829 1755.83 249.379 1755.83 285.512V379.691C1755.83 385.496 1754.25 391.445 1742.33 391.445H1630.31V391.373ZM1611.64 209.255C1613.98 209.255 1616.81 206.788 1616.81 204.756V102.959C1616.81 100.855 1613.98 98.4603 1611.64 98.4603H1585.39V209.327H1611.64V209.255Z" fill="white"/>
<path d="M1639.4 7.25569C1712.83 7.25569 1751.66 51.2978 1751.66 97.3714V156.941C1751.66 198.661 1715.99 217.743 1686.16 221.081C1715.41 222.895 1751.66 232.545 1751.66 285.512V379.69C1751.66 385.06 1750.5 387.817 1742.33 387.817H1630.31C1622.73 387.817 1620.98 384.987 1620.98 379.69V237.406C1620.98 233.343 1616.31 229.28 1611.64 229.28H1581.22V379.69C1581.22 385.06 1577.39 387.817 1571.89 387.817H1459.62C1452.62 387.817 1450.29 383.754 1450.29 379.69V15.4547C1450.29 11.3915 1452.62 7.32827 1459.62 7.32827H1639.4M1581.22 212.882H1611.64C1616.31 212.882 1620.98 208.819 1620.98 204.756V102.958C1620.98 98.8952 1616.31 94.8319 1611.64 94.8319H1581.22V212.955M1639.4 0H1459.62C1449.04 0 1441.95 6.16736 1441.95 15.3821V379.618C1441.95 388.833 1449.04 395 1459.62 395H1571.89C1582.31 395 1589.56 388.687 1589.56 379.618V236.463H1611.64C1611.64 236.463 1612.56 237.116 1612.64 237.479V379.618C1612.64 392.315 1622.23 395 1630.31 395H1742.33C1754.08 395 1760 389.848 1760 379.618V285.439C1760 251.773 1745.91 229.715 1717.99 219.775C1741.58 208.819 1760 187.922 1760 156.941V97.3714C1760 71.6137 1749 47.6699 1728.99 29.966C1706.91 10.3757 1675.9 0 1639.4 0ZM1589.56 102.015H1611.64C1611.64 102.015 1612.56 102.741 1612.64 103.103V204.756C1612.64 204.756 1611.81 205.554 1611.39 205.699H1589.48V102.088L1589.56 102.015Z" fill="white"/>
</svg>
