<?xml version="1.0" encoding="UTF-8"?>
<svg id="Layer_1" xmlns="http://www.w3.org/2000/svg" viewBox="0 0 3401.13 3401.99">
  <defs>
    <style>
      .cls-1 {
        fill: #fff;
      }
    </style>
  </defs>
  <path class="cls-1" d="M1281.09,1271.28c-1.35-7.88,1.18-13.66,8.83-16.93,1.78-.76,3.7-2.02,4.71-3.6,6.67-10.45,16.43-17.21,26.91-23.21,1.71-.98,3.44-2.2,4.66-3.71,9.52-11.74,22.52-18.34,35.91-24.31,2.74-1.22,5.81-1.86,7.53-4.55,6.73-10.53,18.31-13.96,28.58-18.99,5.41-2.65,10.47-5.32,15.29-8.99,8.46-6.45,18.16-11,27.82-15.39,12.08-5.48,24.95-9.04,36.59-15.73,8.94-5.14,19.47-6.61,29.25-9.44,17.53-5.07,34.53-11.45,51.76-17.28,1.57-.53,3.21-1.19,4.82-1.22,15.82-.37,30.65-5.72,45.91-8.91,3.93-.82,7.87-1.45,11.88-1.25,4.71.23,9.25-.33,13.73-1.92,2.8-.99,5.8-1.68,8.75-1.89,24.54-1.71,49.08-3.42,73.71-2.78,11.64.3,22.74,4.28,35.07,1.55,8.02-1.78,17.43,2.4,26.48,1.81,3.75-.24,7.04,1.71,9.33,4.95,1.83,2.58,4.05,3.03,6.88,1.34,4.86-2.91,10.13-2.72,15.5-1.78,17.69,3.09,35.39,6.1,53.09,9.15,4.88.84,8.56,3.47,11.18,7.63-1.65.16-3.31.24-4.94.5-2.55.4-3.38,1.98-2.29,4.25,1.41,2.94,2.64,6.47,6.9,5.85,3.17-.46,3.56-3.78,1.23-8.93-.27-.6-.65-1.15-.98-1.72,7.44-.12,14.49,2.04,21.54,3.94,28.7,7.75,55.74,19.82,82.62,32.24,3.58,1.65,7.06,3.9,9.98,6.54,4.57,4.13,9.54,6.89,15.57,8.43,8.23,2.09,13.86,8.99,21.32,12.71,4.15,2.07,7.95,4.77,12.59,5.87,4.62,1.1,8.56,3.82,12.24,6.61,15.91,12,31.8,24.05,47.4,36.45,11.44,9.09,21.35,20.01,33.61,28.15.53.35,1.14.92,1.28,1.49,2.07,8.73,8.62,12.88,15.81,17.2,5.87,3.54,10.25,9.33,14.58,14.9,8.99,11.57,20.86,20.63,29.44,32.55,8.31,11.54,18.2,21.99,24.15,35.23,1.73,3.84,4.86,7.12,7.69,10.37,4.2,4.83,8,9.79,9.64,16.13.67,2.61,1.85,4.99,3.96,6.8,9.01,7.71,13.13,18.19,16.46,29.12.87,2.85,1.22,6.19,2.97,8.39,7.57,9.49,11.14,21.11,17.36,31.31,5.06,8.29,8.35,17.48,9.11,27.2.29,3.66,1,6.24,3.81,8.56,2.9,2.39,4.55,5.85,5.47,9.39,3.86,14.83,10.42,28.74,14.74,43.41,2.08,7.08,2.93,14.3,3.57,21.62,1.45,16.62,6.97,32.46,9.69,48.88,4.71,28.37,7.28,56.72,4.24,85.42-.28,2.67-.75,5.38.19,7.92,3.37,9.18,2.23,18.37.32,27.57-.89,4.28-1.16,8.57-1,12.92.67,18.05-1.74,35.89-3.68,53.76-.8,7.36-3.53,14.19-6.07,21.06-.56,1.51-.74,3.48-2.92,3.49-1.89.01-2.74-1.64-3.79-2.88-2.7-3.19-2.63-6.72-1.08-10.32,3.71-8.64,3.26-17.61,1.95-26.55-1.55-10.64-2.4-21.18,1.5-31.53,1.08-2.87,1.26-5.9.87-8.88-2.76-21.25-.14-42.61-1.33-63.88-1.15-20.59-1.24-41.44-4.77-61.66-4.34-24.81-8.42-49.8-15.71-74.07-3.05-10.18-4.2-20.94-7.46-31.04-3.08-9.55-3.67-19.42-5.7-29.07-.97-4.61-2.54-8.74-7.28-11.29-5.98-3.21-7.95-8.91-6.31-15.28,1.44-5.58-.18-9.46-4.06-13.41-5.11-5.21-9.84-10.83-14.34-16.58-3.5-4.47-6.33-9.02-2.75-15.37,2.9-5.15-.02-10.45-2.69-15.08-3.48-6.03-8.06-11.42-9.59-18.49-.51-2.36-2.59-3.87-4.69-4.96-6.82-3.55-9.84-9.78-11.41-16.76-1.15-5.11-2.98-9.43-7.69-12.24-1.36-.81-2.8-2.19-3.3-3.62-5.2-15-18.37-22.42-30.16-30.63-10.69-7.44-20.55-15.25-29.48-24.9-10.78-11.66-24.18-20.87-35.28-32.27-14.72-15.11-32.83-25.83-48.6-39.56-9.97-8.68-21.51-15.55-32.37-23.2-4.61-3.25-9.9-5.49-13.93-9.62-2.39-2.46-5.61-3.45-8.84-4.41-12.2-3.62-23.13-10.03-34.6-15.29-12.63-5.79-24.49-13.24-38.03-17.27-9.4-2.8-19.27-5.67-24.62-15.59-1.89-3.51-6.06-4.94-9.63-3.21-9.15,4.44-17.53,1.14-26.04-1.65-3.16-1.04-6.22-2.39-9.39-3.4-4.43-1.41-7.52-3.09-3.79-8.34,1.78-2.51.15-4.48-2.33-5.44-5.23-2.02-10.87-2.8-14.94,1.58-4.74,5.1-9.13,5.05-15.08,2.45-6.18-2.7-13.23-.51-19.77-1.89-21.84-4.59-44-6.5-66.22-7.51-11.64-.53-23.32,0-34.96-.4-13.62-.46-27.16-.66-40.67,1.78-5.32.96-10.7-.56-15.64-2.52-6.31-2.5-12.59-1.95-18.57-.04-3.86,1.24-6.49,1.45-10.05-.93-6.97-4.68-11.75-2.49-14.06,6.32-.72,2.75-1.82,4.42-4.31,4.54-6.72.33-12.81,3.42-18.9,4.38-2.31-1.23-1.74-3.13-2.31-4.58-2.09-5.32-6.43-6.36-9.47-1.56-3.49,5.51-7.12,5.87-12.55,3.75-4.52-1.77-8.66-.39-11.17,3.98-1.74,3.04-3.89,5.73-7.28,6.4-11.79,2.35-22.25,8.59-34.06,11.02-11.13,2.3-20.55,9.27-31.31,12.85-7.25,2.41-14.15,5.83-21.3,8.57-5.93,2.28-11.24,5.48-16.66,8.8-8.69,5.32-18.07,9.75-27.9,12.73-3.34,1.01-5.76,2.32-8.24,4.85-6.79,6.93-14.22,13.16-24.58,14.04-.65.06-1.28.37-1.93.51-6.25,1.41-9.25,8.73-14.5,9.78-5.89,1.18-11.16,2.26-16.53,5.36-15.07,8.72-27.94,20.2-41.32,31.07-2.92,2.37-4.6,5.66-6.85,8.52-4.05,5.14-6.43,11.82-13.14,14.56-.27-.26-.53-.53-.78-.8h0Z"/>
  <path class="cls-1" d="M1219.48,2073.45c9.71,3.66,13.89,13.06,20.34,20.01,8.57,9.24,15.25,20.39,24.52,28.75,9.15,8.26,17.39,17.4,26.61,25.54,3.23,2.85,6.33,5.97,8.95,9.38,3.5,4.57,7.08,8.76,12.83,10.57,2.23.7,3.86,2.48,5.45,4.24,3.64,4.01,1.79,6.19-2.72,7.4,4.37,7.2,10.88,10.39,18.1,12.18,12.5,3.11,21.45,11.16,29.31,20.66,5.53,6.69,12.9,10.76,20.6,13.55,18.91,6.83,35.77,17.52,53.38,26.81,2.63,1.39,5.44,2.49,8.28,3.39,8.59,2.74,16.84,6.21,24.65,10.75,2.29,1.33,4.63,2.95,7.14,3.44,18.8,3.67,35.83,11.9,52.9,20.1,3.3,1.59,6.75,2.69,10.5,2.96,14,1.03,27.57,4.36,41.16,7.71,9.33,2.3,18.66,4.88,28.3,5.48,5.82.36,10.75,3.34,16.19,4.81,13.42,3.64,27.2,1.31,40.65,3.52,2.76.45,5.02-.09,6.83,3.87,2.12,4.64,8.36,4.31,12.4,2.31,11.49-5.7,23.41-6.39,35.9-5.75,15.97.82,31.94-.28,47.75-2.82,6.61-1.06,13.23-1.46,19.9-1.45,7.05,0,13.97-.48,20.34-4.02,2.35-1.3,5.01-2.24,7.68-1.2,8.23,3.19,16.39,6.55,25.91,10.37-8.19,4.72-16.07,3.99-23.43,5.03-6.58.92-13.15,1.28-19.59,3.34-6.74,2.15-13.87,1.48-20.85,1.18-7.36-.31-14.48.87-21.75,1.96-12.07,1.82-24.43,1.64-36.62,2.83-12.31,1.2-24.5-.82-36.76-.6-2.95.05-6.06-.32-8.83-1.28-6.76-2.35-13.1-2.44-20.37-1.06-7.93,1.5-16.7.52-24.78-1.07-16.68-3.27-33.6-4.68-50.31-7.49-14.32-2.41-28.61-4.88-42.15-11.28-15.03-7.12-31.94-9.11-47.69-14.59-9.84-3.42-19.13-7.79-28.07-12.8-6.15-3.45-12.38-6.32-18.99-8.62-6.57-2.29-13.34-4.33-18.55-9.4-1.73-1.69-4.05-2.19-6.29-2.86-2.23-.67-4.81-1.02-6.52-2.4-12.01-9.7-26.63-14.8-39.61-22.75-1.7-1.04-3.95-1.66-5.06-3.14-9.12-12.18-23.68-16.68-35.35-25.23-4.9-3.59-7.87-8.87-12.82-12.46-5.36-3.88-10.23-8.49-15.88-12.05-2.54-1.6-5.28-3.27-6.32-6.2-2.29-6.44-6.96-9.94-12.84-13.09-7-3.75-12.89-9.16-18.08-15.47-6.1-7.42-12.9-14.3-19.82-20.98-3.65-3.53-6.52-7.3-8.77-12,3.61-1.35,3.7,2.59,6.59,3.12.55-3.58-.11-7.02-1.46-10.17-2.02-4.73-4.86-5.31-9.24-1.72-2.17,1.78-3.58,1.33-4.98-.4-3.29-4.03-6.45-8.16-10.05-12.74,4.55-1.17,7.42,2.62,11.68,1.92.93-4.02-2.06-6.42-4.22-9.05-2.74-3.34-5.98-6.37-6-11.15l-.08.09v.02ZM1299.12,2164.94c-3.66-7.04-8.14-10.41-12.11-14.17-.64-.6-1.81-.76-2.76-.88-1.39-.18-2.6.34-3.22,1.68-.46.99-.25,2.22.66,2.62,5.6,2.48,8.54,9.04,17.44,10.75h-.01Z"/>
  <path class="cls-1" d="M1089.05,1718.81c-.11-12.64-.3-25.28,2.03-37.8.06-.32.1-.68.05-.99-3.06-17.34,1.21-34.4,1.85-51.59.34-9.1,2.96-17.69,4.59-26.49,2.3-12.41,4.88-24.76,7.53-37.1,1.4-6.49,3.83-12.58,6.64-18.69,3.42-7.43,6.52-15.19,6.6-23.82.07-7.39,2.86-14.01,6.51-20.63,8.54-15.46,14.26-32.24,19.56-49.01,3.98-12.59,11.88-23.02,16.87-34.97.93-2.22,2.3-5.36,5.87-3.59,3.08,1.53,5.31,7.5,3.06,9.35-6.37,5.21-5.95,12.05-6.14,19.05-.12,4.37-1.46,8.61-4.96,11.64-3.79,3.27-5.03,7.68-6.06,12.28-2.77,12.41-6.71,24.35-13.91,35.02-1.1,1.63-2.41,3.59-2.41,5.4,0,10.9-5.82,20.36-7.3,30.87-1.18,8.38-4.2,15.93-9.12,22.94-3.99,5.69-7.65,11.79-5.17,19.45.89,2.75-.38,5.18-2.46,7.16-3.48,3.3-3.49,7.01-.92,10.78,3.26,4.78,1.83,8.64-1.81,12.45-4.73,4.93-6.41,10.81-4.36,17.44,1.34,4.34.93,8.45-.42,12.71-2.23,7.05-3.61,14.16-.54,21.45,1.17,2.78,1.27,5.94.51,8.87-4.58,17.51-4.15,35.5-5.2,53.35-.19,3.32-.08,6.73-2.84,9.25-3.1,2.83-3.41,6.28-2.22,10.06.61,1.95.98,3.95-.22,5.76-.5.76-1.4,1.67-2.17,1.72-.71.05-1.98-.85-2.15-1.53-.62-2.56-1.18-5.2-1.24-7.82-.16-7.65-.06-15.31-.06-22.96h0Z"/>
  <path class="cls-1" d="M2190.08,2098.58c-2.41-7.71-1.42-12.9,4.32-17.03,5.13-3.69,7.94-8.92,8.34-15.26.36-5.6,2.47-10.28,6.63-14.06.98-.89,2.26-1.85,2.58-3,3.32-11.98,11.65-21.27,16.98-32.13,2.37-4.82,4.25-9.76,8.43-13.33,4.59-3.93,5.09-9.98,7.8-14.89,6.09-11.06,11.44-22.33,14.48-34.8,1.78-7.27,6.64-13.63,12.7-18.6,6.1-5,9.53-10.74,6.71-19.12-1.55-4.6-.98-9.59,3.94-12.2,8.75-4.63,11.42-13.43,15.42-21.35.74-1.46.84-3.23,1.44-4.77,3.88-9.87,6.74-19.68-1.94-29.06,4.3-3.17,8.58-1.12,12.11-4.01,2.65,8.94,1.2,16.67-1.26,23.63-5.97,16.89-10.17,34.3-16.38,51.16-4.67,12.68-12.7,24.13-14.18,38.12-.59,5.54-4.3,10.58-7.97,14.8-8.56,9.84-11.18,22.49-16.73,33.73-1.74,3.52-2.79,7.46-5.15,10.7-10.5,14.45-18.5,30.48-30.18,44.36-6.36,7.56-12.81,16.03-17.19,25.39-2.16,4.62-5.56,8.05-10.9,11.71h0Z"/>
  <path class="cls-1" d="M2059.1,2219.29c-4.06,7.68-10.79,12.51-18.38,15.9-9.46,4.21-18.11,9.77-27.15,14.68-17.68,9.6-34.82,20.32-53.9,27.19-3.07,1.11-5.91,3.03-8.66,4.86-9,5.96-19.08,9.28-29.31,12.25-1.6.46-3.27.72-4.68-.61-.04-.63-.35-1.62-.07-1.84,7.59-5.9,15.16-11.78,20.28-20.2.63-1.03,2-2.07,3.16-2.25,12.28-1.98,21.12-10.96,32.05-15.67,3.97-1.71,7.75-3.82,12.08-4.54,1.3-.22,2.83-.3,3.82-1.02,11.77-8.57,25.52-13.98,36.85-23.25,3.34-2.73,6.59-5.7,10.3-7.81,5.29-3.01,10.89-7.39,16.2.58,1.5,2.25,4.86,1.71,7.51,1.83l-.09-.1h0Z"/>
  <path class="cls-1" d="M1281.87,1272.09c.48,4.68-1.22,8.21-4.89,11.29-5.89,4.95-9.85,11.48-14.31,17.7-5.46,7.61-9.62,16.84-19.05,21.05-2.52,1.12-4.6,3.2-5.11,5.84-1.78,9.21-8.66,14.77-14.68,20.83-3.33,3.35-6.19,6.79-8.45,10.95-5.36,9.85-13.04,17.55-22.72,23.24-1.76,1.03-3.6,2.07-5.46.43-1.73-1.53-1.5-3.61-.81-5.54.67-1.87,1.22-3.96,2.47-5.41,7.15-8.33,10.96-18.96,18.9-26.79,3.51-3.47,6.54-7.61,9.02-11.89,7.05-12.15,16.61-22.59,25.69-32.86,8.8-9.96,19.08-19.34,30.07-27.41,2.51-1.85,5.51-2.2,8.55-2.22.25.27.51.54.78.8h0Z"/>
  <path class="cls-1" d="M1219.57,2073.35c-3.72-.25-6.06-2.58-7.88-5.48-3.39-5.4-8.92-8.98-12.13-14.55-.77-1.34-2.33-2.84-3.74-3.1-11.13-2.09-13.97-12.57-20.14-19.64-1.77-2.03-1.72-4.37,1.49-5.41,2.09-.67,3.71-1.83,3.3-4.23-.42-2.47-1.94-4.49-4.51-4.73-3.91-.36-7.93.51-10.39-4.07-2.77-5.17-4.6-10.29-2.92-16.19.43-1.52-.22-3.35,1.86-4.92,9.59,5.42,15.15,14.31,19,24.3,1.45,3.77,2.89,7.41,5.28,10.64,2.44,3.28,4.33,6.62,3.64,11.01-.74,4.76,1.21,7.49,6.32,8.14,7.09.91,10.77,5.63,13.16,12.1,2.07,5.58,5,10.84,7.55,16.24l.08-.09.03-.02Z"/>
  <path class="cls-1" d="M1110.66,1865c-2.85-14.83-8.26-27.13-7.83-40.6.08-2.37-.57-4.77-2.14-6.49-5.05-5.54-3.19-12.6-4.38-18.96-.47-2.49,1.11-4.57,3.13-5.82,2.69-1.66,4.16.86,5.87,2.26,4.01,3.29,5.44,7.45,3.71,12.41-1.92,5.52-4.09,10.98,3.49,14.1,4.11,10.45,8.16,20.93,8.56,32.34.08,2.19-1.44,4.47-3.54,3.82-5.25-1.64-4.6,2.82-6.87,6.96v-.02Z"/>
  <path class="cls-1" d="M1908.33,2283.75c-3.91,5.62-7.73,10.49-13.07,13.81-5.06,3.14-10.32,5.98-15.63,8.69-9.06,4.61-20.52,2.62-27.21-4.67-2.62-2.85-.52-3.99,2.08-4.69,6.07-1.65,12.07-3.67,18.23-4.8,8.2-1.51,16.11-3.59,23.62-7.31,3.39-1.68,7.12-3.26,11.98-1.03h0Z"/>
  <path class="cls-1" d="M2124.18,2150.51c2.03-3.96,3.7-5.87,7.79-6.44,12.1-1.69,22.25-7.81,31.07-16.13,5.68-5.36,6.1-8.33,1.79-14.83-1.34-2.02-1.34-3.71-.16-5.44,1.3-1.91,2.89-3.63,4.4-5.4,2.21-2.6,4.42-5.33,8.22-2.33,4.19,3.31,4.44,6.35,2.14,10.78-9.86,18.93-27.15,31.47-40.43,47.45-2.86,3.44-5.91,3.16-7.14-1.51-1.03-3.88-4.5-4.35-7.67-6.15h0Z"/>
  <path class="cls-1" d="M2059.19,2219.39c.66-2.57,1.3-5.14,2-7.7.48-1.76,1.57-3.28,3.5-2.63,5.61,1.89,6.4-1.42,6.26-5.61-.17-5.34,2.25-8.27,7.6-8.23,4.36.04,7.41-2.47,10.79-4.56,1.89-1.17,4.14-.59,5.51.89,1.84,2-.03,3.6-1.38,5.01-9.74,10.17-20.88,18.24-34.38,22.72l.09.1h.01Z"/>
  <path class="cls-1" d="M1102.31,1747.25c4.21,3.12,3.51,6.32,3.1,9.08-.87,5.87-2.43,11.63-3.33,17.5-.69,4.47-4.37,5.13-7.29,5.2-3.52.08-2.99-3.75-3.3-6.18-.59-4.69-.7-9.29,4.38-12.09,4.89-2.7,4.35-8.45,6.45-13.52h-.01Z"/>
  <path class="cls-1" d="M1113.4,1869c3.77,5.2,6.66,9.99,13.5,7.99-.35,2.82-.3,4.18-.72,5.38-1.18,3.37-1.44,8.34-5.3,8.89-4.12.58-3.65-4.71-5.21-7.36-2.42-4.09-6.43-8-2.26-14.9h-.01Z"/>
</svg>