<?xml version="1.0" encoding="UTF-8"?>
<svg id="Layer_1" xmlns="http://www.w3.org/2000/svg" viewBox="0 0 2823.33 2822.48">
  <defs>
    <style>
      .cls-1 {
        fill: #fff;
      }
    </style>
  </defs>
  <path class="cls-1" d="M66.72,990.34c-1.68-1.96-.61-3.97.08-5.67,9.26-22.87,14.79-47,23.51-70.04,9.18-24.26,19.29-48.12,29.9-71.8,5.14-11.48,12.48-21.98,15.46-34.43.38-1.58,1.17-3.19,2.16-4.48,12.32-16.08,17.63-35.66,26.8-53.31,4.91-9.45,10.34-18.62,15.54-27.91.32-.58.64-1.28,1.15-1.62,8.41-5.54,10.17-15.15,14.42-23.26,12.65-24.14,25.01-48.49,43.14-69.22,2.02-2.31,3.2-5.02,4.46-7.74,1.25-2.71,2.33-5.75,4.34-7.81,9.18-9.39,13.82-21.94,22.38-31.68,10.51-11.96,18.73-25.78,30.25-36.9,1.18-1.14,2.47-2.36,3.16-3.81,7.76-16.19,20.16-28.79,31.95-41.9,3.33-3.71,6.25-7.79,9.47-11.6,4.97-5.88,10.52-11.09,17.32-14.91,5.38-3.03,9.6-7,10.78-13.58.39-2.18,1.56-4.63,3.16-6.1,12.99-11.94,24.35-25.4,36.29-38.33,2.68-2.9,6-5.37,9.41-7.38,5.06-2.99,8.86-6.9,11.55-12.08.91-1.75,2.11-3.51,3.59-4.76,17.22-14.59,32.08-31.97,50.55-44.93,8.8-6.17,19.73-9.25,24.14-20.46,14.65-7.82,23.73-22.25,37.34-31.38,6.94-4.65,13.52-9.54,21.83-11.72,5.54-1.45,9.72-4.63,12.49-10.42,3.42-7.15,11.16-10.34,17.73-13.98,6.79-3.76,13.06-7.93,18.53-13.38,4.52-4.51,9.96-7.66,15.41-10.94,11.39-6.85,22.54-14.12,33.54-21.6,8.89-6.04,17.81-11.73,28.74-13.22,2.74-.38,4.9-1.99,7.15-3.42,1.97-1.25,3.81-2.85,5.95-3.63,3.68-1.35,7.76-3.18,10.83,1.11,2.39,3.34,1.1,9.79-2.37,12.76-.99.85-2.18,1.81-3.4,2.02-13.89,2.38-23.48,13.44-36.32,17.93-1.53.53-3.16,1.45-4.18,2.66-8.04,9.59-19.54,13.6-30.18,18.99-7.88,3.99-13.4,10.81-19.93,16.41-6.38,5.48-12.58,11.14-22,9.57-2.56-.42-3.65,1.08-3.9,3.35-.71,6.29-5.19,9.94-9.72,13.32-14.69,10.95-29.42,21.8-43.65,33.37-16.73,13.61-33.78,26.79-49.38,41.75-5.52,5.29-11.66,9.87-18.53,13.47-7.11,3.73-13.37,8.35-17.2,15.99-1.86,3.71-5.35,6.82-8.64,9.57-10.45,8.74-17.88,20.51-29.11,28.48-3.75,2.66-7.2,6.1-9.89,9.83-7.86,10.9-18.61,19.1-27.07,29.32-10.17,12.29-21.81,23.15-32.06,35.4-18.79,22.43-35.61,46.43-55.41,68.05-7.8,8.52-14.06,18.53-20.4,28.26-7.43,11.41-15.13,22.56-24.42,32.52-2.98,3.2-5.99,6.44-7.36,10.59-5.44,16.47-15.98,29.75-26.67,42.88-3.73,4.58-5.74,9.81-7.41,15.13-3.92,12.48-12.12,21.84-22.84,28.01-12.29,7.07-14.22,17.93-13.72,29.76.31,7.35-1.36,13.02-4.71,19.59-5.12,10.02-10.13,20.15-15.22,30.22-6.88,13.64-12.79,27.73-18.41,41.94-1.98,5-5.4,9.16-9.17,12.98-10.2,10.33-16.85,23.06-23.98,35.47-3.48,6.06-3.33,12.19-.22,18.14,3.23,6.17,2.03,11.55-.14,18-4.56,13.55-10.39,25.54-22.7,33.89-4.61,3.13-6.97,8.82-9.84,13.71-1.09,1.86-1.35,4.65-4.36,4.9v.06Z"/>
  <path class="cls-1" d="M2389.44,415.79c13.09-5.74,22.75-2.12,30.64,7.96,11.09,14.18,25.35,25.6,36.02,39.98,9.79,13.18,22.96,23.25,32.33,36.38,9.3,13.04,21.58,23.43,30.29,36.82.72,1.11,1.9,2.03,2.32,3.23,3.95,11.09,13.53,17.84,20.06,26.78,6.71,9.18,14.27,18.18,19.31,28.56,2.53,5.21,4.92,10.03,10.02,13.25,3.4,2.15,5.76,5.52,7.84,8.96,6.2,10.25,12.41,20.49,18.5,30.81,3.89,6.59,7.63,13.23,12.63,19.13,5.85,6.9,9.79,14.84,13.15,23.34,2.88,7.28,7.3,14.24,12.28,20.34,7.89,9.67,14.16,20.12,18.78,31.61,1.39,3.46,3.16,6.59,5.39,9.5,4.73,6.18,8.26,12.89,9.29,20.73.4,3.05,1.55,5.8,3.5,8.16,7.99,9.64,11.95,21.46,17.51,32.41,3.18,6.26,2.74,13.52,5.86,20.02,7.86,16.39,18.6,31.35,24.74,48.54,5.13,14.35,11.22,28.29,15.74,42.96,4.54,14.77,10.81,29.25,16.64,43.74,2.62,6.51,4.51,13.1,4.47,20.32-.03,6.74,3.05,12.94,6.08,18.83,3.1,6.03,5.68,12.01,5.21,18.98-.23,3.42,1.08,6.45,2.65,9.48,6.82,13.2,10.67,27.3,11.31,42.12.3,6.82,3.07,12.95,4.68,19.29,3.34,13.16,4.56,26.83,9.47,39.61,1.06,2.77,1.81,5.75,2.11,8.7,1.44,14.22,3.94,28.24,7.1,42.16.52,2.27,1.01,4.59,1.09,6.89.1,3.11,2.58,7.01-1.27,9.11-3.1,1.7-5.41-1.59-7.97-2.9-11.22-5.77-12.02-17.15-13.49-27.39-1.43-9.88-2.74-19.77-5.1-29.45-1.23-5.03-.7-8.72,3.19-12.57,5.46-5.41,5.09-8.52-1.66-12.37-5.54-3.16-7.2-7.65-8.94-13.39-2.99-9.85-6.47-19.51-8.32-29.69-3.79-20.91-11.31-40.85-16.36-61.37-3.25-13.22-8.18-25.89-11.07-39.18-1.11-5.12-3.79-9.9-5.82-14.81-7.65-18.45-13.22-37.64-20.31-56.28-4.96-13.05-11.82-25.26-16.89-38.34-10.09-26.04-21.9-51.38-34.49-76.32-5.11-10.11-9.49-20.47-12.91-31.25-.62-1.95-1.34-3.81-2.82-5.19-3.71-3.5-5.97-8.01-8.52-12.28-10.36-17.35-21.24-34.44-30.5-52.37-6.18-11.96-15.29-21.64-22.11-33.06-8.35-13.97-18.67-26.76-27.28-40.59-8.81-14.14-18.79-27.43-28.04-41.22-5.61-8.37-13.02-15.02-19.08-22.93-10.93-14.25-22.69-27.86-33.82-41.96-4.14-5.25-8.24-10.39-13.34-14.78-2.99-2.58-5.75-5.64-7.92-8.94-8.5-12.9-19.51-23.29-31.05-33.42-8.97-7.87-16.75-17.1-24.88-25.9-2.67-2.89-4.93-6.21-6.22-10.78l-.02.03Z"/>
  <path class="cls-1" d="M73.86,1848.91c-5.21-3.89-6.74-8.74-8.04-13.34-6.51-23.05-14.64-45.58-20.09-69-3.53-15.15-4.45-30.99-10.82-45.47-.27-.6-.56-1.28-.53-1.91.44-9.83-2.08-18.95-6.49-27.64-.44-.86-.77-2.01-.59-2.91,2.01-10.05-3.02-18.83-4.89-28.18-3.64-18.23-8.05-36.4-7.12-55.24.03-.66.05-1.37-.16-1.98-7.24-21.83-5.51-44.76-8.28-67.14-3.86-31.06-5.48-62.3-6.47-93.54-.73-22.93-.18-45.9-.13-68.85,0-1.97.13-4.13.92-5.87,2.35-5.17,2.23-10.24.51-15.5-.94-2.88-1.3-6-.37-8.88,4.42-13.66,2.17-27.75,2.95-41.64.71-12.58.52-25.31,4.96-37.41.45-1.23.79-2.64.64-3.91-2.15-18.83,2.91-37.08,5.39-55.38,2.17-16.03,4.18-32.25,7.62-48.1,6.49-29.91,12.18-60.01,20.68-89.46,1.19-4.13,1.38-8.54,2.38-12.74.73-3.1,1.68-6.3,4.59-7.87,2.58,1.16,2.32,2.99,2.37,4.55.3,8.96,1.79,17.72,3.09,26.58,2.28,15.51.95,31.41-8.42,45.15-5.06,7.43-8.26,16.02-14.44,22.74-.92,1-1.42,2.37-.58,3.68,1.06,1.65,2.64,1.67,4.38,1.17,2.16-.63,3.84-2.86,6.99-1.81,1.2,6.18-1.05,12.17-2.07,18.25-3.69,21.97-7.87,43.87-10.87,65.93-1.25,9.15-.64,18.59-1.94,27.84-.28,1.98-.02,4.08-.58,5.96-4.63,15.45-3.34,31.52-5.05,47.28-.51,4.68-.81,9.28-3.37,13.39-1.07,1.72-1.88,3.53-1.41,5.66,4.47,20.09,1.68,40.32,1.3,60.52-.18,9.62,1.15,19.3.58,28.88-1.74,29.01,1.65,57.86,3.1,86.7,1.35,26.85,2.27,53.84,5.83,80.57.44,3.28,1.3,6.53,2.18,9.73,2.57,9.35,4.39,18.72,3.76,28.56-.52,8.08,3.5,15.45,5.09,23.24,1.61,7.92,2.94,15.69,2.26,23.73-1.14,13.62,1.99,26.44,6.88,38.99,6.65,17.03,12.51,34.35,16.96,52.08,2.09,8.34,3.03,16.99,4.17,25.55.29,2.19-.29,4.69-1.09,6.81-3.5,9.29-.92,16.94,5.84,23.65,1.18,1.17,2.19,2.51,3.25,3.79,2.13,2.57,2.58,5.35.87,8.32-2.47,4.27-4.3,8.84-5.76,14.54l.02-.07Z"/>
  <path class="cls-1" d="M2239.18,2550.13c-10.26,6.3-15.6,17.8-26.35,22.97-11.41,5.48-21.09,13.76-32.39,19.57-9.1,4.68-17.06,11.53-25.73,17.11-20.44,13.13-41.36,25.46-62.99,36.53-7.66,3.92-15.98,6.54-22.33,12.84-2.1,2.09-5.21,2.81-8.16,3.56-2.23.57-4.65,1.21-6.44,2.55-22.7,17.02-50.46,23.67-75.05,36.77-12.33.93-22.19,7.65-32.48,13.55-3.68,2.11-8.11,2.92-12.21,4.28-2.2.73-4.81.83-6.57,2.13-7.49,5.51-15.53,8.93-25.02,8.34-2.07-.13-3.9.86-5.35,2.33-5.86,5.95-13.4,8.57-21.2,10.52-15.82,3.95-30.85,10.29-46.33,15.19-23.43,7.41-47.04,14.36-70.96,20.16-12.6,3.05-24.96,7.11-38.24,6.09-4.78-.37-9.06,1.84-13.12,4.25-6.48,3.85-13.44,5.71-20.98,4.64-2.38-.34-4.63-.26-6.86.56-15.75,5.78-32.38,7.34-48.74,10.28-16.37,2.94-32.72,6.35-49.29,7.26-11.62.63-23.02,3.14-34.67,3.09-2.97-.01-5.97.41-8.92.86-13.82,2.15-27.61,4.58-41.63,1.31-2.2-.51-4.84-.62-6.91.12-7.02,2.47-13.78,1.02-20.64-.46-2.98-.65-6.19-.78-6.16-4.98.03-4.2,1.93-7.16,6.23-7.73,5.59-.74,11.39-2.14,16.83-1.37,11.82,1.67,23.14-1.15,34.66-2.16,2.97-.26,6.08-1,8.91-.44,14.88,2.95,28.97-.47,42.99-4.79,4.19-1.29,8.52-1.39,12.82-1.82,26.13-2.61,51.84-8.4,78.09-10.27,4.57-.32,9.02-2.24,13.54-3.36,2.9-.72,5.9-2.1,8.72-1.84,10.74,1,20.18-3.68,30.02-6.41,6.1-1.69,12.02-3.8,18.44-4.11,2.96-.14,6.04-.61,8.8-1.63,10.64-3.96,21.25-7.56,32.94-6.29,2.08.23,4.38-1.32,6.55-2.14,13.67-5.17,27.06-11.13,41.49-14.09,3.23-.66,6.51-1.73,9.4-3.29,12.99-7.05,28.02-8.47,41.16-15.08,3.07-1.54,6.51-1.33,9.81-.58,8.34,1.88,15.19-.84,20.59-7.07,5.75-6.63,14.3-6.58,21.56-9.58,1.88-.78,3.79.87,5.48,1.94,4.93,3.11,9.53,2.03,13.94-1.11,1.35-.96,2.76-1.94,3.86-3.16,9.78-10.81,22.35-17.63,34.85-24.56,2.03-1.13,4.11-2.41,6.33-2.9,21.19-4.74,38.51-17.67,57.48-27.09,5.08-2.52,10.06-5.22,15.48-6.9,3.23-1,6.02-2.66,8.84-4.48,12.29-7.92,24.24-16.57,37.23-23.14,9.88-4.99,19.01-10.65,28.28-16.64,15.06-9.72,30.04-19.61,45.17-29.25,9.8-6.24,20.28-11.36,28.94-19.34,3.05-2.81,6.97-3.86,11.19-2.49,4.82,1.57,9.79,1.33,15.1,1.75h0Z"/>
  <path class="cls-1" d="M2709.54,1958.98c2.38,4.1.27,7.11-1.1,9.93-11.02,22.76-20.05,46.44-32.28,68.68-5.11,9.3-10.18,18.62-15.32,27.9-4.94,8.93-8.89,18.48-13.72,27.59-10.33,19.48-23.37,37.18-34.98,55.81-2.31,3.72-4.45,7.34-5.67,11.56-.64,2.21-1.45,4.57-2.84,6.34-8.25,10.47-13.73,22.74-22.11,33.16-5.61,6.98-10,14.92-15.35,22.11-5.54,7.44-12.04,14.12-15.67,22.96-1.34,3.25-4.12,6.09-6.73,8.6-12.08,11.63-21.49,25.25-30.74,39.15-8.66,13.01-19.57,24.32-29.92,36.05-8.1,9.18-15.56,18.95-23.82,28.06-12.29,13.56-24.93,26.75-38.09,39.46-8.86,8.55-16.03,18.74-25.6,26.61-9.76,8.04-17.86,17.9-28.12,25.39-4.32,3.16-7.24,7.74-11.08,11.45-8.71,8.43-20.44,12.47-29.08,20.95-5.17,5.08-10,10.74-17.3,13.21-1.44.49-2.66,2-3.67,3.28-11.63,14.71-26.38,26.03-40.83,37.65-4.7,3.79-10.39,5.95-16.12,7.77-3.54,1.13-5.12-.5-4.44-4.08.61-3.21.49-6.73,3.38-9.12,7.87-6.49,13.48-15.21,22.14-21.09,13.74-9.33,25.87-20.75,38.51-31.52,8.27-7.06,17.77-12.08,25.04-21.09,5.71-7.08,12.86-14.43,21.93-18.47.59-.26,1.2-.7,1.56-1.23,8.8-12.75,21.84-21.29,32.4-32.33,14.47-15.12,27.83-31.27,42.84-45.88,2.16-2.1,4.25-4.91,7.13-5.26,6.68-.81,9.45-5.2,11.93-10.57,3.67-7.94,8.35-15.1,16.16-19.8,2.21-1.33,4.66-3.4,5.48-5.68,4.44-12.3,15.92-19.44,21.87-30.66,3.42-6.46,8.98-11.39,14.62-16.21,6.54-5.58,12.57-11.87,15.73-20.25,1.54-4.09,3.57-8.04,6.82-10.94,8.89-7.91,13.93-18.57,20.61-28.06,6.49-9.22,13.13-18.33,18.15-28.51,2.42-4.9,6.42-8.33,11.46-10.7,3.59-1.69,6.93-3.97,10.29-6.13,2.63-1.69,5.11-4.11,4.35-7.3-1.38-5.72,2.51-8.5,5.44-12.04,4.03-4.87,8.05-9.77,11.75-14.88,2.76-3.82,4.06-7.91,3.31-13.08-1.15-7.85,4.77-13.46,8.52-19.49,2.95-4.74,7.24-8.68,11.07-12.84,4.31-4.69,8.04-9.78,11.09-15.35,1.96-3.58,3.4-7.37,2.1-11.48-1.46-4.61.12-8.45,2.36-12.3,9.57-16.46,17.74-33.54,23.14-51.88,2.02-6.86,5.8-12.68,11.29-17.36,7.2-6.14,13.32-13.68,22.11-18.09h0Z"/>
  <path class="cls-1" d="M1405.49,3.06c.57-2.13,1.56-2.62,2.48-2.53,14.22,1.44,28.47-.15,42.78.72,13.79.84,27.51,2.34,41.28,3.06,14.91.77,29.9,0,44.79,1.79,1.32.16,2.88-.16,3.94.43,13.84,7.71,29.13,3.76,43.68,5.64,18.43,2.39,36.94,3.95,55.32,7.02,14.73,2.46,29.34,5.76,44.22,7.39,1.65.18,3.32.36,4.93.75,19.25,4.65,38.38,9.93,57.78,13.81,11.45,2.29,22.64,5.31,33.48,9.29,5.73,2.1,10.76,5.36,17.34,5.41,4.37.03,5.27,5.44,8.36,9.18,2.38-7.84,7.77-7.4,13.57-5.48,10.09,3.35,20.27,6.29,29.39,12.2,6.18,4,13.92,4.12,20.92,5.84,15.29,3.76,29.74,9.44,43.94,15.99,2.41,1.11,4.65,3.13,7.14,3.46,18.53,2.48,34.07,12.73,51.08,19.11,18.43,6.92,35.75,16.16,53.65,24.18,3.58,1.6,7.1,3.44,9.8,6.59-2.83,3.22-6.13-.8-8.69,1.36,0,3.11,3.75,3.75,4.15,6.53.33,2.29,1.12,4.79-.72,6.62-1.69,1.68-3.87.45-5.63-.27-6.16-2.51-12.5-4.76-18.31-7.95-21.37-11.73-44.69-19.01-66.57-29.58-7.11-3.44-15.16-5.27-18.42-13.9-.63-1.67-2.61-3.11-4.31-4.04-17.02-9.32-34.44-18.7-54.51-16.5-12.97,1.42-24.28-1.76-35.72-6.42-2.45-1-5.04-2.06-7.01-3.75-4.3-3.67-9.24-5.12-14.67-5.38-10.07-.48-19.67-3.35-29.25-6.04-13.44-3.77-27.46-5.23-40.52-10.4-15.9-6.3-33.1-6.5-49.49-10.55-4.58-1.13-8.94-2.62-12.64-5.64-3.33-2.72-6.93-4.04-11.05-1.86-5.59,2.96-11.1,1.7-16.37-.6-5.31-2.32-10.7-3.49-16.48-3.24-6.25.27-11.73-2.01-16.82-5.41-4.98-3.33-9.84-6.87-14.98-9.95-7.05-4.21-10.62-3.92-15.64,2.28-4.12,5.09-8.04,7.03-14.57,4.47-5.99-2.35-13.41.6-18.94-4.55-1.09-1.02-2.39.23-3.63.62-11.11,3.5-22.27,3.31-33.14-.73-3.55-1.32-6.74-2.28-10.56-1.58-5.01.92-9.94-.72-14.84-1.48-14.67-2.29-29.23.35-43.83.63-7.44.14-13.66-1.43-19.07-6.7-4.97-4.84-11.72-7.03-17.66-9.85h.02Z"/>
  <path class="cls-1" d="M833.45,128.33c3.16-4.77,6.68-6.7,10.21-8.37,6.91-3.28,13.74-7.01,21.01-9.21,14.1-4.27,26.89-11.42,40.37-17.02,3.98-1.65,8.02-3.51,12.21-4.28,8.88-1.62,17.34-3.5,25.06-8.93,4.1-2.88,9.99-3.26,15.11-4.62,15.74-4.16,29.95-12.87,46.28-15.31,13.28-1.98,26.48-3.34,38.48-11.13,6.67-4.33,15.58-5.54,24-6.1,3.3-.22,6.61-.96,9.79-1.87,8.29-2.36,16.52-4.56,25.1-6.04,8.3-1.44,16.38-5.13,24.85-6.92,6.2-1.31,12.34-2.77,18.76-2.26,1.64.13,3.45.25,4.96-.28,23.15-8.05,47.89-7.06,71.51-12.68,9.23-2.2,18.99-3.58,28.47-4.15,10.85-.66,21.63-1.75,32.44-2.49,12.6-.86,25.06-2.1,37.54-3.96,7.45-1.11,15.11.67,22.77-.48,14.09-2.11,28.44.26,42.6-1.96,3.53-.55,7.31-.31,12.18,1.34-9.17,3.98-16.87,8.27-22.92,15.38-2.83,3.33-8.45,3.6-13.12,4.05-2.64.25-5.35.37-7.98.14-16.99-1.51-33.67,1.13-50.41,3.35-10.92,1.45-21.93,1.55-32.72-1.47-4.69-1.31-9.18-1.7-12.77,2.63-2.66,3.2-6.09,3.75-9.95,2.59-4.67-1.41-9.19-1.01-13.61,1.1-1.48.71-3.39,1.84-4.68,1.43-8.05-2.59-14.58,1.18-21.7,3.94-6.76,2.62-14.19,3.66-21.59,1.45-4.41-1.31-8.5-.64-12.23,2.3-3.33,2.63-7.3,3.46-11.35,2.39-4.88-1.29-9.15-.1-13.45,2.06-13.67,6.88-27.91,6.29-41.63,1.2-7.87-2.92-13.41-1.59-18.92,3.78-3.34,3.25-6.56,6.67-10.18,9.57-5.35,4.29-8.23,4.65-13.28.06-6.28-5.72-12.45-8.33-20.75-4.62-7.21,3.22-13.81,6.71-16.26,14.97-1.5,5.04-5.17,7.64-10.17,8.37-5.33.78-10.21,2.84-15.23,4.62-6.41,2.27-12.36,4.63-20.09,1.87-6.18-2.21-13.51,1.5-19.69,5.02-6.65,3.78-13.39,7.38-20.1,11.06-.29.16-.6.39-.91.4-12.42.15-20.87,9.13-31.09,14.12-6.93,3.38-13.68,4.83-21.19,3.13-7.3-1.65-13.32-1.38-17.45,6.91-2.48,4.98-8.57,7.45-14.48,7.63-7.61.23-15.22-.34-23.8-2.69v-.02Z"/>
  <path class="cls-1" d="M338.22,2326.41c-1.06-.8-2.5-1.38-3.13-2.44-7.24-12.05-18.17-21.11-26.09-32.66-6.18-9-13.21-17.47-20.35-25.75-6.54-7.59-12.42-15.55-17.88-23.97-7.77-11.97-16.36-23.41-24.6-35.08-.38-.54-.96-.98-1.23-1.57-5.83-12.61-13.99-23.66-22.32-34.71-11.16-14.8-18.97-31.75-29.36-47.18-12.39-18.39-23.8-37.72-32.9-58.12-7.56-16.96-14.58-34.16-21.92-51.21-.91-2.11-2-4.33-3.57-5.94-6.22-6.36-9.66-14.23-13-22.27-5.85-14.09-11.89-28.1-17.97-42.09-7.84-18.03-14.01-36.65-19.7-55.42-1.37-4.53-3.63-8.56-5.48-12.82-2.76-6.36-5.64-12.75-3.7-21.22,7.81,5.83,14.16,11.89,20.43,18.02,2.11,2.06,1.86,4.46-.53,5.9-6.37,3.86-4.6,8.68-2.08,13.76,1.47,2.98,2.76,6.06,4.25,9.03,4.19,8.36,7.77,16.78,8.63,26.37.72,7.96,3.66,15.5,7.63,22.57,3.18,5.67,7.21,10.68,13.14,13.27,8.62,3.76,12.33,10.82,14.36,19.17,1.19,4.9,2.15,9.84,5.77,13.59,3.95,4.09.04,9.48,2.05,13.12,1.73,3.14,8.34,1.51,9.88,6.71.47,1.57,1.61,2.94,2.12,4.51,4.95,15.29,13.23,28.88,21.31,42.6,6.77,11.49,11.97,23.75,17.38,35.91,4.2,9.45,9.9,17.86,15.69,26.44,7.39,10.95,14.71,22.03,21.7,33.29,10.7,17.23,21.35,34.5,32.35,51.55,2.28,3.54,6.34,5.88,8.99,9.24,13.99,17.79,27.59,35.99,39.31,55.28,9.65,15.88,16.1,33.59,21.38,51.55l-.56.56h0Z"/>
  <path class="cls-1" d="M2816.61,1281.4c-.91,7.18,1.81,15.88,2.67,24.76.26,2.65.91,5.29.86,7.92-.35,19.31,1.96,38.52,2.2,57.8.08,5.97.72,11.98-1.24,17.83-.41,1.22-.71,2.81-.29,3.93,4.18,10.97,1.3,22.41,2.35,33.59.68,7.22-.9,14.53-.99,21.86-.23,18.26-.9,36.46-3.12,54.7-1.38,11.34-3.34,23-1.99,34.66.04.33.13.69.05.99-.87,3.31.92,8.17-3.68,9.37-4.53,1.18-8.41-1.28-11.17-5.01-2.04-2.76-2.63-6.03-2.95-9.4-.86-9.07,1.17-17.87,2.4-26.74.44-3.18,3.03-5.03,4.87-7.36,4.8-6.06,4.94-8.48,1.04-15.12-1.19-2.02-2.47-3.93-2.59-6.38-.54-10.59-1.09-21.18-1.66-31.76-.33-6.05.16-11.95,2.53-17.63,2.13-5.09,2.23-10.24.6-15.6-2.03-6.71-2.58-13.69-3.08-20.68-.41-5.79.43-11.23,3.08-16.44,1.5-2.96,2.7-6.09,3.82-9.21,2.83-7.89,4.72-15.58-4.86-20.64-1.08-.57-2.33-1.9-2.46-3-1.16-9.73-4.69-20.04,2.65-28.63,9.41-11.01,10.04-22.75,4.54-35.33-4.01-9.19-7.76-18.13-7.02-28.68.38-5.4-2.27-10.99-3.42-16.53-.84-4.04-.87-8.02,2.6-11.06,1.54-1.35,3.36-2.23,5.48-1.49,1.86.65,2.17,2.38,2.32,4.04,1.68,17.85,6.47,35.31,6.46,55.24h0Z"/>
  <path class="cls-1" d="M2349.14,359.15c-17.35-7.03-33.89-15.47-53.3-21.22,11.99-7.53,11.92-9.53,1.85-15.88-17.44-11-35.83-20.57-52.03-33.44-27.97-22.22-58.86-40.03-89.08-58.77-15.48-9.6-32.35-16.99-48.74-25.07-16.71-8.24-32.42-18.37-49.48-25.97-2.75-1.23-6.28-2.32-6.84-6.44,3.59-1.86,6.02.24,8.52,1.64,6.39,3.57,12.66,7.37,19.13,10.79,3.11,1.65,6.51,4.52,10.17,2.07,4.35-2.91-.39-6.66.29-10.82,6.85.53,11.95,4.94,17.05,8.44,4.74,3.25,9.52,5.81,14.91,7.73,9.16,3.27,17.11,8.91,25.04,14.36,9.86,6.79,19.72,13.49,30.29,19.18,14.99,8.07,28.95,17.97,41.67,29.02,6.16,5.35,12.7,8.84,19.53,12.57,10.54,5.75,19.1,14.29,28.73,21.34,14.19,10.39,28.26,21.04,41.6,32.58,3.82,3.31,7.4,6.62,10.13,10.86,4.39,6.81,9.5,12.61,17.56,15.53,5.58,2.03,8.81,7.36,13.02,11.5h-.02Z"/>
  <path class="cls-1" d="M2702.16,1944.24c.83-12.1,4.02-21.14,9.05-30.05,4.67-8.28,5.78-18.21,9.61-27.12,3.53-8.21,6.03-16.87,9.81-25.06,2.63-5.7,4.17-11.92,5.18-18.19.42-2.62.49-5.52,1.7-7.77,10.09-18.82,9.98-41.26,21.36-59.62,2.1-3.38,3.43-7.59,2.73-11.5-1.61-9.04,3.09-16.84,4.19-25.3.44-3.37,2.34-4.2,5.61-3.83,14.06,1.59,13.8,1.44,9.7,14.99-3.26,10.82-5.89,21.83-8.56,32.82-1.73,7.12-3.01,14.32-7.01,20.68-1.81,2.88-2.42,6.19-2.39,9.57.04,5.16-1.16,9.94-4.51,13.95-2.09,2.5-2.18,5.43-2.58,8.41-1.12,8.32-2.44,16.53-10.32,21.75-2.28,1.51-3.84,4.09-2.94,6.94,2.58,8.18-1.61,14.29-6.25,19.97-3.23,3.95-5.26,7.62-2.94,12.61.14.29.28.68.2.96-2.53,9.11-3.94,19.09-9.67,26.47-5.55,7.14-13.71,12.25-21.99,19.33h.02Z"/>
  <path class="cls-1" d="M1075.49,2765.01c-5.52,2.06-9.88,1.45-14.15,1.5-5.39.06-10.69.29-15.18,3.77-2.98,2.31-6.16,2.07-9.45.91-4.08-1.43-8.26-2.61-12.22-4.31-20.12-8.64-42.6-9.66-62.39-19.55-7.34-3.67-14.84-7.5-23.4-7.96-1.27-.07-2.8-.51-3.72-1.33-10.92-9.76-25.88-9.49-38.38-15.45-8.35-3.98-17.39-6.55-25.52-11.2-6.07-3.47-12.22-6.51-19.41-7.41-6.32-.79-10.85-4.92-13.65-10.59-2.07-4.18-.26-7.12,4.44-7.65,3.42-.39,6.67.5,9.61,2.12,5.81,3.2,11.77,6.19,16.21,11.42,3.59,4.23,8.02,6.53,13.92,6.41,8-.16,15.93,2.4,23.19,4.79,14.74,4.87,30.11,8.54,43.61,16.82,1.93,1.19,4.22,1.97,6.44,2.49,18.17,4.21,35.75,10.23,53.33,16.38,16.29,5.69,33.35,8.8,50.04,13.16,5.3,1.38,10.41,3.52,16.68,5.68h0Z"/>
  <path class="cls-1" d="M2787.2,1715.58c-2.98-1.11-2.74-4.16-3.4-6.52-1.54-5.45-2.55-11.04-4.14-16.47-2.24-7.64-2.32-15.02,1-22.42,1.21-2.69,2.26-5.74,2.29-8.63.3-24.51,7.48-47.93,11.15-71.9.2-1.31.53-2.62.61-3.93.55-8.46,6.08-15.35,14.24-17.71,3.89-1.13,4.84,1.24,4.7,4.27-.29,6.06-2.91,11.57-4.81,17.17-1.34,3.95-1.53,7.45-1.16,11.57.97,10.96.58,21.85-3.24,32.5-3.04,8.46-2.98,17.58-4.04,26.45-.35,2.97.11,6.12-.7,8.93-4.15,14.4-6.39,29.23-9.99,43.74-.32,1.29-.78,2.57-2.5,2.95h-.01Z"/>
  <path class="cls-1" d="M1455.67,2819.47c-4.39,2.13-8.78,2.51-13.01,2.31-11.59-.55-23.18-1.4-34.72-2.56-4.4-.44-8.54-.65-12.73.96-5.7,2.2-11.71,2.73-17.7,1.99-22.78-2.83-45.92-.6-68.58-4.99-.96-.19-2.07-.31-2.97-.03-8.65,2.66-15.46-.93-22.1-6.43,2.14-4.72,6.8-6.23,10.74-8.37,7.02-3.82,8.26-3.22,11.82,4.36,3.04,6.47,5.58,7.95,12.56,6.05,5.76-1.57,11.32-3.87,16.95-5.91,4.33-1.57,8.39-1.72,12.23,1.35,4.79,3.83,9.72,3.45,14.8.35,7.76-4.75,16.17-5.95,24.96-3.69,10.19,2.61,20.48,1.28,30.75,1.03,7.32-.18,14.64-.2,21.94-.65,6.4-.39,11.1,1.25,12.76,8.14.45,1.88,2.59,3.11,2.3,6.1h0Z"/>
  <path class="cls-1" d="M628.18,2566.62c1.23.59,3.1,1.29,4.77,2.32,10.2,6.28,20.89,11.86,30.23,19.42,9.19,7.44,20.98,10.15,30.23,17.37,2.62,2.04,5.69,3.63,7.91,6.03,3.32,3.58,7.15,5.8,11.82,6.98,4.56,1.15,8.69,3.38,12.54,6.04,2.93,2.03,5.18,4.71,3.43,8.4-1.87,3.95-6.05,5.18-9.33,3.25-6.67-3.92-15.99-3.54-19.86-12.14-1.38-3.07-4.65-3.35-7.58-4.11-16.47-4.25-30.19-13.74-43.4-23.81-5.28-4.02-10.15-8.51-16.07-11.66-4.17-2.22-7.89-5.12-9.58-9.76-1.55-4.26.64-8.32,4.9-8.33h0Z"/>
  <path class="cls-1" d="M1074.86,2776.91c5.02-1.91,9.53.36,14.06.4,6.99.06,13.98.61,20.97.63,7.77.03,15.3.21,21.07,6.7,1.21,1.36,3.46,2,5.35,2.53,14.45,4.04,29.06,7.27,44.08,8.23,6.69.43,13.27.1,19.63-2.53,5.03-2.08,10.31-2.53,15.67-1.09,5.86,1.58,11.88.07,17.88,1.08,7,1.18,10.27,5.57,12.68,11.31,1.34,3.17.08,5.08-3.3,5.69-5.3.96-10.66,1.08-15.92.26-17.42-2.71-34.83-5.49-52.18-8.58-7.76-1.38-14.71-5.72-23.02-5.63-12.44.13-24.39-2.68-35.52-8.49-.86-.45-1.97-.82-2.88-.68-12.44,1.91-23.2-5.04-34.98-6.55-1.31-.17-2.56-.67-3.59-3.28h0Z"/>
  <path class="cls-1" d="M833.81,2685.48c-.33,4.92-4.06,7.62-9.07,6.37-4.36-1.09-7.79-3.71-10.42-7.27-1.94-2.62-4.27-4.09-7.57-3.86-11.53.81-20.32-5.22-28.77-11.81-4.24-3.31-8.64-5.43-13.94-6.98-8.52-2.48-16.53-6.77-24.63-10.56-2.01-.94-3.76-2.73-5.25-4.46-2.13-2.48-2.52-5.38-.64-8.28,1.74-2.69,4.11-4.44,7.44-3.99,2.98.4,5.99,1.21,8.28,3.19,9.41,8.19,20.64,12.61,32.25,16.61,5.59,1.92,10.73,5.23,15.97,8.08,8.39,4.56,16,10.57,25.7,12.63,2.77.59,5.28,2.69,7.74,4.36,2,1.36,3.15,3.38,2.9,5.96h.01Z"/>
  <path class="cls-1" d="M742.44,185.22c-3.17,0-6.14-.64-7.32-3.97-1.11-3.13-.11-6.08,2.46-8.06,6.07-4.67,12.36-9.27,19.47-12.03,10.3-4.01,19.8-9.41,29.38-14.74,5.26-2.92,10.77-5.36,16.86-5.77,3.67-.25,7.63-.25,8.99,4.32,1.16,3.9-.04,7.05-3.36,9.62-9.04,6.96-19.2,12.03-29.76,15.83-9.7,3.49-19.73,5.87-28.27,12.08-2.4,1.75-5.34,2.7-8.45,2.72h0Z"/>
  <path class="cls-1" d="M608.95,2565.62c-7.1-.86-13.15-3.51-18.29-7.93-8.31-7.16-17.55-13.06-26.2-19.73-7.81-6.02-14.59-13.39-21.75-20.24-1.17-1.12-2.2-2.76-1.41-4.47,1.13-2.44,3.29-1.32,5.2-1.2,15.13.95,24.39,12.27,35.57,20.14,10.51,7.4,18.87,17.41,29.59,24.58,2.3,1.54,4.41,3.42,3,6.51-1.14,2.52-3.66,2.49-5.73,2.34h.02Z"/>
  <path class="cls-1" d="M533.34,2508.15c-6.44,1.22-9.03-2.05-11.14-5.39-2.44-3.87-5.62-6.43-9.82-8.02-10.69-4.05-18.08-12.12-24.83-20.86-1.82-2.35-2.84-5.7-5.73-6.74-9.7-3.49-14.14-12.89-21.68-18.76-1.29-1-2.56-2.33-1.77-4.22.78-1.85,2.62-1.81,4.25-1.93,8.66-.66,13.82,3.24,15.61,11.73,2.16,10.25,2.96,11.2,13.65,12.13,6.65.58,12.2,2.64,16.53,7.95,1.64,2.01,3.89,3.65,6.12,5.04,5.66,3.51,9.71,8.09,10.7,14.87.8,5.46,5.82,8.64,8.1,14.19h.01Z"/>
  <path class="cls-1" d="M338.78,2325.85c3.85.92,7.64,2.4,11.6.24,4.2-2.29,6.74.14,9.18,3.28,5.5,7.09,10.82,14.29,15.32,22.07,2.86,4.96,6.28,9.05,12.2,11.05,5.16,1.74,6.53,11.02,2.79,15.15-1.66,1.83-3.62,1.29-5.43.28-3.24-1.81-5.69-4.55-8.15-7.25-11.38-12.49-22.71-25.01-34.11-37.49-1.82-2-3.42-4.06-3.96-6.77l.56-.56h0Z"/>
  <path class="cls-1" d="M2325.68,361.53c6.48-.52,10.78,2.08,14.98,4.61,9.93,5.99,19.74,12.16,30.33,16.95,2.08.94,4.85,1.96,4.43,4.69-.56,3.57-2.15,7.01-5.01,9.42-1.07.91-2.99.21-3.29-1.09-2.57-11.19-14.13-11.86-20.99-18.02-6.52-5.86-13.61-11.08-20.46-16.58v.02Z"/>
  <path class="cls-1" d="M427.75,2408.33c3.47-.03,6.32.7,9.06,1.9,8.28,3.62,9.75,11.79,3.36,18.22-1.97,1.99-3.99,1.86-6.23.65-4.43-2.4-7.8-6.01-10.87-9.87-1.79-2.25-4.33-4.75-2.72-7.88,1.52-2.97,4.93-2.8,7.41-3.02h0Z"/>
  <path class="cls-1" d="M2394.76,410.49c-4.38-.34-8.32-2.01-11.87-4.43-4.38-2.99-5-7.16-1.9-10.87,2.89-3.46,6.17-3.5,10.08.26,2.6,2.5,4.91,5.31,7.22,8.08,1.22,1.45,2.95,2.99,1.74,5.17-1.13,2.04-3.31,1.77-5.27,1.79h0Z"/>
  <path class="cls-1" d="M411.03,2382.56c2.13.57,3.27,1.69,2.88,3.62-.88,4.34-3.28,7.97-6.18,11.13-2.24,2.44-5.85.88-8.75-3.36-1.91-2.79-1.58-4.73,1.73-6.19,3.59-1.58,7.03-3.52,10.32-5.19h0Z"/>
  <path class="cls-1" d="M84.23,986.78c1.45,8.85-1.61,15.03-4.28,21.27-.51,1.19-1.44,2.45-2.94,2.17-2.04-.37-2.6-2.3-2.26-3.86,1.47-6.71,4.11-12.91,9.48-19.58Z"/>
  <path class="cls-1" d="M2055.3,161.35c6.41.73,12.82,1.49,17.69,6.59,1.14,1.19,2.23,2.81,1.29,4.38-1.08,1.81-2.98.99-4.37.22-5.3-2.97-10.52-6.07-15.76-9.12.38-.69.76-1.38,1.14-2.07h.01Z"/>
</svg>