<?xml version="1.0" encoding="UTF-8"?>
<svg id="Layer_1" xmlns="http://www.w3.org/2000/svg" viewBox="0 0 842.61 845.34">
  <defs>
    <style>
      .cls-1 {
        fill: #fff;
      }
    </style>
  </defs>
  <path class="cls-1" d="M634.11,61.81c-5.89.92-10.84.22-15.32-1.6-6.89-2.79-14.04-3.95-21.24-5.33-13.16-2.53-25.07-8.49-36.98-14.34-.3-.15-.6-.31-.84-.54-5.21-5.11-13.18-1.13-18.6-5.71-5.15-4.35-11.19-5.05-17.8-4.66-7.69.46-15.23-1.68-22.63-3.47-8.38-2.03-17.22-2.04-25.22-5.8-3.54-1.66-7.22.52-10.85.15-1.68-.17-3.47-.67-3.96-2.47-.5-1.82,1.12-2.92,2.13-4.23,2.35-3.07,7.64-.06,9.32-4.53-7.91-2.67-10.03-2.77-13.36,2.76-3.26,5.4-7.67,6.54-12.66,5.05-7.55-2.26-16.16,1.51-22.97-4.26-9.24,7.55-17.54-3.83-26.9-1.3-5.06,1.37-10.48,1.21-14.94,4.65-2.69,2.07-5.81,3.46-9.2,3.54-16.35.39-31.53,8.05-48,7.69-1.29-.03-2.68.32-3.89.83-20.79,8.84-42.98,13.64-63.55,23.56-10.79,5.21-22.81,7.57-31.68,16.63-1.71,1.75-4.72,2.39-7.25,3.16-6.16,1.9-11.71,4.67-16.13,9.52-2.49,2.73-5.53,4.81-8.97,6.22-1.53.63-3.27,1.26-4.55-.38-1.46-1.86-.68-3.83.31-5.59.86-1.52,2.38-2.58,4.08-2.51,5.75.23,9.06-3.46,12.47-7.2,4.3-4.71,9.17-8.62,15.06-11.33,6.42-2.96,10.94-8.57,16.64-12.63,17.38-12.34,36.79-19.79,56.94-25.87,6.98-2.11,13.74-4.94,20.65-7.31,12.05-4.13,25.09-3.87,37.12-7.63,25.33-7.92,51.35-5.51,77.17-6.66,20.39-.91,40.57,1.1,60.53,4.52,11.41,1.96,22.86,3.97,34.24,6.22,8.49,1.69,16.69,4.59,24.18,9.14,3.15,1.91,6.36,3.88,10.07,4.18,14.66,1.2,27.04,9.09,40.55,13.66,1.24.42,2.9.97,3.4,1.96,4.18,8.14,11.3,9.36,19.59,10.11,5.88.53,10.4,5.1,13.02,11.81h.02Z"/>
  <path class="cls-1" d="M155.27,748.53c-15.61-13.58-34.16-23.93-45.46-42.12-2.43-3.9-6.19-6.96-9.13-10.57-2.7-3.33-5.85-6.4-6.77-10.91-.47-2.33-1.69-4.4-3.77-5.7-10.82-6.78-16.43-17.62-23.36-27.81-7.7-11.33-13.43-23.69-20.98-35.01-.74-1.11-1.88-2.22-2.01-3.41-1.78-17.26-15.36-29.89-18.14-46.94-1.31-8.06-5-15.89-8.47-23.42-7.25-15.74-8.98-32.57-10.89-49.43-.49-4.29-1.54-8.51-1.94-12.8-1.22-12.88,2.47-26.22-3.61-38.65-1.84-29.32-.28-58.41,4.81-87.39,2.52-14.39,2.89-29.17,8.64-42.92,2.91-6.96,5.6-14.02,9.12-22.88,2.6,8.74,1.47,15.73-1.94,21.29-4.66,7.61-4.77,14.81-2.67,22.9,1.25,4.83,2.51,9.63,3.88,14.43,1.95,6.83.56,8.9-6.79,10.15-3.2.54-3.95,2.64-4.06,4.78-.7,14.28-3.53,28.43-2.63,42.81.08,1.32-.05,2.94.64,3.9,5.71,7.95,3.37,16,1.67,24.65-1.71,8.69-2.04,17.94,3.61,26.04,2.17,3.11,1.52,6.29-.91,9.17-2.59,3.06-3.18,6.7-1.9,10.34,2.58,7.38,2.66,15.94,10.12,21.11,2.69,1.86,2.22,4.6.22,6.98-2.59,3.08-3.04,6.56-2.04,10.33,3.49,13.14,3.57,26.99,8.59,39.83,1.1,2.82,1.82,5.85,4.1,7.86,5.23,4.6,7.46,10.9,10.23,16.93,2.29,4.98,3.11,10.68,9.96,12.67,3.59,1.04,3.61,6.04,0,8.42-4.33,2.86-2.72,5.36-.73,8.24,1.98,2.86,4.87,4.51,8.09,5.58,3.75,1.25,6.21,3.35,6.89,7.6,1.68,10.34,7.64,18.13,15.02,25.27,10.75,10.42,20.99,21.33,29.56,33.71,3.01,4.35,6.67,8.33,10.43,12.07,4.53,4.51,8.74,9.12,11.1,15.18.48,1.22,1.09,2.67,2.09,3.36,11.95,8.21,13.14,22.62,19.42,34.36h0Z"/>
  <path class="cls-1" d="M783.93,639.32c-9.18-6.6-11.27-6.12-12.24,4.74-1.04,11.62-5.84,20.66-13.45,29.17-7.73,8.64-14.77,17.94-20.29,28.31-2.8,5.26-6.97,9.76-11.67,13.54-3.91,3.14-7.58,6.47-10.88,10.25-1.08,1.24-2.25,2.67-3.69,3.32-13.63,6.16-23.9,17.7-38.03,23.22-7.57,2.95-13.7,8.33-15.32,17.07-1,5.43-4.03,8.34-9.54,8.13-5.35-.2-8.87,2.48-11.37,6.73-2.49,4.25-6.16,6.61-10.59,8.56-5.15,2.26-9.84,5.56-14.85,8.17-5.86,3.05-11.43,6.8-18.42,7.19-4.15.23-6.91,3.85-10.59,5.36-27.08,11.12-54.2,22.11-83.54,25.94-1.32.17-2.64.4-3.97.42-2.2.04-5.18,1.15-5.8-2.08-.57-2.95.12-6.04,2.57-8.21,1.82-1.61,3.79-1.02,5.37.44,5.5,5.07,11.28,3.49,16.51.09,6.37-4.14,13.35-7.54,18.51-13.36,1.62-1.83,3.63-2.73,5.85-3.58,15.21-5.81,30.39-11.7,45.44-17.94,10.31-4.27,20.14-8.91,29.99-14.22,18.49-9.98,35.51-22.17,53.68-32.55,2.82-1.61,5.13-4.18,7.52-6.48,1.67-1.61,2.76-4.02,4.65-5.17,11.76-7.09,19.66-18.77,31.25-26,4.09-2.55,7.12-6,9.43-10.1,3.67-6.53,9.05-11.63,14.81-15.98,12.7-9.58,20-23.03,26.82-36.63,3.44-6.85,7.29-13.42,11.03-20.06,2.84-5.04,7.73-4.67,10.76.34,1.39,2.3,1.44,4.47.03,11.36h.02Z"/>
  <path class="cls-1" d="M775.63,222.19c5.81.06,7.81,2.88,8.97,6.51,2.73,8.54,8.26,14.24,16.76,17.11,4.15,1.4,6.82,4.19,7.12,8.69.32,4.89,2.38,8.9,5.51,12.55,1.06,1.24,1.98,2.77,2.43,4.33,5.94,20.75,16.71,40,19.26,61.82,1.1,9.45,2.33,18.89,3.49,28.24-3.47.79-3.67-1.31-3.97-2.63-2.02-8.84-5.68-16.47-11.27-24-7.56-10.19-12.18-22.41-13.95-35.29-.65-4.72-2.06-9.02-4.72-13-1.28-1.91-2.39-4.07-3-6.28-4.49-16.2-12.15-30.89-21.04-45.03-2.29-3.64-4.1-7.54-5.58-13.03h-.01Z"/>
  <path class="cls-1" d="M470.02,842.37c-8.15.98-16.28,2.58-24.45,2.81-14.61.41-29.25-.11-43.87-.03-8.82.05-17.06-2.02-25.17-5.34-9.89-4.05-18.87-9.79-28.41-14.49-1.42-.7-2.89-1.63-2.56-4.9,9.05,4.2,19.15,1.54,27.88,4.65,11.66,4.14,23.8,1.98,35.4,4.89,2.14.53,4.62-.15,6.91-.45,12.76-1.66,25.21-1.18,36.95,4.94,5.48,2.86,12.26,2.16,17.59,5.5-.09.81-.18,1.61-.27,2.42h0Z"/>
  <path class="cls-1" d="M246.24,806.88c4.63-3.03,8.27-2.24,11.65-1.65,6.27,1.1,12.54,1.23,18.87.98,7.34-.29,14.67-.48,20.98,4.37,1.96,1.51,4.28,1.57,6.67,1.04,4.91-1.09,9.09,1.25,13.36,3.01,1.55.64,2.57,1.69,2.82,3.66,1.2,9.18,2.05,10.08,10.61,11.7,3.22.61,6.72.3,9.06,3.29-.4,3.13-2.82,2.12-4.56,2.17-14.38.4-27.62-3.08-39.36-11.66-3.56-2.6-7.66-4.46-12.04-4.19-7.66.47-14.29-2.18-20.94-5.36-5.23-2.5-10.65-4.59-17.13-7.35h.01Z"/>
  <path class="cls-1" d="M107,148.93c-.55-.23-1.67-.37-2.27-1.01-1.04-1.1-.72-2.45.22-3.56,8.57-10.15,16.24-21.26,27.3-28.94,9.05-6.28,18.09-12.42,24.82-21.33.59-.78,1.34-1.54,2.18-2.04,3.06-1.81,5.5-6.28,9.2-4.99,4.49,1.57,2.54,7.01,3.77,10.63,1.46,4.3-2.48,6.46-5.14,8.76-1.84,1.59-3.77.95-4.94-1.21-2.45-4.53-5.15-2.91-7.99-.46-2.26,1.95-5.09,3.47-6.78,5.82-3.44,4.79-7.73,8.07-13.13,10.3-5.4,2.24-9.58,6.1-11.94,11.51-2.18,5-6.26,8.58-9.1,13.08-1.31,2.07-3.3,3.24-6.21,3.44h.01Z"/>
  <path class="cls-1" d="M179.15,749.99c21.51,10.48,37.86,26.6,61.19,33.58-5.98,4.96-11.79,6.43-15.27,11.51-1.56,2.28-5.99-.44-8.27-2.99.33-.79.44-1.49.84-1.92,1.87-1.99,6.56-1.31,5.88-5.6-.61-3.81-4.05-5.36-7.25-5.96-6.79-1.27-12.41-4.09-17.01-9.36-1.39-1.6-3.97-2.71-6.14-2.99-9.05-1.14-10.78-8.14-13.97-16.27Z"/>
  <path class="cls-1" d="M797.7,612.02c-.42-7.84,5.01-13.39,7.19-20.18.7-2.18,2.05-4.16,3.13-6.21,2-3.78,1.19-6.67-1.98-9.66-5.96-5.62-4.93-13.29,2.01-17.89,3.5-2.32,10.19,1.01,10.39,5.5.13,2.91-.45,5.99-1.33,8.79-4.48,14.15-10.62,27.53-19.41,39.64h0Z"/>
  <path class="cls-1" d="M696.01,106.21c-3.84.58-5.91-2.27-7.74-4.77-5.75-7.85-13.31-11.66-23-11.19-2.69.13-5.84.67-5.34-3.46.44-3.61,4.91-7.39,7.31-6.35,11.92,5.16,23.58,10.76,29.38,23.56.2.43-.31,1.18-.61,2.21h0Z"/>
  <path class="cls-1" d="M773.59,188.4c-13.99-5.1-18.86-16.79-22.26-29.55,7.78,9.59,16.23,18.7,22.26,29.55Z"/>
  <path class="cls-1" d="M828.27,537.82c.27-8.31-5.09-17.97,5.38-25.05,2.56,9.59-1.3,17.27-5.38,25.05Z"/>
  <path class="cls-1" d="M842.06,390.01c-1.71-6.84-7.99-12.77-3.69-21.52,5.93,7.08,4,14.58,3.69,21.52Z"/>
</svg>