<?xml version="1.0" encoding="UTF-8"?>
<svg id="Layer_1" xmlns="http://www.w3.org/2000/svg" viewBox="0 0 172.91 171.64">
  <defs>
    <style>
      .cls-1 {
        fill: #fff;
      }
    </style>
  </defs>
  <path class="cls-1" d="M90.55.3c4.54.16,10.02-.6,14.66,1.63,7.21,3.46,15.34,4.87,22.13,8.47,13.65,7.23,26.02,16.42,32.88,31.47,2.27,4.99,5.26,9.8,7.65,14.85,2.35,4.98,3.07,9.96,3.47,15.48.51,7,1.85,13.96,1.51,21.05-.41,8.63-2.8,16.85-5.17,25.06-.86,2.97-3.12,4.93-5.61,6.62-1.62,1.1-3.28,2.66-5.31,1.31-2.11-1.42-3.56-3.42-2.85-6.24,1.48-5.96,2.78-12.09,6.37-17.15,3.02-4.26,6.02-8.35,6.51-13.74.07-.71.41-1.41.7-2.08,2.6-6.03,2.68-6.2-2.97-8.66-2.82-1.22-4.32-3.14-4.86-5.94-1.59-8.31-4.88-15.92-9.09-23.18-2.4-4.13-2.72-8.94-3.58-13.44-1.79-9.35-8.43-13.3-16.19-16.42-1.41-.57-3.09-.84-4.27.06-3.97,3.05-7.38,1.17-10.84-.88-2.99-1.77-6.28-2.82-9.59-3.71-4.74-1.26-9.55-2.14-13.3-5.81-1.63-1.59-4.1-2.35-6.13-.92-6.62,4.66-14.84,4.46-22.02,7.52-5.02,2.13-9.91,5.61-16.09,4.12-1.73-.42-2.71,1.59-3.66,3.11-2.55,4.11-11.3,6.17-15.54,3.84-1.58-.87-1.87-2.23-.96-3.7.49-.8,1.22-1.74,2.04-2.03,7.13-2.54,11.82-8.78,18.31-12.12C61.62,2.24,75.34-1.07,90.54.31h0Z"/>
  <path class="cls-1" d="M12.38,87.85c-.41,15.02,3.42,27.17,11,38.21,1.39,2.01,2.52,4.2,3.86,6.25,1.65,2.5,1.27,4.19-1.18,6.17-5.44,4.41-6.14,4.67-10-1.51C5.66,120.28-.8,102.35.08,82.31c.17-3.93.49-7.87,2.57-11.34,1.03-1.7,2.41-3.24,4.73-2.76,1.8.37,1.57,2.18,2.21,3.42,2.88,5.66,3.31,11.65,2.78,16.22h0Z"/>
  <path class="cls-1" d="M75.32,170.15c-2.29,1.78-4.03,1.62-5.7,1.26-11.58-2.51-22.71-6.17-32.28-13.45-2.12-1.61-3.86-3.74-5.66-5.72-1.42-1.56-1.99-3.38-.91-5.39,1.28-2.37,3.42-2.42,5.73-2.15,2.04.24,3.61,1.43,5.3,2.41,8.24,4.8,16.3,9.98,26.03,11.4,2.38.35,4.19,1.69,4.34,4.26.15,2.79,2.12,4.81,3.16,7.38h0Z"/>
  <path class="cls-1" d="M95.63,162.81c.8-2.3,2.32-2.78,3.72-2.77,8.8.07,16.15-4.14,22.96-8.73,5.96-4.02,11.16-1.74,16.73-.32,1.58.4,1.78,1.95.95,2.91-5.57,6.46-12.74,10.49-20.76,13.09-.43.14-1.45-.52-1.64-1.02-.21-.53.07-1.44.44-1.97,1.16-1.67,3.08-2.31,4.76-3.3,1.84-1.08,4.45-2.46,2.43-4.98-1.8-2.26-4.05-.59-5.74.87-2.6,2.26-5,4.8-6.27,8.03-1.53,3.89-3.72,4.71-7.33,2.6-3.23-1.89-7.52-1.69-10.27-4.4h0Z"/>
  <path class="cls-1" d="M21.48,48.11c-1.55,3.84-3.13,7.91-4.83,11.93-.49,1.17-1.67,1.7-2.88,2.02-.95.25-1.99.49-2.74-.3-.8-.85-.34-1.77.25-2.58.57-.79,1.17-1.55,1.7-2.36,1.28-1.95,1.86-3.93.39-6.09-.54-.8-1.03-1.67-1.32-2.58-.81-2.59.15-4.76,1.85-6.68.71-.8,1.91-1.19,2.54-.35,1.67,2.22,5.05,3.22,5.04,7h0Z"/>
</svg>