<?xml version="1.0" encoding="UTF-8"?>
<svg id="Layer_1" xmlns="http://www.w3.org/2000/svg" viewBox="0 0 462.72 460.05">
  <defs>
    <style>
      .cls-1 {
        fill: #fff;
      }
    </style>
  </defs>
  <path class="cls-1" d="M309.9,438.69c-4.29,11.43-13.73,13.81-23.97,15.05-4.38.54-8.5,2.87-13.28,2.3,1.4-3.48,11.45-16.3,13.7-17.33,2.74-1.25,5.74-2.7,8.62-.82,4.18,2.74,6.07,1.01,8.57-2.64,2.83-4.13,8.62-3.53,12.87-5.81,4.74-2.55,9.92-4.31,14.15-7.84.69-.57,1.45-1.23,2.29-1.44,15.59-3.95,25.31-16.98,38.4-24.76,7.51-4.47,12.34-12.06,20.13-16.65,4.07-2.4,6.59-8.92,9.76-13.58,2.75-4.05,8.89-3.25,10.06-8.36.96-4.17,2.6-7.99,4.57-11.77,4.48-8.55,9.96-16.56,13.41-25.65,1.29-3.41,3.31-6.56,6.07-8.94,3.74-3.23,5.3-6.96,4.91-11.95-.54-6.99.96-13.79,2.85-20.54,1.7-6.09,3.52-12.3,4.02-18.56.42-5.13,1.03-7.93,7.09-6.64,4.41.94,4.01-4.48,6.84-6.41,3.02,3.16,1.34,5.9-.71,7.94-4.36,4.33-5.21,9.28-3.85,14.98.89,3.72-.35,7.18-1.68,10.57-2.55,6.46-4.54,13.25-7.97,19.23-3.72,6.48-5.9,13.13-6.29,20.44-.74,13.87-8.65,24.72-14.69,36.46-3.23,6.29-11.44,7.75-13.03,15.46-1.49,7.23-7.61,11.6-12.76,16.08-10,8.7-17.87,19.72-29.37,26.77-8.15,5-16.38,9.69-24.02,15.73-7.61,6.02-17.41,9.39-26.48,13.43-6.24,2.78-6.41,2.41-10.26-4.74h.04Z"/>
  <path class="cls-1" d="M182.67,1.7c1.49.41,3.03.57,4.32,1.23,3.04,1.53,3.52,4.79.58,6.29-6.44,3.29-12.04,8.08-19.08,10.31-12.7,4.01-24.74,9.6-36.72,15.34-2.15,1.03-4.5,1.94-6.83,2.23-6.28.8-11.68,2.76-15.22,8.47-1.92,3.09-5.15,4.1-8.63,4.13-4.51.05-8.03,1.94-11.28,4.98-3.78,3.53-8.46,5.87-13.13,7.95-9.97,4.44-15.94,11.66-16.75,22.74-.41,5.62-1.38,10.79-7.5,13.29-1.99.81-3.05,2.96-3.77,4.95-2.66,7.48-7.93,13.65-10.82,20.86-3.87,9.66-6.85,19.39-14.39,27.3-4.21,4.42-4.66,11.03-3.05,17.24.69,2.69.67,5.3.22,8.06-1.38,8.41-5.87,12.68-14.25,13.21-1.96.13-2.73-1.16-2.72-2.78,0-1.48.26-3.04.77-4.43,4.89-13.36,7.58-27.31,11.15-41.03.45-1.74,1.17-3.44,1.98-5.06,10.38-20.8,21.36-41.07,37.13-58.65,10.69-11.92,21.81-23.23,34.18-33.24,11.78-9.54,24.51-17.68,40.17-19.5,2.45-.29,5.18-1.02,6.4-3.04,5.24-8.67,14.9-9.95,22.93-13.53,7.65-3.42,16.13-4.94,24.33-7.33h0Z"/>
  <path class="cls-1" d="M3.89,272.2c4.22,4.22,3.8,8.21,5.39,11.27,5.42,10.49,7.87,22.04,11.94,33.01,2.03,5.46,5.08,9.8,11.54,9.73,2.96-.04,4.5,1.5,5.63,3.71,4.98,9.66,12.5,17.8,16.67,27.94.81,1.95,1.67,4.06,3.66,5.04,6.88,3.4,10.67,9.66,14.74,15.62,5.19,7.61,11.49,13.91,19.57,18.49,5.25,2.97,10.26,6.39,13.79,11.55.82,1.2,2.09,2.67,3.35,2.88,12.34,2.12,20.34,13,32.29,15.85,1.64.39,3.86,1.04,3.41,3.41-.36,1.91-2.2,2.78-4,3.26-2.85.76-5.37-.44-7.81-1.62-4.14-2.01-8.36-3.53-13.06-3.03-5.44.57-9.55-1.97-12.24-6.26-2.65-4.22-6.04-6.36-10.89-7.04-3.67-.52-6.68-2.78-9.3-5.35-3.88-3.8-7.57-7.77-12.26-10.67-3.28-2.03-4.57-5.56-5.6-9.06-.85-2.9-1.27-5.91-2.18-8.79-1.77-5.62-2.76-6.24-8.09-3.46-3.57,1.87-5.56.54-7.84-1.8-5.16-5.31-8.25-11.91-11.41-18.41-2.26-4.67-5-8.9-8.22-12.95-7.58-9.54-13.07-20.07-16.4-31.95-2.84-10.14-7.18-19.86-10.76-29.8-1.1-3.04-2.27-6.14-1.92-11.58h0Z"/>
  <path class="cls-1" d="M447.66,154.69c-3.3-1.95-3.04-4.65-3.88-6.83-2.62-6.88-6.45-12.69-12.16-17.66-9.12-7.93-17.1-16.99-19.92-29.32-.79-3.46-2.86-5.93-5.28-8.26-2.82-2.71-6.19-4.93-7.76-8.74-.5-1.2-1.31-2.17-2.6-2.24-6.65-.35-9.72-5.56-13.41-9.86-2.18-2.54-4.31-5.21-7.28-6.73-8.08-4.12-11.98-12.75-19.29-17.68-.69-.46-1.18-1.43-1.44-2.26-1.22-3.77-2.82-8.37.22-11.13,2.78-2.52,5.95,1.31,8.83,2.68.54.25,1.08.59,1.51,1.01,12.1,12.13,27.85,20.42,38.36,33.93,13.65,17.55,28.62,34.41,37.26,55.42,1.83,4.47,4.34,8.66,6.22,13.1,1.89,4.45,3.2,9.08.62,14.55v.02Z"/>
  <path class="cls-1" d="M335.17,21.71c-13.03,6.07-24.05,5.45-34.77-.05-5.7-2.92-11.42-4.34-17.85-5.3-11.29-1.68-22.71-2.72-33.94-4.91-6.19-1.21-10.52-5.67-15.9-8.27-.38-.18-.66-1.03-.62-1.54.08-1.02,1.04-1.89,1.82-1.59,8.91,3.51,18.22,1.01,27.02,2,8.63.96,17.27,1.44,25.9,1.89,7.68.41,14.97,1.6,21.4,6.1,2.52,1.76,5.34,2.67,8.31,3.38,6.15,1.47,11.78,4.15,18.61,8.27h0Z"/>
  <path class="cls-1" d="M258.05,445.81c-3.22,3.04-6.85,4.87-7.98,8.79-.45,1.54-1.86,2.19-3.52,2.36-9.26.97-18.52,2.02-27.79,2.98-1.19.13-2.51.23-3.6-.15-10.03-3.55-21.36-2.66-30.53-9.42-3.57-2.63-8.1-4.01-12.7-4.44-1.2-.11-2.64-.05-3.05,1.29-.58,1.89,1.72,2.15,3.07,4.97-10.54-2.59-19.93-4.89-29.51-9.93,3.66-3.54,6.31-1.81,8.97-.88,8.26,2.87,9.16,2.13,8.41-7.01,2.56-1.58,4.8-.07,6.51,1.35,4.45,3.72,9.66,4.48,15.12,5.06,7.78.83,15.52,2.03,23.26,3.23,5.4.84,10.9,1.46,12.02,8.67.44,2.82,3.13,3.43,5.78,2.79,3.56-.85,7.34-1.91,9.54-4.83,3.62-4.81,8.5-5.32,13.71-5.24,3.76.06,7.59-1.54,12.27.41h0Z"/>
  <path class="cls-1" d="M450.27,180.64c8.93-.03,9.04-.05,10.38,8.44.89,5.63,1.55,11.31,2.03,16.99.17,2.03-.15,4.27-.86,6.18-1.33,3.52-4.03,6.74-7.62,6.9-3.65.16-3.28-4.41-4.58-6.92-.94-1.82-1.68-4.05-1.56-6.04.44-7.03-1.38-13.71-2.53-20.51-.84-5-.74-5.02,4.73-5.04h0Z"/>
  <path class="cls-1" d="M14.89,261.42c-4.29-5.78-2.81-11.32-4.73-15.96-1.48-3.58-1.74-8.11-7.66-5.66-1.14.47-2.43-.54-2.49-1.93-.09-2.19.5-5.02,3.02-4.58,6.38,1.12,5.52-2.93,5.04-6.48-.91-6.65,1.05-13.19.52-19.81-.09-1.13.35-2.4.87-3.43.54-1.06,1.56-2.06,2.88-1.52.64.26.97,1.3,1.38,2.03.13.23.08.61,0,.88-4.03,13.56,1.21,26.64,2.03,39.95.31,4.95,1.53,10.04-.85,16.52h0Z"/>
</svg>