<?xml version="1.0" encoding="UTF-8"?>
<svg id="Layer_1" xmlns="http://www.w3.org/2000/svg" viewBox="0 0 3401.13 3401.99">
  <defs>
    <style>
      .cls-1 {
        fill: #fff;
      }
    </style>
  </defs>
  <path class="cls-1" d="M1396.31,3371.28c-6.64,2.84-12.76,1.26-18.62-.94-5.09-1.92-10.25-2.9-15.61-2.93-4.7-.02-9.41-.34-13.82-1.81-17.66-5.84-36.55-7.08-53.76-14.5-3.48-1.5-7.17-1.28-10.76-1.91-11.81-2.07-23.66-4.11-33.63-11.56-2.57-1.92-5.51-2.36-8.56-1.66-5.14,1.19-9.98.28-14.54-2.03-6.92-3.5-14.88-2.51-22.07-5.79-5.64-2.57-12.09-3.37-17.17-7.52-.96-.79-2.48-1.28-3.73-1.26-16.25.25-30.25-7.6-44.8-12.96-16.79-6.19-33.69-12.28-49.72-20.47-3.47-1.77-7.61-2.43-11.53-3.09-10.35-1.73-19.81-5.56-28.46-11.41-2.25-1.52-4.66-2.56-7.23-3.28-1.92-.54-4.05-.68-5.76-1.6-22.12-11.91-47.41-17.03-68.09-32.1-5.47-3.98-13.42-4.21-17.27-10.96-.26-.45-1.23-.84-1.77-.74-9.07,1.86-14.79-4.91-21.69-8.49-2.98-1.55-6-2.84-9.17-3.88-5.42-1.77-10.67-4.01-15.06-7.67-5.44-4.53-11.26-8.26-17.99-10.54-.63-.21-1.37-.41-1.79-.86-11.1-12.04-28.08-13.21-40.72-21.83-10.53-7.18-22.47-12.63-31.01-23.03-4.71-5.73-12.57-8.62-19.63-11.24-11.03-4.08-20.44-11.05-30.94-16.01-1.47-.69-2.92-1.78-3.91-3.05-8.67-11.07-20.74-17.26-33.01-23.2-1.2-.58-2.52-1.03-3.54-1.84-18.08-14.57-38.53-25.95-55.48-42.16-8.07-7.72-18.41-13.02-27.44-19.79-15.68-11.74-30.55-24.42-44.72-38.02-8.49-8.15-15.44-18.38-26.99-23.06-.9-.36-1.88-.98-2.4-1.75-6.26-9.31-15.95-15.26-23.08-23.71-1.27-1.51-2.55-3.17-4.18-4.2-12.85-8.11-22.28-19.97-33.23-30.16-.73-.68-1.61-1.36-1.99-2.22-3.64-8.19-9.12-14.36-17.92-17.2-1.17-.38-2.66-1.48-2.96-2.55-2.72-9.53-12.41-13.33-17.09-21.14-2.39-3.98-7.7-4.72-9.53-8.54-5.34-11.1-18.28-15.26-23.45-26.58-1.37-3.01-5.34-4.85-8.17-7.16-5.75-4.68-10.44-10-13.52-16.97-3.96-8.96-11.55-15.38-18.37-22.01-14.9-14.46-27.1-31.08-39.26-47.7-5.5-7.52-10.84-15.14-16.83-22.3-5.13-6.13-10.1-12.32-13.07-19.94-3.09-7.93-9.82-13.37-14.85-19.95-14.14-18.52-28.23-37.03-38.67-57.98-2.1-4.22-4.64-8.07-7.99-11.39-2.66-2.64-4.37-5.84-5.51-9.38-1.02-3.17-2.12-6.3-4.57-8.77-4.83-4.85-8.24-10.44-8.91-17.43-.32-3.29-2.18-5.58-5-6.99-4.17-2.09-6.71-5.59-8.07-9.77-4.08-12.56-12.6-22.61-18.79-33.96-1.43-2.62-3.71-4.86-4.71-7.6-1.22-3.33-6.29-6.48-2.02-10.39,2.31-2.12,13.84,1.6,15.13,4.83,4.9,12.3,14.22,21.67,21.05,32.67,3.68,5.93,6.78,12.16,12.62,16.51,1.74,1.3,2.76,3.72,3.81,5.78,3.49,6.84,7.35,13.43,12.19,19.43,4.17,5.17,5.67,10.84,4.57,17.68-2.17,13.6,2.05,20.39,14.74,25.66.92.38,1.85.75,2.78,1.13,5.51,2.22,6.92,6,4.22,11.35-2.15,4.27-1.14,8.03,3.63,7.99,11.72-.09,16.39,7.69,21.93,15.83,4.3,6.33,9.06,12.22,12.05,19.41,1.36,3.27,4.07,6.05,6.42,8.83,2.15,2.53,4.65,4.77,7.01,7.12,6.74,6.73,9.12,16.42,15.05,23.36,6,7.02,13.62,12.68,17.94,21.18.45.89.8,1.91,1.47,2.6,13.28,13.59,23.56,29.64,36.04,43.91,7.6,8.69,15.53,17.26,21.03,27.6,1.57,2.96,3.45,5.61,6.29,7.6,11.92,8.38,20.96,19.03,25.68,33.05,1.43,4.23,5.47,5.82,8.96,7.48,4.52,2.15,7.63,4.95,9,9.89,1.21,4.34,4.44,7.33,7.93,10.02,7.92,6.09,15.39,12.87,23.79,18.19,17.44,11.04,29.43,26.59,39.36,44.2,5.08,9.01,10.68,17.6,19.43,23.77,5.87,4.13,11.84,7.58,19.18,7.4,6.42-.16,10.92,2.78,13.86,8.1,7.32,13.23,19.36,21.83,30.43,31.36,4.59,3.96,10.25,6.26,16.06,7.84,5.88,1.59,10.16,4.38,11.88,10.7,1.83,6.71,7.68,9.87,13.22,12.89,4.06,2.22,8.49,3.83,12.83,5.5,4.07,1.56,6.87,4.05,7.24,8.61,1.21,14.95,11.75,20.73,24.23,24.22,3.87,1.08,7.76,1.57,10.85,4.5,1.8,1.7,4.18,2.24,6.53,1.38,5.38-1.97,9.99-.05,13.94,3.16,11.15,9.07,24.09,15.45,35.54,24.06,3.21,2.41,6.67,4.48,8.33,8.36,1.21,2.83,3.14,4.06,6.28,3.54,4.27-.69,7.88,1.07,11,3.73,3.36,2.86,7.59,4.15,11.17,6.45,12.81,8.21,27.13,14.3,37.4,26.16,4.8,5.54,11.51,7.77,18.27,9.56,14.29,3.77,27.15,10.69,39.42,18.52,6.53,4.17,14.26,7.37,17.75,15.5,1.28,2.97,4.79,3.43,7.94,2.59,6.77-1.81,12.34.78,17.78,4.39,2.47,1.64,5.27,2.79,7.94,4.12,3.28,1.63,7.86,2.35,9.63,4.98,5.5,8.17,12.83,9.29,21.82,9.16,5.02-.07,10.45,2.42,15.05,4.95,12.21,6.71,26.26,9.52,37.34,18.8,4.13,3.46,10.09,4.72,14.14,8.97,2.48,2.6,6.19,1.87,9.5,2.03,11.18.54,21.99,2.02,28.53,12.88,1.04,1.74,2.59,2.05,4.28,1.35,4.76-1.98,9.03.4,13.58,1.1,23.73,3.68,44.2,16.45,66.67,23.65,10.8,3.46,22,4.8,32.79,8.25,15.14,4.85,30.84,8.05,43.62,18.43,8.5,6.9,18.33,10.81,29.09,12.3,20.79,2.88,41.46,6.34,61.81,11.61,11.47,2.97,22.83,6.18,33.06,12.75h.03,0Z"/>
  <path class="cls-1" d="M3151.13,820.5c-6.14-3.8-11.98-5.8-18.23-6.48-3.21-.35-5.39-2.47-6.85-5.27-7.4-14.17-17.94-26.35-25.07-40.82-4.62-9.38-11.98-17.6-18.99-25.57-5.16-5.87-5.28-13.87-9.38-19.44-3.89-5.28-11.34-7.76-14.51-14.43-3.77-7.91-9.31-14.48-15.55-20.61-5.7-5.6-10.19-12.13-14.59-18.88-10.68-16.39-23.41-31.27-36.47-45.84-5.1-5.69-10.5-11.05-12.94-18.73-1.51-4.75-4.31-8.87-9.78-10.56-3.97-1.22-6.87-4.41-8.3-8.21-2.01-5.34-6.13-8.27-10.3-11.69-9.78-8.04-18.65-17.11-27.08-26.57-4.65-5.22-9.19-10.53-13.75-15.83-1.73-2.01-4.32-3.87-4.88-6.19-2.15-8.84-9.01-12.78-16-16.77-4.09-2.33-7.88-5.06-10.66-8.91-5.12-7.08-11.79-12.49-18.2-18.32-8.89-8.08-18.35-15.37-27.64-22.9-6.53-5.28-11.57-11.91-17.3-17.91-9.95-10.43-21.75-18.5-33.14-27.16-12.58-9.56-22.9-21.8-36.58-30.27-10.39-6.44-20.68-13.48-27.83-23.94-.69-1.01-2.06-1.79-3.28-2.17-13.28-4.18-22.55-13.73-31.77-23.39-1.37-1.43-2.8-3.25-4.55-3.78-9.78-3.02-17.4-9.8-25.46-15.38-11.47-7.94-23.08-15.73-34.4-23.92-9.73-7.04-18.73-14.85-27.01-23.56-7.52-7.91-18.27-9.37-27.86-12.74-11.77-4.13-22.19-10.28-32.64-16.83-8.09-5.06-17.09-8.67-25.69-12.91-3.58-1.76-7.19-3.47-10.78-5.21-6.93-3.37-11.96-8.29-13.76-16.11-.88-3.81-3.74-7.02-4-10.86,2.58-2.53,4.79-.98,6.82-.21,13.14,4.98,25.69,11.04,36.29,20.54,2.5,2.24,5.41,3.69,8.49,5.09,17.55,7.96,35.25,15.4,50.72,27.55,7.65,6.01,15.94,12,25.55,15.3,2.18.75,4.31,1.86,6.21,3.18,17.46,12.11,35.95,22.71,52.7,35.86,14.59,11.45,30.33,21.21,45.82,31.37,13.59,8.91,26.63,19.01,38.46,30.13,9.79,9.21,21.77,15.23,31.39,24.53,6.2,5.99,12.86,11.16,17.56,18.82,4.28,6.98,10.54,12.74,18.62,16.06,8.72,3.59,15.62,9.53,22.19,16.49,8.4,8.89,18.33,16.36,27.75,24.26,3.85,3.22,7.73,6.4,10.81,10.33,8.25,10.52,16.98,20.52,28.18,28.08,1.08.73,2.26,1.71,2.75,2.85,4.01,9.35,12.45,14.66,19.58,20.96,5.79,5.11,10.88,10.63,15.7,16.59,8.74,10.82,17.2,21.94,28.72,30.13.81.57,1.76,1.2,2.18,2.03,7.31,14.62,22.42,23.62,28.24,39.3.95,2.56,2.55,4.52,4.97,6.02,11.52,7.14,19.9,17.25,27.59,28.27,3.16,4.52.73,10.52,4.27,13.69,3.22,2.88,8.29,3.37,11.56,7.16,4.45,5.16,6.54,11.57,10.14,17.16,6.34,9.86,14.44,18.2,22.05,26.97,3.11,3.58,6.52,6.98,7.01,11.79.55,5.41,3.72,8.85,6.91,12.81,11.99,14.88,26.4,27.93,33.66,46.41,4.15,10.55,13.29,18.24,18.42,28.38,1.44,2.84,4.03,5.18,3.86,10.3l.05-.04h0Z"/>
  <path class="cls-1" d="M742.43,308.2c-2.46-8.37,2.14-11.82,8.2-14.29,9.68-3.94,18.12-9.33,24.94-17.62,5.51-6.7,12.52-11.93,21.64-13.43,3.3-.54,6.3-2.19,8.93-4.3,3.16-2.54,6.46-4.69,10.56-5.37,2.78-.46,5-1.92,6.39-4.36,5.01-8.75,13.56-12.6,22.42-15.58,5.51-1.85,10.28-4.49,14.7-8.16,8.77-7.27,18.94-12.37,28.67-18.14,1.7-1.01,3.64-2.04,5.54-2.2,10.54-.88,17.47-8.8,26.12-13.3,3.21-1.67,6.03-4.39,9.61-5.14,6.76-1.43,12.44-4.27,17-9.61,2.21-2.59,5.79-2.96,9.03-3.84,14.17-3.85,27.3-9.58,39.68-17.92,11.47-7.72,23.97-14.63,38.44-15.57,4.1-.27,6.64-2.72,9.51-4.94,9-6.95,30.23-14.47,43.39-15.06-3.79,4.37-8.42,6.34-12.54,8.78-11.21,6.64-22.21,13.5-31.7,22.52-7.35,6.98-17.22,8.31-26.22,11.54-2.81,1.01-5.79,1.56-8.34,3.19-12.39,7.92-26.3,12.67-39.47,18.95-2.15,1.02-4.12,2.09-5.8,3.74-1.94,1.92-4.29,3.89-6.89,3.7-7.61-.56-12.33,3.57-16.71,8.86-1.24,1.49-2.96,2.89-4.75,3.56-15.23,5.69-27.77,17.12-44.29,20.18-6.99,1.29-12.51,5.99-17.59,10.95-2.14,2.08-4.15,4.88-6.76,5.78-9.18,3.19-16.82,9.13-25.41,13.27-6.97,3.36-13.62,7.03-19.2,12.41-4.6,4.44-9.7,8.27-15.34,11.1-17.89,8.96-33.43,21.72-51.26,30.86-8.12,4.16-14.25,11.81-22.07,16.95-7.78,5.12-15.17,10.84-23.44,15.23-1.75.93-3.75,1.84-4.94,3.31-7.32,9-17.71,13.95-26.77,20.66-.53.4-1.3.61-1.64,1.11-7.39,10.89-19.57,14.35-30.5,19.81-13.62,6.81-25.28,16.09-34.1,28.64-7.33,10.43-16.14,19.31-25.84,27.62-6.56,5.62-12.7,11.59-20.26,15.91-2.6,1.49-4.62,3.72-6.37,6.24-5.46,7.86-12.46,13.76-21.94,16.19-2.91.74-4.83,2.28-5.14,5.31-1.02,10.07-9.21,14.95-15.36,21.26-11.09,11.38-24.35,20.57-33.75,33.67-2.54,3.53-5.69,6.48-9.18,9.13-3.17,2.41-6.57,4.79-8.98,7.88-5.1,6.55-10.81,11.58-19.41,12.81-4.13.59-7.03,3.64-9.51,6.87-3.45,4.49-6.82,9.05-10.29,13.52-1.42,1.83-2.75,3.81-5.03,4.74-1.62.67-3.32.78-4.71-.36-1.48-1.21-1.34-2.99-.78-4.6,1.11-3.23,3.06-6.16,5.76-8.02,10.08-6.91,16.2-17.24,23.68-26.42,3.95-4.85,7.86-10.06,14.8-11.15,3.05-.48,3.85-3.31,5.34-5.49,12.13-17.89,25.01-35.16,42.8-47.96,6.54-4.71,10.97-11.42,16.74-16.9,16.87-16.01,33.47-32.3,50.76-47.89,12.65-11.4,25.86-21.94,40.65-30.41,3.25-1.86,5.86-4.28,8.12-7.25,7.78-10.22,18.01-17.65,28.29-25.1,4.14-3,9.38-1.36,13.13-3.9,3.85-2.61,3.15-8.54,7.19-11.64,12.12-9.3,23.95-18.99,36.07-28.29,7.14-5.48,16.33-7.54,23.29-13.46,3.36-2.86,6.1,1.24,10.89,1.42h0Z"/>
  <path class="cls-1" d="M2383.5,3255.06c4.02-9.85,10.08-17.59,17.32-24.36,3.28-3.07,7.84-3.6,12.28-2.74,5.86,1.14,10.38-.94,14.25-5.19,11.8-12.97,27.92-18.88,43.16-26.17,2.98-1.42,6.55-1.87,9.01-4.16,7.69-7.16,17.08-9.93,27.14-11.43,7.29-1.08,14.77-2.84,20.73-6.91,10.73-7.34,21.54-14.57,32.26-21.84,16.22-10.99,31.17-23.69,50.04-30.2,3.22-1.11,6.01-2.87,8.33-5.33,8.35-8.82,18.15-15.6,29.14-20.67,3.68-1.7,6.71-3.96,9.41-7.12,4.32-5.05,9.82-8.81,15.37-12.56,11.82-7.99,24.03-15.4,35.06-24.61,10.17-8.49,20.6-16.74,32.09-23.51,2.54-1.5,4.86-3.51,6.96-5.6,4.28-4.28,8.47-8.43,15-9.12,3.15-.34,5.32-2.48,6.7-5.41,4.27-9.06,11.87-15.32,19.49-21.09,7.59-5.75,14.51-12.73,23.93-15.86,3.64-1.21,6.13-3.92,7.67-7.44,2.47-5.66,6.65-9.94,11.29-13.79,10.97-9.12,21.33-18.96,32.97-27.26,3.34-2.38,5.67-5.6,8.04-8.81,2.99-4.05,6.17-7.87,10.66-10.34.58-.32,1.46-.52,1.69-1.01,4.84-10.31,15.24-15.37,22.48-23.49,11.41-12.79,21.67-26.91,35.88-37.07,1.07-.76,2.27-1.59,2.89-2.68,8.67-15.28,22.63-25.83,34.26-38.45.67-.73,1.53-1.41,1.89-2.29,8.56-21.02,26.17-34.9,40.49-51.37,5.49-6.31,9.33-13.72,14.07-20.53,2.5-3.6,5.18-6.93,8.53-9.7,2.39-1.97,5-3.88,7.88-.95,2.63,2.68,5.24,5.95,2.51,9.67-4.52,6.17-7.58,13.35-13.01,18.86-5.42,5.49-10,11.58-13.69,18.36-.48.88-.81,1.93-1.51,2.57-11.02,10.15-18.48,23.31-28.86,33.99-3.01,3.1-6.4,5.94-8.9,9.42-5.14,7.19-10.94,13.28-19.51,16.41-3.56,1.3-5.96,4.31-7.03,8.01-1.63,5.63-4.11,10.5-9.62,13.34-1.11.57-2.32,1.68-2.7,2.8-3.56,10.7-12.99,16.64-19.96,24.51-6.07,6.85-10.88,15.25-20.35,18.62-1.43.51-2.22,3.16-3.06,4.93-1.16,2.45-2.35,5.4-4.74,6.24-8.13,2.86-12.6,9.08-16.4,16.16-.3.56-.86,1.07-1.42,1.39-10.34,5.88-16.64,16.03-25.11,23.9-8.82,8.2-18.48,15.22-28.17,22.26-1.34.97-3.55,1.38-4.16,2.63-3.98,8.1-11.9,12.16-17.82,18.24-4.42,4.54-8.91,8.94-13.74,13.02-9.61,8.13-20.84,14.23-29.23,23.97-2.7,3.13-6.94,5.34-10.9,6.89-12.32,4.8-21.85,13.15-30.57,22.67-3.08,3.36-7.15,4.75-11.29,6.06-3.98,1.26-7.39,3.03-8.08,7.78-.64,4.43-3.84,6.83-7.47,8.75-4.41,2.34-8.75,4.84-13.31,6.85-3.72,1.64-7.16,3.38-9.73,6.67-2.93,3.74-6.61,6.55-11.23,7.97-2.28.7-4.41,1.73-5.67,3.83-4.16,6.9-11.12,10.31-17.59,14.36-16.91,10.6-34.36,20.37-51.23,30.96-15.44,9.69-31.84,17.69-46.96,27.86-1.95,1.31-3.78,2.65-5.35,4.42-1.31,1.48-2.68,3.25-4.4,3.96-19.92,8.17-35.82,23.21-56.02,31.4-16.8,6.81-33.3,14.96-49.51,23.41-8.54,4.45-17.48,8.1-25.8,13.03-4.79,2.83-10.05,4.92-16.74,2.86l-.03.03h0Z"/>
  <path class="cls-1" d="M1641.56,3382.72c19.2,1.09,37.4-3.57,55.52,1.37,1.8.49,4.06.17,5.89-.45,5.82-1.96,11.11-1.47,15.98,2.45,3.33,2.69,6.61,2.58,9.96-.12,5.33-4.29,11.67-3.92,18.05-4.13,23.21-.74,46.43-1.55,69.62-2.32,11.89-.39,23.47-2.47,35.18-2.89,12.71-.46,25.19-1.66,37.57-4.35,2.92-.63,6.03-1.78,8.83-1.33,10.16,1.64,19.71-1.83,29.52-2.92,5-.55,9.82-1.19,14.82,0,3.24.77,6.61.59,9.75-1.01,11.82-6.03,24.68-7.52,37.64-8.57,1.66-.13,3.41.02,4.96-.47,20.36-6.37,41.57-8.91,62.31-13.59,15.21-3.44,30.31-7.49,45.65-10.37,2.63-.49,5.27-1.16,7.91-.5,3.48.87,6.29.2,9.29-1.94,4.41-3.14,9.84-4.34,15.1-4.71,6.47-.45,12.17-2.57,18.11-4.89,15.2-5.95,30.96-10.16,47.32-11.37,5.23-.39,9.81-1.94,13.81-5.07,8.36-6.53,18.33-9.33,28.13-12.5,4.61-1.49,9.28-1.56,13.26,1.79,3.01,2.53,7.55,4.76,7.29,8.92-.28,4.34-5.57,3.84-8.73,5.31-5.76,2.69-11.69,4.66-18.17,4.98-4.8.24-8.16,4.59-12.76,5.41-15.68,2.8-29.58,11.56-45.88,12.87-7.02.56-13.79,4.52-21.35,3.38-1.15-.17-2.57.6-3.7,1.24-17.63,10.01-36.97,14.17-56.78,16.79-1.32.17-2.93-.19-3.93.45-11.99,7.62-26.27,6.17-39.23,9.99-19.82,5.84-40.16,9.32-60.71,11.44-.99.1-2.1-.05-2.96.34-15.93,7.27-33.35,5.11-49.94,8.05-14.4,2.55-28.83,4.61-43.33,6.33-14.52,1.73-29.08,2.84-43.65,3.95-14.86,1.13-30.03-.32-44.49,2.17-14.09,2.43-28.25.41-42.35,3.93-13.78,3.45-28.55.16-42.81.95-15.97.88-31.89.22-47.84.4-8.29.09-15.26-1.27-17.92-10.57-.42-1.48-1.75-2.88-3.01-3.88-1.65-1.32-2.2-.47-1.83,1.41.48,2.4-.86,3.24-2.73,2.15-2.77-1.61-5.91-3.05-7.4-8.14l.03.02h0Z"/>
  <path class="cls-1" d="M6.54,1815.12c-4.64-5.72-3.38-11.28-3.39-16.33-.02-12.32-1.74-24.5-2.35-36.75-.59-11.95-.28-23.91,1.09-35.81.3-2.63,1.24-5.43.69-7.88-4.8-21.5-1.76-42.96-.02-64.43.27-3.36.07-6.63-.62-9.92-1.39-6.61-1.62-13.3.19-19.82,2.12-7.64-.84-15.26.49-22.87,2.45-14.03,4.78-28.01,2.9-42.44-.67-5.11.8-10.61,1.85-15.81,2.38-11.79,3.98-23.61,3.77-35.67-.05-2.63-.32-5.81.95-7.82,6-9.42,4.28-19.86,4.65-30.01.21-5.72.66-11.31,3.6-16.4,1.4-2.43,1.85-4.95.68-7.64-2.47-5.69-1.05-11.15,1.32-16.41,2.1-4.66,3.11-9.31,2.64-14.51-.82-9.15,3.57-17.49,4.69-26.44,1.7-13.52,3.93-27.09,7.44-40.24,5.13-19.27,8.3-38.97,14.23-58.09,4.23-13.62,7.79-27.42,12.59-40.93,2.59-7.3,2.49-15.71,4.75-23.39.97-3.3.93-8.93,5.43-8.11,4.5.82,2.42,5.92,2.24,9.46-.67,13.25-1.21,26.51-1.7,39.77-.27,7.46-1.99,14.48-5.69,20.98-1.48,2.6-3.41,5.16-3.1,8.29,1.7,17.11-4.87,32.75-8.41,48.94-2.84,12.98-4.59,26.24-7.97,39.07-5.11,19.36-7.7,39.07-10.5,58.82-1.2,8.43-4.23,16.66-7.87,24.63-8.79,19.25-11.09,39.34-7.58,60.41,1.45,8.7.85,17.97-.25,26.8-1.25,9.97-1.96,19.92-1.56,29.88.43,10.86-2.69,21.09-4.38,31.58-1.87,11.61-3.21,23.11,1.71,34.4,1.36,3.11,1.4,6.66.8,9.87-2.69,14.31.64,28.53.43,42.79-.09,6.03.22,12.03-2.35,17.65-1.52,3.31-1.26,6.45.15,9.63,2.26,5.11,2.06,10.43,1.01,15.71-1.84,9.3-1.32,18.46.12,27.8,2.38,15.4-4.26,28.12-12.67,41.24h0Z"/>
  <path class="cls-1" d="M29.78,1900.15c-2.29,8.99,3.82,18.42,4.64,28.65.05.66.41,1.3.41,1.95-.12,20.27,9.15,39.43,7.06,59.94-.23,2.28-.25,4.86.58,6.92,10.16,25.07,12.22,52.17,19.7,77.94,4.33,14.93,5.09,30.85,9.79,45.81,4.78,15.22,7.71,30.93,13.38,45.96,4.92,13.04,7.73,26.86,12.31,40.05,6.31,18.19,9.55,37.41,18.29,54.78,1.73,3.44,1.86,6.86.86,10.63-2,7.59-1.85,15.16,1.4,22.48,1.09,2.46,1.84,5.03,1.64,7.74-.8,10.7,3.42,19.44,10.42,27.15,2.24,2.46,4.4,4.99,6.57,7.52,4.95,5.79,3.19,11.62-4.22,14.23-2.5.88-3.79-.42-4.69-2.36-1.82-3.92-3.75-7.81-5.26-11.85-7.9-21.17-15.49-42.46-23.56-63.57-9.03-23.62-15.81-47.93-23.46-71.99-3.52-11.08-8.28-21.9-9.42-33.44-1.11-11.17-5.54-20.98-9.19-31.21-1.1-3.09-1.33-6.49-1.86-9.76-.37-2.29-.09-4.82-.94-6.89-6.86-16.72-9.32-34.56-13.72-51.91-1.7-6.7-.77-13.12-.47-19.76.3-6.9-7.75-10.65-8.17-17.71-.23-3.98-.98-7.94-1.13-11.92-.68-18.62-7.79-35.97-10.49-54.17-1.7-11.49-2.65-23.08-3.86-34.64-.17-1.64.47-3.44.03-4.97-5.64-19.64-2.96-40.38-8.02-60.12-1.14-4.45-1.31-9.25-1.27-13.88.05-5.21,2.61-6.47,7.12-3.57,4.19,2.69,8.54,5.63,9.69,10.92,2.83,12.98,6.65,25.83,5.84,41.07v-.02h0Z"/>
  <path class="cls-1" d="M1670.6.49c10.91,1.09,20.43,1.15,29.96,1.01,8.65-.13,17.3.29,25.9-1.27,2.23-.41,4.68-.21,6.94.19,8.16,1.46,16.49,1.08,24.56,1.89,21.47,2.15,42.97.76,64.47,2.41,23.84,1.83,47.36,6.25,71.33,7.06,17.52.59,34.96,4.22,52.4,6.73,7.57,1.09,15.02,2.77,22.74,2.77,6.03,0,12.32.72,17.52,3.41,10.16,5.27,21.35,4.98,31.95,6.28,13.6,1.67,26.94,4.29,40.22,7.21,16.54,3.64,32.83,8.29,49.09,13.18,13.5,4.06,27.52,7.46,41.61,9.77,7.21,1.18,13.85,3.87,20.9,6.71-7.69,5.2-22.09,6.75-30.43,2.45-9.66-4.97-19.81-7.58-30.41-9.2-11.54-1.76-22.9-4.28-33.83-8.54-3.73-1.45-7.7-1.97-11.66-2.58-11.49-1.76-23.23-1.79-34.51-5.18-5.18-1.56-10.6-.72-15.78.81-6.88,2.03-13.83,2.14-20.74.55-21.7-5.02-43.9-7.2-65.71-11.75-11.5-2.4-23.74-2.19-35.53-4-17.09-2.62-34.49-1.98-51.52-5.48-7.78-1.6-15.9-.3-23.89-1.2-9.87-1.1-19.88-.94-29.83-1.38-2.32-.1-4.97.26-6.89-.72-7.8-4-15.44-2.39-23.26-.33-5.87,1.54-11.81,1.02-18.37.08,1.32-4.69,5.42-3.92,7.99-5.23,3.57-1.81,9.27-3.59,8.1-7.41-1.5-4.9-6.86-1.62-10.33-.64-22.87,6.41-45.37,6.44-67.42-3.28-1.21-.53-2.41-1.09-3.58-1.69-.27-.14-.41-.51-1.99-2.63h0Z"/>
  <path class="cls-1" d="M3376.04,1976.11c-2.99-8.78-5.99-17.55-8.95-26.33-.77-2.28-.34-4.59-.03-6.91,1.63-12.54,2.97-25.1,3.16-37.77.18-12.08,5.71-23.24,6.44-35.2.97-15.99,5.84-31.16,8.83-46.73,4.11-21.37,4.33-43.02-.37-64.48-1.93-8.8-3.23-17.5-1.53-26.65,1.46-7.88-1.91-15.76-1.48-23.82.28-5.34.06-10.65,2.39-15.64.86-1.83,1.55-3.8,1.07-5.8-4.68-19.9-.99-40.29-3.55-60.33-1.3-10.2-1.37-20.58-2.88-30.74-1.11-7.47.57-14.58.98-21.84.22-3.8,2.43-6.11,6.31-6.5,3.84-.38,6.62,1.35,7.6,5,1.11,4.16,2.99,8.75,2.16,12.64-1.62,7.58.6,14.32,1.74,21.49,1.5,9.48,2.39,19.22-1.11,28.63-.69,1.87-1.67,3.84-.57,5.76,4.86,8.44,2.53,17.55,2.49,26.4-.03,7.97-1.04,15.94,1.69,23.74.63,1.81.98,4.15.41,5.89-4.95,15.01-.92,30.34-1.82,45.49-.61,10.27-.01,20.61.04,30.92,0,1,.23,2.08-.07,2.98-4.88,14.75.07,30.2-2.84,44.8-2.34,11.73-.15,23.88-4.48,35.24-.56,1.48-.77,3.41-.36,4.9,1.81,6.53.05,12.51-2.35,18.45-1.92,4.75-2.21,9.66-1.89,14.71.72,11.35-.38,22.47-3.01,33.63-1.89,8.01-1.96,16.45-2.81,24.71-.8,7.82-3.84,15.28-2.56,23.44l-2.62-.1-.03.02h0Z"/>
  <path class="cls-1" d="M3375.03,1529.05c.74-10.51-2.18-18.87-3.68-27.28-3.52-19.69-5.99-39.47-7.72-59.36-.61-7-1.97-13.69-4.29-20.4-3.37-9.77-3.36-20.29-5.06-30.45-.22-1.31.15-2.76-.26-3.97-5.01-14.88-6.17-30.55-9.58-45.76-.36-1.62-1.63-3.32-1.33-4.75,2.62-12.69-5.69-23.81-5.04-36.18.07-1.28-.08-2.97-.84-3.84-8.59-9.83-7.89-23.07-12.72-34.27-1.29-3-2.14-6.44-2.15-9.68-.02-5.15-1.41-9.71-3.26-14.43-2.38-6.07.43-10.31,6.75-11.85,3.42-.83,6.09.07,7.4,3.31,1.88,4.64,3.72,9.46-.07,14.12-3.55,4.35-2.29,8.04,1.63,11.19,5.22,4.2,7,9.97,9.12,16.1,4.02,11.64,7.28,23.44,10.27,35.35.57,2.26,1.73,4.49,1.76,6.75.28,21.27,10.39,40.35,13.41,60.99,1.1,7.55,3.03,15.03,2.35,22.75-.24,2.76.14,5.39,1.32,7.78,8.17,16.65,8.32,34.86,9.74,52.68,1.08,13.64,4.21,26.95,5.27,40.53,1.06,13.53,3.25,27.04,2.22,40.64-.34,4.53.83,8.53,1.79,12.72.6,2.65,1.02,5.5-2.24,6.81-2.75,1.11-5.24,0-7.39-1.75-2.47-2.01-3.17-5.04-4.1-7.86-2.31-7.01-3.17-14.26-3.27-19.9h-.03,0Z"/>
  <path class="cls-1" d="M1631.89,4.31c-16.86,11.82-32.62,24.35-54.73,18.86-14.77,2.92-30.03-.73-44.52,2.26-11.38,2.35-23.22,2.06-34.27,6.23-4.35,1.64-8.53.43-11.85-3.11-1.37-1.46-2.79-2.89-4.35-4.12-5.34-4.22-8.25-4.53-13.42-.52-14.96,11.61-31.35,18.73-50.7,19.12-8.55.18-17.05,2.79-25.57,4.25-1.97.34-3.96.62-5.95.69-2.7.1-5.61.06-6.73-3.03-1.14-3.15-1.61-6.52-.3-9.76.52-1.3,2.05-1.99,3.33-1.7,10.38,2.34,18.67-3.83,27.54-7.03,11.14-4.02,23.16-2.55,34.2-6.51,9.27,4.84,17.06-1.12,25.41-3.33,3.18-.84,6.6-.74,9.88-1.22,9.41-1.38,19.02-.05,28.38-3.57,5.35-2.01,11.67-2.48,17.73-1,2.21.54,4.76.71,6.94.17,23.18-5.69,46.74-5.8,70.4-5.67,7.56.04,15.13-2,22.7-3.07,1.67-.23,3.32-.24,5.88,2.07h0Z"/>
  <path class="cls-1" d="M121.63,1074.19c1.73-12.53,6.46-22.04,11.63-31.24,2.15-3.82,4.11-7.53,5.1-11.79.45-1.94.86-3.98,1.78-5.7,9.28-17.29,14.79-36.27,24.47-53.42,6.69-11.84,10.86-24.95,17.52-36.9,10.51-18.88,19.31-38.69,31.09-56.88,2.89-4.46,5.19-9.3,7.75-13.97,1.6-2.92,2.63-6.4,4.88-8.68,13.06-13.22,16.57-32.34,28.95-46.06,4.09-4.53,4.4-11.79,8.42-16.87,1.44-1.82,2.56-3.91,3.99-5.75,1.24-1.6,2.86-3.17,5.04-2.32,2.13.83,2.52,3.06,2.35,5.08-.49,5.89-2.85,11.27-7.25,14.96-21.1,17.68-29.48,42.05-36.61,67.32-3.99,14.16-11.78,26.79-18.11,39.98-5.04,10.5-11.38,20.38-14.72,31.66-.89,3-2.76,5.3-4.94,7.39-9.3,8.95-15.37,19.97-20.69,31.56-5.26,11.46-9.11,23.61-16.98,33.81-2.45,3.18-3.48,7.19-3.61,11.28-.5,14.94-7.43,26.71-18.07,36.61-3.34,3.1-5.98,7.08-11.99,9.93h0Z"/>
  <path class="cls-1" d="M1135.87,97.97c11.13-4.15,22.15-8.6,33.41-12.34,9.45-3.14,18.98-6.43,28.59-8.66,9.22-2.14,18.22-6.15,28.02-5.62,2.42.13,4.61-.53,6.5-2.07,5.31-4.33,11.67-6.34,18.12-7.99,11.91-3.05,23.96-5.47,35.68-9.33,4.93-1.63,10.34-2.79,15.73-1.47,6.33,1.56,11.83-.35,16.91-3.96,5.31-3.78,11.07-6.05,17.7-5.58,4.14.3,7.81-1.36,11.55-2.72,5.04-1.83,10.2-2.97,15.6-2.92,4.73.04,7.4,2.06,7.83,7.04.46,5.23-.06,6.14-5.84,6.25-3.03.06-6.13-.13-8.71,1.53-6.52,4.21-13.77,4.84-21.12,4.26-8.32-.65-15.9,1.23-22.83,5.62-14.62,9.27-31.16,12.73-47.68,16.54-9.03,2.08-17.74,5.51-26.65,8.14-10.77,3.18-21.36,7.26-33.06,4-4.91-1.37-9.9.44-14.48,2.64-4.8,2.31-9.57,4.67-14.3,7.11-13.26,6.85-26.76,6.1-40.38,1.76-.2-.75-.4-1.49-.6-2.24h.01Z"/>
  <path class="cls-1" d="M3228.61,961.27c3.77,4.26,5.16,8.77,7.23,12.85,8.36,16.53,16.15,33.21,22.17,50.87,3.54,10.39,6.79,21.58,14.47,30.38,1.88,2.15,2.86,5.28,3.69,8.12,3.99,13.7,9.63,26.79,14.52,40.16,8.63,23.59,19.03,46.49,26.72,70.43,2.84,8.86,4.59,18.03,8.27,26.66,1.82,4.27,2.43,9,1.63,13.73-.59,3.52-2.1,6.52-5.97,7.07-3.89.56-6-2.2-7.81-5.13-.17-.28-.36-.59-.42-.9-4.01-20.7-16.9-38.15-21.48-58.62-1.67-7.45-5.27-14.34-7.1-21.44-2.94-11.36-3.63-23.21-10-33.66-1.4-2.29-.44-5.91-1.02-8.82-1.64-8.2-4.37-15.86-9.82-22.57-4.66-5.73-8.92-12.04-2.74-19.64,1.19-1.47.48-3.45-1.26-4.16-10.9-4.46-12.22-15.09-15.33-24.29-2-5.93-3.04-12.33-3.55-18.6-1.06-13.22-4.93-25.4-11.65-36.77-.79-1.33-1.91-2.74-.55-5.67h0Z"/>
  <path class="cls-1" d="M3297.57,2282.92c-5.1,8.26-4.34,20.21-11.15,29.28-4.34,5.77-7.17,11.93-7.42,19.23-.14,4.06-1.24,8.12-3.36,11.42-11.35,17.67-15.08,38.79-25.74,56.64-5.39,9.03-8.61,19.46-16.45,26.98-2.7,2.59-2.77,5.9-3.15,9.2-1.1,9.59-9.05,13.53-15.71,18.21-2.4,1.69-4.53-1.05-3.81-3.77,1.88-7.06,3.13-14.47,7.28-20.65,5.66-8.42,8.9-17.84,12.11-27.28,2.8-8.24,6.04-16.29,10.81-23.55,3.2-4.86,4.29-10.45,6.55-15.62,4.99-11.42,11.72-21.83,14.57-34.54,2.08-9.32,7.22-18.45,10.96-27.68,1.5-3.7,3.63-7.26,4.48-11.1,1.65-7.44,6.62-11.16,13.18-13.66,5.13-1.95,7.38-.25,6.83,6.89h.02,0Z"/>
  <path class="cls-1" d="M3164.57,2563.2c-.44,1.2-.62,2.66-1.4,3.63-5.19,6.45-6.9,15.19-13.75,20.58-2.35,1.85-3.61,4.71-4.87,7.46-1.1,2.41-1.97,5.26-3.82,6.93-8.69,7.8-12.8,19.19-21.57,26.92-3.8,3.34-6.39,7.55-6.98,12.85-.6,5.46-3.14,9.32-9.12,10.21-4.74.7-5.88,4.21-4.95,8.16,1.06,4.49-.75,7.56-3.35,10.84-4.95,6.24-9.52,12.69-15.51,18.12-4.88,4.43-9.19,9.68-10.23,16.69-.1.65-.26,1.31-.48,1.93-2.19,5.95-5.86,9.2-8.67,7.72-3.76-1.99-6.42-10-4.46-14.08.85-1.76,1.93-3.77,3.49-4.76,5.46-3.48,7.46-8.95,9.77-14.54,2.53-6.14,6.41-11.56,11.16-16.37,9.81-9.94,18.69-20.62,25.45-32.96,1.28-2.33,2.85-4.39,3.17-7.17.55-4.95,3.36-8.52,7.26-11.43,2.41-1.8,4.71-3.91,5.75-6.77,4.33-11.97,11.98-22.16,17.64-33.41,3.02-6,6.8-11.41,11.34-16.32,2.7-2.92,5.89-2.47,9.19-1.19,3.16,1.22,4.57,3.61,4.97,6.96h-.03,0Z"/>
  <path class="cls-1" d="M3373.58,1995.13c2.35,5.16.84,9.3-.71,13.26-4.36,11.21-7.21,22.7-7.31,34.78,0,.66.15,1.53-.19,1.96-8.58,10.66-4.04,24.13-7.67,35.96-3.68,12.01-6.07,24.65-9.83,36.46-4.47,14.04-4.91,28.69-9.8,42.52-4.87,13.76-9.28,27.77-12.32,42.12-.21.97-.49,1.95-.87,2.86-.51,1.23-1.12,2.57-2.79,2.29-1.45-.24-2.03-1.5-2.56-2.74-1.26-2.92-.76-5.85-.26-8.83,2.06-12.44,3.59-24.96,8.07-36.92,4.13-11.02,5.41-22.57,5.04-34.34-.18-5.64.15-11.23.98-16.88,1.26-8.62,4.41-15.83,10.89-21.77,7.33-6.72,10.03-14.72,8.68-25.12-1.49-11.47-.99-23.26-.72-34.89.19-8.27,3.29-15.46,10.35-20.67,3.69-2.72,6.84-6.18,11.03-10.05h0Z"/>
  <path class="cls-1" d="M110.53,1108.2c8.51,10.72,10.9,22.35,4.24,34.65-7.12,13.15-10.11,28.02-18.12,40.81-4.06,6.49-5.38,14.25-5.15,22.06.1,3.36-.18,6.64-1.41,9.79-1.03,2.64-2.68,4.64-5.71,4.86-2.68.19-4.18-1.53-5.47-3.62-3.31-5.33-5.14-10.95-2.51-17.02,3.7-8.55,5.01-17.95,8.33-26.36,4.36-11.02,7.94-22.38,11.93-33.46,3.35-9.32,8.07-18.05,10.98-27.5.48-1.55.79-3.27,2.89-4.22h0Z"/>
  <path class="cls-1" d="M1441.63,3382.22c-.67-3.44,1.41-5.52,2.19-8,2.94-9.37,3.8-9.73,13.03-8.75,26.15,2.78,51.49,9.7,77.14,15,8.01,1.66,14.4,5.86,20.03,13.24-7.79,2.53-14.14-.18-20.44-.69-4.93-.4-9.82-1.22-14.82-1.28-4.96-.06-10.19.46-14.8-1.49-14.22-6.01-29.34-4.31-44.09-5.82-6.13-.63-12.45-.2-18.23-2.21h-.01Z"/>
  <path class="cls-1" d="M3163.03,2544.38c-.98-4.52-.22-8.61,2.22-12.47,9.58-15.13,17.94-30.9,24.7-47.5,1.89-4.65,5.01-8.56,7.72-12.73,3.84-5.91,12-5.36,15.86-11.09.1-.15,1.46.15,1.68.54.44.79.99,2.06.65,2.66-6.89,12.25-6.71,27.57-17.88,38.21-5.04,4.81-8.39,12.09-10.75,18.86-3.57,10.26-10.16,18.58-15.41,27.75-.66,1.15-1.46,2.21-2.28,3.26-1.05,1.33-2.37,2.62-4.14,2.23-2.55-.56-2.33-2.84-2.37-4.81-.03-1.66,0-3.32,0-4.89v-.02Z"/>
  <path class="cls-1" d="M187.67,2475.25c-5.59-11.24-13.45-20.55-16.59-32.81-2.48-9.72-7.07-19.13-12.61-27.79-1.25-1.95-2.84-3.73-3.76-5.82-1.34-3.05-.64-5.4,3.32-5.01,8.24.8,15.5,3.06,19.49,11.49,5.67,11.98,11.79,23.75,17.71,35.6.93,1.86,1.13,3.84.57,5.81-1.8,6.31-3.53,12.66-8.14,18.53h0Z"/>
  <path class="cls-1" d="M1643.54,3397.94c-2.52,3.67-4.68,3.33-6.52,2.96-9.54-1.92-19.18-1.13-28.78-1.29-5.33-.09-10.6-.33-15.74-1.89-6.08-1.85-12.13-3-18.58-1.41-3.99.99-7.63.3-6.17-5.53,1.16-4.63-4.12-6.52-4.83-11.35,6.05-2.17,12.35-1.27,18.32-.48,7.59,1.01,15.17,1.51,22.79,1.64,15.57.27,27.15,8.94,39.51,17.34h0Z"/>
  <path class="cls-1" d="M2168.24,85.32c4.32-3.25,7.63-3.08,10.91-2.46,13.74,2.62,27.75,2.85,41.57,4.78,6.05.84,12.05,2.18,16.29,6.72,12.55,13.44,28.64,20.13,45.82,24.89,6.75,1.87,13.14,4.38,20.63,10.05-12.1-2.02-21.79-4.68-31.13-8.25-17.99-6.87-36.45-12.39-54.08-20.37-9.54-4.32-20.43-5.63-30.66-8.47-6.27-1.74-12.87-2.75-19.34-6.9h-.01Z"/>
  <path class="cls-1" d="M2305.15,3289.59c5.9-11.09,11.25-19.9,22.26-24.57,8.88-3.77,18.21-6.07,27.09-9.71,4.33-1.78,12.98,3.13,14.22,7.61.56,2.02-.76,3.33-2.32,3.81-12.37,3.8-23.4,11.03-35.84,14.43-7.96,2.18-14.65,7.75-25.42,8.44h.01Z"/>
  <path class="cls-1" d="M2411.72,159.75c-24.51-6.63-49.5-5.07-67.85-23.88-6.12-6.27-15.19-8-23.45-14.01,6.1-.99,10.59-.26,14.72,2.32,4.32,2.7,8.99,4.24,13.97,4.98,6.74.99,12.44,4.43,18.28,7.59,10.81,5.85,21.82,11.25,33.67,14.78,3.62,1.08,7.57,2.13,10.67,8.23h0Z"/>
  <path class="cls-1" d="M3144.59,833.32c8.96,5.13,17.1,10.22,24.62,16.24,2.87,2.29,5.49,4.86,7.28,8.13,3.31,6.05.27,14.01-6.18,16.33-1.85.67-3.29.03-4.42-1.31-3.01-3.53-6.7-6.63-8.35-11.11-3.02-8.17-6.77-15.88-12.36-22.65-1.01-1.22-1.74-2.81-.58-5.64h-.01Z"/>
  <path class="cls-1" d="M362.09,656.2c3.69-10.42,9.43-17.71,17.32-22.66,4.93-3.09,8.13-6.41,9.25-12.02.46-2.3,1.89-4.19,4-5.56,4.16,10.54.19,28.93-7.52,35.64-1.57,1.37-3.34,2.34-5.39,2.29-5.58-.14-11.09.56-17.66,2.29v.02Z"/>
  <path class="cls-1" d="M310.91,726.1c-2.42,11.08-4.26,20.84-6.72,30.43-2.1,8.2-12.24,12.35-19.72,8.59-1.47-.74-2.06-2.42-1.18-3.21,11.16-9.98,13.18-26.86,27.63-35.8h-.01Z"/>
  <path class="cls-1" d="M3305.54,2207.88c8.18,16.25.49,40.15-15.55,51.11-1.19-4.22-.2-8.04,1.39-11.53,5.65-12.43,8.08-26.11,14.16-39.59h0Z"/>
  <path class="cls-1" d="M2290.82,3277.35c1.58.05,2.31.94,2.95,2.24,3.64,7.49,1.52,12.98-6.37,16.45-.3.13-.59.31-.89.44-7.07,3.07-8.63,2.82-10.56-1.73-2.85-6.72-1.35-11.39,4.63-13.82,3.37-1.37,6.87-2.41,10.24-3.57h0Z"/>
  <path class="cls-1" d="M138.45,2371.21c9.11,2.34,15.42,5.94,21.72,9.49,2.85,1.6,3.61,4.61,4.11,7.62.42,2.48-.66,3.75-3.19,3.78-3.64.03-7.29.08-10.93.11-2.14.02-4.19-.73-4.97-2.67-2.26-5.6-4.19-11.34-6.73-18.32h-.01Z"/>
  <path class="cls-1" d="M2428.05,182.6c10.34,3.12,18.56,5.54,26.75,8.08,5.59,1.73,10.02,4.68,11.1,11.21-7.95-.87-29.21-11.46-37.85-19.28h0Z"/>
  <path class="cls-1" d="M3185.88,906.9c9.47,4.64,14.84,15.3,15.85,30.06-5.87-2.11-12.84-15.02-15.85-30.06Z"/>
  <path class="cls-1" d="M20.28,1815.07c3.04,6.76,4.1,13.02,3.35,19.53-.39,3.41-2.73,4.22-5.8,2.94-4.95-2.07-6.85-6.02-4.82-11.18,1.42-3.61,2.64-7.49,7.28-11.29h-.01Z"/>
  <path class="cls-1" d="M1137.93,114.52c-10.79,10.77-25.82,8.27-38.36,13.4,11.77-7.48,23.62-14.7,38.36-13.4Z"/>
  <path class="cls-1" d="M200.88,2481.22c.11-1.06.13-2.06.33-3.02.4-1.94.72-4.25,2.75-4.95,2.83-.97,3.95,1.68,5.27,3.45.98,1.31,1.91,2.74,2.46,4.26,1.01,2.77,4.5,6.01-.12,8.34-3.59,1.81-9.18-1.34-10.3-5.23-.27-.94-.27-1.95-.39-2.86h0Z"/>
  <path class="cls-1" d="M328.34,698.39c5.76-4.13,7.51-9.82,10.32-14.88.78-1.4,2.21-2.82,4.05-2.14,2.02.76,1.55,2.71,1.06,4.22-1.12,3.45-2.17,6.97-3.77,10.21-2.29,4.65-5.96,5.29-11.66,2.58h0Z"/>
  <path class="cls-1" d="M1669.84,19.66c-10.05,1.61-20.13-.34-30.2.72,7.98-6.19,18.37-6.57,30.2-.72Z"/>
  <path class="cls-1" d="M151.72,2364.79c-2.99.12-7.5-3.36-7.34-5.78.18-2.71,2.07-4.42,4.6-4.25,3.73.24,4.36,3.57,5.02,6.48.42,1.85-.39,3.19-2.27,3.56h-.01Z"/>
</svg>