<svg width="1783" height="650" viewBox="0 0 1783 650" fill="none" xmlns="http://www.w3.org/2000/svg">
<mask id="path-1-outside-1_964_29418" maskUnits="userSpaceOnUse" x="-1" y="0" width="1785" height="650" fill="black">
<rect fill="white" x="-1" width="1785" height="650"/>
<path d="M79.4636 338.068C82.6437 330.6 87.1867 320.022 93.0926 306.332C99.2257 292.642 106.154 279.16 113.877 265.885C121.6 252.61 129.891 240.994 138.75 231.038C147.609 221.082 156.468 216.103 165.326 216.103C172.822 216.103 178.501 220.044 182.363 227.926C186.224 235.394 188.155 244.728 188.155 255.928C188.155 270.033 185.656 284.553 180.659 299.487C175.889 314.007 170.551 328.734 164.645 343.668C158.739 358.188 153.287 372.292 148.29 385.982C143.52 399.257 141.135 411.702 141.135 423.318C141.135 428.296 141.816 432.445 143.179 435.763C144.542 438.667 146.814 440.119 149.994 440.119C153.174 440.119 158.398 435.763 165.667 427.052C173.163 417.925 183.158 401.331 195.651 377.27C205.418 358.188 214.391 339.727 222.568 321.889C230.746 303.636 236.879 289.946 240.967 280.819L244.375 283.93C238.469 296.791 231.2 312.762 222.568 331.845C213.937 350.928 204.737 369.803 194.97 388.471C183.158 411.288 173.05 427.467 164.645 437.008C156.468 446.549 147.949 451.32 139.091 451.32C130.459 451.32 124.099 446.964 120.01 438.252C115.921 429.541 113.877 419.584 113.877 408.384C113.877 394.279 116.262 379.759 121.032 364.825C126.029 349.891 131.481 335.371 137.387 321.266C143.293 306.747 148.631 293.057 153.401 280.197C158.398 267.337 160.897 256.136 160.897 246.594C160.897 242.031 160.102 238.298 158.512 235.394C156.922 232.49 154.537 231.038 151.357 231.038C146.814 231.038 141.476 234.979 135.343 242.861C129.21 250.328 122.736 260.284 115.921 272.73C109.107 284.76 102.179 298.657 95.137 314.421C88.0953 329.771 81.3944 345.327 75.0342 361.091C68.9011 376.441 63.336 391.375 58.3387 405.895C53.3413 420.414 49.3662 432.859 46.4133 443.231L12 445.097C24.039 408.591 36.0779 372.5 48.1169 336.823C60.383 300.732 72.422 263.81 84.2338 226.06L123.076 223.571L78.7822 336.823L79.4636 338.068Z"/>
<path d="M408.075 283.93C403.532 294.716 398.08 304.465 391.72 313.177C385.587 321.889 378.772 326.245 371.276 326.245C366.052 326.245 361.509 324.17 357.647 320.022C353.786 315.873 350.265 310.066 347.085 302.598C344.359 323.341 339.816 343.046 333.456 361.714C327.323 379.967 319.827 396.146 310.968 410.25C302.109 423.94 292.228 434.934 281.325 443.231C270.422 451.113 259.064 455.054 247.252 455.054C234.759 455.054 224.764 448.624 217.268 435.763C209.772 422.488 206.024 404.443 206.024 381.626C206.024 359.639 209.091 338.69 215.224 318.777C221.357 298.45 229.307 280.819 239.075 265.885C248.842 250.535 259.632 238.505 271.444 229.793C283.256 220.667 294.84 216.103 306.198 216.103C318.464 216.103 328.118 222.119 335.159 234.149C342.201 246.18 346.517 260.699 348.107 277.708C349.243 290.153 351.741 300.109 355.603 307.577C359.692 315.044 364.916 318.777 371.276 318.777C377.409 318.777 383.202 315.459 388.653 308.821C394.105 302.184 399.897 292.227 406.03 278.952L408.075 283.93ZM249.637 447.586C255.316 447.586 260.995 444.06 266.674 437.008C272.352 429.956 277.804 420.829 283.028 409.628C288.253 398.427 293.023 385.775 297.339 371.67C301.882 357.565 305.743 343.461 308.924 329.356C312.331 315.251 314.943 301.769 316.76 288.909C318.577 276.048 319.486 265.262 319.486 256.551C319.486 246.18 318.237 238.09 315.738 232.282C313.467 226.474 309.719 223.571 304.494 223.571C298.815 223.571 293.137 227.097 287.458 234.149C281.779 241.201 276.327 250.328 271.103 261.529C265.879 272.73 260.995 285.382 256.452 299.487C252.136 313.592 248.274 327.696 244.867 341.801C241.687 355.906 239.188 369.388 237.371 382.249C235.554 395.109 234.645 405.895 234.645 414.606C234.645 424.977 235.781 433.067 238.053 438.875C240.551 444.683 244.413 447.586 249.637 447.586Z"/>
<path d="M545.198 284.553C536.793 306.125 529.184 325.415 522.369 342.423C515.555 359.432 508.059 375.196 499.881 389.716C486.252 413.362 473.759 430.163 462.402 440.119C451.271 450.076 440.822 455.054 431.055 455.054C428.102 455.054 424.354 454.639 419.811 453.809C415.268 452.979 410.725 449.661 406.182 443.853C402.093 438.045 399.367 431.408 398.005 423.94C396.642 416.058 395.96 409.213 395.96 403.406C395.96 388.471 398.232 374.574 402.775 361.714C407.545 348.854 413.905 336.823 421.855 325.622C429.578 314.421 438.551 303.843 448.773 293.887C459.222 283.516 470.466 271.693 482.504 258.417L482.164 257.173C477.621 261.321 472.283 265.262 466.15 268.996C460.244 272.315 454.679 273.974 449.454 273.974C443.094 273.974 437.869 271.693 433.781 267.129C429.238 262.151 426.285 254.891 424.922 245.35C421.515 254.476 417.994 263.188 414.359 271.485C410.952 279.367 407.999 286.005 405.501 291.398L402.093 287.664C404.592 281.856 407.886 274.182 411.974 264.64C416.063 254.684 420.038 244.105 423.9 232.905C423.445 227.097 423.9 221.082 425.263 214.859C426.626 208.636 428.329 203.243 430.373 198.68C432.418 194.117 434.803 190.383 437.529 187.479C440.482 184.575 443.548 183.123 446.728 183.123C448.091 183.123 449.341 183.953 450.476 185.612C451.612 187.272 452.18 189.346 452.18 191.835C452.18 196.398 451.271 199.924 449.454 202.414C447.864 204.903 445.706 207.392 442.98 209.881C442.526 214.444 442.98 219.422 444.343 224.815C445.706 229.793 447.75 233.942 450.476 237.26C452.975 240.579 455.814 243.276 458.994 245.35C462.402 247.009 466.377 247.839 470.92 247.839C476.371 247.839 480.687 247.009 483.867 245.35C487.275 243.276 490.568 240.787 493.748 237.883C496.02 235.808 497.724 233.319 498.859 230.415C500.222 227.512 501.358 224.815 502.267 222.326C503.175 219.422 504.084 217.14 504.992 215.481C506.128 213.407 507.605 212.37 509.422 212.37C510.33 212.37 511.353 213.199 512.488 214.859C513.624 216.103 514.192 218.178 514.192 221.082C514.192 226.06 511.125 231.867 504.992 238.505C501.812 241.824 498.405 245.557 494.771 249.706C491.363 253.439 488.07 257.588 484.89 262.151C474.668 276.671 465.923 290.568 458.654 303.843C451.385 316.703 445.365 328.941 440.595 340.557C437.415 348.439 434.803 355.491 432.759 361.714C430.941 367.936 429.578 373.744 428.67 379.137C427.761 384.115 427.193 388.679 426.966 392.827C426.739 396.975 426.625 401.124 426.625 405.272C426.625 416.473 428.216 424.77 431.396 430.163C434.803 435.556 438.664 438.252 442.98 438.252C446.615 438.252 450.136 437.63 453.543 436.386C456.95 435.141 460.698 432.652 464.787 428.918C468.875 425.185 473.418 419.999 478.416 413.362C483.64 406.309 489.546 397.183 496.134 385.982C502.948 374.366 510.217 359.432 517.94 341.179C525.89 322.926 533.954 303.221 542.131 282.064L545.198 284.553Z"/>
<path d="M444.444 494.256C443.309 493.842 441.264 493.634 438.311 493.634C428.544 493.634 421.048 500.064 415.823 512.924C410.372 525.785 407.646 541.549 407.646 560.217C407.646 582.203 411.394 599.419 418.89 611.865C426.159 624.31 435.245 630.533 446.148 630.533C457.733 630.533 468.636 625.97 478.858 616.843C489.079 608.131 498.62 596.308 507.479 581.374C516.337 566.854 524.628 550.053 532.352 530.97C540.302 512.302 547.571 493.012 554.158 473.099C560.972 453.187 567.333 433.689 573.239 414.606C579.144 395.524 584.596 378.307 589.593 362.958L588.912 361.714C585.505 369.181 581.189 378.1 575.964 388.471C570.967 398.427 565.288 408.176 558.928 417.718C552.568 426.844 545.867 434.726 538.825 441.364C531.784 448.001 524.628 451.32 517.36 451.32C509.864 451.32 504.526 447.379 501.346 439.497C497.938 431.615 496.235 422.281 496.235 411.495C496.235 401.124 497.825 389.301 501.005 376.026C504.185 362.751 508.16 348.231 512.93 332.467C517.928 316.288 523.493 299.28 529.626 281.441C535.759 263.603 541.892 245.142 548.025 226.06L584.142 223.571C565.061 277.915 550.183 320.852 539.507 352.38C528.831 383.908 523.493 406.309 523.493 419.584C523.493 424.563 524.288 428.711 525.878 432.03C527.695 434.934 529.853 436.386 532.352 436.386C536.44 436.386 541.665 432.652 548.025 425.185C554.385 417.303 561.086 406.932 568.128 394.072C575.396 381.211 582.665 366.484 589.934 349.891C597.203 332.882 603.79 315.459 609.696 297.62C614.693 282.686 619.123 268.996 622.984 256.551C626.846 244.105 629.685 233.942 631.503 226.06L664.894 223.571C652.628 262.151 640.702 300.732 629.118 339.312C617.76 377.478 605.835 415.436 593.341 453.187C604.245 447.379 615.034 438.46 625.71 426.429C636.386 413.984 646.608 399.672 656.376 383.493C666.37 367.314 675.57 350.098 683.974 331.845C692.606 313.592 700.329 295.753 707.144 278.33L709.869 282.686C702.146 303.013 693.628 322.926 684.315 342.423C675.002 361.506 665.121 379.137 654.672 395.316C644.45 411.08 633.888 424.77 622.984 436.386C612.081 448.001 601.178 456.298 590.275 461.276C582.097 486.582 572.898 510.021 562.676 531.592C552.454 553.164 541.21 571.832 528.944 587.596C516.678 603.361 503.39 615.598 489.079 624.31C474.769 633.437 459.436 638 443.081 638C434.904 638 426.954 636.548 419.231 633.644C411.508 631.155 404.693 626.592 398.787 619.954C392.881 613.732 388.111 605.227 384.477 594.441C380.842 584.07 379.025 571.21 379.025 555.861C379.025 543.416 380.502 532.837 383.455 524.125C386.18 515.414 389.928 508.154 394.698 502.346C399.241 496.953 404.58 492.805 410.713 489.901C416.618 487.412 422.752 486.167 429.112 486.167C431.838 486.167 434.677 486.374 437.63 486.789C440.356 487.204 442.627 487.826 444.444 488.656V494.256Z"/>
<path d="M883.791 285.175C877.885 299.694 871.411 310.066 864.37 316.288C857.555 322.096 850.854 325 844.267 325C839.043 325 834.045 322.926 829.275 318.777C824.732 314.629 820.871 310.066 817.69 305.087C813.602 329.978 807.696 351.757 799.973 370.425C792.477 389.093 783.959 404.65 774.418 417.095C765.105 429.541 754.997 438.875 744.094 445.097C733.418 451.735 722.855 455.054 712.406 455.054C700.822 455.054 691.736 449.246 685.148 437.63C678.561 426.015 675.267 411.08 675.267 392.827C675.267 384.945 675.721 377.27 676.63 369.803C677.766 361.921 679.697 353.002 682.422 343.046C684.24 336.823 686.625 328.526 689.578 318.155C692.758 307.784 695.597 299.072 698.096 292.02L744.775 158.855C752.498 136.453 761.016 116.748 770.33 99.7396C779.643 82.731 789.978 67.1743 801.336 53.0696C812.239 39.7946 822.347 29.6309 831.66 22.5785C840.973 15.5262 849.151 12 856.192 12C859.372 12 862.666 12.4149 866.073 13.2446C869.708 13.6594 873.115 15.1113 876.295 17.6004C883.11 22.9934 886.517 31.0828 886.517 41.8688C886.517 53.8993 884.586 65.7223 880.725 77.338C876.863 88.5388 869.821 101.606 859.6 116.541C847.333 133.964 836.203 148.276 826.209 159.477C816.214 170.678 806.787 182.086 797.928 193.702C796.793 195.361 795.089 197.435 792.817 199.924C790.773 202.414 788.388 205.317 785.662 208.636C782.936 211.955 779.983 215.481 776.803 219.215C773.85 222.533 770.897 226.06 767.945 229.793C760.903 238.09 753.407 247.009 745.457 256.551L728.761 302.598C726.035 310.066 722.855 319.4 719.221 330.6C715.586 341.801 712.747 351.55 710.703 359.847C707.068 373.122 704.57 384.53 703.207 394.072C701.844 403.198 701.162 410.665 701.162 416.473C701.162 426.429 702.525 434.104 705.251 439.497C707.977 444.89 711.611 447.586 716.154 447.586C722.742 447.586 730.578 441.779 739.664 430.163C748.977 418.133 758.291 399.05 767.604 372.915C780.324 336.408 787.707 304.05 789.751 275.841C787.252 266.714 786.003 258.21 786.003 250.328C786.003 239.957 787.479 231.66 790.432 225.437C793.385 219.215 796.906 216.103 800.995 216.103C808.037 216.103 813.034 221.082 815.987 231.038C819.167 240.579 820.757 253.232 820.757 268.996C820.757 273.559 820.53 278.123 820.075 282.686C819.621 287.249 819.167 292.02 818.713 296.998C822.574 303.221 826.776 308.199 831.319 311.932C835.862 315.666 840.633 317.533 845.63 317.533C850.854 317.533 856.533 315.044 862.666 310.066C869.026 305.087 875.273 295.546 881.406 281.441L883.791 285.175ZM749.886 240.372L750.567 240.994C756.701 233.527 762.72 226.267 768.626 219.215C773.623 213.407 778.621 207.599 783.618 201.791C788.615 195.569 792.477 190.59 795.203 186.857C803.153 176.901 810.876 165.907 818.372 153.877C825.868 141.431 832.569 128.571 838.475 115.296C845.289 101.192 850.286 87.7091 853.467 74.8489C856.874 61.9887 858.577 49.9582 858.577 38.7574C858.577 26.727 856.079 20.7117 851.082 20.7117C846.993 20.7117 843.018 22.7859 839.156 26.9344C835.522 30.668 831.433 36.6832 826.89 44.9801C824.164 49.9583 821.325 55.9735 818.372 63.0259C815.419 69.6633 812.466 76.7157 809.513 84.1829C806.56 91.2353 803.834 98.2876 801.336 105.34C799.064 111.977 797.133 117.37 795.543 121.519L749.886 240.372Z"/>
<path d="M1023.07 284.553C1014.66 303.221 1005.58 322.718 995.81 343.046C986.042 362.958 975.48 381.211 964.122 397.805C952.992 414.399 940.953 428.089 928.006 438.875C915.285 449.661 901.77 455.054 887.459 455.054C873.83 455.054 863.381 448.416 856.112 435.141C848.844 421.451 845.209 401.539 845.209 375.404C845.209 355.491 848.389 335.993 854.75 316.911C861.11 297.828 869.287 280.819 879.282 265.885C889.276 250.95 900.293 238.92 912.332 229.793C924.371 220.667 936.069 216.103 947.427 216.103C957.876 216.103 966.167 220.044 972.3 227.926C978.433 235.394 981.499 244.728 981.499 255.928C981.499 263.81 980.591 271.07 978.774 277.708C977.184 283.93 975.026 289.323 972.3 293.887C969.574 298.035 966.508 301.354 963.1 303.843C959.693 305.917 956.286 306.954 952.879 306.954C949.926 306.954 947.313 306.539 945.042 305.71C946.632 296.168 948.335 286.419 950.153 276.463C951.97 266.507 952.879 256.551 952.879 246.594C952.879 239.542 951.97 233.942 950.153 229.793C948.335 225.645 945.837 223.571 942.657 223.571C936.751 223.571 930.05 227.926 922.554 236.638C915.058 244.935 908.016 256.343 901.429 270.863C894.842 284.968 889.276 301.354 884.733 320.022C880.19 338.275 877.919 357.358 877.919 377.27C877.919 393.034 880.531 406.517 885.756 417.718C890.98 428.504 898.249 433.897 907.562 433.897C918.692 433.897 929.709 428.296 940.612 417.095C951.743 405.895 962.192 392.412 971.959 376.648C981.954 360.469 991.04 343.875 999.217 326.867C1007.39 309.443 1014.32 294.509 1020 282.064L1023.07 284.553Z"/>
<path d="M1110.03 329.356C1114.35 319.4 1119.46 307.991 1125.36 295.131C1131.27 281.856 1137.63 269.411 1144.44 257.795C1151.49 246.18 1158.75 236.431 1166.25 228.549C1173.97 220.252 1181.58 216.103 1189.08 216.103C1196.35 216.103 1202.14 220.252 1206.46 228.549C1211 236.846 1213.27 246.387 1213.27 257.173C1213.27 271.278 1210.77 285.797 1205.77 300.732C1200.78 315.251 1195.21 329.771 1189.08 344.29C1182.95 358.81 1177.38 372.915 1172.38 386.604C1167.39 400.294 1164.89 412.74 1164.89 423.94C1164.89 428.504 1165.45 432.445 1166.59 435.763C1167.73 438.667 1169.54 440.119 1172.04 440.119C1181.36 440.119 1196.57 420.829 1217.7 382.249C1226.33 366.484 1234.74 349.891 1242.91 332.467C1251.32 314.629 1258.59 298.45 1264.72 283.93L1267.45 286.419C1264.72 292.642 1261.54 299.694 1257.9 307.577C1254.5 315.459 1250.75 323.963 1246.66 333.089C1242.57 341.801 1238.14 350.928 1233.37 360.469C1228.83 370.011 1224.17 379.137 1219.4 387.849C1213.04 399.465 1207.25 409.421 1202.03 417.718C1196.8 425.6 1191.92 432.03 1187.37 437.008C1183.06 441.986 1178.86 445.512 1174.77 447.586C1170.91 450.076 1166.93 451.32 1162.84 451.32C1154.89 451.32 1148.65 447.379 1144.1 439.497C1139.79 431.2 1137.63 420.829 1137.63 408.384C1137.63 395.109 1140.13 380.797 1145.12 365.447C1150.12 350.098 1155.69 335.164 1161.82 320.644C1167.95 306.125 1173.52 292.642 1178.52 280.197C1183.51 267.337 1186.01 256.966 1186.01 249.083C1186.01 243.276 1185.1 238.92 1183.29 236.016C1181.47 232.697 1179.31 231.038 1176.81 231.038C1172.04 231.038 1166.48 235.186 1160.12 243.483C1153.98 251.365 1147.51 261.736 1140.7 274.596C1133.88 287.457 1127.07 301.769 1120.25 317.533C1113.66 333.297 1107.3 349.061 1101.17 364.825C1095.27 380.589 1089.93 395.316 1085.16 409.006C1080.61 422.696 1076.98 433.897 1074.25 442.608L1038.14 445.097C1045.86 422.696 1053.36 401.539 1060.62 381.626C1068.12 361.299 1074.71 342.838 1080.39 326.245C1086.29 309.236 1090.95 294.302 1094.36 281.441C1097.99 268.581 1099.81 258.418 1099.81 250.95C1099.81 245.972 1099.01 241.409 1097.42 237.26C1095.83 233.112 1093.33 231.038 1089.93 231.038C1085.16 231.038 1079.59 235.186 1073.23 243.483C1067.1 251.365 1060.62 261.736 1053.81 274.596C1047 287.457 1040.07 301.769 1033.03 317.533C1026.21 333.297 1019.74 349.061 1013.6 364.825C1007.47 380.589 1002.02 395.316 997.25 409.006C992.48 422.696 988.732 433.897 986.006 442.608L951.593 445.097C964.086 408.591 976.466 372.292 988.732 336.201C1001 299.694 1013.04 262.566 1024.85 224.815L1064.71 221.082L1019.4 334.334L1020.08 335.579C1024.85 325.622 1030.19 313.799 1036.09 300.109C1042.23 286.419 1048.81 273.352 1055.85 260.907C1062.9 248.461 1070.39 237.883 1078.34 229.171C1086.52 220.459 1095.15 216.103 1104.24 216.103C1110.6 216.103 1115.94 219.215 1120.25 225.437C1124.79 231.66 1127.07 240.994 1127.07 253.439C1127.07 259.247 1126.5 265.47 1125.36 272.107C1124.23 278.745 1122.75 285.382 1120.93 292.02C1119.34 298.243 1117.41 304.673 1115.14 311.31C1113.1 317.533 1111.17 323.133 1109.35 328.111L1110.03 329.356Z"/>
<path d="M1442.13 285.175C1436.22 299.694 1429.75 310.066 1422.71 316.288C1415.89 322.096 1409.19 325 1402.6 325C1397.38 325 1392.38 322.926 1387.61 318.777C1383.07 314.629 1379.21 310.066 1376.03 305.087C1371.94 329.978 1366.03 351.757 1358.31 370.425C1350.81 389.093 1342.3 404.65 1332.76 417.095C1323.44 429.541 1313.33 438.875 1302.43 445.097C1291.75 451.735 1281.19 455.054 1270.74 455.054C1259.16 455.054 1250.07 449.246 1243.49 437.63C1236.9 426.015 1233.6 411.08 1233.6 392.827C1233.6 384.945 1234.06 377.27 1234.97 369.803C1236.1 361.921 1238.03 353.002 1240.76 343.046C1242.58 336.823 1244.96 328.526 1247.91 318.155C1251.09 307.784 1253.93 299.072 1256.43 292.02L1303.11 158.855C1310.84 136.453 1319.35 116.748 1328.67 99.7396C1337.98 82.731 1348.32 67.1743 1359.67 53.0696C1370.58 39.7946 1380.68 29.6309 1390 22.5785C1399.31 15.5262 1407.49 12 1414.53 12C1417.71 12 1421 12.4149 1424.41 13.2446C1428.04 13.6594 1431.45 15.1113 1434.63 17.6004C1441.45 22.9934 1444.85 31.0828 1444.85 41.8688C1444.85 53.8993 1442.92 65.7223 1439.06 77.338C1435.2 88.5388 1428.16 101.606 1417.94 116.541C1405.67 133.964 1394.54 148.276 1384.55 159.477C1374.55 170.678 1365.12 182.086 1356.27 193.702C1355.13 195.361 1353.43 197.435 1351.15 199.924C1349.11 202.414 1346.73 205.317 1344 208.636C1341.27 211.955 1338.32 215.481 1335.14 219.215C1332.19 222.533 1329.23 226.06 1326.28 229.793C1319.24 238.09 1311.74 247.009 1303.79 256.551L1287.1 302.598C1284.37 310.066 1281.19 319.4 1277.56 330.6C1273.92 341.801 1271.08 351.55 1269.04 359.847C1265.41 373.122 1262.91 384.53 1261.54 394.072C1260.18 403.198 1259.5 410.665 1259.5 416.473C1259.5 426.429 1260.86 434.104 1263.59 439.497C1266.31 444.89 1269.95 447.586 1274.49 447.586C1281.08 447.586 1288.92 441.779 1298 430.163C1307.31 418.133 1316.63 399.05 1325.94 372.915C1338.66 336.408 1346.04 304.05 1348.09 275.841C1345.59 266.714 1344.34 258.21 1344.34 250.328C1344.34 239.957 1345.82 231.66 1348.77 225.437C1351.72 219.215 1355.24 216.103 1359.33 216.103C1366.37 216.103 1371.37 221.082 1374.32 231.038C1377.5 240.579 1379.09 253.232 1379.09 268.996C1379.09 273.559 1378.87 278.123 1378.41 282.686C1377.96 287.249 1377.5 292.02 1377.05 296.998C1380.91 303.221 1385.11 308.199 1389.66 311.932C1394.2 315.666 1398.97 317.533 1403.97 317.533C1409.19 317.533 1414.87 315.044 1421 310.066C1427.36 305.087 1433.61 295.546 1439.74 281.441L1442.13 285.175ZM1308.22 240.372L1308.9 240.994C1315.04 233.527 1321.06 226.267 1326.96 219.215C1331.96 213.407 1336.96 207.599 1341.95 201.791C1346.95 195.569 1350.81 190.59 1353.54 186.857C1361.49 176.901 1369.21 165.907 1376.71 153.877C1384.2 141.431 1390.91 128.571 1396.81 115.296C1403.63 101.192 1408.62 87.7091 1411.8 74.8489C1415.21 61.9887 1416.91 49.9582 1416.91 38.7574C1416.91 26.727 1414.42 20.7117 1409.42 20.7117C1405.33 20.7117 1401.35 22.7859 1397.49 26.9344C1393.86 30.668 1389.77 36.6832 1385.23 44.9801C1382.5 49.9583 1379.66 55.9735 1376.71 63.0259C1373.76 69.6633 1370.8 76.7157 1367.85 84.1829C1364.9 91.2353 1362.17 98.2876 1359.67 105.34C1357.4 111.977 1355.47 117.37 1353.88 121.519L1308.22 240.372Z"/>
<path d="M1340.51 494.256C1339.38 493.842 1337.33 493.634 1334.38 493.634C1324.61 493.634 1317.12 500.064 1311.89 512.924C1306.44 525.785 1303.71 541.549 1303.71 560.217C1303.71 582.203 1307.46 599.419 1314.96 611.865C1322.23 624.31 1331.31 630.533 1342.22 630.533C1353.8 630.533 1364.7 625.97 1374.93 616.843C1385.15 608.131 1394.69 596.308 1403.55 581.374C1412.41 566.854 1420.7 550.053 1428.42 530.97C1436.37 512.302 1443.64 493.012 1450.23 473.099C1457.04 453.187 1463.4 433.689 1469.31 414.606C1475.21 395.524 1480.66 378.307 1485.66 362.958L1484.98 361.714C1481.57 369.181 1477.26 378.1 1472.03 388.471C1467.03 398.427 1461.36 408.176 1455 417.718C1448.64 426.844 1441.93 434.726 1434.89 441.364C1427.85 448.001 1420.7 451.32 1413.43 451.32C1405.93 451.32 1400.59 447.379 1397.41 439.497C1394.01 431.615 1392.3 422.281 1392.3 411.495C1392.3 401.124 1393.89 389.301 1397.07 376.026C1400.25 362.751 1404.23 348.231 1409 332.467C1414 316.288 1419.56 299.28 1425.69 281.441C1431.83 263.603 1437.96 245.142 1444.09 226.06L1480.21 223.571C1461.13 277.915 1446.25 320.852 1435.57 352.38C1424.9 383.908 1419.56 406.309 1419.56 419.584C1419.56 424.563 1420.36 428.711 1421.95 432.03C1423.76 434.934 1425.92 436.386 1428.42 436.386C1432.51 436.386 1437.73 432.652 1444.09 425.185C1450.45 417.303 1457.15 406.932 1464.2 394.072C1471.46 381.211 1478.73 366.484 1486 349.891C1493.27 332.882 1499.86 315.459 1505.76 297.62C1510.76 282.686 1515.19 268.996 1519.05 256.551C1522.91 244.105 1525.75 233.942 1527.57 226.06L1560.96 223.571C1548.7 262.151 1536.77 300.732 1525.19 339.312C1513.83 377.478 1501.9 415.436 1489.41 453.187C1500.31 447.379 1511.1 438.46 1521.78 426.429C1532.45 413.984 1542.68 399.672 1552.44 383.493C1562.44 367.314 1571.64 350.098 1580.04 331.845C1588.67 313.592 1596.4 295.753 1603.21 278.33L1605.94 282.686C1598.21 303.013 1589.7 322.926 1580.38 342.423C1571.07 361.506 1561.19 379.137 1550.74 395.316C1540.52 411.08 1529.96 424.77 1519.05 436.386C1508.15 448.001 1497.25 456.298 1486.34 461.276C1478.17 486.582 1468.97 510.021 1458.74 531.592C1448.52 553.164 1437.28 571.832 1425.01 587.596C1412.75 603.361 1399.46 615.598 1385.15 624.31C1370.84 633.437 1355.5 638 1339.15 638C1330.97 638 1323.02 636.548 1315.3 633.644C1307.58 631.155 1300.76 626.592 1294.85 619.954C1288.95 613.732 1284.18 605.227 1280.54 594.441C1276.91 584.07 1275.09 571.21 1275.09 555.861C1275.09 543.416 1276.57 532.837 1279.52 524.125C1282.25 515.414 1286 508.154 1290.77 502.346C1295.31 496.953 1300.65 492.805 1306.78 489.901C1312.69 487.412 1318.82 486.167 1325.18 486.167C1327.91 486.167 1330.74 486.374 1333.7 486.789C1336.42 487.204 1338.69 487.826 1340.51 488.656V494.256Z"/>
<path d="M1643.23 375.404C1637.09 387.434 1631.53 397.805 1626.53 406.517C1621.54 415.229 1616.77 422.488 1612.22 428.296C1605.63 437.008 1599.5 443.023 1593.82 446.342C1588.14 449.661 1582.69 451.32 1577.47 451.32C1570.2 451.32 1564.75 447.586 1561.11 440.119C1557.25 432.237 1555.32 422.074 1555.32 409.628C1555.32 400.087 1557.02 388.471 1560.43 374.781C1563.61 361.091 1567.81 346.364 1573.04 330.6L1607.11 226.06L1643.23 223.571L1604.73 331.845C1589.96 372.915 1582.58 401.539 1582.58 417.718C1582.58 423.111 1583.26 427.674 1584.62 431.408C1585.99 434.726 1588.03 436.386 1590.76 436.386C1595.07 436.386 1600.3 433.067 1606.43 426.429C1612.56 419.377 1618.81 410.458 1625.17 399.672C1628.35 394.279 1631.64 388.264 1635.05 381.626C1638.46 374.989 1641.64 368.351 1644.59 361.714C1647.54 355.076 1650.16 348.854 1652.43 343.046C1654.93 336.823 1656.86 331.638 1658.22 327.489L1691.61 228.549L1726.71 223.571C1717.39 251.365 1708.87 276.048 1701.15 297.62C1693.66 319.192 1687.18 338.068 1681.73 354.247C1676.51 370.425 1672.42 384.323 1669.46 395.938C1666.51 407.554 1665.03 417.51 1665.03 425.807C1665.03 435.349 1667.19 440.119 1671.51 440.119C1676.28 440.119 1683.55 433.897 1693.31 421.451C1703.08 408.591 1713.53 391.375 1724.66 369.803C1731.02 357.358 1737.84 343.668 1745.11 328.734C1752.37 313.384 1760.1 296.168 1768.27 277.085L1771 280.819C1763.05 299.902 1755.44 317.325 1748.17 333.089C1740.9 348.854 1733.97 362.958 1727.39 375.404C1719.89 389.508 1713.08 401.539 1706.94 411.495C1701.04 421.036 1695.47 428.711 1690.25 434.519C1685.02 440.327 1680.14 444.475 1675.6 446.964C1671.05 449.868 1666.74 451.32 1662.65 451.32C1655.61 451.32 1650.04 447.794 1645.95 440.742C1641.87 433.274 1639.82 423.525 1639.82 411.495C1639.82 404.028 1640.05 397.805 1640.5 392.827C1641.18 387.849 1642.32 382.456 1643.91 376.648L1643.23 375.404ZM1733.52 100.362C1730.11 109.903 1726.36 118.615 1722.28 126.497C1718.41 134.379 1713.53 141.846 1707.63 148.899C1703.31 153.877 1698.31 158.233 1692.63 161.966C1686.95 165.285 1680.37 166.944 1672.87 166.944C1669.01 166.944 1664.58 166.737 1659.58 166.322C1654.81 165.492 1649.93 163.418 1644.93 160.099C1641.07 157.195 1637.78 153.254 1635.05 148.276C1632.32 143.298 1630.96 136.661 1630.96 128.364C1630.96 120.482 1632.21 114.052 1634.71 109.074C1637.21 104.095 1640.39 100.362 1644.25 97.8728C1647.43 95.7985 1650.95 94.3466 1654.81 93.5169C1658.67 92.6872 1662.2 92.2724 1665.38 92.2724C1666.97 92.2724 1669.46 92.6872 1672.87 93.5169C1676.28 93.9318 1679.12 94.554 1681.39 95.3837L1680.71 100.984C1679.57 100.569 1678.66 100.362 1677.98 100.362C1677.3 100.362 1676.51 100.362 1675.6 100.362C1671.05 100.362 1666.85 102.851 1662.99 107.829C1659.13 112.807 1657.2 119.86 1657.2 128.986C1657.2 138.528 1659.47 145.995 1664.01 151.388C1667.87 155.951 1672.87 158.233 1679 158.233C1684.23 158.233 1689 156.988 1693.31 154.499C1697.86 151.595 1702.06 147.861 1705.92 143.298C1711.15 137.49 1715.8 130.438 1719.89 122.141C1724.21 113.429 1727.61 104.925 1730.11 96.6282L1733.52 100.362Z"/>
</mask>
<path d="M79.4636 338.068C82.6437 330.6 87.1867 320.022 93.0926 306.332C99.2257 292.642 106.154 279.16 113.877 265.885C121.6 252.61 129.891 240.994 138.75 231.038C147.609 221.082 156.468 216.103 165.326 216.103C172.822 216.103 178.501 220.044 182.363 227.926C186.224 235.394 188.155 244.728 188.155 255.928C188.155 270.033 185.656 284.553 180.659 299.487C175.889 314.007 170.551 328.734 164.645 343.668C158.739 358.188 153.287 372.292 148.29 385.982C143.52 399.257 141.135 411.702 141.135 423.318C141.135 428.296 141.816 432.445 143.179 435.763C144.542 438.667 146.814 440.119 149.994 440.119C153.174 440.119 158.398 435.763 165.667 427.052C173.163 417.925 183.158 401.331 195.651 377.27C205.418 358.188 214.391 339.727 222.568 321.889C230.746 303.636 236.879 289.946 240.967 280.819L244.375 283.93C238.469 296.791 231.2 312.762 222.568 331.845C213.937 350.928 204.737 369.803 194.97 388.471C183.158 411.288 173.05 427.467 164.645 437.008C156.468 446.549 147.949 451.32 139.091 451.32C130.459 451.32 124.099 446.964 120.01 438.252C115.921 429.541 113.877 419.584 113.877 408.384C113.877 394.279 116.262 379.759 121.032 364.825C126.029 349.891 131.481 335.371 137.387 321.266C143.293 306.747 148.631 293.057 153.401 280.197C158.398 267.337 160.897 256.136 160.897 246.594C160.897 242.031 160.102 238.298 158.512 235.394C156.922 232.49 154.537 231.038 151.357 231.038C146.814 231.038 141.476 234.979 135.343 242.861C129.21 250.328 122.736 260.284 115.921 272.73C109.107 284.76 102.179 298.657 95.137 314.421C88.0953 329.771 81.3944 345.327 75.0342 361.091C68.9011 376.441 63.336 391.375 58.3387 405.895C53.3413 420.414 49.3662 432.859 46.4133 443.231L12 445.097C24.039 408.591 36.0779 372.5 48.1169 336.823C60.383 300.732 72.422 263.81 84.2338 226.06L123.076 223.571L78.7822 336.823L79.4636 338.068Z" fill="white"/>
<path d="M408.075 283.93C403.532 294.716 398.08 304.465 391.72 313.177C385.587 321.889 378.772 326.245 371.276 326.245C366.052 326.245 361.509 324.17 357.647 320.022C353.786 315.873 350.265 310.066 347.085 302.598C344.359 323.341 339.816 343.046 333.456 361.714C327.323 379.967 319.827 396.146 310.968 410.25C302.109 423.94 292.228 434.934 281.325 443.231C270.422 451.113 259.064 455.054 247.252 455.054C234.759 455.054 224.764 448.624 217.268 435.763C209.772 422.488 206.024 404.443 206.024 381.626C206.024 359.639 209.091 338.69 215.224 318.777C221.357 298.45 229.307 280.819 239.075 265.885C248.842 250.535 259.632 238.505 271.444 229.793C283.256 220.667 294.84 216.103 306.198 216.103C318.464 216.103 328.118 222.119 335.159 234.149C342.201 246.18 346.517 260.699 348.107 277.708C349.243 290.153 351.741 300.109 355.603 307.577C359.692 315.044 364.916 318.777 371.276 318.777C377.409 318.777 383.202 315.459 388.653 308.821C394.105 302.184 399.897 292.227 406.03 278.952L408.075 283.93ZM249.637 447.586C255.316 447.586 260.995 444.06 266.674 437.008C272.352 429.956 277.804 420.829 283.028 409.628C288.253 398.427 293.023 385.775 297.339 371.67C301.882 357.565 305.743 343.461 308.924 329.356C312.331 315.251 314.943 301.769 316.76 288.909C318.577 276.048 319.486 265.262 319.486 256.551C319.486 246.18 318.237 238.09 315.738 232.282C313.467 226.474 309.719 223.571 304.494 223.571C298.815 223.571 293.137 227.097 287.458 234.149C281.779 241.201 276.327 250.328 271.103 261.529C265.879 272.73 260.995 285.382 256.452 299.487C252.136 313.592 248.274 327.696 244.867 341.801C241.687 355.906 239.188 369.388 237.371 382.249C235.554 395.109 234.645 405.895 234.645 414.606C234.645 424.977 235.781 433.067 238.053 438.875C240.551 444.683 244.413 447.586 249.637 447.586Z" fill="white"/>
<path d="M545.198 284.553C536.793 306.125 529.184 325.415 522.369 342.423C515.555 359.432 508.059 375.196 499.881 389.716C486.252 413.362 473.759 430.163 462.402 440.119C451.271 450.076 440.822 455.054 431.055 455.054C428.102 455.054 424.354 454.639 419.811 453.809C415.268 452.979 410.725 449.661 406.182 443.853C402.093 438.045 399.367 431.408 398.005 423.94C396.642 416.058 395.96 409.213 395.96 403.406C395.96 388.471 398.232 374.574 402.775 361.714C407.545 348.854 413.905 336.823 421.855 325.622C429.578 314.421 438.551 303.843 448.773 293.887C459.222 283.516 470.466 271.693 482.504 258.417L482.164 257.173C477.621 261.321 472.283 265.262 466.15 268.996C460.244 272.315 454.679 273.974 449.454 273.974C443.094 273.974 437.869 271.693 433.781 267.129C429.238 262.151 426.285 254.891 424.922 245.35C421.515 254.476 417.994 263.188 414.359 271.485C410.952 279.367 407.999 286.005 405.501 291.398L402.093 287.664C404.592 281.856 407.886 274.182 411.974 264.64C416.063 254.684 420.038 244.105 423.9 232.905C423.445 227.097 423.9 221.082 425.263 214.859C426.626 208.636 428.329 203.243 430.373 198.68C432.418 194.117 434.803 190.383 437.529 187.479C440.482 184.575 443.548 183.123 446.728 183.123C448.091 183.123 449.341 183.953 450.476 185.612C451.612 187.272 452.18 189.346 452.18 191.835C452.18 196.398 451.271 199.924 449.454 202.414C447.864 204.903 445.706 207.392 442.98 209.881C442.526 214.444 442.98 219.422 444.343 224.815C445.706 229.793 447.75 233.942 450.476 237.26C452.975 240.579 455.814 243.276 458.994 245.35C462.402 247.009 466.377 247.839 470.92 247.839C476.371 247.839 480.687 247.009 483.867 245.35C487.275 243.276 490.568 240.787 493.748 237.883C496.02 235.808 497.724 233.319 498.859 230.415C500.222 227.512 501.358 224.815 502.267 222.326C503.175 219.422 504.084 217.14 504.992 215.481C506.128 213.407 507.605 212.37 509.422 212.37C510.33 212.37 511.353 213.199 512.488 214.859C513.624 216.103 514.192 218.178 514.192 221.082C514.192 226.06 511.125 231.867 504.992 238.505C501.812 241.824 498.405 245.557 494.771 249.706C491.363 253.439 488.07 257.588 484.89 262.151C474.668 276.671 465.923 290.568 458.654 303.843C451.385 316.703 445.365 328.941 440.595 340.557C437.415 348.439 434.803 355.491 432.759 361.714C430.941 367.936 429.578 373.744 428.67 379.137C427.761 384.115 427.193 388.679 426.966 392.827C426.739 396.975 426.625 401.124 426.625 405.272C426.625 416.473 428.216 424.77 431.396 430.163C434.803 435.556 438.664 438.252 442.98 438.252C446.615 438.252 450.136 437.63 453.543 436.386C456.95 435.141 460.698 432.652 464.787 428.918C468.875 425.185 473.418 419.999 478.416 413.362C483.64 406.309 489.546 397.183 496.134 385.982C502.948 374.366 510.217 359.432 517.94 341.179C525.89 322.926 533.954 303.221 542.131 282.064L545.198 284.553Z" fill="white"/>
<path d="M444.444 494.256C443.309 493.842 441.264 493.634 438.311 493.634C428.544 493.634 421.048 500.064 415.823 512.924C410.372 525.785 407.646 541.549 407.646 560.217C407.646 582.203 411.394 599.419 418.89 611.865C426.159 624.31 435.245 630.533 446.148 630.533C457.733 630.533 468.636 625.97 478.858 616.843C489.079 608.131 498.62 596.308 507.479 581.374C516.337 566.854 524.628 550.053 532.352 530.97C540.302 512.302 547.571 493.012 554.158 473.099C560.972 453.187 567.333 433.689 573.239 414.606C579.144 395.524 584.596 378.307 589.593 362.958L588.912 361.714C585.505 369.181 581.189 378.1 575.964 388.471C570.967 398.427 565.288 408.176 558.928 417.718C552.568 426.844 545.867 434.726 538.825 441.364C531.784 448.001 524.628 451.32 517.36 451.32C509.864 451.32 504.526 447.379 501.346 439.497C497.938 431.615 496.235 422.281 496.235 411.495C496.235 401.124 497.825 389.301 501.005 376.026C504.185 362.751 508.16 348.231 512.93 332.467C517.928 316.288 523.493 299.28 529.626 281.441C535.759 263.603 541.892 245.142 548.025 226.06L584.142 223.571C565.061 277.915 550.183 320.852 539.507 352.38C528.831 383.908 523.493 406.309 523.493 419.584C523.493 424.563 524.288 428.711 525.878 432.03C527.695 434.934 529.853 436.386 532.352 436.386C536.44 436.386 541.665 432.652 548.025 425.185C554.385 417.303 561.086 406.932 568.128 394.072C575.396 381.211 582.665 366.484 589.934 349.891C597.203 332.882 603.79 315.459 609.696 297.62C614.693 282.686 619.123 268.996 622.984 256.551C626.846 244.105 629.685 233.942 631.503 226.06L664.894 223.571C652.628 262.151 640.702 300.732 629.118 339.312C617.76 377.478 605.835 415.436 593.341 453.187C604.245 447.379 615.034 438.46 625.71 426.429C636.386 413.984 646.608 399.672 656.376 383.493C666.37 367.314 675.57 350.098 683.974 331.845C692.606 313.592 700.329 295.753 707.144 278.33L709.869 282.686C702.146 303.013 693.628 322.926 684.315 342.423C675.002 361.506 665.121 379.137 654.672 395.316C644.45 411.08 633.888 424.77 622.984 436.386C612.081 448.001 601.178 456.298 590.275 461.276C582.097 486.582 572.898 510.021 562.676 531.592C552.454 553.164 541.21 571.832 528.944 587.596C516.678 603.361 503.39 615.598 489.079 624.31C474.769 633.437 459.436 638 443.081 638C434.904 638 426.954 636.548 419.231 633.644C411.508 631.155 404.693 626.592 398.787 619.954C392.881 613.732 388.111 605.227 384.477 594.441C380.842 584.07 379.025 571.21 379.025 555.861C379.025 543.416 380.502 532.837 383.455 524.125C386.18 515.414 389.928 508.154 394.698 502.346C399.241 496.953 404.58 492.805 410.713 489.901C416.618 487.412 422.752 486.167 429.112 486.167C431.838 486.167 434.677 486.374 437.63 486.789C440.356 487.204 442.627 487.826 444.444 488.656V494.256Z" fill="white"/>
<path d="M883.791 285.175C877.885 299.694 871.411 310.066 864.37 316.288C857.555 322.096 850.854 325 844.267 325C839.043 325 834.045 322.926 829.275 318.777C824.732 314.629 820.871 310.066 817.69 305.087C813.602 329.978 807.696 351.757 799.973 370.425C792.477 389.093 783.959 404.65 774.418 417.095C765.105 429.541 754.997 438.875 744.094 445.097C733.418 451.735 722.855 455.054 712.406 455.054C700.822 455.054 691.736 449.246 685.148 437.63C678.561 426.015 675.267 411.08 675.267 392.827C675.267 384.945 675.721 377.27 676.63 369.803C677.766 361.921 679.697 353.002 682.422 343.046C684.24 336.823 686.625 328.526 689.578 318.155C692.758 307.784 695.597 299.072 698.096 292.02L744.775 158.855C752.498 136.453 761.016 116.748 770.33 99.7396C779.643 82.731 789.978 67.1743 801.336 53.0696C812.239 39.7946 822.347 29.6309 831.66 22.5785C840.973 15.5262 849.151 12 856.192 12C859.372 12 862.666 12.4149 866.073 13.2446C869.708 13.6594 873.115 15.1113 876.295 17.6004C883.11 22.9934 886.517 31.0828 886.517 41.8688C886.517 53.8993 884.586 65.7223 880.725 77.338C876.863 88.5388 869.821 101.606 859.6 116.541C847.333 133.964 836.203 148.276 826.209 159.477C816.214 170.678 806.787 182.086 797.928 193.702C796.793 195.361 795.089 197.435 792.817 199.924C790.773 202.414 788.388 205.317 785.662 208.636C782.936 211.955 779.983 215.481 776.803 219.215C773.85 222.533 770.897 226.06 767.945 229.793C760.903 238.09 753.407 247.009 745.457 256.551L728.761 302.598C726.035 310.066 722.855 319.4 719.221 330.6C715.586 341.801 712.747 351.55 710.703 359.847C707.068 373.122 704.57 384.53 703.207 394.072C701.844 403.198 701.162 410.665 701.162 416.473C701.162 426.429 702.525 434.104 705.251 439.497C707.977 444.89 711.611 447.586 716.154 447.586C722.742 447.586 730.578 441.779 739.664 430.163C748.977 418.133 758.291 399.05 767.604 372.915C780.324 336.408 787.707 304.05 789.751 275.841C787.252 266.714 786.003 258.21 786.003 250.328C786.003 239.957 787.479 231.66 790.432 225.437C793.385 219.215 796.906 216.103 800.995 216.103C808.037 216.103 813.034 221.082 815.987 231.038C819.167 240.579 820.757 253.232 820.757 268.996C820.757 273.559 820.53 278.123 820.075 282.686C819.621 287.249 819.167 292.02 818.713 296.998C822.574 303.221 826.776 308.199 831.319 311.932C835.862 315.666 840.633 317.533 845.63 317.533C850.854 317.533 856.533 315.044 862.666 310.066C869.026 305.087 875.273 295.546 881.406 281.441L883.791 285.175ZM749.886 240.372L750.567 240.994C756.701 233.527 762.72 226.267 768.626 219.215C773.623 213.407 778.621 207.599 783.618 201.791C788.615 195.569 792.477 190.59 795.203 186.857C803.153 176.901 810.876 165.907 818.372 153.877C825.868 141.431 832.569 128.571 838.475 115.296C845.289 101.192 850.286 87.7091 853.467 74.8489C856.874 61.9887 858.577 49.9582 858.577 38.7574C858.577 26.727 856.079 20.7117 851.082 20.7117C846.993 20.7117 843.018 22.7859 839.156 26.9344C835.522 30.668 831.433 36.6832 826.89 44.9801C824.164 49.9583 821.325 55.9735 818.372 63.0259C815.419 69.6633 812.466 76.7157 809.513 84.1829C806.56 91.2353 803.834 98.2876 801.336 105.34C799.064 111.977 797.133 117.37 795.543 121.519L749.886 240.372Z" fill="white"/>
<path d="M1023.07 284.553C1014.66 303.221 1005.58 322.718 995.81 343.046C986.042 362.958 975.48 381.211 964.122 397.805C952.992 414.399 940.953 428.089 928.006 438.875C915.285 449.661 901.77 455.054 887.459 455.054C873.83 455.054 863.381 448.416 856.112 435.141C848.844 421.451 845.209 401.539 845.209 375.404C845.209 355.491 848.389 335.993 854.75 316.911C861.11 297.828 869.287 280.819 879.282 265.885C889.276 250.95 900.293 238.92 912.332 229.793C924.371 220.667 936.069 216.103 947.427 216.103C957.876 216.103 966.167 220.044 972.3 227.926C978.433 235.394 981.499 244.728 981.499 255.928C981.499 263.81 980.591 271.07 978.774 277.708C977.184 283.93 975.026 289.323 972.3 293.887C969.574 298.035 966.508 301.354 963.1 303.843C959.693 305.917 956.286 306.954 952.879 306.954C949.926 306.954 947.313 306.539 945.042 305.71C946.632 296.168 948.335 286.419 950.153 276.463C951.97 266.507 952.879 256.551 952.879 246.594C952.879 239.542 951.97 233.942 950.153 229.793C948.335 225.645 945.837 223.571 942.657 223.571C936.751 223.571 930.05 227.926 922.554 236.638C915.058 244.935 908.016 256.343 901.429 270.863C894.842 284.968 889.276 301.354 884.733 320.022C880.19 338.275 877.919 357.358 877.919 377.27C877.919 393.034 880.531 406.517 885.756 417.718C890.98 428.504 898.249 433.897 907.562 433.897C918.692 433.897 929.709 428.296 940.612 417.095C951.743 405.895 962.192 392.412 971.959 376.648C981.954 360.469 991.04 343.875 999.217 326.867C1007.39 309.443 1014.32 294.509 1020 282.064L1023.07 284.553Z" fill="white"/>
<path d="M1110.03 329.356C1114.35 319.4 1119.46 307.991 1125.36 295.131C1131.27 281.856 1137.63 269.411 1144.44 257.795C1151.49 246.18 1158.75 236.431 1166.25 228.549C1173.97 220.252 1181.58 216.103 1189.08 216.103C1196.35 216.103 1202.14 220.252 1206.46 228.549C1211 236.846 1213.27 246.387 1213.27 257.173C1213.27 271.278 1210.77 285.797 1205.77 300.732C1200.78 315.251 1195.21 329.771 1189.08 344.29C1182.95 358.81 1177.38 372.915 1172.38 386.604C1167.39 400.294 1164.89 412.74 1164.89 423.94C1164.89 428.504 1165.45 432.445 1166.59 435.763C1167.73 438.667 1169.54 440.119 1172.04 440.119C1181.36 440.119 1196.57 420.829 1217.7 382.249C1226.33 366.484 1234.74 349.891 1242.91 332.467C1251.32 314.629 1258.59 298.45 1264.72 283.93L1267.45 286.419C1264.72 292.642 1261.54 299.694 1257.9 307.577C1254.5 315.459 1250.75 323.963 1246.66 333.089C1242.57 341.801 1238.14 350.928 1233.37 360.469C1228.83 370.011 1224.17 379.137 1219.4 387.849C1213.04 399.465 1207.25 409.421 1202.03 417.718C1196.8 425.6 1191.92 432.03 1187.37 437.008C1183.06 441.986 1178.86 445.512 1174.77 447.586C1170.91 450.076 1166.93 451.32 1162.84 451.32C1154.89 451.32 1148.65 447.379 1144.1 439.497C1139.79 431.2 1137.63 420.829 1137.63 408.384C1137.63 395.109 1140.13 380.797 1145.12 365.447C1150.12 350.098 1155.69 335.164 1161.82 320.644C1167.95 306.125 1173.52 292.642 1178.52 280.197C1183.51 267.337 1186.01 256.966 1186.01 249.083C1186.01 243.276 1185.1 238.92 1183.29 236.016C1181.47 232.697 1179.31 231.038 1176.81 231.038C1172.04 231.038 1166.48 235.186 1160.12 243.483C1153.98 251.365 1147.51 261.736 1140.7 274.596C1133.88 287.457 1127.07 301.769 1120.25 317.533C1113.66 333.297 1107.3 349.061 1101.17 364.825C1095.27 380.589 1089.93 395.316 1085.16 409.006C1080.61 422.696 1076.98 433.897 1074.25 442.608L1038.14 445.097C1045.86 422.696 1053.36 401.539 1060.62 381.626C1068.12 361.299 1074.71 342.838 1080.39 326.245C1086.29 309.236 1090.95 294.302 1094.36 281.441C1097.99 268.581 1099.81 258.418 1099.81 250.95C1099.81 245.972 1099.01 241.409 1097.42 237.26C1095.83 233.112 1093.33 231.038 1089.93 231.038C1085.16 231.038 1079.59 235.186 1073.23 243.483C1067.1 251.365 1060.62 261.736 1053.81 274.596C1047 287.457 1040.07 301.769 1033.03 317.533C1026.21 333.297 1019.74 349.061 1013.6 364.825C1007.47 380.589 1002.02 395.316 997.25 409.006C992.48 422.696 988.732 433.897 986.006 442.608L951.593 445.097C964.086 408.591 976.466 372.292 988.732 336.201C1001 299.694 1013.04 262.566 1024.85 224.815L1064.71 221.082L1019.4 334.334L1020.08 335.579C1024.85 325.622 1030.19 313.799 1036.09 300.109C1042.23 286.419 1048.81 273.352 1055.85 260.907C1062.9 248.461 1070.39 237.883 1078.34 229.171C1086.52 220.459 1095.15 216.103 1104.24 216.103C1110.6 216.103 1115.94 219.215 1120.25 225.437C1124.79 231.66 1127.07 240.994 1127.07 253.439C1127.07 259.247 1126.5 265.47 1125.36 272.107C1124.23 278.745 1122.75 285.382 1120.93 292.02C1119.34 298.243 1117.41 304.673 1115.14 311.31C1113.1 317.533 1111.17 323.133 1109.35 328.111L1110.03 329.356Z" fill="white"/>
<path d="M1442.13 285.175C1436.22 299.694 1429.75 310.066 1422.71 316.288C1415.89 322.096 1409.19 325 1402.6 325C1397.38 325 1392.38 322.926 1387.61 318.777C1383.07 314.629 1379.21 310.066 1376.03 305.087C1371.94 329.978 1366.03 351.757 1358.31 370.425C1350.81 389.093 1342.3 404.65 1332.76 417.095C1323.44 429.541 1313.33 438.875 1302.43 445.097C1291.75 451.735 1281.19 455.054 1270.74 455.054C1259.16 455.054 1250.07 449.246 1243.49 437.63C1236.9 426.015 1233.6 411.08 1233.6 392.827C1233.6 384.945 1234.06 377.27 1234.97 369.803C1236.1 361.921 1238.03 353.002 1240.76 343.046C1242.58 336.823 1244.96 328.526 1247.91 318.155C1251.09 307.784 1253.93 299.072 1256.43 292.02L1303.11 158.855C1310.84 136.453 1319.35 116.748 1328.67 99.7396C1337.98 82.731 1348.32 67.1743 1359.67 53.0696C1370.58 39.7946 1380.68 29.6309 1390 22.5785C1399.31 15.5262 1407.49 12 1414.53 12C1417.71 12 1421 12.4149 1424.41 13.2446C1428.04 13.6594 1431.45 15.1113 1434.63 17.6004C1441.45 22.9934 1444.85 31.0828 1444.85 41.8688C1444.85 53.8993 1442.92 65.7223 1439.06 77.338C1435.2 88.5388 1428.16 101.606 1417.94 116.541C1405.67 133.964 1394.54 148.276 1384.55 159.477C1374.55 170.678 1365.12 182.086 1356.27 193.702C1355.13 195.361 1353.43 197.435 1351.15 199.924C1349.11 202.414 1346.73 205.317 1344 208.636C1341.27 211.955 1338.32 215.481 1335.14 219.215C1332.19 222.533 1329.23 226.06 1326.28 229.793C1319.24 238.09 1311.74 247.009 1303.79 256.551L1287.1 302.598C1284.37 310.066 1281.19 319.4 1277.56 330.6C1273.92 341.801 1271.08 351.55 1269.04 359.847C1265.41 373.122 1262.91 384.53 1261.54 394.072C1260.18 403.198 1259.5 410.665 1259.5 416.473C1259.5 426.429 1260.86 434.104 1263.59 439.497C1266.31 444.89 1269.95 447.586 1274.49 447.586C1281.08 447.586 1288.92 441.779 1298 430.163C1307.31 418.133 1316.63 399.05 1325.94 372.915C1338.66 336.408 1346.04 304.05 1348.09 275.841C1345.59 266.714 1344.34 258.21 1344.34 250.328C1344.34 239.957 1345.82 231.66 1348.77 225.437C1351.72 219.215 1355.24 216.103 1359.33 216.103C1366.37 216.103 1371.37 221.082 1374.32 231.038C1377.5 240.579 1379.09 253.232 1379.09 268.996C1379.09 273.559 1378.87 278.123 1378.41 282.686C1377.96 287.249 1377.5 292.02 1377.05 296.998C1380.91 303.221 1385.11 308.199 1389.66 311.932C1394.2 315.666 1398.97 317.533 1403.97 317.533C1409.19 317.533 1414.87 315.044 1421 310.066C1427.36 305.087 1433.61 295.546 1439.74 281.441L1442.13 285.175ZM1308.22 240.372L1308.9 240.994C1315.04 233.527 1321.06 226.267 1326.96 219.215C1331.96 213.407 1336.96 207.599 1341.95 201.791C1346.95 195.569 1350.81 190.59 1353.54 186.857C1361.49 176.901 1369.21 165.907 1376.71 153.877C1384.2 141.431 1390.91 128.571 1396.81 115.296C1403.63 101.192 1408.62 87.7091 1411.8 74.8489C1415.21 61.9887 1416.91 49.9582 1416.91 38.7574C1416.91 26.727 1414.42 20.7117 1409.42 20.7117C1405.33 20.7117 1401.35 22.7859 1397.49 26.9344C1393.86 30.668 1389.77 36.6832 1385.23 44.9801C1382.5 49.9583 1379.66 55.9735 1376.71 63.0259C1373.76 69.6633 1370.8 76.7157 1367.85 84.1829C1364.9 91.2353 1362.17 98.2876 1359.67 105.34C1357.4 111.977 1355.47 117.37 1353.88 121.519L1308.22 240.372Z" fill="white"/>
<path d="M1340.51 494.256C1339.38 493.842 1337.33 493.634 1334.38 493.634C1324.61 493.634 1317.12 500.064 1311.89 512.924C1306.44 525.785 1303.71 541.549 1303.71 560.217C1303.71 582.203 1307.46 599.419 1314.96 611.865C1322.23 624.31 1331.31 630.533 1342.22 630.533C1353.8 630.533 1364.7 625.97 1374.93 616.843C1385.15 608.131 1394.69 596.308 1403.55 581.374C1412.41 566.854 1420.7 550.053 1428.42 530.97C1436.37 512.302 1443.64 493.012 1450.23 473.099C1457.04 453.187 1463.4 433.689 1469.31 414.606C1475.21 395.524 1480.66 378.307 1485.66 362.958L1484.98 361.714C1481.57 369.181 1477.26 378.1 1472.03 388.471C1467.03 398.427 1461.36 408.176 1455 417.718C1448.64 426.844 1441.93 434.726 1434.89 441.364C1427.85 448.001 1420.7 451.32 1413.43 451.32C1405.93 451.32 1400.59 447.379 1397.41 439.497C1394.01 431.615 1392.3 422.281 1392.3 411.495C1392.3 401.124 1393.89 389.301 1397.07 376.026C1400.25 362.751 1404.23 348.231 1409 332.467C1414 316.288 1419.56 299.28 1425.69 281.441C1431.83 263.603 1437.96 245.142 1444.09 226.06L1480.21 223.571C1461.13 277.915 1446.25 320.852 1435.57 352.38C1424.9 383.908 1419.56 406.309 1419.56 419.584C1419.56 424.563 1420.36 428.711 1421.95 432.03C1423.76 434.934 1425.92 436.386 1428.42 436.386C1432.51 436.386 1437.73 432.652 1444.09 425.185C1450.45 417.303 1457.15 406.932 1464.2 394.072C1471.46 381.211 1478.73 366.484 1486 349.891C1493.27 332.882 1499.86 315.459 1505.76 297.62C1510.76 282.686 1515.19 268.996 1519.05 256.551C1522.91 244.105 1525.75 233.942 1527.57 226.06L1560.96 223.571C1548.7 262.151 1536.77 300.732 1525.19 339.312C1513.83 377.478 1501.9 415.436 1489.41 453.187C1500.31 447.379 1511.1 438.46 1521.78 426.429C1532.45 413.984 1542.68 399.672 1552.44 383.493C1562.44 367.314 1571.64 350.098 1580.04 331.845C1588.67 313.592 1596.4 295.753 1603.21 278.33L1605.94 282.686C1598.21 303.013 1589.7 322.926 1580.38 342.423C1571.07 361.506 1561.19 379.137 1550.74 395.316C1540.52 411.08 1529.96 424.77 1519.05 436.386C1508.15 448.001 1497.25 456.298 1486.34 461.276C1478.17 486.582 1468.97 510.021 1458.74 531.592C1448.52 553.164 1437.28 571.832 1425.01 587.596C1412.75 603.361 1399.46 615.598 1385.15 624.31C1370.84 633.437 1355.5 638 1339.15 638C1330.97 638 1323.02 636.548 1315.3 633.644C1307.58 631.155 1300.76 626.592 1294.85 619.954C1288.95 613.732 1284.18 605.227 1280.54 594.441C1276.91 584.07 1275.09 571.21 1275.09 555.861C1275.09 543.416 1276.57 532.837 1279.52 524.125C1282.25 515.414 1286 508.154 1290.77 502.346C1295.31 496.953 1300.65 492.805 1306.78 489.901C1312.69 487.412 1318.82 486.167 1325.18 486.167C1327.91 486.167 1330.74 486.374 1333.7 486.789C1336.42 487.204 1338.69 487.826 1340.51 488.656V494.256Z" fill="white"/>
<path d="M1643.23 375.404C1637.09 387.434 1631.53 397.805 1626.53 406.517C1621.54 415.229 1616.77 422.488 1612.22 428.296C1605.63 437.008 1599.5 443.023 1593.82 446.342C1588.14 449.661 1582.69 451.32 1577.47 451.32C1570.2 451.32 1564.75 447.586 1561.11 440.119C1557.25 432.237 1555.32 422.074 1555.32 409.628C1555.32 400.087 1557.02 388.471 1560.43 374.781C1563.61 361.091 1567.81 346.364 1573.04 330.6L1607.11 226.06L1643.23 223.571L1604.73 331.845C1589.96 372.915 1582.58 401.539 1582.58 417.718C1582.58 423.111 1583.26 427.674 1584.62 431.408C1585.99 434.726 1588.03 436.386 1590.76 436.386C1595.07 436.386 1600.3 433.067 1606.43 426.429C1612.56 419.377 1618.81 410.458 1625.17 399.672C1628.35 394.279 1631.64 388.264 1635.05 381.626C1638.46 374.989 1641.64 368.351 1644.59 361.714C1647.54 355.076 1650.16 348.854 1652.43 343.046C1654.93 336.823 1656.86 331.638 1658.22 327.489L1691.61 228.549L1726.71 223.571C1717.39 251.365 1708.87 276.048 1701.15 297.62C1693.66 319.192 1687.18 338.068 1681.73 354.247C1676.51 370.425 1672.42 384.323 1669.46 395.938C1666.51 407.554 1665.03 417.51 1665.03 425.807C1665.03 435.349 1667.19 440.119 1671.51 440.119C1676.28 440.119 1683.55 433.897 1693.31 421.451C1703.08 408.591 1713.53 391.375 1724.66 369.803C1731.02 357.358 1737.84 343.668 1745.11 328.734C1752.37 313.384 1760.1 296.168 1768.27 277.085L1771 280.819C1763.05 299.902 1755.44 317.325 1748.17 333.089C1740.9 348.854 1733.97 362.958 1727.39 375.404C1719.89 389.508 1713.08 401.539 1706.94 411.495C1701.04 421.036 1695.47 428.711 1690.25 434.519C1685.02 440.327 1680.14 444.475 1675.6 446.964C1671.05 449.868 1666.74 451.32 1662.65 451.32C1655.61 451.32 1650.04 447.794 1645.95 440.742C1641.87 433.274 1639.82 423.525 1639.82 411.495C1639.82 404.028 1640.05 397.805 1640.5 392.827C1641.18 387.849 1642.32 382.456 1643.91 376.648L1643.23 375.404ZM1733.52 100.362C1730.11 109.903 1726.36 118.615 1722.28 126.497C1718.41 134.379 1713.53 141.846 1707.63 148.899C1703.31 153.877 1698.31 158.233 1692.63 161.966C1686.95 165.285 1680.37 166.944 1672.87 166.944C1669.01 166.944 1664.58 166.737 1659.58 166.322C1654.81 165.492 1649.93 163.418 1644.93 160.099C1641.07 157.195 1637.78 153.254 1635.05 148.276C1632.32 143.298 1630.96 136.661 1630.96 128.364C1630.96 120.482 1632.21 114.052 1634.71 109.074C1637.21 104.095 1640.39 100.362 1644.25 97.8728C1647.43 95.7985 1650.95 94.3466 1654.81 93.5169C1658.67 92.6872 1662.2 92.2724 1665.38 92.2724C1666.97 92.2724 1669.46 92.6872 1672.87 93.5169C1676.28 93.9318 1679.12 94.554 1681.39 95.3837L1680.71 100.984C1679.57 100.569 1678.66 100.362 1677.98 100.362C1677.3 100.362 1676.51 100.362 1675.6 100.362C1671.05 100.362 1666.85 102.851 1662.99 107.829C1659.13 112.807 1657.2 119.86 1657.2 128.986C1657.2 138.528 1659.47 145.995 1664.01 151.388C1667.87 155.951 1672.87 158.233 1679 158.233C1684.23 158.233 1689 156.988 1693.31 154.499C1697.86 151.595 1702.06 147.861 1705.92 143.298C1711.15 137.49 1715.8 130.438 1719.89 122.141C1724.21 113.429 1727.61 104.925 1730.11 96.6282L1733.52 100.362Z" fill="white"/>
<path d="M79.4636 338.068C82.6437 330.6 87.1867 320.022 93.0926 306.332C99.2257 292.642 106.154 279.16 113.877 265.885C121.6 252.61 129.891 240.994 138.75 231.038C147.609 221.082 156.468 216.103 165.326 216.103C172.822 216.103 178.501 220.044 182.363 227.926C186.224 235.394 188.155 244.728 188.155 255.928C188.155 270.033 185.656 284.553 180.659 299.487C175.889 314.007 170.551 328.734 164.645 343.668C158.739 358.188 153.287 372.292 148.29 385.982C143.52 399.257 141.135 411.702 141.135 423.318C141.135 428.296 141.816 432.445 143.179 435.763C144.542 438.667 146.814 440.119 149.994 440.119C153.174 440.119 158.398 435.763 165.667 427.052C173.163 417.925 183.158 401.331 195.651 377.27C205.418 358.188 214.391 339.727 222.568 321.889C230.746 303.636 236.879 289.946 240.967 280.819L244.375 283.93C238.469 296.791 231.2 312.762 222.568 331.845C213.937 350.928 204.737 369.803 194.97 388.471C183.158 411.288 173.05 427.467 164.645 437.008C156.468 446.549 147.949 451.32 139.091 451.32C130.459 451.32 124.099 446.964 120.01 438.252C115.921 429.541 113.877 419.584 113.877 408.384C113.877 394.279 116.262 379.759 121.032 364.825C126.029 349.891 131.481 335.371 137.387 321.266C143.293 306.747 148.631 293.057 153.401 280.197C158.398 267.337 160.897 256.136 160.897 246.594C160.897 242.031 160.102 238.298 158.512 235.394C156.922 232.49 154.537 231.038 151.357 231.038C146.814 231.038 141.476 234.979 135.343 242.861C129.21 250.328 122.736 260.284 115.921 272.73C109.107 284.76 102.179 298.657 95.137 314.421C88.0953 329.771 81.3944 345.327 75.0342 361.091C68.9011 376.441 63.336 391.375 58.3387 405.895C53.3413 420.414 49.3662 432.859 46.4133 443.231L12 445.097C24.039 408.591 36.0779 372.5 48.1169 336.823C60.383 300.732 72.422 263.81 84.2338 226.06L123.076 223.571L78.7822 336.823L79.4636 338.068Z" stroke="black" stroke-width="24" stroke-linejoin="round" mask="url(#path-1-outside-1_964_29418)"/>
<path d="M408.075 283.93C403.532 294.716 398.08 304.465 391.72 313.177C385.587 321.889 378.772 326.245 371.276 326.245C366.052 326.245 361.509 324.17 357.647 320.022C353.786 315.873 350.265 310.066 347.085 302.598C344.359 323.341 339.816 343.046 333.456 361.714C327.323 379.967 319.827 396.146 310.968 410.25C302.109 423.94 292.228 434.934 281.325 443.231C270.422 451.113 259.064 455.054 247.252 455.054C234.759 455.054 224.764 448.624 217.268 435.763C209.772 422.488 206.024 404.443 206.024 381.626C206.024 359.639 209.091 338.69 215.224 318.777C221.357 298.45 229.307 280.819 239.075 265.885C248.842 250.535 259.632 238.505 271.444 229.793C283.256 220.667 294.84 216.103 306.198 216.103C318.464 216.103 328.118 222.119 335.159 234.149C342.201 246.18 346.517 260.699 348.107 277.708C349.243 290.153 351.741 300.109 355.603 307.577C359.692 315.044 364.916 318.777 371.276 318.777C377.409 318.777 383.202 315.459 388.653 308.821C394.105 302.184 399.897 292.227 406.03 278.952L408.075 283.93ZM249.637 447.586C255.316 447.586 260.995 444.06 266.674 437.008C272.352 429.956 277.804 420.829 283.028 409.628C288.253 398.427 293.023 385.775 297.339 371.67C301.882 357.565 305.743 343.461 308.924 329.356C312.331 315.251 314.943 301.769 316.76 288.909C318.577 276.048 319.486 265.262 319.486 256.551C319.486 246.18 318.237 238.09 315.738 232.282C313.467 226.474 309.719 223.571 304.494 223.571C298.815 223.571 293.137 227.097 287.458 234.149C281.779 241.201 276.327 250.328 271.103 261.529C265.879 272.73 260.995 285.382 256.452 299.487C252.136 313.592 248.274 327.696 244.867 341.801C241.687 355.906 239.188 369.388 237.371 382.249C235.554 395.109 234.645 405.895 234.645 414.606C234.645 424.977 235.781 433.067 238.053 438.875C240.551 444.683 244.413 447.586 249.637 447.586Z" stroke="black" stroke-width="24" stroke-linejoin="round" mask="url(#path-1-outside-1_964_29418)"/>
<path d="M545.198 284.553C536.793 306.125 529.184 325.415 522.369 342.423C515.555 359.432 508.059 375.196 499.881 389.716C486.252 413.362 473.759 430.163 462.402 440.119C451.271 450.076 440.822 455.054 431.055 455.054C428.102 455.054 424.354 454.639 419.811 453.809C415.268 452.979 410.725 449.661 406.182 443.853C402.093 438.045 399.367 431.408 398.005 423.94C396.642 416.058 395.96 409.213 395.96 403.406C395.96 388.471 398.232 374.574 402.775 361.714C407.545 348.854 413.905 336.823 421.855 325.622C429.578 314.421 438.551 303.843 448.773 293.887C459.222 283.516 470.466 271.693 482.504 258.417L482.164 257.173C477.621 261.321 472.283 265.262 466.15 268.996C460.244 272.315 454.679 273.974 449.454 273.974C443.094 273.974 437.869 271.693 433.781 267.129C429.238 262.151 426.285 254.891 424.922 245.35C421.515 254.476 417.994 263.188 414.359 271.485C410.952 279.367 407.999 286.005 405.501 291.398L402.093 287.664C404.592 281.856 407.886 274.182 411.974 264.64C416.063 254.684 420.038 244.105 423.9 232.905C423.445 227.097 423.9 221.082 425.263 214.859C426.626 208.636 428.329 203.243 430.373 198.68C432.418 194.117 434.803 190.383 437.529 187.479C440.482 184.575 443.548 183.123 446.728 183.123C448.091 183.123 449.341 183.953 450.476 185.612C451.612 187.272 452.18 189.346 452.18 191.835C452.18 196.398 451.271 199.924 449.454 202.414C447.864 204.903 445.706 207.392 442.98 209.881C442.526 214.444 442.98 219.422 444.343 224.815C445.706 229.793 447.75 233.942 450.476 237.26C452.975 240.579 455.814 243.276 458.994 245.35C462.402 247.009 466.377 247.839 470.92 247.839C476.371 247.839 480.687 247.009 483.867 245.35C487.275 243.276 490.568 240.787 493.748 237.883C496.02 235.808 497.724 233.319 498.859 230.415C500.222 227.512 501.358 224.815 502.267 222.326C503.175 219.422 504.084 217.14 504.992 215.481C506.128 213.407 507.605 212.37 509.422 212.37C510.33 212.37 511.353 213.199 512.488 214.859C513.624 216.103 514.192 218.178 514.192 221.082C514.192 226.06 511.125 231.867 504.992 238.505C501.812 241.824 498.405 245.557 494.771 249.706C491.363 253.439 488.07 257.588 484.89 262.151C474.668 276.671 465.923 290.568 458.654 303.843C451.385 316.703 445.365 328.941 440.595 340.557C437.415 348.439 434.803 355.491 432.759 361.714C430.941 367.936 429.578 373.744 428.67 379.137C427.761 384.115 427.193 388.679 426.966 392.827C426.739 396.975 426.625 401.124 426.625 405.272C426.625 416.473 428.216 424.77 431.396 430.163C434.803 435.556 438.664 438.252 442.98 438.252C446.615 438.252 450.136 437.63 453.543 436.386C456.95 435.141 460.698 432.652 464.787 428.918C468.875 425.185 473.418 419.999 478.416 413.362C483.64 406.309 489.546 397.183 496.134 385.982C502.948 374.366 510.217 359.432 517.94 341.179C525.89 322.926 533.954 303.221 542.131 282.064L545.198 284.553Z" stroke="black" stroke-width="24" stroke-linejoin="round" mask="url(#path-1-outside-1_964_29418)"/>
<path d="M444.444 494.256C443.309 493.842 441.264 493.634 438.311 493.634C428.544 493.634 421.048 500.064 415.823 512.924C410.372 525.785 407.646 541.549 407.646 560.217C407.646 582.203 411.394 599.419 418.89 611.865C426.159 624.31 435.245 630.533 446.148 630.533C457.733 630.533 468.636 625.97 478.858 616.843C489.079 608.131 498.62 596.308 507.479 581.374C516.337 566.854 524.628 550.053 532.352 530.97C540.302 512.302 547.571 493.012 554.158 473.099C560.972 453.187 567.333 433.689 573.239 414.606C579.144 395.524 584.596 378.307 589.593 362.958L588.912 361.714C585.505 369.181 581.189 378.1 575.964 388.471C570.967 398.427 565.288 408.176 558.928 417.718C552.568 426.844 545.867 434.726 538.825 441.364C531.784 448.001 524.628 451.32 517.36 451.32C509.864 451.32 504.526 447.379 501.346 439.497C497.938 431.615 496.235 422.281 496.235 411.495C496.235 401.124 497.825 389.301 501.005 376.026C504.185 362.751 508.16 348.231 512.93 332.467C517.928 316.288 523.493 299.28 529.626 281.441C535.759 263.603 541.892 245.142 548.025 226.06L584.142 223.571C565.061 277.915 550.183 320.852 539.507 352.38C528.831 383.908 523.493 406.309 523.493 419.584C523.493 424.563 524.288 428.711 525.878 432.03C527.695 434.934 529.853 436.386 532.352 436.386C536.44 436.386 541.665 432.652 548.025 425.185C554.385 417.303 561.086 406.932 568.128 394.072C575.396 381.211 582.665 366.484 589.934 349.891C597.203 332.882 603.79 315.459 609.696 297.62C614.693 282.686 619.123 268.996 622.984 256.551C626.846 244.105 629.685 233.942 631.503 226.06L664.894 223.571C652.628 262.151 640.702 300.732 629.118 339.312C617.76 377.478 605.835 415.436 593.341 453.187C604.245 447.379 615.034 438.46 625.71 426.429C636.386 413.984 646.608 399.672 656.376 383.493C666.37 367.314 675.57 350.098 683.974 331.845C692.606 313.592 700.329 295.753 707.144 278.33L709.869 282.686C702.146 303.013 693.628 322.926 684.315 342.423C675.002 361.506 665.121 379.137 654.672 395.316C644.45 411.08 633.888 424.77 622.984 436.386C612.081 448.001 601.178 456.298 590.275 461.276C582.097 486.582 572.898 510.021 562.676 531.592C552.454 553.164 541.21 571.832 528.944 587.596C516.678 603.361 503.39 615.598 489.079 624.31C474.769 633.437 459.436 638 443.081 638C434.904 638 426.954 636.548 419.231 633.644C411.508 631.155 404.693 626.592 398.787 619.954C392.881 613.732 388.111 605.227 384.477 594.441C380.842 584.07 379.025 571.21 379.025 555.861C379.025 543.416 380.502 532.837 383.455 524.125C386.18 515.414 389.928 508.154 394.698 502.346C399.241 496.953 404.58 492.805 410.713 489.901C416.618 487.412 422.752 486.167 429.112 486.167C431.838 486.167 434.677 486.374 437.63 486.789C440.356 487.204 442.627 487.826 444.444 488.656V494.256Z" stroke="black" stroke-width="24" stroke-linejoin="round" mask="url(#path-1-outside-1_964_29418)"/>
<path d="M883.791 285.175C877.885 299.694 871.411 310.066 864.37 316.288C857.555 322.096 850.854 325 844.267 325C839.043 325 834.045 322.926 829.275 318.777C824.732 314.629 820.871 310.066 817.69 305.087C813.602 329.978 807.696 351.757 799.973 370.425C792.477 389.093 783.959 404.65 774.418 417.095C765.105 429.541 754.997 438.875 744.094 445.097C733.418 451.735 722.855 455.054 712.406 455.054C700.822 455.054 691.736 449.246 685.148 437.63C678.561 426.015 675.267 411.08 675.267 392.827C675.267 384.945 675.721 377.27 676.63 369.803C677.766 361.921 679.697 353.002 682.422 343.046C684.24 336.823 686.625 328.526 689.578 318.155C692.758 307.784 695.597 299.072 698.096 292.02L744.775 158.855C752.498 136.453 761.016 116.748 770.33 99.7396C779.643 82.731 789.978 67.1743 801.336 53.0696C812.239 39.7946 822.347 29.6309 831.66 22.5785C840.973 15.5262 849.151 12 856.192 12C859.372 12 862.666 12.4149 866.073 13.2446C869.708 13.6594 873.115 15.1113 876.295 17.6004C883.11 22.9934 886.517 31.0828 886.517 41.8688C886.517 53.8993 884.586 65.7223 880.725 77.338C876.863 88.5388 869.821 101.606 859.6 116.541C847.333 133.964 836.203 148.276 826.209 159.477C816.214 170.678 806.787 182.086 797.928 193.702C796.793 195.361 795.089 197.435 792.817 199.924C790.773 202.414 788.388 205.317 785.662 208.636C782.936 211.955 779.983 215.481 776.803 219.215C773.85 222.533 770.897 226.06 767.945 229.793C760.903 238.09 753.407 247.009 745.457 256.551L728.761 302.598C726.035 310.066 722.855 319.4 719.221 330.6C715.586 341.801 712.747 351.55 710.703 359.847C707.068 373.122 704.57 384.53 703.207 394.072C701.844 403.198 701.162 410.665 701.162 416.473C701.162 426.429 702.525 434.104 705.251 439.497C707.977 444.89 711.611 447.586 716.154 447.586C722.742 447.586 730.578 441.779 739.664 430.163C748.977 418.133 758.291 399.05 767.604 372.915C780.324 336.408 787.707 304.05 789.751 275.841C787.252 266.714 786.003 258.21 786.003 250.328C786.003 239.957 787.479 231.66 790.432 225.437C793.385 219.215 796.906 216.103 800.995 216.103C808.037 216.103 813.034 221.082 815.987 231.038C819.167 240.579 820.757 253.232 820.757 268.996C820.757 273.559 820.53 278.123 820.075 282.686C819.621 287.249 819.167 292.02 818.713 296.998C822.574 303.221 826.776 308.199 831.319 311.932C835.862 315.666 840.633 317.533 845.63 317.533C850.854 317.533 856.533 315.044 862.666 310.066C869.026 305.087 875.273 295.546 881.406 281.441L883.791 285.175ZM749.886 240.372L750.567 240.994C756.701 233.527 762.72 226.267 768.626 219.215C773.623 213.407 778.621 207.599 783.618 201.791C788.615 195.569 792.477 190.59 795.203 186.857C803.153 176.901 810.876 165.907 818.372 153.877C825.868 141.431 832.569 128.571 838.475 115.296C845.289 101.192 850.286 87.7091 853.467 74.8489C856.874 61.9887 858.577 49.9582 858.577 38.7574C858.577 26.727 856.079 20.7117 851.082 20.7117C846.993 20.7117 843.018 22.7859 839.156 26.9344C835.522 30.668 831.433 36.6832 826.89 44.9801C824.164 49.9583 821.325 55.9735 818.372 63.0259C815.419 69.6633 812.466 76.7157 809.513 84.1829C806.56 91.2353 803.834 98.2876 801.336 105.34C799.064 111.977 797.133 117.37 795.543 121.519L749.886 240.372Z" stroke="black" stroke-width="24" stroke-linejoin="round" mask="url(#path-1-outside-1_964_29418)"/>
<path d="M1023.07 284.553C1014.66 303.221 1005.58 322.718 995.81 343.046C986.042 362.958 975.48 381.211 964.122 397.805C952.992 414.399 940.953 428.089 928.006 438.875C915.285 449.661 901.77 455.054 887.459 455.054C873.83 455.054 863.381 448.416 856.112 435.141C848.844 421.451 845.209 401.539 845.209 375.404C845.209 355.491 848.389 335.993 854.75 316.911C861.11 297.828 869.287 280.819 879.282 265.885C889.276 250.95 900.293 238.92 912.332 229.793C924.371 220.667 936.069 216.103 947.427 216.103C957.876 216.103 966.167 220.044 972.3 227.926C978.433 235.394 981.499 244.728 981.499 255.928C981.499 263.81 980.591 271.07 978.774 277.708C977.184 283.93 975.026 289.323 972.3 293.887C969.574 298.035 966.508 301.354 963.1 303.843C959.693 305.917 956.286 306.954 952.879 306.954C949.926 306.954 947.313 306.539 945.042 305.71C946.632 296.168 948.335 286.419 950.153 276.463C951.97 266.507 952.879 256.551 952.879 246.594C952.879 239.542 951.97 233.942 950.153 229.793C948.335 225.645 945.837 223.571 942.657 223.571C936.751 223.571 930.05 227.926 922.554 236.638C915.058 244.935 908.016 256.343 901.429 270.863C894.842 284.968 889.276 301.354 884.733 320.022C880.19 338.275 877.919 357.358 877.919 377.27C877.919 393.034 880.531 406.517 885.756 417.718C890.98 428.504 898.249 433.897 907.562 433.897C918.692 433.897 929.709 428.296 940.612 417.095C951.743 405.895 962.192 392.412 971.959 376.648C981.954 360.469 991.04 343.875 999.217 326.867C1007.39 309.443 1014.32 294.509 1020 282.064L1023.07 284.553Z" stroke="black" stroke-width="24" stroke-linejoin="round" mask="url(#path-1-outside-1_964_29418)"/>
<path d="M1110.03 329.356C1114.35 319.4 1119.46 307.991 1125.36 295.131C1131.27 281.856 1137.63 269.411 1144.44 257.795C1151.49 246.18 1158.75 236.431 1166.25 228.549C1173.97 220.252 1181.58 216.103 1189.08 216.103C1196.35 216.103 1202.14 220.252 1206.46 228.549C1211 236.846 1213.27 246.387 1213.27 257.173C1213.27 271.278 1210.77 285.797 1205.77 300.732C1200.78 315.251 1195.21 329.771 1189.08 344.29C1182.95 358.81 1177.38 372.915 1172.38 386.604C1167.39 400.294 1164.89 412.74 1164.89 423.94C1164.89 428.504 1165.45 432.445 1166.59 435.763C1167.73 438.667 1169.54 440.119 1172.04 440.119C1181.36 440.119 1196.57 420.829 1217.7 382.249C1226.33 366.484 1234.74 349.891 1242.91 332.467C1251.32 314.629 1258.59 298.45 1264.72 283.93L1267.45 286.419C1264.72 292.642 1261.54 299.694 1257.9 307.577C1254.5 315.459 1250.75 323.963 1246.66 333.089C1242.57 341.801 1238.14 350.928 1233.37 360.469C1228.83 370.011 1224.17 379.137 1219.4 387.849C1213.04 399.465 1207.25 409.421 1202.03 417.718C1196.8 425.6 1191.92 432.03 1187.37 437.008C1183.06 441.986 1178.86 445.512 1174.77 447.586C1170.91 450.076 1166.93 451.32 1162.84 451.32C1154.89 451.32 1148.65 447.379 1144.1 439.497C1139.79 431.2 1137.63 420.829 1137.63 408.384C1137.63 395.109 1140.13 380.797 1145.12 365.447C1150.12 350.098 1155.69 335.164 1161.82 320.644C1167.95 306.125 1173.52 292.642 1178.52 280.197C1183.51 267.337 1186.01 256.966 1186.01 249.083C1186.01 243.276 1185.1 238.92 1183.29 236.016C1181.47 232.697 1179.31 231.038 1176.81 231.038C1172.04 231.038 1166.48 235.186 1160.12 243.483C1153.98 251.365 1147.51 261.736 1140.7 274.596C1133.88 287.457 1127.07 301.769 1120.25 317.533C1113.66 333.297 1107.3 349.061 1101.17 364.825C1095.27 380.589 1089.93 395.316 1085.16 409.006C1080.61 422.696 1076.98 433.897 1074.25 442.608L1038.14 445.097C1045.86 422.696 1053.36 401.539 1060.62 381.626C1068.12 361.299 1074.71 342.838 1080.39 326.245C1086.29 309.236 1090.95 294.302 1094.36 281.441C1097.99 268.581 1099.81 258.418 1099.81 250.95C1099.81 245.972 1099.01 241.409 1097.42 237.26C1095.83 233.112 1093.33 231.038 1089.93 231.038C1085.16 231.038 1079.59 235.186 1073.23 243.483C1067.1 251.365 1060.62 261.736 1053.81 274.596C1047 287.457 1040.07 301.769 1033.03 317.533C1026.21 333.297 1019.74 349.061 1013.6 364.825C1007.47 380.589 1002.02 395.316 997.25 409.006C992.48 422.696 988.732 433.897 986.006 442.608L951.593 445.097C964.086 408.591 976.466 372.292 988.732 336.201C1001 299.694 1013.04 262.566 1024.85 224.815L1064.71 221.082L1019.4 334.334L1020.08 335.579C1024.85 325.622 1030.19 313.799 1036.09 300.109C1042.23 286.419 1048.81 273.352 1055.85 260.907C1062.9 248.461 1070.39 237.883 1078.34 229.171C1086.52 220.459 1095.15 216.103 1104.24 216.103C1110.6 216.103 1115.94 219.215 1120.25 225.437C1124.79 231.66 1127.07 240.994 1127.07 253.439C1127.07 259.247 1126.5 265.47 1125.36 272.107C1124.23 278.745 1122.75 285.382 1120.93 292.02C1119.34 298.243 1117.41 304.673 1115.14 311.31C1113.1 317.533 1111.17 323.133 1109.35 328.111L1110.03 329.356Z" stroke="black" stroke-width="24" stroke-linejoin="round" mask="url(#path-1-outside-1_964_29418)"/>
<path d="M1442.13 285.175C1436.22 299.694 1429.75 310.066 1422.71 316.288C1415.89 322.096 1409.19 325 1402.6 325C1397.38 325 1392.38 322.926 1387.61 318.777C1383.07 314.629 1379.21 310.066 1376.03 305.087C1371.94 329.978 1366.03 351.757 1358.31 370.425C1350.81 389.093 1342.3 404.65 1332.76 417.095C1323.44 429.541 1313.33 438.875 1302.43 445.097C1291.75 451.735 1281.19 455.054 1270.74 455.054C1259.16 455.054 1250.07 449.246 1243.49 437.63C1236.9 426.015 1233.6 411.08 1233.6 392.827C1233.6 384.945 1234.06 377.27 1234.97 369.803C1236.1 361.921 1238.03 353.002 1240.76 343.046C1242.58 336.823 1244.96 328.526 1247.91 318.155C1251.09 307.784 1253.93 299.072 1256.43 292.02L1303.11 158.855C1310.84 136.453 1319.35 116.748 1328.67 99.7396C1337.98 82.731 1348.32 67.1743 1359.67 53.0696C1370.58 39.7946 1380.68 29.6309 1390 22.5785C1399.31 15.5262 1407.49 12 1414.53 12C1417.71 12 1421 12.4149 1424.41 13.2446C1428.04 13.6594 1431.45 15.1113 1434.63 17.6004C1441.45 22.9934 1444.85 31.0828 1444.85 41.8688C1444.85 53.8993 1442.92 65.7223 1439.06 77.338C1435.2 88.5388 1428.16 101.606 1417.94 116.541C1405.67 133.964 1394.54 148.276 1384.55 159.477C1374.55 170.678 1365.12 182.086 1356.27 193.702C1355.13 195.361 1353.43 197.435 1351.15 199.924C1349.11 202.414 1346.73 205.317 1344 208.636C1341.27 211.955 1338.32 215.481 1335.14 219.215C1332.19 222.533 1329.23 226.06 1326.28 229.793C1319.24 238.09 1311.74 247.009 1303.79 256.551L1287.1 302.598C1284.37 310.066 1281.19 319.4 1277.56 330.6C1273.92 341.801 1271.08 351.55 1269.04 359.847C1265.41 373.122 1262.91 384.53 1261.54 394.072C1260.18 403.198 1259.5 410.665 1259.5 416.473C1259.5 426.429 1260.86 434.104 1263.59 439.497C1266.31 444.89 1269.95 447.586 1274.49 447.586C1281.08 447.586 1288.92 441.779 1298 430.163C1307.31 418.133 1316.63 399.05 1325.94 372.915C1338.66 336.408 1346.04 304.05 1348.09 275.841C1345.59 266.714 1344.34 258.21 1344.34 250.328C1344.34 239.957 1345.82 231.66 1348.77 225.437C1351.72 219.215 1355.24 216.103 1359.33 216.103C1366.37 216.103 1371.37 221.082 1374.32 231.038C1377.5 240.579 1379.09 253.232 1379.09 268.996C1379.09 273.559 1378.87 278.123 1378.41 282.686C1377.96 287.249 1377.5 292.02 1377.05 296.998C1380.91 303.221 1385.11 308.199 1389.66 311.932C1394.2 315.666 1398.97 317.533 1403.97 317.533C1409.19 317.533 1414.87 315.044 1421 310.066C1427.36 305.087 1433.61 295.546 1439.74 281.441L1442.13 285.175ZM1308.22 240.372L1308.9 240.994C1315.04 233.527 1321.06 226.267 1326.96 219.215C1331.96 213.407 1336.96 207.599 1341.95 201.791C1346.95 195.569 1350.81 190.59 1353.54 186.857C1361.49 176.901 1369.21 165.907 1376.71 153.877C1384.2 141.431 1390.91 128.571 1396.81 115.296C1403.63 101.192 1408.62 87.7091 1411.8 74.8489C1415.21 61.9887 1416.91 49.9582 1416.91 38.7574C1416.91 26.727 1414.42 20.7117 1409.42 20.7117C1405.33 20.7117 1401.35 22.7859 1397.49 26.9344C1393.86 30.668 1389.77 36.6832 1385.23 44.9801C1382.5 49.9583 1379.66 55.9735 1376.71 63.0259C1373.76 69.6633 1370.8 76.7157 1367.85 84.1829C1364.9 91.2353 1362.17 98.2876 1359.67 105.34C1357.4 111.977 1355.47 117.37 1353.88 121.519L1308.22 240.372Z" stroke="black" stroke-width="24" stroke-linejoin="round" mask="url(#path-1-outside-1_964_29418)"/>
<path d="M1340.51 494.256C1339.38 493.842 1337.33 493.634 1334.38 493.634C1324.61 493.634 1317.12 500.064 1311.89 512.924C1306.44 525.785 1303.71 541.549 1303.71 560.217C1303.71 582.203 1307.46 599.419 1314.96 611.865C1322.23 624.31 1331.31 630.533 1342.22 630.533C1353.8 630.533 1364.7 625.97 1374.93 616.843C1385.15 608.131 1394.69 596.308 1403.55 581.374C1412.41 566.854 1420.7 550.053 1428.42 530.97C1436.37 512.302 1443.64 493.012 1450.23 473.099C1457.04 453.187 1463.4 433.689 1469.31 414.606C1475.21 395.524 1480.66 378.307 1485.66 362.958L1484.98 361.714C1481.57 369.181 1477.26 378.1 1472.03 388.471C1467.03 398.427 1461.36 408.176 1455 417.718C1448.64 426.844 1441.93 434.726 1434.89 441.364C1427.85 448.001 1420.7 451.32 1413.43 451.32C1405.93 451.32 1400.59 447.379 1397.41 439.497C1394.01 431.615 1392.3 422.281 1392.3 411.495C1392.3 401.124 1393.89 389.301 1397.07 376.026C1400.25 362.751 1404.23 348.231 1409 332.467C1414 316.288 1419.56 299.28 1425.69 281.441C1431.83 263.603 1437.96 245.142 1444.09 226.06L1480.21 223.571C1461.13 277.915 1446.25 320.852 1435.57 352.38C1424.9 383.908 1419.56 406.309 1419.56 419.584C1419.56 424.563 1420.36 428.711 1421.95 432.03C1423.76 434.934 1425.92 436.386 1428.42 436.386C1432.51 436.386 1437.73 432.652 1444.09 425.185C1450.45 417.303 1457.15 406.932 1464.2 394.072C1471.46 381.211 1478.73 366.484 1486 349.891C1493.27 332.882 1499.86 315.459 1505.76 297.62C1510.76 282.686 1515.19 268.996 1519.05 256.551C1522.91 244.105 1525.75 233.942 1527.57 226.06L1560.96 223.571C1548.7 262.151 1536.77 300.732 1525.19 339.312C1513.83 377.478 1501.9 415.436 1489.41 453.187C1500.31 447.379 1511.1 438.46 1521.78 426.429C1532.45 413.984 1542.68 399.672 1552.44 383.493C1562.44 367.314 1571.64 350.098 1580.04 331.845C1588.67 313.592 1596.4 295.753 1603.21 278.33L1605.94 282.686C1598.21 303.013 1589.7 322.926 1580.38 342.423C1571.07 361.506 1561.19 379.137 1550.74 395.316C1540.52 411.08 1529.96 424.77 1519.05 436.386C1508.15 448.001 1497.25 456.298 1486.34 461.276C1478.17 486.582 1468.97 510.021 1458.74 531.592C1448.52 553.164 1437.28 571.832 1425.01 587.596C1412.75 603.361 1399.46 615.598 1385.15 624.31C1370.84 633.437 1355.5 638 1339.15 638C1330.97 638 1323.02 636.548 1315.3 633.644C1307.58 631.155 1300.76 626.592 1294.85 619.954C1288.95 613.732 1284.18 605.227 1280.54 594.441C1276.91 584.07 1275.09 571.21 1275.09 555.861C1275.09 543.416 1276.57 532.837 1279.52 524.125C1282.25 515.414 1286 508.154 1290.77 502.346C1295.31 496.953 1300.65 492.805 1306.78 489.901C1312.69 487.412 1318.82 486.167 1325.18 486.167C1327.91 486.167 1330.74 486.374 1333.7 486.789C1336.42 487.204 1338.69 487.826 1340.51 488.656V494.256Z" stroke="black" stroke-width="24" stroke-linejoin="round" mask="url(#path-1-outside-1_964_29418)"/>
<path d="M1643.23 375.404C1637.09 387.434 1631.53 397.805 1626.53 406.517C1621.54 415.229 1616.77 422.488 1612.22 428.296C1605.63 437.008 1599.5 443.023 1593.82 446.342C1588.14 449.661 1582.69 451.32 1577.47 451.32C1570.2 451.32 1564.75 447.586 1561.11 440.119C1557.25 432.237 1555.32 422.074 1555.32 409.628C1555.32 400.087 1557.02 388.471 1560.43 374.781C1563.61 361.091 1567.81 346.364 1573.04 330.6L1607.11 226.06L1643.23 223.571L1604.73 331.845C1589.96 372.915 1582.58 401.539 1582.58 417.718C1582.58 423.111 1583.26 427.674 1584.62 431.408C1585.99 434.726 1588.03 436.386 1590.76 436.386C1595.07 436.386 1600.3 433.067 1606.43 426.429C1612.56 419.377 1618.81 410.458 1625.17 399.672C1628.35 394.279 1631.64 388.264 1635.05 381.626C1638.46 374.989 1641.64 368.351 1644.59 361.714C1647.54 355.076 1650.16 348.854 1652.43 343.046C1654.93 336.823 1656.86 331.638 1658.22 327.489L1691.61 228.549L1726.71 223.571C1717.39 251.365 1708.87 276.048 1701.15 297.62C1693.66 319.192 1687.18 338.068 1681.73 354.247C1676.51 370.425 1672.42 384.323 1669.46 395.938C1666.51 407.554 1665.03 417.51 1665.03 425.807C1665.03 435.349 1667.19 440.119 1671.51 440.119C1676.28 440.119 1683.55 433.897 1693.31 421.451C1703.08 408.591 1713.53 391.375 1724.66 369.803C1731.02 357.358 1737.84 343.668 1745.11 328.734C1752.37 313.384 1760.1 296.168 1768.27 277.085L1771 280.819C1763.05 299.902 1755.44 317.325 1748.17 333.089C1740.9 348.854 1733.97 362.958 1727.39 375.404C1719.89 389.508 1713.08 401.539 1706.94 411.495C1701.04 421.036 1695.47 428.711 1690.25 434.519C1685.02 440.327 1680.14 444.475 1675.6 446.964C1671.05 449.868 1666.74 451.32 1662.65 451.32C1655.61 451.32 1650.04 447.794 1645.95 440.742C1641.87 433.274 1639.82 423.525 1639.82 411.495C1639.82 404.028 1640.05 397.805 1640.5 392.827C1641.18 387.849 1642.32 382.456 1643.91 376.648L1643.23 375.404ZM1733.52 100.362C1730.11 109.903 1726.36 118.615 1722.28 126.497C1718.41 134.379 1713.53 141.846 1707.63 148.899C1703.31 153.877 1698.31 158.233 1692.63 161.966C1686.95 165.285 1680.37 166.944 1672.87 166.944C1669.01 166.944 1664.58 166.737 1659.58 166.322C1654.81 165.492 1649.93 163.418 1644.93 160.099C1641.07 157.195 1637.78 153.254 1635.05 148.276C1632.32 143.298 1630.96 136.661 1630.96 128.364C1630.96 120.482 1632.21 114.052 1634.71 109.074C1637.21 104.095 1640.39 100.362 1644.25 97.8728C1647.43 95.7985 1650.95 94.3466 1654.81 93.5169C1658.67 92.6872 1662.2 92.2724 1665.38 92.2724C1666.97 92.2724 1669.46 92.6872 1672.87 93.5169C1676.28 93.9318 1679.12 94.554 1681.39 95.3837L1680.71 100.984C1679.57 100.569 1678.66 100.362 1677.98 100.362C1677.3 100.362 1676.51 100.362 1675.6 100.362C1671.05 100.362 1666.85 102.851 1662.99 107.829C1659.13 112.807 1657.2 119.86 1657.2 128.986C1657.2 138.528 1659.47 145.995 1664.01 151.388C1667.87 155.951 1672.87 158.233 1679 158.233C1684.23 158.233 1689 156.988 1693.31 154.499C1697.86 151.595 1702.06 147.861 1705.92 143.298C1711.15 137.49 1715.8 130.438 1719.89 122.141C1724.21 113.429 1727.61 104.925 1730.11 96.6282L1733.52 100.362Z" stroke="black" stroke-width="24" stroke-linejoin="round" mask="url(#path-1-outside-1_964_29418)"/>
</svg>
