<svg width="1262" height="281" viewBox="0 0 1262 281" fill="none" xmlns="http://www.w3.org/2000/svg">
<mask id="path-1-outside-1_928_1116" maskUnits="userSpaceOnUse" x="0" y="0" width="1262" height="281" fill="black">
<rect fill="white" width="1262" height="281"/>
<path d="M21.021 16.3431H88.6685C91.5019 16.3431 94.3353 17.6863 94.3353 21.7157V139.912H102.836C105.669 139.912 108.502 137.226 108.502 134.54L119.836 23.0589C120.544 16.6789 122.846 16.3431 128.513 16.3431H191.911C198.994 16.3431 200.411 19.0294 198.994 25.7452L187.661 106.334C181.994 134.54 164.993 145.117 146.576 145.117C164.993 146.46 183.411 157.205 187.661 178.696L198.994 255.255C200.411 263.314 200.411 266 191.911 266H129.753C124.086 266 120.367 263.482 119.836 257.941L108.502 157.205C108.502 153.176 105.669 151.833 102.836 151.833H94.3353V259.62C94.3353 264.153 91.5019 266 88.6685 266H20.8439C17.4792 266 15 264.489 15 260.292V22.0515C15 17.1826 17.3021 16.3431 21.021 16.3431Z"/>
<path d="M367.936 15C393.437 15 410.437 32.6288 410.437 55.2943V260.627C410.437 263.314 408.843 266 404.77 266H336.946C332.696 266 331.279 263.985 331.279 260.627V168.118H305.778V260.627C305.778 264.825 304.007 266 300.111 266H232.11C227.86 266 226.443 264.489 226.443 260.627V55.2943C226.443 33.804 242.558 15 268.944 15H367.936ZM331.279 157.373V77.9599C331.279 74.602 329.331 71.412 325.612 71.412H312.862C308.612 71.412 305.778 74.0983 305.778 78.1278V157.373H331.279Z"/>
<path d="M443.198 16.3431H510.846C513.679 16.3431 516.513 17.6863 516.513 21.7157V139.912H525.013C527.846 139.912 530.68 137.226 530.68 134.54L542.013 23.0589C542.722 16.6789 545.024 16.3431 550.691 16.3431H614.088C621.172 16.3431 622.588 19.0294 621.172 25.7452L609.838 106.334C604.171 134.54 587.171 145.117 568.754 145.117C587.171 146.46 605.588 157.205 609.838 178.696L621.172 255.255C622.588 263.314 622.588 266 614.088 266H551.93C546.263 266 542.545 263.482 542.013 257.941L530.68 157.205C530.68 153.176 527.846 151.833 525.013 151.833H516.513V259.62C516.513 264.153 513.679 266 510.846 266H443.021C439.657 266 437.177 264.489 437.177 260.292V22.0515C437.177 17.1826 439.48 16.3431 443.198 16.3431Z"/>
<path d="M783.03 15C807.114 15 825.531 33.804 825.531 55.2943V225.874C825.531 248.539 807.114 266 783.03 266H684.038C659.954 266 641.537 248.539 641.537 225.874V55.2943C641.537 33.804 659.954 15 684.038 15H783.03ZM740.706 208.413C743.539 208.413 746.373 207.07 746.373 203.04V76.7846C746.373 74.0983 745.133 71.412 741.414 71.412H725.476C722.643 71.412 720.872 74.0983 720.872 76.7846V203.04C720.872 207.07 723.705 208.413 726.539 208.413H740.706Z"/>
<path d="M1036.27 99.4502C1036.27 133.532 1012.71 142.599 995.181 143.942C1013.07 144.781 1036.27 159.052 1036.27 189.609V206.398C1036.27 244.006 1010.76 266 968.264 266H857.938C853.334 266 852.271 263.817 852.271 260.627V20.3726C852.271 16.6789 854.219 15 857.938 15H966.493C1003.86 15 1036.27 33.4682 1036.27 73.4268V99.4502ZM931.607 72.7552V138.569H950.024C952.857 138.569 955.69 135.883 955.69 133.197V78.1278C955.69 75.4415 952.857 72.7552 950.024 72.7552H931.607ZM950.024 208.413C952.857 208.413 955.69 205.726 955.69 203.04V156.03C955.69 152.001 952.857 150.658 950.024 150.658H931.607V208.413H950.024Z"/>
<path d="M1204.5 15C1228.58 15 1247 33.804 1247 55.2943V225.874C1247 248.539 1228.58 266 1204.5 266H1105.51C1081.42 266 1063.01 248.539 1063.01 225.874V55.2943C1063.01 33.804 1081.42 15 1105.51 15H1204.5ZM1162.17 208.413C1165.01 208.413 1167.84 207.07 1167.84 203.04V76.7846C1167.84 74.0983 1166.6 71.412 1162.88 71.412H1146.95C1144.11 71.412 1142.34 74.0983 1142.34 76.7846V203.04C1142.34 207.07 1145.17 208.413 1148.01 208.413H1162.17Z"/>
</mask>
<path d="M21.021 16.3431H88.6685C91.5019 16.3431 94.3353 17.6863 94.3353 21.7157V139.912H102.836C105.669 139.912 108.502 137.226 108.502 134.54L119.836 23.0589C120.544 16.6789 122.846 16.3431 128.513 16.3431H191.911C198.994 16.3431 200.411 19.0294 198.994 25.7452L187.661 106.334C181.994 134.54 164.993 145.117 146.576 145.117C164.993 146.46 183.411 157.205 187.661 178.696L198.994 255.255C200.411 263.314 200.411 266 191.911 266H129.753C124.086 266 120.367 263.482 119.836 257.941L108.502 157.205C108.502 153.176 105.669 151.833 102.836 151.833H94.3353V259.62C94.3353 264.153 91.5019 266 88.6685 266H20.8439C17.4792 266 15 264.489 15 260.292V22.0515C15 17.1826 17.3021 16.3431 21.021 16.3431Z" fill="black"/>
<path d="M367.936 15C393.437 15 410.437 32.6288 410.437 55.2943V260.627C410.437 263.314 408.843 266 404.77 266H336.946C332.696 266 331.279 263.985 331.279 260.627V168.118H305.778V260.627C305.778 264.825 304.007 266 300.111 266H232.11C227.86 266 226.443 264.489 226.443 260.627V55.2943C226.443 33.804 242.558 15 268.944 15H367.936ZM331.279 157.373V77.9599C331.279 74.602 329.331 71.412 325.612 71.412H312.862C308.612 71.412 305.778 74.0983 305.778 78.1278V157.373H331.279Z" fill="black"/>
<path d="M443.198 16.3431H510.846C513.679 16.3431 516.513 17.6863 516.513 21.7157V139.912H525.013C527.846 139.912 530.68 137.226 530.68 134.54L542.013 23.0589C542.722 16.6789 545.024 16.3431 550.691 16.3431H614.088C621.172 16.3431 622.588 19.0294 621.172 25.7452L609.838 106.334C604.171 134.54 587.171 145.117 568.754 145.117C587.171 146.46 605.588 157.205 609.838 178.696L621.172 255.255C622.588 263.314 622.588 266 614.088 266H551.93C546.263 266 542.545 263.482 542.013 257.941L530.68 157.205C530.68 153.176 527.846 151.833 525.013 151.833H516.513V259.62C516.513 264.153 513.679 266 510.846 266H443.021C439.657 266 437.177 264.489 437.177 260.292V22.0515C437.177 17.1826 439.48 16.3431 443.198 16.3431Z" fill="black"/>
<path d="M783.03 15C807.114 15 825.531 33.804 825.531 55.2943V225.874C825.531 248.539 807.114 266 783.03 266H684.038C659.954 266 641.537 248.539 641.537 225.874V55.2943C641.537 33.804 659.954 15 684.038 15H783.03ZM740.706 208.413C743.539 208.413 746.373 207.07 746.373 203.04V76.7846C746.373 74.0983 745.133 71.412 741.414 71.412H725.476C722.643 71.412 720.872 74.0983 720.872 76.7846V203.04C720.872 207.07 723.705 208.413 726.539 208.413H740.706Z" fill="black"/>
<path d="M1036.27 99.4502C1036.27 133.532 1012.71 142.599 995.181 143.942C1013.07 144.781 1036.27 159.052 1036.27 189.609V206.398C1036.27 244.006 1010.76 266 968.264 266H857.938C853.334 266 852.271 263.817 852.271 260.627V20.3726C852.271 16.6789 854.219 15 857.938 15H966.493C1003.86 15 1036.27 33.4682 1036.27 73.4268V99.4502ZM931.607 72.7552V138.569H950.024C952.857 138.569 955.69 135.883 955.69 133.197V78.1278C955.69 75.4415 952.857 72.7552 950.024 72.7552H931.607ZM950.024 208.413C952.857 208.413 955.69 205.726 955.69 203.04V156.03C955.69 152.001 952.857 150.658 950.024 150.658H931.607V208.413H950.024Z" fill="black"/>
<path d="M1204.5 15C1228.58 15 1247 33.804 1247 55.2943V225.874C1247 248.539 1228.58 266 1204.5 266H1105.51C1081.42 266 1063.01 248.539 1063.01 225.874V55.2943C1063.01 33.804 1081.42 15 1105.51 15H1204.5ZM1162.17 208.413C1165.01 208.413 1167.84 207.07 1167.84 203.04V76.7846C1167.84 74.0983 1166.6 71.412 1162.88 71.412H1146.95C1144.11 71.412 1142.34 74.0983 1142.34 76.7846V203.04C1142.34 207.07 1145.17 208.413 1148.01 208.413H1162.17Z" fill="black"/>
<path d="M21.021 16.3431H88.6685C91.5019 16.3431 94.3353 17.6863 94.3353 21.7157V139.912H102.836C105.669 139.912 108.502 137.226 108.502 134.54L119.836 23.0589C120.544 16.6789 122.846 16.3431 128.513 16.3431H191.911C198.994 16.3431 200.411 19.0294 198.994 25.7452L187.661 106.334C181.994 134.54 164.993 145.117 146.576 145.117C164.993 146.46 183.411 157.205 187.661 178.696L198.994 255.255C200.411 263.314 200.411 266 191.911 266H129.753C124.086 266 120.367 263.482 119.836 257.941L108.502 157.205C108.502 153.176 105.669 151.833 102.836 151.833H94.3353V259.62C94.3353 264.153 91.5019 266 88.6685 266H20.8439C17.4792 266 15 264.489 15 260.292V22.0515C15 17.1826 17.3021 16.3431 21.021 16.3431Z" stroke="#FF70AB" stroke-width="30" mask="url(#path-1-outside-1_928_1116)"/>
<path d="M367.936 15C393.437 15 410.437 32.6288 410.437 55.2943V260.627C410.437 263.314 408.843 266 404.77 266H336.946C332.696 266 331.279 263.985 331.279 260.627V168.118H305.778V260.627C305.778 264.825 304.007 266 300.111 266H232.11C227.86 266 226.443 264.489 226.443 260.627V55.2943C226.443 33.804 242.558 15 268.944 15H367.936ZM331.279 157.373V77.9599C331.279 74.602 329.331 71.412 325.612 71.412H312.862C308.612 71.412 305.778 74.0983 305.778 78.1278V157.373H331.279Z" stroke="#FF70AB" stroke-width="30" mask="url(#path-1-outside-1_928_1116)"/>
<path d="M443.198 16.3431H510.846C513.679 16.3431 516.513 17.6863 516.513 21.7157V139.912H525.013C527.846 139.912 530.68 137.226 530.68 134.54L542.013 23.0589C542.722 16.6789 545.024 16.3431 550.691 16.3431H614.088C621.172 16.3431 622.588 19.0294 621.172 25.7452L609.838 106.334C604.171 134.54 587.171 145.117 568.754 145.117C587.171 146.46 605.588 157.205 609.838 178.696L621.172 255.255C622.588 263.314 622.588 266 614.088 266H551.93C546.263 266 542.545 263.482 542.013 257.941L530.68 157.205C530.68 153.176 527.846 151.833 525.013 151.833H516.513V259.62C516.513 264.153 513.679 266 510.846 266H443.021C439.657 266 437.177 264.489 437.177 260.292V22.0515C437.177 17.1826 439.48 16.3431 443.198 16.3431Z" stroke="#FF70AB" stroke-width="30" mask="url(#path-1-outside-1_928_1116)"/>
<path d="M783.03 15C807.114 15 825.531 33.804 825.531 55.2943V225.874C825.531 248.539 807.114 266 783.03 266H684.038C659.954 266 641.537 248.539 641.537 225.874V55.2943C641.537 33.804 659.954 15 684.038 15H783.03ZM740.706 208.413C743.539 208.413 746.373 207.07 746.373 203.04V76.7846C746.373 74.0983 745.133 71.412 741.414 71.412H725.476C722.643 71.412 720.872 74.0983 720.872 76.7846V203.04C720.872 207.07 723.705 208.413 726.539 208.413H740.706Z" stroke="#FF70AB" stroke-width="30" mask="url(#path-1-outside-1_928_1116)"/>
<path d="M1036.27 99.4502C1036.27 133.532 1012.71 142.599 995.181 143.942C1013.07 144.781 1036.27 159.052 1036.27 189.609V206.398C1036.27 244.006 1010.76 266 968.264 266H857.938C853.334 266 852.271 263.817 852.271 260.627V20.3726C852.271 16.6789 854.219 15 857.938 15H966.493C1003.86 15 1036.27 33.4682 1036.27 73.4268V99.4502ZM931.607 72.7552V138.569H950.024C952.857 138.569 955.69 135.883 955.69 133.197V78.1278C955.69 75.4415 952.857 72.7552 950.024 72.7552H931.607ZM950.024 208.413C952.857 208.413 955.69 205.726 955.69 203.04V156.03C955.69 152.001 952.857 150.658 950.024 150.658H931.607V208.413H950.024Z" stroke="#FF70AB" stroke-width="30" mask="url(#path-1-outside-1_928_1116)"/>
<path d="M1204.5 15C1228.58 15 1247 33.804 1247 55.2943V225.874C1247 248.539 1228.58 266 1204.5 266H1105.51C1081.42 266 1063.01 248.539 1063.01 225.874V55.2943C1063.01 33.804 1081.42 15 1105.51 15H1204.5ZM1162.17 208.413C1165.01 208.413 1167.84 207.07 1167.84 203.04V76.7846C1167.84 74.0983 1166.6 71.412 1162.88 71.412H1146.95C1144.11 71.412 1142.34 74.0983 1142.34 76.7846V203.04C1142.34 207.07 1145.17 208.413 1148.01 208.413H1162.17Z" stroke="#FF70AB" stroke-width="30" mask="url(#path-1-outside-1_928_1116)"/>
</svg>
