<svg width="375" height="395" viewBox="0 0 375 395" fill="none" xmlns="http://www.w3.org/2000/svg">
<path d="M245.133 391.373C237.299 391.373 231.632 386.439 231.632 379.618V225.58L202.711 345.734C200.46 354.804 194.793 360.463 187.875 360.463C180.958 360.463 175.624 354.949 173.457 345.734L144.286 225.29V379.618C144.286 387.672 139.952 391.373 130.784 391.373H18.5181C10.1836 391.373 5.01611 386.874 5.01611 379.618V15.3827C5.01611 8.56231 10.6837 3.62842 18.5181 3.62842H130.784C147.62 3.62842 157.621 11.4646 160.621 26.9918L187.959 188.503L217.63 27.0643C220.297 15.3827 226.214 3.62842 249.801 3.62842H357.399C365.484 3.62842 370.901 8.34464 370.901 15.3827V379.618C370.901 386.584 365.317 391.373 357.399 391.373H245.133Z" fill="white"/>
<path d="M357.4 7.25569C363.234 7.25569 366.735 10.3031 366.735 15.3821V379.618C366.735 384.189 363.484 387.744 357.4 387.744H245.134C238.967 387.744 235.8 383.899 235.8 379.618V190.535L198.628 345.008C196.711 352.772 192.293 356.835 187.876 356.835C183.459 356.835 179.458 352.989 177.541 345.008L140.119 190.535V379.618C140.119 385.713 137.452 387.744 130.785 387.744H18.5189C12.9347 387.744 9.18412 385.205 9.18412 379.618V15.3821C9.18412 10.5208 13.0181 7.25569 18.5189 7.25569H130.785C147.12 7.25569 154.205 15.3821 156.538 27.6442L187.793 212.447L221.714 27.6442C224.048 17.4863 228.715 7.25569 249.802 7.25569H357.4ZM357.4 0H249.802C219.547 0 215.213 19.0099 213.546 26.1931L188.126 164.632L164.789 26.5559C160.539 4.57111 143.953 0 130.785 0H18.5189C8.4341 0 0.849609 6.6027 0.849609 15.3821V379.618C0.849609 388.833 7.93403 395 18.5189 395H130.785C142.203 395 148.454 389.558 148.454 379.618V260.044L169.373 346.459C173.207 362.785 184.459 364.091 187.876 364.091C194.877 364.091 203.545 359.447 206.712 346.532L227.382 260.625V379.618C227.382 388.542 234.799 395 245.051 395H357.317C367.568 395 374.986 388.542 374.986 379.618V15.3821C374.986 6.31247 367.735 0 357.317 0H357.4Z" fill="white"/>
</svg>
