<svg width="155" height="163" viewBox="0 0 155 163" fill="none" xmlns="http://www.w3.org/2000/svg">
<path d="M101.035 161.219C97.808 161.219 95.4734 159.186 95.4734 156.377V92.9236L83.5601 142.419C82.6331 146.155 80.2985 148.486 77.4489 148.486C74.5993 148.486 72.402 146.215 71.5094 142.419L59.493 92.804V156.377C59.493 159.695 57.7077 161.219 53.9311 161.219H7.68522C4.25197 161.219 2.12332 159.366 2.12332 156.377V6.33658C2.12332 3.52705 4.45796 1.49463 7.68522 1.49463H53.9311C60.8663 1.49463 64.9862 4.72259 66.2221 11.1187L77.4832 77.6506L89.7056 11.1486C90.8043 6.33658 93.2419 1.49463 102.958 1.49463H147.281C150.611 1.49463 152.843 3.43739 152.843 6.33658V156.377C152.843 159.246 150.543 161.219 147.281 161.219H101.035Z" fill="white"/>
<path d="M147.281 2.98885C149.685 2.98885 151.127 4.24418 151.127 6.33638V156.377C151.127 158.26 149.788 159.724 147.281 159.724H101.035C98.4947 159.724 97.1901 158.14 97.1901 156.377V78.4873L81.8778 142.12C81.0882 145.318 79.2685 146.992 77.4489 146.992C75.6293 146.992 73.9814 145.408 73.1917 142.12L57.7764 78.4873V156.377C57.7764 158.887 56.6778 159.724 53.9312 159.724H7.68527C5.38499 159.724 3.83999 158.678 3.83999 156.377V6.33638C3.83999 4.33384 5.41932 2.98885 7.68527 2.98885H53.9312C60.6604 2.98885 63.5786 6.33638 64.5399 11.3875L77.4146 87.5136L91.3879 11.3875C92.3492 7.20315 94.2719 2.98885 102.958 2.98885H147.281ZM147.281 0H102.958C90.4953 0 88.71 7.83079 88.0233 10.7898L77.5519 67.8171L67.9388 10.9392C66.1878 1.88299 59.3557 0 53.9312 0H7.68527C3.53103 0 0.406738 2.71986 0.406738 6.33638V156.377C0.406738 160.173 3.32504 162.713 7.68527 162.713H53.9312C58.6347 162.713 61.2097 160.471 61.2097 156.377V107.12L69.8271 142.718C71.4064 149.443 76.0413 149.981 77.4489 149.981C80.3329 149.981 83.9035 148.068 85.2081 142.748L93.7226 107.36V156.377C93.7226 160.053 96.7781 162.713 101.001 162.713H147.247C151.47 162.713 154.525 160.053 154.525 156.377V6.33638C154.525 2.60031 151.539 0 147.247 0H147.281Z" fill="white"/>
</svg>
