<svg width="321" height="395" viewBox="0 0 321 395" fill="none" xmlns="http://www.w3.org/2000/svg">
<path d="M78.7471 391.373C37.0746 391.373 4.40332 363.075 4.40332 326.942V68.3492C4.40332 32.6512 37.7414 3.62842 78.7471 3.62842H242.187C283.193 3.62842 316.531 32.6512 316.531 68.3492V326.942C316.531 363.075 283.859 391.373 242.187 391.373H78.7471ZM147.174 96.3562C145.09 96.3562 143.756 98.678 143.756 100.855V292.26C143.756 294.364 144.34 296.758 148.924 296.758H172.344C176.928 296.758 177.511 294.364 177.511 292.26V100.855C177.511 96.3562 174.677 96.3562 173.511 96.3562H147.174Z" fill="white"/>
<path d="M242.188 7.25569C281.943 7.25569 312.364 35.7706 312.364 68.3487V326.942C312.364 361.334 281.943 387.744 242.188 387.744H78.7479C38.9923 387.744 8.57133 361.261 8.57133 326.942V68.3487C8.57133 35.7706 38.9923 7.25569 78.7479 7.25569H242.188ZM148.924 300.458H172.344C177.012 300.458 181.679 298.427 181.679 292.332V100.927C181.679 96.8635 179.596 92.8003 173.511 92.8003H147.174C142.507 92.8003 139.59 96.8635 139.59 100.927V292.332C139.59 298.427 144.257 300.458 148.924 300.458ZM242.188 0H78.7479C35.4918 0 0.236816 30.6916 0.236816 68.3487V326.942C0.236816 365.107 34.7417 395 78.7479 395H242.188C286.194 395 320.699 365.107 320.699 326.942V68.3487C320.699 30.6916 285.444 0 242.188 0ZM148.091 99.9835H173.261C173.261 99.9835 173.261 100.491 173.261 100.854V292.259C173.261 292.622 173.261 292.912 173.261 293.057C173.095 293.057 172.761 293.13 172.344 293.13H148.924C148.508 293.13 148.174 293.13 148.008 293.057C148.008 292.912 148.008 292.622 148.008 292.259V100.854C148.008 100.854 148.008 100.201 148.174 99.9835H148.091Z" fill="white"/>
</svg>
