<svg width="133" height="163" viewBox="0 0 133 163" fill="none" xmlns="http://www.w3.org/2000/svg">
<path d="M33.0925 161.219C15.9262 161.219 2.46785 149.562 2.46785 134.678V28.1552C2.46785 13.4501 16.2009 1.49463 33.0925 1.49463H100.419C117.31 1.49463 131.043 13.4501 131.043 28.1552V134.678C131.043 149.562 117.585 161.219 100.419 161.219H33.0925ZM61.2795 39.6922C60.4212 39.6922 59.8718 40.6486 59.8718 41.5453V120.391C59.8718 121.258 60.1121 122.244 62.0004 122.244H71.6479C73.5361 122.244 73.7765 121.258 73.7765 120.391V41.5453C73.7765 39.6922 72.6092 39.6922 72.1286 39.6922H61.2795Z" fill="white"/>
<path d="M100.419 2.98885C116.795 2.98885 129.327 14.7351 129.327 28.155V134.678C129.327 148.845 116.795 159.724 100.419 159.724H33.0927C16.7161 159.724 4.18472 148.815 4.18472 134.678V28.155C4.18472 14.7351 16.7161 2.98885 33.0927 2.98885H100.419ZM62.0007 123.768H71.6481C73.5707 123.768 75.4934 122.931 75.4934 120.421V41.5749C75.4934 39.9012 74.6351 38.2274 72.1288 38.2274H61.2797C59.3571 38.2274 58.1554 39.9012 58.1554 41.5749V120.421C58.1554 122.931 60.0781 123.768 62.0007 123.768ZM100.419 0H33.0927C15.2741 0 0.751465 12.6429 0.751465 28.155V134.678C0.751465 150.399 14.9651 162.713 33.0927 162.713H100.419C118.546 162.713 132.76 150.399 132.76 134.678V28.155C132.76 12.6429 118.237 0 100.419 0ZM61.6574 41.1864H72.0258C72.0258 41.1864 72.0258 41.3956 72.0258 41.5451V120.391C72.0258 120.54 72.0258 120.66 72.0258 120.72C71.9571 120.72 71.8198 120.75 71.6481 120.75H62.0007C61.829 120.75 61.6917 120.75 61.623 120.72C61.623 120.66 61.623 120.54 61.623 120.391V41.5451C61.623 41.5451 61.623 41.2761 61.6917 41.1864H61.6574Z" fill="white"/>
</svg>
