<?xml version="1.0" encoding="UTF-8"?>
<svg id="Layer_1" xmlns="http://www.w3.org/2000/svg" viewBox="0 0 1319.15 1319.15">
  <defs>
    <style>
      .cls-1 {
        fill: none;
        fill-rule: evenodd;
        stroke: #ff70ab;
        stroke-linecap: round;
        stroke-linejoin: round;
        stroke-width: 13px;
      }
    </style>
  </defs>
  <polygon class="cls-1" points="682.51 411.33 726.43 103.25 703.74 412.1 776.26 106.9 724.73 414.42 825.35 114.19 745.33 418.28 873.37 125.06 765.41 423.63 920 139.43 784.83 430.46 964.9 157.22 803.46 438.7 1007.78 178.29 821.17 448.31 1048.35 202.5 837.83 459.22 1086.32 229.69 853.34 471.35 1121.44 259.68 867.58 484.62 1153.46 292.25 880.47 498.95 1182.17 327.19 891.91 514.22 1207.38 364.25 901.83 530.35 1228.9 403.19 910.15 547.21 1246.6 443.73 916.82 564.7 1260.35 485.6 921.8 582.69 1270.06 528.52 925.05 601.06 1275.66 572.19 926.54 619.69 1277.11 616.31 926.28 638.45 1274.41 660.58 924.25 657.2 1267.57 704.7 920.48 675.83 1256.63 748.37 914.99 694.2 1241.68 791.29 907.81 712.19 1222.82 833.16 899.01 729.68 1200.17 873.71 888.62 746.54 1173.89 912.64 876.74 762.67 1144.16 949.71 863.43 777.95 1111.18 984.64 848.8 792.27 1075.17 1017.22 832.93 805.55 1036.39 1047.2 815.94 817.68 995.1 1074.39 797.94 828.58 951.58 1098.61 779.06 838.19 906.12 1119.68 759.43 846.44 859.05 1137.46 739.17 853.26 810.67 1151.84 718.44 858.62 761.32 1162.71 697.36 862.47 711.34 1169.99 676.09 864.79 661.06 1173.65 654.77 865.57 610.84 1173.65 633.54 864.79 561.02 1169.99 612.55 862.47 511.92 1162.71 591.94 858.62 463.9 1151.84 571.86 853.26 417.28 1137.46 552.44 846.44 372.37 1119.68 533.82 838.19 329.49 1098.61 516.11 828.58 288.93 1074.39 499.45 817.68 250.96 1047.2 483.94 805.55 215.84 1017.22 469.69 792.27 183.81 984.64 456.8 777.95 155.1 949.71 445.36 762.67 129.9 912.64 435.45 746.54 108.37 873.71 427.13 729.68 90.67 833.16 420.45 712.19 76.92 791.29 415.48 694.2 67.22 748.37 412.23 675.83 61.62 704.7 410.73 657.2 60.16 660.58 411 638.45 62.87 616.31 413.02 619.69 69.71 572.19 416.79 601.06 80.64 528.52 422.29 582.69 95.59 485.6 429.46 564.7 114.46 443.73 438.27 547.21 137.11 403.19 448.65 530.35 163.39 364.25 460.54 514.22 193.12 327.19 473.84 498.95 226.1 292.25 488.48 484.62 262.1 259.68 504.35 471.35 300.88 229.69 521.34 459.22 342.17 202.5 539.33 448.31 385.7 178.29 558.21 438.7 431.15 157.22 577.85 430.46 478.23 139.43 598.1 423.63 526.61 125.06 618.84 418.28 575.96 114.19 639.91 414.42 625.94 106.9 661.18 412.1 676.21 103.25 682.51 411.33"/>
</svg>