<?xml version="1.0" encoding="UTF-8"?>
<svg id="Layer_1" xmlns="http://www.w3.org/2000/svg" viewBox="0 0 1319.15 1319.15">
  <defs>
    <style>
      .cls-1 {
        fill: #ff70ab;
        fill-rule: evenodd;
        stroke: #ff70ab;
        stroke-linecap: round;
        stroke-linejoin: round;
        stroke-width: 16px;
      }
    </style>
  </defs>
  <polygon class="cls-1" points="671.7 603.68 741.28 95.48 674.89 603.8 790.59 99.19 678.04 604.15 839.08 106.59 681.12 604.75 886.4 117.62 684.12 605.57 932.23 132.21 687.01 606.62 976.27 150.25 689.77 607.89 1018.2 171.64 692.39 609.37 1057.74 196.21 694.85 611.05 1094.63 223.81 697.13 612.91 1128.6 254.24 699.22 614.96 1159.44 287.29 701.1 617.16 1186.92 322.75 702.75 619.51 1210.86 360.36 704.17 621.99 1231.09 399.88 705.35 624.59 1247.49 441.02 706.28 627.28 1259.93 483.52 706.95 630.05 1268.33 527.07 707.36 632.88 1272.63 571.39 707.5 635.74 1272.81 616.16 707.38 638.63 1268.86 661.09 706.99 641.51 1260.81 705.87 706.35 644.38 1248.72 750.19 705.44 647.21 1232.66 793.74 704.28 649.98 1212.75 836.24 702.88 652.67 1189.12 877.38 701.25 655.26 1161.94 916.89 699.39 657.75 1131.39 954.51 697.32 660.1 1097.67 989.96 695.06 662.3 1061.03 1023.02 692.61 664.34 1021.7 1053.45 690 666.21 979.97 1081.05 687.25 667.89 936.1 1105.62 684.37 669.37 890.41 1127 681.38 670.64 843.21 1145.05 678.3 671.69 794.81 1159.64 675.16 672.51 745.55 1170.67 671.97 673.1 695.76 1178.06 668.77 673.46 645.79 1181.77 665.55 673.58 595.98 1181.77 662.36 673.46 546.66 1178.06 659.22 673.1 498.17 1170.67 656.14 672.51 450.85 1159.64 653.14 671.69 405.02 1145.05 650.25 670.64 360.99 1127 647.48 669.37 319.05 1105.62 644.86 667.89 279.51 1081.05 642.4 666.21 242.63 1053.45 640.12 664.34 208.65 1023.02 638.03 662.3 177.82 989.96 636.16 660.1 150.34 954.51 634.5 657.75 126.4 916.89 633.08 655.26 106.16 877.38 631.9 652.67 89.77 836.24 630.98 649.98 77.33 793.74 630.31 647.21 68.93 750.19 629.9 644.38 64.62 705.87 629.75 641.51 64.44 661.09 629.87 638.63 68.39 616.16 630.26 635.74 76.44 571.39 630.91 632.88 88.54 527.07 631.81 630.05 104.59 483.52 632.97 627.28 124.5 441.02 634.37 624.59 148.13 399.88 636.01 621.99 175.31 360.36 637.86 619.51 205.87 322.75 639.93 617.16 239.58 287.29 642.2 614.96 276.22 254.24 644.64 612.91 315.55 223.81 647.25 611.05 357.29 196.21 650 609.37 401.15 171.64 652.88 607.89 446.84 150.25 655.87 606.62 494.05 132.21 658.95 605.57 542.44 117.62 662.09 604.75 591.7 106.59 665.28 604.15 641.49 99.19 668.49 603.8 691.46 95.48 671.7 603.68"/>
</svg>