<?xml version="1.0" encoding="UTF-8"?>
<svg id="Layer_1" xmlns="http://www.w3.org/2000/svg" viewBox="0 0 1319.15 1319.15">
  <defs>
    <style>
      .cls-1 {
        fill: #ff70ab;
      }
    </style>
  </defs>
  <path class="cls-1" d="M730.64,127.91c.16,0,.32,0,.49.03,2.19.27,3.75,2.25,3.49,4.44l-46.36,389.83,85.13-387.7c.41-1.87,2.06-3.14,3.9-3.14.28,0,.56.03.85.09,2.15.47,3.53,2.59,3.07,4.74l-63.81,300.33c-.8,3.75,2.41,4.8,3.06,4.97.21.05.68.16,1.27.16,1.26,0,3.05-.48,3.84-2.98l93.81-297.62c.54-1.71,2.12-2.8,3.81-2.8.39,0,.79.06,1.19.18,2.1.66,3.28,2.89,2.63,5l-117.12,380.41,154.46-372.84c.64-1.54,2.13-2.47,3.7-2.47.51,0,1.02.1,1.52.3,2.04.84,3.02,3.17,2.19,5.21l-116.56,286.64c-1.45,3.56,1.54,5.15,2.15,5.44.28.13,1.07.45,2.02.45,1.15,0,2.54-.47,3.51-2.35l145.12-279.92c.71-1.37,2.11-2.16,3.55-2.16.62,0,1.24.14,1.83.44,1.96,1.01,2.73,3.41,1.73,5.38l-183.99,360.53,218.88-347.65c.76-1.21,2.06-1.87,3.39-1.87.72,0,1.46.2,2.12.61,1.87,1.17,2.44,3.63,1.28,5.5l-164.71,265.28c-2.03,3.27.65,5.34,1.21,5.72.31.21,1.33.84,2.58.84,1.01,0,2.16-.41,3.2-1.79l191.02-254.62c.79-1.05,1.99-1.6,3.2-1.6.83,0,1.67.26,2.39.79,1.77,1.32,2.14,3.82.82,5.59l-245.2,331.04,276.65-313.15c.79-.89,1.89-1.35,3-1.35.94,0,1.88.33,2.64.99,1.66,1.45,1.82,3.98.37,5.64l-207.24,237.43c-2.54,2.91-.22,5.38.27,5.85.31.3,1.47,1.29,2.98,1.29.87,0,1.86-.33,2.88-1.31l230.51-223.02c.78-.75,1.78-1.12,2.78-1.12s2.08.4,2.87,1.21c1.54,1.58,1.51,4.11-.07,5.65l-.02.02-299.27,292.97,326.42-270.54c.75-.62,1.65-.92,2.55-.92,1.15,0,2.28.49,3.07,1.44,1.41,1.69,1.19,4.21-.5,5.63l-243.54,204.23c-2.96,2.48-1.05,5.29-.63,5.83.29.38,1.49,1.77,3.27,1.77.75,0,1.59-.24,2.52-.9l263.03-186.42c.7-.5,1.51-.74,2.31-.74,1.25,0,2.48.58,3.26,1.68,1.28,1.79.87,4.29-.93,5.57l-345.1,247.54,367.11-221.15c.65-.39,1.36-.57,2.06-.57,1.35,0,2.67.69,3.42,1.93,1.14,1.89.54,4.34-1.34,5.49h-.02s-273.27,166.72-273.27,166.72c-3.3,2.02-1.82,5.08-1.49,5.67.25.46,1.4,2.27,3.5,2.27.62,0,1.32-.16,2.11-.56l288.36-146.01c.58-.29,1.2-.43,1.8-.43,1.46,0,2.86.8,3.57,2.18,1,1.96.22,4.37-1.74,5.38l-381.7,195.93,397.93-166.33c.5-.21,1.03-.31,1.54-.31,1.56,0,3.04.92,3.69,2.45.86,2.03-.09,4.37-2.12,5.23l-296.28,125.75c-3.57,1.51-2.54,4.76-2.3,5.4.2.53,1.21,2.8,3.69,2.8.48,0,1.02-.09,1.62-.29l306.44-102.76c.42-.14.85-.21,1.27-.21,1.67,0,3.22,1.05,3.79,2.72.71,2.09-.41,4.35-2.5,5.07l-408.35,139.42,418.34-107.45c.33-.09.67-.13,1-.13,1.78,0,3.4,1.19,3.87,3,.55,2.13-.72,4.31-2.85,4.87l-312.36,82.05c-3.75.98-3.2,4.34-3.06,5.01.13.6.9,3.34,3.88,3.34.31,0,.65-.03,1.01-.1l317.27-57.49c.24-.04.48-.06.71-.06,1.89,0,3.58,1.35,3.94,3.28.4,2.17-1.03,4.25-3.2,4.66l-424.49,79.31,427.94-45.89c.14-.02.29-.02.43-.02,2.01,0,3.75,1.52,3.98,3.56.24,2.19-1.34,4.17-3.53,4.41l-321.28,36.24c-3.85.43-3.79,3.84-3.75,4.51.05.66.44,3.92,4.15,3.92.07,0,.14,0,.22,0l320.79-10.89s.1,0,.15,0c2.17,0,3.91,1.7,3.99,3.85.08,2.2-1.64,4.06-3.84,4.14l-429.71,16.97,426.53,16.94c2.2.09,3.92,1.94,3.84,4.14-.08,2.16-1.85,3.85-3.99,3.85-.05,0-.09,0-.14,0l-322.68-11.01c-.07,0-.15,0-.22,0-3.66,0-4.1,3.26-4.15,3.92-.05.68-.11,4.08,3.74,4.52l316.84,36.36c2.19.25,3.76,2.23,3.52,4.42-.23,2.04-1.96,3.56-3.97,3.56-.15,0-.29,0-.44-.02h-.02s-423.71-46.19-423.71-46.19l414.03,79.62c2.17.42,3.58,2.51,3.18,4.67-.36,1.92-2.05,3.26-3.93,3.26-.24,0-.49-.02-.73-.07l-316.14-58.9c-.37-.07-.71-.1-1.02-.1-2.95,0-3.74,2.72-3.88,3.31-.15.66-.72,4.01,3.01,5.03l305.18,83.49c2.13.58,3.38,2.77,2.81,4.9-.48,1.78-2.1,2.96-3.86,2.96-.34,0-.69-.04-1.03-.14l-406.48-108.64,390.57,140.64c2.07.75,3.15,3.03,2.41,5.11-.58,1.64-2.12,2.66-3.77,2.66-.44,0-.89-.07-1.33-.23l-301.23-106.44c-.62-.22-1.18-.31-1.67-.31-2.42,0-3.45,2.2-3.66,2.72-.25.63-1.33,3.84,2.18,5.43l285.55,129.55c2.01.91,2.9,3.27,2,5.28-.67,1.48-2.12,2.36-3.65,2.36-.54,0-1.1-.11-1.63-.35l-378.1-168.75,356.46,198.45c1.93,1.07,2.62,3.5,1.56,5.43-.73,1.32-2.1,2.07-3.5,2.07-.65,0-1.31-.16-1.92-.49l-277.67-152.31c-.82-.45-1.56-.63-2.21-.63-2.01,0-3.18,1.7-3.44,2.14-.35.58-1.94,3.56,1.25,5.71l257.81,173.35c1.83,1.23,2.32,3.71,1.09,5.54-.77,1.15-2.04,1.78-3.33,1.78-.76,0-1.53-.22-2.21-.67l-339.03-224.81,312.32,251.43c1.72,1.38,1.99,3.89.62,5.61-.79.99-1.95,1.5-3.13,1.5-.87,0-1.75-.28-2.49-.87l-245.5-195c-.96-.77-1.86-1.04-2.65-1.04-1.67,0-2.86,1.22-3.16,1.57-.44.51-2.52,3.17.25,5.84l222.1,213.44c1.59,1.53,1.64,4.05.12,5.65-.79.82-1.84,1.24-2.89,1.24-.99,0-1.98-.36-2.75-1.1l-290.1-275.08,259.08,297.93c1.45,1.66,1.27,4.18-.38,5.63-.76.66-1.7.99-2.63.99-1.11,0-2.21-.46-3-1.35l-205.22-232.77c-1.03-1.17-2.1-1.54-3.04-1.54-1.37,0-2.46.79-2.77,1.03-.53.42-3.04,2.67-.79,5.78l178.97,248.25c1.29,1.79.89,4.28-.89,5.58-.71.52-1.53.76-2.35.76-1.23,0-2.45-.57-3.23-1.64l-232.54-317.89,198.07,336.41c1.12,1.9.49,4.34-1.41,5.47-.64.38-1.34.56-2.04.56-1.36,0-2.69-.69-3.44-1.95l-157.9-263.92c-1.01-1.68-2.3-2.13-3.4-2.13s-1.93.42-2.22.57c-.59.32-3.47,2.06-1.84,5.53l129.5,276.15c.94,2,.08,4.37-1.91,5.31-.55.26-1.13.39-1.71.39-1.49,0-2.93-.84-3.61-2.28l-168-351.73,130.99,365.49c.74,2.07-.33,4.36-2.4,5.11-.45.16-.91.24-1.36.24-1.63,0-3.16-1-3.76-2.62l-105.18-286.99c-.85-2.32-2.51-2.8-3.75-2.8-.68,0-1.24.15-1.47.22-.64.2-3.79,1.38-2.85,5.09l75.32,295.73c.54,2.14-.74,4.31-2.88,4.86-.33.09-.67.13-1,.13-1.77,0-3.4-1.19-3.87-2.99l-98.49-375.43,59.9,384.09c.34,2.18-1.15,4.22-3.32,4.57-.22.03-.43.05-.64.05-1.93,0-3.62-1.4-3.94-3.36v-.03s-49.14-300.91-49.14-300.91c-.52-3.16-2.95-3.55-4.12-3.55-.23,0-.41.02-.52.03-.67.07-3.99.64-3.75,4.46l18.52,306.01c.13,2.2-1.54,4.09-3.74,4.23-.08,0-.17,0-.25,0-2.1,0-3.85-1.61-4-3.73l-26.26-388.23-12.93,391.55c-.07,2.16-1.85,3.87-3.98,3.87-.04,0-.09,0-.13,0-2.2-.06-3.94-1.9-3.88-4.1l7.93-305.33c.1-3.83-3.24-4.28-3.91-4.33-.08,0-.19-.01-.33-.01-1.08,0-3.76.34-4.18,3.7l-38.61,306.57c-.25,2.02-1.98,3.5-3.96,3.5-.16,0-.33,0-.49-.03-2.19-.27-3.75-2.25-3.49-4.44l46.36-389.83-85.13,387.7c-.41,1.87-2.07,3.14-3.9,3.14-.28,0-.56-.03-.85-.09-2.15-.47-3.53-2.59-3.07-4.74l63.81-300.33c.8-3.75-2.41-4.8-3.06-4.97-.21-.05-.68-.16-1.27-.16-1.26,0-3.05.48-3.84,2.98l-93.81,297.62c-.54,1.71-2.11,2.8-3.81,2.8-.39,0-.79-.06-1.19-.18-2.1-.66-3.28-2.89-2.63-5v-.03s117.12-380.39,117.12-380.39l-154.46,372.84c-.64,1.54-2.13,2.47-3.7,2.47-.51,0-1.02-.1-1.52-.3-2.04-.84-3.02-3.17-2.19-5.21l116.56-286.64c1.45-3.56-1.54-5.15-2.15-5.44-.28-.13-1.07-.45-2.02-.45-1.15,0-2.54.47-3.51,2.35l-145.12,279.92c-.71,1.37-2.11,2.16-3.55,2.16-.62,0-1.24-.14-1.83-.44-1.96-1.01-2.74-3.41-1.73-5.38l183.99-360.53-218.88,347.65c-.76,1.21-2.06,1.87-3.39,1.87-.72,0-1.46-.2-2.12-.61-1.87-1.17-2.44-3.63-1.28-5.5l164.71-265.28c2.03-3.27-.65-5.34-1.21-5.73-.31-.21-1.33-.84-2.58-.84-1.01,0-2.16.41-3.2,1.79l-191.02,254.62c-.79,1.05-1.99,1.6-3.2,1.6-.83,0-1.67-.26-2.39-.79-1.77-1.32-2.14-3.82-.82-5.59l245.2-331.04-276.65,313.15c-.79.89-1.89,1.35-3,1.35-.94,0-1.88-.33-2.64-.99-1.66-1.45-1.82-3.98-.37-5.64l207.24-237.43c2.54-2.91.22-5.38-.27-5.85-.31-.3-1.47-1.29-2.98-1.29-.87,0-1.86.33-2.88,1.31l-230.51,223.02c-.78.75-1.78,1.12-2.78,1.12s-2.08-.4-2.87-1.21c-1.54-1.58-1.51-4.11.07-5.65l299.29-292.98-326.42,270.54c-.75.62-1.65.92-2.55.92-1.15,0-2.28-.49-3.08-1.44-1.41-1.69-1.19-4.21.5-5.63l243.54-204.23c2.96-2.48,1.05-5.29.63-5.83-.29-.38-1.49-1.77-3.27-1.77-.75,0-1.59.24-2.52.9l-263.03,186.42c-.7.5-1.51.74-2.31.74-1.25,0-2.48-.58-3.26-1.68-1.28-1.79-.87-4.29.93-5.57l345.1-247.54-367.11,221.15c-.65.39-1.36.57-2.06.57-1.35,0-2.67-.69-3.42-1.93-1.14-1.89-.54-4.34,1.34-5.49h.02s273.27-166.72,273.27-166.72c3.3-2.02,1.82-5.08,1.49-5.67-.25-.46-1.4-2.27-3.5-2.27-.62,0-1.32.16-2.11.56l-288.36,146.01c-.58.29-1.2.43-1.8.43-1.46,0-2.86-.8-3.57-2.18-1-1.96-.22-4.37,1.74-5.38l381.7-195.93-397.94,166.33c-.51.21-1.03.31-1.54.31-1.56,0-3.04-.92-3.69-2.45-.86-2.03.09-4.37,2.12-5.23l296.28-125.75c3.57-1.51,2.54-4.76,2.3-5.4-.2-.53-1.21-2.8-3.69-2.8-.48,0-1.02.09-1.62.29l-306.44,102.76c-.42.14-.85.21-1.27.21-1.67,0-3.22-1.05-3.79-2.72-.71-2.09.41-4.36,2.5-5.07h.02s408.33-139.42,408.33-139.42l-418.34,107.45c-.33.09-.67.13-1,.13-1.78,0-3.4-1.19-3.87-3-.55-2.13.72-4.31,2.85-4.87h.02s312.34-82.05,312.34-82.05c3.75-.98,3.2-4.34,3.06-5.01-.13-.6-.91-3.34-3.88-3.34-.31,0-.64.03-1,.09l-317.27,57.49c-.24.04-.48.06-.71.06-1.89,0-3.58-1.35-3.93-3.28-.4-2.17,1.03-4.25,3.2-4.66h.02s424.47-79.31,424.47-79.31l-427.94,45.89c-.14.02-.29.02-.43.02-2.02,0-3.75-1.51-3.97-3.56-.24-2.19,1.34-4.17,3.53-4.41l321.28-36.24c3.85-.43,3.79-3.84,3.75-4.51-.05-.66-.47-3.92-4.13-3.92-.08,0-.16,0-.24,0l-320.79,10.89c-.05,0-.1,0-.15,0-2.12,0-3.9-1.7-3.98-3.85-.08-2.2,1.64-4.06,3.84-4.14h.02s429.69-16.97,429.69-16.97l-426.53-16.94c-2.2-.09-3.92-1.94-3.84-4.14.08-2.16,1.83-3.85,4.01-3.85.04,0,.08,0,.13,0l322.68,11.01c.08,0,.15,0,.23,0,3.61,0,4.09-3.26,4.14-3.92.05-.68.11-4.08-3.74-4.52l-316.84-36.36c-2.19-.25-3.76-2.23-3.52-4.42.23-2.04,1.95-3.56,3.97-3.56.15,0,.29,0,.44.02l423.74,46.19-414.04-79.62c-2.16-.42-3.58-2.51-3.17-4.67.36-1.92,2.04-3.26,3.92-3.26.24,0,.49.02.74.07l316.14,58.9c.37.07.71.1,1.02.1,2.94,0,3.74-2.72,3.88-3.31.15-.66.72-4.01-3.01-5.03l-305.18-83.49c-2.13-.58-3.38-2.77-2.81-4.9.48-1.78,2.1-2.96,3.86-2.96.34,0,.69.04,1.03.14l406.48,108.64-390.57-140.65c-2.07-.75-3.15-3.03-2.41-5.11.58-1.64,2.12-2.66,3.77-2.66.44,0,.89.07,1.33.23l301.23,106.44c.62.22,1.17.31,1.67.31,2.42,0,3.45-2.2,3.66-2.72.25-.63,1.33-3.84-2.18-5.43l-285.55-129.55c-2.01-.91-2.9-3.27-2-5.28.67-1.48,2.13-2.36,3.65-2.36.54,0,1.1.11,1.63.35l378.1,168.75-356.46-198.45c-1.93-1.07-2.62-3.5-1.56-5.43.73-1.32,2.1-2.07,3.5-2.07.65,0,1.31.16,1.92.49l277.67,152.31c.82.45,1.56.63,2.21.63,2.01,0,3.18-1.7,3.44-2.14.35-.58,1.94-3.56-1.25-5.71l-257.81-173.35c-1.83-1.23-2.32-3.71-1.09-5.54.77-1.15,2.04-1.78,3.33-1.78.76,0,1.53.22,2.21.67l339.03,224.81-312.32-251.42c-1.72-1.38-1.99-3.89-.62-5.61.79-.99,1.95-1.5,3.13-1.5.87,0,1.75.28,2.48.87l245.5,195c.97.77,1.86,1.04,2.65,1.04,1.67,0,2.86-1.22,3.16-1.57.44-.51,2.52-3.17-.25-5.84l-222.1-213.44c-1.59-1.53-1.64-4.05-.12-5.65.79-.82,1.84-1.24,2.89-1.24.99,0,1.98.36,2.75,1.1l290.1,275.08L326.87,254.21c-1.45-1.66-1.27-4.18.38-5.63.76-.66,1.7-.99,2.63-.99,1.11,0,2.21.46,3,1.35l205.22,232.77c1.03,1.17,2.1,1.54,3.04,1.54,1.37,0,2.46-.79,2.77-1.03.53-.42,3.04-2.67.79-5.78l-178.97-248.25c-1.29-1.79-.89-4.28.89-5.58.71-.52,1.53-.76,2.35-.76,1.23,0,2.45.57,3.23,1.64l232.54,317.89-198.07-336.41c-1.12-1.9-.49-4.34,1.41-5.47.64-.38,1.34-.56,2.04-.56,1.36,0,2.69.69,3.44,1.95v.02s157.9,263.9,157.9,263.9c1,1.68,2.29,2.13,3.39,2.13s1.93-.42,2.22-.57c.59-.32,3.47-2.06,1.84-5.53l-129.5-276.15c-.94-2-.08-4.37,1.91-5.31.55-.26,1.14-.39,1.71-.39,1.49,0,2.92.84,3.61,2.28v.03s168,351.71,168,351.71l-130.99-365.49c-.74-2.07.33-4.36,2.4-5.11.45-.16.91-.24,1.36-.24,1.63,0,3.16,1,3.76,2.62l105.18,286.99c.85,2.32,2.51,2.8,3.75,2.8.68,0,1.24-.15,1.47-.22.64-.2,3.79-1.38,2.85-5.09l-75.32-295.73c-.54-2.14.74-4.31,2.88-4.86.33-.09.67-.13,1-.13,1.77,0,3.4,1.19,3.87,2.99l98.49,375.43-59.9-384.09c-.34-2.18,1.15-4.22,3.32-4.57.22-.03.43-.05.64-.05,1.93,0,3.62,1.4,3.94,3.36l49.14,300.94c.52,3.16,2.95,3.55,4.12,3.55.23,0,.41-.02.52-.03.67-.07,3.98-.64,3.75-4.46l-18.52-306.01c-.13-2.2,1.54-4.09,3.74-4.23.08,0,.16,0,.25,0,2.08,0,3.86,1.61,4,3.73l26.26,388.23,12.93-391.55c.07-2.17,1.82-3.87,4.02-3.87.03,0,.06,0,.09,0,2.2.06,3.94,1.9,3.88,4.1l-7.93,305.33c-.1,3.83,3.24,4.28,3.91,4.33.08,0,.19.01.34.01,1.08,0,3.76-.35,4.18-3.7l38.61-306.57c.25-2.02,1.98-3.5,3.97-3.5M682.54,585.58l41.94-136.22c-.92.21-1.85.31-2.78.31-1.11,0-2.21-.14-3.27-.42-1.95-.51-3.8-1.5-5.32-2.88l-30.57,139.22M672.56,586.45l16.39-137.81c-1.61.69-3.35,1.04-5.06,1.04-.32,0-.64-.01-.95-.04-2.02-.15-4.04-.8-5.8-1.9l-4.58,138.71M692.89,585.85l67-131.28c-.17,0-.35.01-.52.01-1.85,0-3.7-.42-5.36-1.18-1.81-.84-3.45-2.11-4.71-3.72l-56.41,136.17M646.64,454.11c-1.58,0-3.17-.29-4.66-.88l21.03,134.87-9.21-136.19c-1.72,1.17-3.72,1.89-5.75,2.12-.47.05-.94.08-1.41.08M703.39,587.59l90.92-122.75c-2-.26-3.91-1.01-5.54-2.12-1.63-1.12-3.02-2.63-3.99-4.4l-81.39,129.28M610.19,462.57c-.78,0-1.56-.07-2.33-.22l45.88,128.03-34.51-131.55c-1.47,1.48-3.31,2.56-5.25,3.17-1.21.38-2.5.57-3.79.57M644.59,593.26l-59.19-123.91c-1.17,1.72-2.76,3.13-4.56,4.08-1.79.95-3.85,1.49-5.93,1.5l69.67,118.33M713.59,591.11l112.97-110.59c-1.91-.58-3.66-1.62-5.08-2.96-1.42-1.35-2.55-3.05-3.22-4.92l-104.67,118.48M635.47,596.9l-82.84-113.24c-.83,1.89-2.14,3.56-3.71,4.82-1.58,1.26-3.48,2.16-5.51,2.55l92.07,105.87M722.93,596.54l132.28-94.88c-1.78-.87-3.33-2.15-4.52-3.69-1.19-1.54-2.04-3.37-2.42-5.31l-125.34,103.88M626.43,601.55l-104.94-99.51c-.49,1.99-1.47,3.84-2.79,5.35-1.32,1.51-3.01,2.72-4.92,3.47l112.65,90.68M730.76,603.84l148.02-75.98c-1.62-1.12-2.95-2.61-3.89-4.3-.94-1.69-1.51-3.61-1.61-5.58l-142.52,85.86M617.76,607.48l-124.82-82.77c-.15,2.02-.8,3.99-1.83,5.69-1.03,1.69-2.48,3.17-4.2,4.23l130.86,72.85M891.98,547.72l-155.45,64.97,159.45-54.44c-1.43-1.34-2.53-3.01-3.21-4.81-.68-1.8-.96-3.78-.78-5.73M609.92,614.81l-141.72-63.25c.17,2-.15,4.02-.88,5.85-.73,1.82-1.9,3.5-3.41,4.82l146.02,52.58M903.37,580.67l-163.57,42.01,166.01-31.02c-1.22-1.53-2.07-3.34-2.49-5.22s-.41-3.87.05-5.78M603.48,623.49l-154.88-41.39c.47,1.93.46,3.96.03,5.86-.44,1.9-1.32,3.72-2.58,5.26l157.42,30.27M668.02,606.92c-1.15,0-2.24-.51-2.98-1.33-.52,1.1-1.53,1.95-2.8,2.21-.27.06-.55.08-.82.08-.95,0-1.86-.34-2.57-.94-.33,1.11-1.15,2.06-2.29,2.54-.5.21-1.02.31-1.54.31-.74,0-1.46-.21-2.08-.58-.17,1.08-.77,2.08-1.75,2.73-.68.44-1.44.66-2.19.66-.51,0-1.02-.1-1.5-.29-.02,1.02-.44,2.04-1.23,2.8-.77.74-1.77,1.11-2.77,1.11-.28,0-.56-.03-.83-.09.1.96-.14,1.95-.75,2.78-.78,1.07-2.01,1.64-3.24,1.64-.03,0-.06,0-.09,0,.21.89.12,1.85-.31,2.72-.59,1.18-1.7,1.95-2.92,2.16.32.82.37,1.74.09,2.64-.38,1.21-1.29,2.12-2.39,2.54.43.75.61,1.65.47,2.56-.18,1.19-.87,2.18-1.82,2.78.54.68.87,1.55.87,2.49,0,1.13-.47,2.16-1.23,2.89.68.6,1.15,1.44,1.29,2.4.15,1.05-.12,2.07-.68,2.88.81.5,1.45,1.29,1.75,2.27.29.96.2,1.94-.19,2.79.95.35,1.77,1.07,2.23,2.06.4.87.47,1.8.25,2.67,1.07.17,2.07.78,2.71,1.75.51.78.72,1.67.65,2.54.06,0,.12,0,.18,0,1.1,0,2.18.45,2.96,1.32.62.69.96,1.54,1.02,2.41.31-.08.64-.12.96-.12.89,0,1.77.29,2.51.89.74.6,1.21,1.42,1.4,2.29.53-.25,1.11-.38,1.7-.38.67,0,1.35.17,1.97.52.87.49,1.49,1.27,1.79,2.15.68-.49,1.49-.76,2.34-.76.45,0,.91.08,1.36.24,1,.36,1.77,1.08,2.21,1.96.74-.77,1.77-1.23,2.88-1.23.22,0,.44.02.67.06,1.12.19,2.05.82,2.64,1.69.71-1.04,1.89-1.73,3.24-1.75h.02c1.18,0,2.28.5,3.03,1.33.52-1.1,1.53-1.95,2.8-2.21.27-.06.55-.09.82-.09.95,0,1.86.34,2.57.94.33-1.11,1.15-2.06,2.29-2.54.5-.21,1.02-.31,1.54-.31.74,0,1.46.2,2.08.58.17-1.08.78-2.08,1.75-2.73.68-.44,1.44-.66,2.2-.66.51,0,1.02.1,1.5.29.02-1.02.44-2.04,1.23-2.8.77-.74,1.77-1.11,2.77-1.11.28,0,.56.03.83.09-.1-.96.14-1.95.75-2.78.78-1.07,2-1.64,3.25-1.64.03,0,.06,0,.09,0-.21-.89-.12-1.85.31-2.72.59-1.18,1.7-1.95,2.92-2.16-.32-.82-.37-1.74-.09-2.64.38-1.21,1.29-2.12,2.39-2.54-.43-.75-.61-1.65-.47-2.56.18-1.19.87-2.18,1.82-2.78-.54-.68-.87-1.55-.87-2.49,0-1.13.47-2.16,1.23-2.89-.67-.6-1.15-1.44-1.29-2.4-.15-1.05.12-2.07.68-2.88-.81-.5-1.45-1.29-1.75-2.27-.29-.96-.2-1.94.19-2.79-.95-.35-1.77-1.07-2.23-2.06-.4-.87-.47-1.8-.25-2.67-1.07-.17-2.07-.78-2.71-1.75-.51-.78-.72-1.67-.65-2.54-.06,0-.11,0-.17,0-1.09,0-2.18-.45-2.97-1.32-.62-.69-.96-1.54-1.02-2.41-.31.08-.64.12-.96.12-.89,0-1.77-.29-2.51-.89-.74-.6-1.21-1.42-1.4-2.29-.53.25-1.11.38-1.69.38-.67,0-1.35-.17-1.97-.52-.87-.49-1.49-1.27-1.79-2.15-.68.49-1.5.76-2.34.76-.45,0-.91-.08-1.35-.24-1-.36-1.77-1.08-2.21-1.96-.74.77-1.77,1.23-2.88,1.23-.22,0-.44-.02-.67-.06-1.12-.19-2.05-.82-2.64-1.7-.71,1.04-1.89,1.73-3.24,1.75-.02,0-.05,0-.07,0M906.94,615.33l-166.57,17.86,167.4-6.61c-.99-1.69-1.57-3.61-1.71-5.53-.14-1.92.15-3.9.89-5.72M598.98,633.27l-163.6-17.83c.74,1.83,1.04,3.82.89,5.75-.14,1.93-.73,3.85-1.73,5.55l164.44,6.53M901.87,661.46c-.74-1.83-1.04-3.82-.89-5.75.14-1.93.73-3.85,1.73-5.55l-164.44-6.53,163.6,17.83M596.88,643.7l-167.4,6.61c.99,1.69,1.57,3.61,1.71,5.53.14,1.92-.15,3.9-.89,5.72l166.57-17.86M888.65,694.8c-.47-1.93-.46-3.96-.03-5.86.44-1.9,1.32-3.72,2.58-5.26l-157.42-30.27,154.87,41.39M597.45,654.22l-166,31.02c1.22,1.53,2.07,3.34,2.49,5.22.42,1.88.41,3.87-.05,5.78l163.57-42.01M869.05,725.34c-.17-2,.15-4.02.88-5.85.73-1.82,1.9-3.5,3.41-4.82l-146.02-52.58,141.73,63.25M600.73,664.19l-159.45,54.44c1.43,1.34,2.53,3.01,3.21,4.81.68,1.8.96,3.78.78,5.73l155.46-64.98M844.31,752.19c.15-2.02.8-3.99,1.83-5.69,1.03-1.69,2.48-3.17,4.2-4.23l-130.86-72.85,124.82,82.77M606.49,673.06l-148.02,75.98c1.62,1.12,2.95,2.61,3.89,4.3.94,1.69,1.51,3.61,1.61,5.58l142.52-85.86M815.77,774.85c.49-1.99,1.47-3.84,2.79-5.35,1.32-1.51,3.01-2.72,4.92-3.47l-112.65-90.68,104.94,99.51M784.63,793.24c.83-1.89,2.14-3.56,3.71-4.82,1.58-1.26,3.48-2.16,5.51-2.55l-92.07-105.88,82.84,113.24M614.33,680.35l-132.28,94.88c1.78.87,3.33,2.15,4.52,3.69,1.19,1.54,2.04,3.37,2.42,5.31l125.34-103.88M751.85,807.55c1.17-1.72,2.76-3.13,4.56-4.08,1.79-.95,3.85-1.49,5.93-1.5l-69.67-118.33,59.19,123.91M623.66,685.78l-112.97,110.59c1.91.58,3.66,1.62,5.08,2.96,1.42,1.35,2.55,3.04,3.22,4.92l104.67-118.48M718.02,818.06c1.47-1.48,3.31-2.56,5.25-3.17,1.21-.38,2.5-.57,3.79-.57.78,0,1.56.07,2.33.22l-45.88-128.03,34.51,131.55M683.46,824.98c1.72-1.17,3.72-1.89,5.75-2.12.47-.05.94-.08,1.41-.08,1.58,0,3.17.29,4.66.88l-21.03-134.87,9.21,136.19M633.87,689.31l-90.92,122.76c2,.26,3.91,1.01,5.54,2.12,1.63,1.11,3.02,2.63,3.99,4.4l81.39-129.28M648.3,828.25c1.6-.69,3.34-1.04,5.05-1.04.32,0,.64.01.96.04,2.02.15,4.04.8,5.8,1.9l4.58-138.71-16.39,137.81M577.37,822.33c.17,0,.35-.01.52-.01,1.86,0,3.7.42,5.35,1.18,1.81.84,3.45,2.11,4.71,3.72l56.41-136.17-67,131.28M612.78,827.54c.92-.21,1.85-.31,2.78-.31,1.11,0,2.21.14,3.26.42,1.95.51,3.8,1.5,5.32,2.88l30.57-139.22-41.94,136.22M730.64,117.91c-7.04,0-13.01,5.27-13.89,12.25l-24.11,191.41,4.92-189.3c.2-7.69-5.9-14.13-13.58-14.36h-.04s-.04,0-.04,0c-.1,0-.21,0-.31,0-7.61,0-13.77,5.94-14.02,13.53l-6.37,192.92-12.85-189.94c-.5-7.32-6.64-13.05-13.98-13.05-.28,0-.57,0-.85.03-7.71.5-13.58,7.14-13.11,14.82l11.65,192.55-30.82-188.75c-1.11-6.81-6.92-11.75-13.81-11.75-.74,0-1.49.06-2.23.18-7.59,1.21-12.8,8.38-11.61,15.98l29.67,190.26-48.71-185.69c-1.62-6.15-7.18-10.45-13.54-10.45-1.18,0-2.36.15-3.51.45-7.44,1.92-11.96,9.55-10.06,17.01l47.4,186.09-66.25-180.76c-2.01-5.49-7.29-9.18-13.15-9.18-1.63,0-3.23.28-4.76.84-7.24,2.62-11.01,10.65-8.42,17.89l64.55,180.11-83.12-174.01-.04-.09-.02-.05c-2.33-4.77-7.26-7.85-12.58-7.85-2.08,0-4.1.45-5.98,1.34-6.96,3.29-9.96,11.64-6.69,18.6l80.87,172.45-99.08-165.61c-2.52-4.23-7.13-6.84-12.03-6.84-2.51,0-4.98.68-7.15,1.96-6.61,3.92-8.82,12.51-4.92,19.14l96.13,163.27-113.92-155.73c-2.63-3.59-6.85-5.73-11.3-5.73-2.97,0-5.82.92-8.22,2.67-6.22,4.52-7.63,13.27-3.13,19.51l110.14,152.78-127.39-144.49c-2.65-3.01-6.48-4.74-10.5-4.74-3.39,0-6.67,1.23-9.22,3.47-5.79,5.07-6.39,13.92-1.34,19.72l122.78,141.19-139.37-132.16c-2.61-2.48-6.03-3.84-9.63-3.84-3.81,0-7.5,1.58-10.13,4.33-5.31,5.57-5.12,14.43.43,19.76l133.94,128.72-149.76-118.95c-2.46-1.96-5.56-3.04-8.7-3.04-4.28,0-8.26,1.92-10.93,5.25-4.81,6.01-3.84,14.83,2.16,19.65l143.59,115.6-158.51-105.1c-2.3-1.53-4.98-2.33-7.73-2.33-4.69,0-9.05,2.33-11.65,6.23-4.27,6.39-2.55,15.09,3.83,19.39l151.76,102.04-165.63-90.85c-2.06-1.13-4.39-1.73-6.73-1.73-5.09,0-9.79,2.77-12.26,7.23-3.72,6.74-1.28,15.26,5.44,19.01l158.49,88.23-171.18-76.4c-1.8-.81-3.72-1.22-5.7-1.22-5.5,0-10.51,3.24-12.77,8.26-3.16,7.01-.03,15.31,6.98,18.49l163.84,74.33-175.22-61.91c-1.51-.53-3.08-.8-4.67-.8-5.9,0-11.2,3.74-13.18,9.3-2.59,7.25,1.2,15.27,8.44,17.88l167.95,60.48-177.89-47.54c-1.19-.32-2.4-.48-3.62-.48-6.31,0-11.86,4.25-13.51,10.34-2.01,7.44,2.4,15.13,9.82,17.16l170.92,46.76-179.3-33.41c-.85-.16-1.71-.24-2.57-.24-6.72,0-12.5,4.79-13.75,11.4-1.43,7.56,3.55,14.89,11.11,16.35l172.87,33.24-179.6-19.58c-.51-.06-1.02-.08-1.53-.08-7.13,0-13.11,5.35-13.9,12.44-.86,7.65,4.67,14.59,12.32,15.47l173.93,19.96-178.92-6.1c-.17,0-.32,0-.47,0-7.57,0-13.72,5.92-14,13.48-.29,7.69,5.74,14.2,13.44,14.5l174.21,6.92-177.37,7h-.02s-.05,0-.05,0c-7.67.33-13.67,6.82-13.39,14.5.28,7.56,6.42,13.49,13.97,13.49.18,0,.36,0,.53-.01l173.75-5.9-175.12,19.75c-7.65.86-13.19,7.79-12.35,15.44.78,7.11,6.76,12.47,13.91,12.47.49,0,.99-.03,1.49-.08l172.74-18.52-172.16,32.17-.11.02h-.04c-7.5,1.48-12.46,8.75-11.07,16.28,1.22,6.64,7.01,11.46,13.77,11.46.83,0,1.66-.07,2.48-.22l171.1-31-168.64,44.3c-7.47,1.96-11.95,9.62-10.01,17.07,1.6,6.17,7.17,10.48,13.55,10.48,1.17,0,2.34-.15,3.48-.44l168.84-43.36-164.51,56.17-.05.02c-7.29,2.49-11.21,10.44-8.74,17.74,1.93,5.69,7.26,9.51,13.26,9.51,1.52,0,3.01-.25,4.45-.73l165.98-55.66-159.91,67.87c-7.08,3.01-10.42,11.22-7.43,18.32,2.19,5.2,7.25,8.57,12.9,8.57,1.86,0,3.67-.36,5.39-1.08l162.49-67.92-154.67,79.39c-6.85,3.52-9.58,11.96-6.08,18.82,2.4,4.71,7.18,7.64,12.47,7.64,2.18,0,4.36-.52,6.31-1.51l158.26-80.13-148.76,90.75-.06.04-.04.03c-6.5,4.03-8.57,12.6-4.59,19.15,2.53,4.16,7.11,6.74,11.98,6.74,2.54,0,5.04-.69,7.22-2.01l153.22-92.3-142.19,101.99c-6.26,4.49-7.71,13.24-3.24,19.51,2.62,3.67,6.88,5.87,11.4,5.87,2.91,0,5.71-.89,8.09-2.57l147.27-104.37-134.81,113.05c-5.9,4.95-6.69,13.78-1.76,19.69,2.67,3.2,6.59,5.03,10.76,5.03,3.26,0,6.43-1.15,8.93-3.22l140.28-116.27-126.53,123.87c-5.5,5.38-5.61,14.25-.24,19.77,2.61,2.69,6.27,4.23,10.03,4.23s7.11-1.4,9.73-3.94l132.2-127.91-117.29,134.37c-5.06,5.8-4.47,14.65,1.31,19.73,2.56,2.24,5.84,3.48,9.24,3.48,4.01,0,7.83-1.72,10.49-4.72l122.93-139.15-107,144.46c-4.58,6.18-3.29,14.96,2.88,19.56,2.44,1.82,5.33,2.77,8.36,2.77,4.39,0,8.57-2.09,11.2-5.6l112.39-149.81-95.6,153.97c-4.06,6.54-2.05,15.18,4.47,19.26,2.22,1.39,4.79,2.13,7.42,2.13,4.84,0,9.28-2.45,11.85-6.55l100.58-159.75-83.06,162.76c-3.5,6.86-.78,15.3,6.07,18.81,1.96,1.01,4.18,1.55,6.4,1.55,5.25,0,10.02-2.9,12.43-7.56l87.48-168.74-69.39,170.63c-2.9,7.13.54,15.3,7.65,18.23,1.7.7,3.48,1.05,5.31,1.05,5.69,0,10.76-3.39,12.94-8.65l73.16-176.59-54.61,177.37v.03s-.02.03-.02.03c-2.25,7.32,1.88,15.16,9.23,17.45,1.35.42,2.75.63,4.17.63,6.14,0,11.51-3.94,13.35-9.79l57.72-183.11-38.85,182.89c-1.6,7.53,3.22,14.97,10.74,16.59.97.21,1.97.32,2.96.32,6.52,0,12.27-4.63,13.67-11l41.3-188.1-22.23,186.91c-.91,7.64,4.56,14.61,12.2,15.55.57.07,1.14.1,1.71.1,7.04,0,13-5.27,13.89-12.25l24.11-191.41-4.92,189.29c-.2,7.69,5.9,14.13,13.58,14.36.12,0,.27,0,.43,0,7.59,0,13.73-5.95,13.98-13.54l6.37-192.91,12.85,189.94c.49,7.32,6.63,13.05,13.97,13.05.29,0,.57,0,.86-.03,7.7-.49,13.57-7.14,13.11-14.82l-11.65-192.55,30.81,188.72v.05s.01.04.01.04c1.13,6.78,6.93,11.69,13.8,11.69.74,0,1.48-.06,2.21-.18,7.6-1.21,12.81-8.38,11.63-15.98l-29.67-190.26,48.71,185.69c1.62,6.15,7.19,10.45,13.54,10.45,1.18,0,2.35-.15,3.5-.44,7.45-1.93,11.97-9.56,10.07-17.01l-47.4-186.09,66.25,180.76c2.01,5.49,7.29,9.18,13.15,9.18,1.63,0,3.23-.28,4.77-.84,7.23-2.62,11-10.65,8.41-17.89l-64.55-180.11,83.13,174.04c2.31,4.84,7.27,7.97,12.64,7.97,2.06,0,4.13-.47,6-1.35,6.94-3.28,9.94-11.63,6.67-18.59l-80.87-172.45,99.1,165.64c2.51,4.2,7.12,6.81,12.02,6.81,2.51,0,4.98-.68,7.14-1.96,6.61-3.93,8.82-12.51,4.92-19.14l-96.13-163.27,113.92,155.73c2.62,3.59,6.85,5.73,11.3,5.73,2.97,0,5.81-.92,8.22-2.67,6.23-4.52,7.63-13.28,3.14-19.52l-110.14-152.78,127.39,144.49c2.66,3.01,6.49,4.74,10.5,4.74,3.39,0,6.67-1.23,9.22-3.47,5.79-5.07,6.39-13.91,1.34-19.72l-122.78-141.19,139.37,132.15c2.61,2.48,6.03,3.84,9.63,3.84,3.81,0,7.5-1.58,10.12-4.33,5.32-5.57,5.12-14.43-.42-19.76l-133.93-128.71,149.75,118.94c2.47,1.96,5.56,3.04,8.71,3.04,4.28,0,8.27-1.92,10.94-5.26,4.8-6.01,3.84-14.82-2.15-19.65l-143.6-115.6,158.5,105.1c2.3,1.53,4.98,2.33,7.73,2.33,4.69,0,9.05-2.33,11.65-6.23,4.27-6.4,2.55-15.09-3.83-19.39l-151.76-102.04,165.63,90.86c2.06,1.13,4.39,1.73,6.73,1.73,5.09,0,9.79-2.77,12.25-7.23,3.72-6.74,1.28-15.26-5.44-19.01l-158.49-88.23,171.18,76.4c1.8.81,3.72,1.22,5.7,1.22,5.5,0,10.52-3.24,12.77-8.26,3.16-7.01.03-15.31-6.99-18.49l-163.84-74.33,175.22,61.91c1.51.53,3.08.8,4.66.8,5.9,0,11.2-3.73,13.18-9.29,2.59-7.26-1.2-15.27-8.44-17.88l-167.95-60.48,177.89,47.54c1.18.32,2.4.48,3.62.48,6.31,0,11.86-4.25,13.51-10.34,2.01-7.44-2.4-15.13-9.82-17.17l-170.92-46.76,179.3,33.41c.84.16,1.71.24,2.56.24,6.72,0,12.5-4.79,13.75-11.39,1.43-7.57-3.56-14.9-11.11-16.36l-172.87-33.24,179.57,19.58c.52.06,1.04.08,1.55.08,7.13,0,13.11-5.35,13.91-12.44.86-7.65-4.67-14.59-12.32-15.47l-173.94-19.96,178.92,6.1c.13,0,.3,0,.48,0,7.57,0,13.71-5.92,13.99-13.49.29-7.69-5.74-14.2-13.44-14.5l-174.21-6.92,177.39-7c7.69-.3,13.72-6.81,13.44-14.5-.28-7.56-6.42-13.49-13.98-13.49-.16,0-.33,0-.49,0l-173.78,5.9,175.11-19.75c7.65-.86,13.19-7.79,12.35-15.44-.78-7.11-6.77-12.47-13.92-12.47-.5,0-1,.03-1.5.08l-172.72,18.52,172.18-32.17c7.57-1.41,12.59-8.72,11.2-16.3-1.22-6.64-7.01-11.47-13.77-11.47-.83,0-1.67.07-2.48.22l-171.08,31,168.65-44.3c7.45-1.96,11.93-9.61,9.99-17.06-1.6-6.17-7.17-10.48-13.54-10.48-1.17,0-2.34.15-3.48.44l-168.84,43.37,164.57-56.19c7.29-2.49,11.21-10.44,8.74-17.74-1.92-5.69-7.25-9.51-13.26-9.51-1.51,0-3.01.24-4.45.73l-165.99,55.66,159.91-67.87c7.08-3.01,10.42-11.22,7.43-18.32-2.2-5.21-7.26-8.57-12.91-8.57-1.86,0-3.68.37-5.4,1.09l-162.47,67.91,154.67-79.39c6.85-3.52,9.58-11.96,6.08-18.82-2.4-4.71-7.18-7.64-12.48-7.64-2.18,0-4.37.52-6.32,1.51l-158.25,80.13,148.77-90.75.09-.06.04-.03c6.48-4.04,8.54-12.59,4.57-19.14-2.52-4.16-7.11-6.74-11.98-6.74-2.54,0-5.03.69-7.21,2l-153.22,92.3,142.19-101.99c6.26-4.49,7.71-13.24,3.24-19.51-2.62-3.67-6.88-5.87-11.4-5.87-2.92,0-5.72.89-8.1,2.58l-147.25,104.36,134.81-113.05c5.9-4.95,6.69-13.78,1.76-19.69-2.66-3.2-6.58-5.03-10.75-5.03-3.25,0-6.42,1.14-8.93,3.22l-140.29,116.28,126.48-123.82h0s.05-.05.05-.05c5.5-5.39,5.61-14.25.24-19.77-2.62-2.69-6.27-4.23-10.03-4.23s-7.11,1.4-9.73,3.94l-132.2,127.91,117.29-134.37c5.06-5.8,4.47-14.65-1.31-19.73-2.56-2.25-5.84-3.48-9.24-3.48-4.01,0-7.84,1.72-10.49,4.73l-122.93,139.14,107-144.46c4.58-6.18,3.29-14.96-2.88-19.56-2.44-1.82-5.33-2.78-8.37-2.78-4.38,0-8.57,2.09-11.2,5.6l-112.39,149.82,95.6-153.97c4.06-6.54,2.05-15.18-4.47-19.26-2.23-1.39-4.79-2.13-7.42-2.13-4.84,0-9.27,2.45-11.85,6.54l-100.58,159.75,83.06-162.76c3.5-6.85.78-15.29-6.06-18.81-1.97-1.02-4.19-1.55-6.4-1.55-5.25,0-10.01,2.9-12.43,7.56l-87.48,168.75,69.39-170.63c2.9-7.13-.54-15.3-7.65-18.23-1.7-.7-3.48-1.05-5.31-1.05-5.68,0-10.76,3.39-12.94,8.64l-73.16,176.59,54.62-177.4c2.26-7.35-1.87-15.2-9.22-17.49-1.35-.42-2.75-.63-4.16-.63-6.14,0-11.51,3.94-13.35,9.79l-57.72,183.11,38.86-182.89c1.6-7.52-3.22-14.97-10.74-16.59-.97-.21-1.97-.32-2.96-.32-6.52,0-12.27,4.62-13.67,11l-41.3,188.11,22.23-186.91c.91-7.64-4.56-14.61-12.2-15.55-.57-.07-1.14-.1-1.71-.1h0ZM668.02,616.92c.09,0,.19,0,.28,0,1.03-.02,2.05-.15,3.03-.39.32.08.64.14.97.2.77.13,1.56.2,2.33.2.4,0,.8-.02,1.2-.05.17.07.34.13.51.19,1.21.44,2.46.7,3.73.79.07.04.14.08.2.12,1.14.65,2.36,1.13,3.62,1.43.03.03.07.05.1.08.98.79,2.06,1.45,3.21,1.95.05.05.09.1.14.16.78.86,1.65,1.62,2.6,2.25.08.14.17.28.26.41.55.83,1.18,1.6,1.88,2.28.11.28.23.56.36.84.34.73.74,1.42,1.18,2.07.09.48.21.96.35,1.43.17.56.37,1.11.6,1.64,0,.69.05,1.39.15,2.09.06.39.13.77.22,1.15-.17.88-.26,1.78-.26,2.69,0,.22,0,.44.02.65-.4,1-.69,2.05-.85,3.13-.01.1-.03.19-.04.29-.64,1.02-1.16,2.13-1.53,3.32-.01.05-.03.09-.04.14-.86.94-1.6,2.01-2.18,3.17-.03.05-.05.1-.08.16-1.01.79-1.92,1.71-2.69,2.77-.07.1-.15.2-.22.31-1.07.59-2.08,1.32-2.98,2.19-.19.18-.37.36-.54.55-1.04.37-2.03.87-2.97,1.48-.36.24-.71.49-1.04.76-.91.18-1.81.45-2.68.81-.59.25-1.16.53-1.71.85-.73.04-1.46.13-2.17.28-.83.17-1.64.42-2.41.74-.45-.04-.91-.07-1.37-.07h-.2c-1.04.02-2.07.15-3.07.4-.32-.08-.65-.15-.98-.2-.76-.13-1.55-.2-2.33-.2-.4,0-.8.02-1.2.05-.17-.07-.34-.13-.51-.19-1.21-.44-2.46-.7-3.73-.79-.07-.04-.13-.08-.2-.12-1.14-.65-2.36-1.13-3.62-1.44-.03-.03-.07-.05-.1-.08-.98-.79-2.06-1.45-3.21-1.95-.04-.05-.09-.1-.14-.15-.78-.86-1.65-1.62-2.6-2.26-.08-.14-.17-.27-.26-.41-.55-.83-1.18-1.59-1.88-2.28-.11-.29-.23-.57-.36-.85-.34-.73-.73-1.42-1.18-2.07-.09-.48-.21-.95-.35-1.43-.17-.56-.37-1.11-.6-1.64,0-.69-.05-1.39-.15-2.09-.06-.39-.13-.77-.22-1.15.17-.88.26-1.78.26-2.69,0-.22,0-.44-.02-.65.4-1,.69-2.05.85-3.14.01-.09.03-.19.04-.28.65-1.02,1.16-2.13,1.53-3.32.01-.05.03-.09.04-.14.86-.94,1.6-2.01,2.18-3.17.03-.05.05-.1.08-.16,1.01-.79,1.93-1.72,2.7-2.77.07-.1.15-.2.22-.3,1.07-.59,2.07-1.32,2.98-2.18.19-.18.37-.36.54-.55,1.04-.37,2.03-.87,2.97-1.48.36-.24.71-.49,1.05-.76.91-.18,1.8-.45,2.67-.81.59-.25,1.16-.53,1.71-.85.73-.04,1.46-.13,2.18-.28.83-.17,1.63-.42,2.4-.73.44.04.88.06,1.33.06h0Z"/>
</svg>