<?xml version="1.0" encoding="UTF-8"?>
<svg id="Layer_1" xmlns="http://www.w3.org/2000/svg" viewBox="0 0 1319.15 1319.15">
  <defs>
    <style>
      .cls-1 {
        fill: none;
        fill-rule: evenodd;
        stroke: #ff70ab;
        stroke-linecap: round;
        stroke-linejoin: round;
        stroke-width: 10px;
      }
    </style>
  </defs>
  <polygon class="cls-1" points="671.34 602.94 730.65 132.06 674.63 603.06 777.3 135.52 677.89 603.43 823.21 142.41 681.09 604.03 868.06 152.7 684.19 604.87 911.56 166.3 687.2 605.94 953.39 183.14 690.07 607.24 993.28 203.08 692.8 608.75 1030.95 226 695.37 610.46 1066.14 251.73 697.75 612.36 1098.62 280.11 699.93 614.45 1128.17 310.94 701.9 616.69 1154.57 344 703.64 619.09 1177.65 379.08 705.14 621.62 1197.26 415.93 706.4 624.27 1213.26 454.3 707.39 627.02 1225.53 493.94 708.12 629.84 1234 534.55 708.58 632.72 1238.61 575.88 708.77 635.65 1239.33 617.64 708.68 638.59 1236.14 659.54 708.32 641.54 1229.08 701.3 707.69 644.46 1218.19 742.63 706.79 647.35 1203.55 783.25 705.63 650.17 1185.26 822.88 704.22 652.91 1163.43 861.25 702.57 655.56 1138.22 898.1 700.68 658.09 1109.81 933.18 698.57 660.49 1078.38 966.25 696.26 662.74 1044.16 997.08 693.76 664.82 1007.37 1025.45 691.09 666.73 968.26 1051.19 688.27 668.44 927.11 1074.11 685.31 669.95 884.19 1094.05 682.24 671.24 839.8 1110.88 679.07 672.31 794.24 1124.49 675.83 673.15 747.82 1134.77 672.55 673.76 700.86 1141.67 669.24 674.12 653.68 1145.13 665.92 674.25 606.61 1145.13 662.62 674.12 559.95 1141.67 659.36 673.76 514.04 1134.77 656.17 673.15 469.19 1124.49 653.06 672.31 425.7 1110.88 650.06 671.24 383.86 1094.05 647.18 669.95 343.98 1074.11 644.45 668.44 306.3 1051.19 641.89 666.73 271.11 1025.45 639.5 664.82 238.63 997.08 637.32 662.74 209.09 966.25 635.35 660.49 182.68 933.18 633.61 658.09 159.6 898.1 632.11 655.56 139.99 861.25 630.86 652.91 124 822.88 629.86 650.17 111.72 783.25 629.13 647.35 103.25 742.63 628.67 644.46 98.64 701.3 628.48 641.54 97.93 659.54 628.57 638.59 101.11 617.64 628.93 635.65 108.17 575.88 629.56 632.72 119.06 534.55 630.46 629.84 133.7 493.94 631.62 627.02 152 454.3 633.03 624.27 173.82 415.93 634.69 621.62 199.03 379.08 636.57 619.09 227.44 344 638.68 616.69 258.87 310.94 640.99 614.45 293.1 280.11 643.49 612.36 329.89 251.73 646.16 610.46 368.99 226 648.99 608.75 410.15 203.08 651.94 607.24 453.06 183.14 655.02 605.94 497.45 166.3 658.18 604.87 543.01 152.7 661.42 604.03 589.43 142.41 664.71 603.43 636.39 135.52 668.02 603.06 683.57 132.06 671.34 602.94"/>
</svg>