<?xml version="1.0" encoding="UTF-8"?>
<svg id="Layer_1" xmlns="http://www.w3.org/2000/svg" viewBox="0 0 1319.15 1319.15">
  <defs>
    <style>
      .cls-1 {
        fill: #ff70ab;
      }
    </style>
  </defs>
  <path class="cls-1" d="M726.42,96.74c.23,0,.47.01.71.04,3.48.38,6.04,3.44,5.79,6.94l-16.75,227.97,53.77-226.29c.71-2.98,3.37-5,6.32-5,.43,0,.86.04,1.29.13,3.44.7,5.7,3.99,5.12,7.45l-37.91,226.21,74.43-222.06c.91-2.71,3.44-4.44,6.16-4.44.62,0,1.24.09,1.86.27,3.36,1,5.32,4.49,4.43,7.88l-58.64,222.83,94.41-216.21c1.06-2.44,3.45-3.9,5.96-3.9.8,0,1.62.15,2.41.46,3.26,1.3,4.9,4.95,3.71,8.25l-78.78,217.88,113.58-208.82c1.18-2.16,3.41-3.4,5.71-3.4.98,0,1.98.22,2.92.7,3.13,1.58,4.45,5.36,2.97,8.54l-98.2,211.44,131.79-199.98c1.25-1.89,3.32-2.92,5.43-2.92,1.16,0,2.34.31,3.4.97,2.99,1.84,3.98,5.72,2.23,8.77l-116.78,203.61,148.91-189.78c1.28-1.63,3.19-2.49,5.12-2.49,1.34,0,2.69.41,3.85,1.27,2.83,2.08,3.49,6.04,1.49,8.93l-134.4,194.46,164.84-178.36c1.28-1.38,3.02-2.09,4.78-2.09,1.52,0,3.04.53,4.27,1.6,2.65,2.31,2.99,6.31.76,9.02l-150.97,184.1,179.51-165.8c1.25-1.15,2.83-1.73,4.41-1.73,1.69,0,3.38.65,4.65,1.95,2.46,2.51,2.47,6.53.03,9.06l-166.42,172.62,192.83-152.24c1.19-.94,2.61-1.4,4.02-1.4,1.86,0,3.71.8,4.99,2.33,2.26,2.7,1.96,6.7-.67,9.04l-180.68,160.1,204.76-137.79c1.11-.75,2.37-1.11,3.62-1.11,2.03,0,4.03.95,5.29,2.72,2.05,2.86,1.44,6.84-1.37,8.96l-193.7,146.66,215.27-122.55c1.01-.58,2.12-.85,3.21-.85,2.2,0,4.34,1.12,5.56,3.13,1.83,3.01.92,6.93-2.04,8.83l-205.43,132.37,224.32-106.64c.9-.43,1.85-.63,2.79-.63,2.37,0,4.65,1.3,5.8,3.55,1.6,3.14.41,6.98-2.69,8.66l-215.82,117.32,231.89-90.15c.77-.3,1.57-.44,2.35-.44,2.54,0,4.95,1.5,5.99,3.98,1.36,3.25-.11,6.99-3.32,8.44l-224.85,101.6,237.96-73.19c.64-.2,1.28-.29,1.91-.29,2.72,0,5.24,1.72,6.16,4.43,1.12,3.34-.61,6.96-3.92,8.18l-232.49,85.28,242.54-55.84c.49-.11.98-.17,1.47-.17,2.9,0,5.53,1.95,6.29,4.88.88,3.41-1.12,6.9-4.5,7.87l-238.69,68.45,245.61-38.2c.34-.05.67-.08,1-.08,3.09,0,5.82,2.2,6.39,5.33.63,3.47-1.61,6.8-5.06,7.53l-243.43,51.18,247.16-20.35c.18-.02.36-.02.54-.02,3.27,0,6.09,2.47,6.46,5.8.38,3.5-2.09,6.67-5.59,7.15l-246.68,33.56,247.2-2.38s.04,0,.06,0c3.49,0,6.37,2.77,6.5,6.26.13,3.52-2.57,6.5-6.09,6.72l-248.42,15.67,245.72,15.62c3.51.22,6.21,3.21,6.08,6.72-.13,3.5-3.04,6.26-6.51,6.26h-.05l-248.61-2.4,242.72,33.58c3.49.48,5.96,3.65,5.57,7.15-.37,3.31-3.16,5.79-6.45,5.79-.18,0-.37,0-.55-.02l-247.22-20.57,238.2,51.4c3.44.74,5.67,4.09,5.02,7.55-.58,3.12-3.3,5.31-6.38,5.31-.34,0-.68-.03-1.03-.08l-244.24-38.73,232.16,68.99c3.37,1,5.34,4.51,4.43,7.91-.77,2.9-3.4,4.83-6.27,4.83-.5,0-1-.06-1.5-.18l-239.64-56.77,224.6,86.25c3.28,1.26,4.97,4.9,3.8,8.22-.94,2.67-3.44,4.35-6.13,4.35-.66,0-1.32-.1-1.98-.31l-233.41-74.59,215.55,103.08c3.17,1.52,4.56,5.28,3.14,8.5-1.07,2.42-3.45,3.87-5.95,3.87-.82,0-1.65-.16-2.45-.48l-225.56-92.07,205.01,119.37c3.04,1.77,4.12,5.63,2.44,8.72-1.18,2.16-3.41,3.4-5.72,3.4-.99,0-1.99-.22-2.92-.7l-216.09-109.06,193.01,135c2.88,2.01,3.64,5.95,1.71,8.89-1.25,1.9-3.32,2.94-5.44,2.94-1.16,0-2.33-.31-3.39-.96l-205.03-125.45,179.61,149.85c2.7,2.25,3.12,6.23.96,9-1.28,1.63-3.19,2.5-5.12,2.5-1.34,0-2.68-.41-3.84-1.26l-192.42-141.08,164.84,163.8c2.49,2.47,2.57,6.48.17,9.04-1.28,1.37-3.01,2.07-4.76,2.07-1.52,0-3.04-.53-4.28-1.61l-178.32-155.82,148.79,176.72c2.26,2.68,1.98,6.67-.63,9.02-1.24,1.12-2.8,1.67-4.35,1.67-1.71,0-3.41-.67-4.69-2l-162.82-169.52,131.55,188.49c2.01,2.87,1.37,6.82-1.43,8.92-1.17.87-2.54,1.3-3.89,1.3-1.91,0-3.79-.83-5.07-2.43l-146.02-182.05,113.22,198.98c1.73,3.05.74,6.92-2.25,8.75-1.06.65-2.24.96-3.4.96-2.11,0-4.18-1.03-5.42-2.91l-128.04-193.28,93.93,208.09c1.44,3.19.09,6.95-3.05,8.5-.92.46-1.91.67-2.87.67-2.32,0-4.56-1.25-5.73-3.43l-109.03-203.09,73.83,215.69c1.13,3.31-.56,6.93-3.83,8.18-.76.29-1.55.43-2.32.43-2.54,0-4.95-1.5-5.99-3.98l-89.16-211.38,53.09,221.72c.82,3.41-1.21,6.84-4.59,7.78-.58.16-1.16.24-1.74.24-2.77,0-5.33-1.78-6.2-4.55l-68.59-218.07,31.88,226.08c.49,3.47-1.86,6.7-5.3,7.31-.38.07-.77.1-1.14.1-3.02,0-5.7-2.1-6.35-5.15l-47.53-223.11,10.39,228.74c.16,3.5-2.48,6.49-5.97,6.77-.18.01-.35.02-.53.02-3.27,0-6.07-2.45-6.45-5.75l-26.15-226.43-11.17,229.66c-.17,3.45-2.99,6.19-6.45,6.19-.05,0-.09,0-.14,0-3.5-.05-6.33-2.86-6.41-6.37l-4.66-228.06-32.63,228.84c-.46,3.23-3.23,5.58-6.43,5.58-.23,0-.47-.01-.7-.04-3.48-.38-6.04-3.44-5.79-6.94l16.75-227.97-53.77,226.29c-.71,2.98-3.37,5-6.32,5-.43,0-.86-.04-1.29-.13-3.44-.69-5.7-3.99-5.12-7.44l37.91-226.21-74.43,222.07c-.91,2.71-3.44,4.44-6.16,4.44-.62,0-1.24-.09-1.86-.27-3.36-1-5.32-4.49-4.42-7.88l58.64-222.83-94.41,216.21c-1.06,2.44-3.45,3.9-5.96,3.9-.8,0-1.62-.15-2.41-.46-3.26-1.3-4.9-4.95-3.71-8.25l78.78-217.88-113.58,208.82c-1.18,2.16-3.4,3.4-5.71,3.4-.98,0-1.98-.22-2.92-.7-3.13-1.58-4.45-5.36-2.97-8.54l98.2-211.44-131.79,199.98c-1.25,1.89-3.32,2.92-5.43,2.92-1.16,0-2.34-.31-3.4-.96-2.99-1.84-3.98-5.72-2.23-8.77l116.78-203.61-148.91,189.79c-1.28,1.63-3.19,2.49-5.12,2.49-1.34,0-2.69-.41-3.85-1.27-2.83-2.08-3.49-6.04-1.49-8.93l134.4-194.46-164.84,178.36c-1.28,1.38-3.02,2.09-4.78,2.09-1.52,0-3.04-.53-4.27-1.6-2.65-2.31-2.99-6.31-.76-9.02l150.97-184.1-179.51,165.81c-1.25,1.15-2.83,1.73-4.41,1.73-1.69,0-3.37-.65-4.64-1.95-2.46-2.51-2.48-6.53-.04-9.06l166.42-172.62-192.83,152.24c-1.19.94-2.61,1.4-4.02,1.4-1.86,0-3.71-.79-4.99-2.33-2.26-2.7-1.96-6.7.67-9.04l180.68-160.1-204.77,137.79c-1.11.75-2.38,1.11-3.62,1.11-2.03,0-4.03-.95-5.29-2.72-2.05-2.86-1.44-6.84,1.37-8.96l193.7-146.66-215.27,122.55c-1.01.58-2.12.85-3.21.85-2.2,0-4.34-1.12-5.57-3.13-1.83-3.01-.92-6.93,2.04-8.83l205.43-132.37-224.32,106.64c-.9.43-1.85.63-2.79.63-2.37,0-4.65-1.3-5.8-3.55-1.6-3.14-.41-6.98,2.69-8.66l215.82-117.32-231.89,90.15c-.77.3-1.57.44-2.36.44-2.54,0-4.95-1.5-5.99-3.98-1.36-3.25.11-6.99,3.32-8.44l224.85-101.6-237.96,73.19c-.64.2-1.28.29-1.91.29-2.72,0-5.25-1.72-6.16-4.43-1.12-3.34.61-6.96,3.92-8.18l232.49-85.28-242.54,55.84c-.49.11-.98.17-1.47.17-2.9,0-5.53-1.95-6.29-4.88-.88-3.41,1.12-6.9,4.5-7.87l238.69-68.45-245.61,38.2c-.34.05-.67.08-1.01.08-3.09,0-5.82-2.2-6.39-5.33-.63-3.47,1.61-6.8,5.06-7.53l243.43-51.18-247.16,20.35c-.18.01-.36.02-.53.02-3.28,0-6.1-2.47-6.46-5.79-.38-3.5,2.09-6.67,5.59-7.15l246.68-33.56-247.2,2.38s-.04,0-.06,0c-3.49,0-6.37-2.77-6.5-6.26-.13-3.52,2.57-6.5,6.09-6.72l248.42-15.67-245.72-15.62c-3.51-.22-6.21-3.21-6.08-6.72.13-3.48,2.95-6.26,6.45-6.26.03,0,.07,0,.1,0l248.6,2.4-242.72-33.58c-3.49-.48-5.96-3.65-5.57-7.15.37-3.32,3.16-5.79,6.45-5.79.18,0,.36,0,.55.02l247.22,20.57-238.19-51.4c-3.44-.74-5.67-4.09-5.02-7.55.58-3.12,3.3-5.31,6.38-5.31.34,0,.68.03,1.03.08l244.24,38.73-232.16-68.99c-3.37-1-5.34-4.51-4.43-7.91.77-2.9,3.4-4.83,6.28-4.83.5,0,1,.06,1.5.18l239.64,56.77-224.6-86.25c-3.28-1.26-4.97-4.91-3.8-8.22.94-2.67,3.44-4.35,6.13-4.35.66,0,1.32.1,1.98.31l233.41,74.59-215.55-103.08c-3.17-1.52-4.56-5.28-3.14-8.5,1.07-2.42,3.45-3.87,5.95-3.87.82,0,1.65.16,2.45.48l225.56,92.07-205.01-119.37c-3.04-1.77-4.12-5.63-2.44-8.72,1.18-2.16,3.41-3.4,5.72-3.4.99,0,1.99.22,2.92.7l216.09,109.06-193.01-135c-2.88-2.01-3.64-5.95-1.71-8.89,1.24-1.9,3.32-2.94,5.44-2.94,1.16,0,2.33.31,3.39.96l205.03,125.45-179.61-149.85c-2.7-2.25-3.12-6.23-.96-9,1.28-1.63,3.19-2.5,5.12-2.5,1.34,0,2.68.41,3.84,1.26l192.42,141.08-164.84-163.8c-2.49-2.47-2.57-6.48-.17-9.04,1.28-1.37,3.01-2.07,4.76-2.07,1.52,0,3.04.53,4.28,1.61l178.32,155.82-148.79-176.72c-2.26-2.68-1.98-6.67.63-9.02,1.24-1.12,2.79-1.67,4.35-1.67,1.71,0,3.41.67,4.69,2l162.82,169.52-131.55-188.49c-2.01-2.87-1.37-6.82,1.43-8.92,1.17-.87,2.53-1.3,3.89-1.3,1.91,0,3.79.84,5.08,2.43l146.02,182.05-113.22-198.98c-1.73-3.05-.74-6.92,2.25-8.75,1.06-.65,2.24-.96,3.4-.96,2.11,0,4.18,1.03,5.42,2.91l128.04,193.28-93.93-208.09c-1.44-3.19-.09-6.95,3.05-8.5.92-.46,1.91-.67,2.87-.67,2.32,0,4.56,1.25,5.73,3.43l109.03,203.09-73.83-215.69c-1.13-3.31.56-6.93,3.83-8.18.76-.29,1.54-.43,2.31-.43,2.54,0,4.95,1.5,5.99,3.98l89.16,211.38-53.09-221.72c-.82-3.41,1.21-6.84,4.59-7.78.58-.16,1.16-.24,1.74-.24,2.77,0,5.33,1.78,6.2,4.55l68.59,218.07-31.88-226.08c-.49-3.47,1.86-6.7,5.3-7.31.38-.07.76-.1,1.14-.1,3.01,0,5.7,2.1,6.35,5.15l47.53,223.11-10.39-228.74c-.16-3.5,2.48-6.49,5.97-6.77.17-.01.35-.02.52-.02,3.27,0,6.08,2.45,6.46,5.75l26.15,226.43,11.17-229.66c.17-3.47,3.03-6.18,6.49-6.18.03,0,.06,0,.09,0,3.5.05,6.33,2.86,6.41,6.37l4.66,228.06,32.63-228.84c.46-3.23,3.23-5.58,6.42-5.58M661.19,418.6c-3.33,0-6.08-2.46-6.46-5.75l-13.82-119.64,5.49,120.92c.15,3.38-2.31,6.31-5.67,6.74-.28.04-.56.05-.84.05-3.03,0-5.7-2.12-6.35-5.15l-25.17-118.14,16.88,119.73c.47,3.35-1.7,6.5-5,7.25-.48.11-.96.16-1.44.16-2.78,0-5.33-1.79-6.2-4.55l-36.3-115.42,28.09,117.31c.79,3.29-1.08,6.63-4.29,7.69-.67.22-1.35.33-2.03.33-2.55,0-4.95-1.51-5.99-3.98l-47.05-111.55,38.93,113.74c1.1,3.2-.45,6.71-3.55,8.06-.84.37-1.73.54-2.6.54-2.33,0-4.56-1.26-5.73-3.43l-57.21-106.57,49.23,109.06c1.39,3.09.18,6.73-2.78,8.36-.99.55-2.07.81-3.14.81-2.12,0-4.18-1.03-5.42-2.91l-66.65-100.61,58.84,103.42c1.68,2.95.81,6.69-2,8.59-1.11.76-2.39,1.12-3.65,1.12-1.91,0-3.8-.84-5.07-2.43l-75.25-93.81,67.65,96.93c1.94,2.78,1.42,6.59-1.21,8.74-1.2.99-2.67,1.48-4.12,1.48-1.71,0-3.42-.67-4.69-2l-82.89-86.3,75.56,89.74c2.19,2.6,2.01,6.44-.42,8.82-1.26,1.24-2.91,1.86-4.55,1.86-1.52,0-3.05-.53-4.28-1.6l-89.53-78.23,82.52,82c2.41,2.4,2.57,6.25.36,8.83-1.28,1.5-3.1,2.28-4.94,2.28-1.34,0-2.69-.41-3.84-1.26l-95.14-69.76,88.51,73.85c2.62,2.18,3.1,6.01,1.12,8.78-1.26,1.76-3.26,2.71-5.29,2.71-1.16,0-2.33-.31-3.39-.96l-99.74-61.03,93.55,65.43c2.79,1.95,3.6,5.74,1.85,8.66-1.21,2.03-3.36,3.17-5.58,3.17-.99,0-1.99-.23-2.92-.7l-103.36-52.17,97.67,56.87c2.95,1.72,4.07,5.42,2.56,8.49-1.12,2.29-3.43,3.63-5.83,3.63-.82,0-1.65-.16-2.45-.48l-106.06-43.29,100.94,48.27c3.08,1.47,4.5,5.08,3.24,8.26-1.01,2.54-3.45,4.1-6.04,4.1-.66,0-1.32-.1-1.98-.31l-107.92-34.49,103.42,39.72c3.19,1.23,4.89,4.72,3.88,7.99-.86,2.77-3.41,4.58-6.2,4.58-.5,0-1-.06-1.5-.18l-109.04-25.83,105.22,31.27c3.28.98,5.25,4.33,4.49,7.67-.68,3-3.35,5.06-6.33,5.06-.34,0-.68-.03-1.02-.08l-109.5-17.36,106.39,22.96c3.35.72,5.56,3.92,5.06,7.31-.48,3.21-3.24,5.54-6.42,5.54-.18,0-.36,0-.55-.02l-109.39-9.1,107.05,14.81c3.4.47,5.84,3.5,5.59,6.92-.25,3.4-3.09,6.02-6.48,6.02-.02,0-.04,0-.06,0l-108.79-1.05,107.24,6.82c3.42.22,6.09,3.06,6.09,6.49,0,3.43-2.67,6.27-6.09,6.49l-107.79,6.8,107.05-1.03s.04,0,.06,0c3.4,0,6.24,2.63,6.48,6.03.25,3.42-2.21,6.45-5.61,6.91l-106.42,14.48,106.51-8.77c.18-.02.36-.02.54-.02,3.19,0,5.96,2.35,6.42,5.56.5,3.4-1.74,6.59-5.09,7.3l-104.73,22.02,105.64-16.43c.34-.05.67-.08,1-.08,3,0,5.68,2.08,6.34,5.1.74,3.35-1.26,6.7-4.56,7.65l-102.72,29.46,104.45-24.05c.49-.11.98-.17,1.46-.17,2.81,0,5.39,1.84,6.23,4.65.98,3.29-.77,6.77-3.99,7.95l-100.39,36.83,102.92-31.65c.64-.2,1.28-.29,1.91-.29,2.64,0,5.1,1.62,6.08,4.2,1.21,3.21-.28,6.81-3.4,8.22l-97.72,44.15,101.01-39.27c.77-.3,1.57-.44,2.35-.44,2.46,0,4.8,1.41,5.9,3.77,1.44,3.11.22,6.81-2.79,8.45l-94.65,51.45,98.67-46.91c.9-.43,1.85-.63,2.79-.63,2.29,0,4.5,1.21,5.68,3.34,1.67,2.99.72,6.77-2.16,8.63l-91.15,58.73,95.85-54.57c1.01-.58,2.12-.85,3.21-.85,2.12,0,4.19,1.04,5.43,2.92,1.89,2.86,1.23,6.69-1.5,8.76l-87.12,65.96,92.46-62.21c1.11-.75,2.37-1.11,3.62-1.11,1.95,0,3.87.87,5.14,2.52,2.1,2.71,1.73,6.57-.83,8.84l-82.53,73.13,88.43-69.82c1.19-.94,2.61-1.4,4.02-1.4,1.78,0,3.54.73,4.82,2.14,2.3,2.53,2.24,6.41-.14,8.88l-77.27,80.14,83.69-77.3c1.25-1.15,2.83-1.73,4.41-1.73s3.21.59,4.46,1.77c2.49,2.34,2.73,6.21.57,8.85l-71.3,86.95,78.17-84.58c1.28-1.38,3.02-2.09,4.78-2.09,1.43,0,2.87.47,4.06,1.43,2.66,2.13,3.22,5.96,1.28,8.77l-64.58,93.45,71.83-91.55c1.28-1.63,3.19-2.49,5.12-2.49,1.25,0,2.52.36,3.63,1.11,2.83,1.9,3.7,5.67,2.01,8.62l-57.07,99.51,64.63-98.08c1.24-1.89,3.31-2.92,5.43-2.92,1.07,0,2.16.27,3.16.82,2.97,1.66,4.16,5.33,2.73,8.41l-48.78,105.03,56.59-104.05c1.17-2.15,3.4-3.4,5.71-3.4.89,0,1.8.18,2.66.57,3.1,1.39,4.6,4.94,3.45,8.14l-39.73,109.87,47.74-109.32c1.06-2.43,3.44-3.9,5.96-3.9.71,0,1.43.12,2.13.36,3.21,1.11,5.02,4.51,4.15,7.79l-29.97,113.89,38.13-113.75c.91-2.7,3.43-4.44,6.16-4.44.52,0,1.05.06,1.58.19,3.29.82,5.4,4.04,4.83,7.38l-19.6,116.97,27.86-117.23c.71-2.97,3.35-5,6.32-5,.33,0,.66.02,1,.08,3.35.52,5.74,3.52,5.49,6.9l-8.75,119.02,17.06-119.64c.46-3.22,3.22-5.58,6.43-5.58.13,0,.26,0,.4.01,3.38.2,6.04,2.97,6.11,6.35l2.45,119.93,5.88-120.88c.16-3.38,2.89-6.07,6.28-6.18.08,0,.16,0,.24,0,3.3,0,6.06,2.47,6.44,5.76l13.82,119.64-5.49-120.92c-.15-3.38,2.31-6.31,5.67-6.74.28-.04.56-.05.84-.05,3.02,0,5.7,2.12,6.34,5.15l25.17,118.14-16.88-119.73c-.47-3.35,1.7-6.5,5-7.25.48-.11.96-.16,1.44-.16,2.78,0,5.33,1.79,6.2,4.55l36.3,115.42-28.09-117.31c-.79-3.29,1.08-6.63,4.29-7.69.67-.22,1.35-.32,2.03-.32,2.55,0,4.95,1.51,5.99,3.97l47.04,111.54-38.93-113.73c-1.1-3.2.45-6.71,3.55-8.06.84-.37,1.73-.54,2.6-.54,2.33,0,4.56,1.26,5.73,3.43l57.21,106.57-49.23-109.06c-1.39-3.09-.18-6.73,2.78-8.36.99-.55,2.07-.81,3.14-.81,2.12,0,4.18,1.03,5.42,2.91l66.66,100.62-58.85-103.42c-1.68-2.95-.81-6.69,2-8.59,1.12-.76,2.39-1.12,3.65-1.12,1.91,0,3.8.84,5.07,2.43l75.25,93.81-67.65-96.93c-1.94-2.78-1.42-6.59,1.21-8.74,1.21-.99,2.67-1.48,4.12-1.48,1.71,0,3.42.67,4.69,2l82.89,86.3-75.56-89.74c-2.19-2.6-2-6.44.42-8.82,1.26-1.24,2.91-1.86,4.55-1.86,1.52,0,3.05.53,4.28,1.61l89.53,78.23-82.52-81.99c-2.41-2.4-2.57-6.25-.36-8.83,1.28-1.5,3.1-2.28,4.94-2.28,1.34,0,2.69.41,3.84,1.26l95.15,69.76-88.52-73.85c-2.62-2.18-3.1-6.01-1.12-8.78,1.26-1.76,3.26-2.71,5.29-2.71,1.16,0,2.33.31,3.39.96l99.74,61.03-93.55-65.43c-2.79-1.95-3.6-5.74-1.85-8.66,1.21-2.03,3.36-3.17,5.58-3.17.99,0,1.99.23,2.92.7l103.36,52.17-97.67-56.87c-2.95-1.72-4.07-5.42-2.56-8.49,1.12-2.28,3.43-3.63,5.84-3.63.82,0,1.65.16,2.45.48l106.06,43.29-100.94-48.27c-3.08-1.47-4.5-5.08-3.24-8.26,1.01-2.54,3.44-4.1,6.04-4.1.66,0,1.32.1,1.98.31l107.92,34.49-103.42-39.72c-3.19-1.23-4.89-4.72-3.88-7.99.86-2.77,3.41-4.58,6.2-4.58.5,0,1,.06,1.5.18l109.04,25.83-105.22-31.27c-3.28-.98-5.25-4.33-4.49-7.67.68-3,3.34-5.06,6.33-5.06.34,0,.68.03,1.03.08l109.49,17.36-106.39-22.96c-3.35-.72-5.56-3.92-5.06-7.31.48-3.21,3.24-5.54,6.42-5.54.18,0,.36,0,.55.02l109.39,9.1-107.05-14.81c-3.4-.47-5.84-3.5-5.59-6.92.25-3.4,3.08-6.02,6.48-6.02.02,0,.04,0,.06,0l108.8,1.05-107.25-6.82c-3.42-.22-6.09-3.06-6.09-6.49s2.67-6.27,6.09-6.49l107.79-6.8-107.05,1.03s-.04,0-.06,0c-3.42,0-6.24-2.63-6.49-6.03-.25-3.42,2.21-6.45,5.61-6.91l106.42-14.48-106.51,8.77c-.18.01-.36.02-.54.02-3.18,0-5.96-2.35-6.43-5.56-.5-3.4,1.74-6.59,5.09-7.3l104.73-22.02-105.64,16.43c-.34.05-.67.08-1.01.08-3,0-5.68-2.08-6.34-5.1-.74-3.35,1.26-6.7,4.56-7.65l102.72-29.46-104.45,24.05c-.49.11-.98.17-1.46.17-2.82,0-5.39-1.84-6.23-4.65-.98-3.29.77-6.77,3.99-7.95l100.39-36.82-102.91,31.65c-.64.2-1.28.29-1.91.29-2.64,0-5.1-1.62-6.08-4.2-1.21-3.21.28-6.81,3.4-8.22l97.72-44.15-101.01,39.27c-.77.3-1.57.44-2.35.44-2.46,0-4.8-1.41-5.9-3.77-1.44-3.11-.22-6.81,2.79-8.45l94.66-51.46-98.68,46.91c-.9.43-1.85.63-2.79.63-2.29,0-4.5-1.21-5.68-3.34-1.67-2.99-.72-6.77,2.16-8.63l91.14-58.73-95.85,54.57c-1.01.58-2.12.85-3.21.85-2.12,0-4.19-1.04-5.43-2.92-1.89-2.86-1.23-6.69,1.5-8.76l87.12-65.96-92.46,62.22c-1.11.75-2.37,1.11-3.62,1.11-1.95,0-3.87-.87-5.14-2.52-2.1-2.71-1.73-6.57.83-8.84l82.53-73.13-88.43,69.82c-1.19.94-2.61,1.4-4.02,1.4-1.78,0-3.54-.73-4.82-2.14-2.3-2.53-2.24-6.41.14-8.88l77.27-80.14-83.69,77.3c-1.25,1.15-2.83,1.73-4.41,1.73s-3.21-.59-4.46-1.77c-2.49-2.34-2.73-6.21-.57-8.85l71.3-86.95-78.17,84.58c-1.28,1.38-3.02,2.09-4.78,2.09-1.43,0-2.87-.47-4.06-1.43-2.66-2.13-3.22-5.96-1.28-8.77l64.58-93.45-71.83,91.55c-1.28,1.63-3.18,2.49-5.12,2.49-1.25,0-2.52-.36-3.63-1.11-2.83-1.9-3.7-5.67-2.01-8.62l57.07-99.51-64.63,98.08c-1.24,1.89-3.31,2.92-5.43,2.92-1.07,0-2.16-.27-3.16-.82-2.97-1.66-4.16-5.33-2.73-8.42l48.78-105.03-56.59,104.05c-1.17,2.16-3.4,3.4-5.71,3.4-.89,0-1.8-.18-2.66-.57-3.1-1.39-4.6-4.94-3.45-8.14l39.73-109.87-47.74,109.32c-1.06,2.43-3.44,3.9-5.96,3.9-.71,0-1.43-.12-2.13-.36-3.21-1.11-5.02-4.51-4.15-7.79l29.97-113.89-38.13,113.76c-.9,2.7-3.42,4.44-6.16,4.44-.52,0-1.05-.06-1.58-.19-3.29-.82-5.4-4.04-4.83-7.38l19.6-116.98-27.86,117.24c-.7,2.97-3.35,5-6.32,5-.33,0-.66-.02-1-.08-3.35-.52-5.74-3.52-5.49-6.9l8.75-119.01-17.06,119.63c-.46,3.22-3.2,5.58-6.42,5.58-.14,0-.27,0-.41-.01-3.38-.21-6.04-2.97-6.11-6.36l-2.45-119.92-5.88,120.88c-.16,3.38-2.89,6.07-6.28,6.18-.07,0-.14,0-.21,0M726.42,85.74c-8.65,0-16.09,6.46-17.31,15.03l-13.51,94.74-1.89-92.63c-.2-9.48-7.77-17.01-17.25-17.14-.06,0-.15,0-.25,0-9.34,0-17.02,7.31-17.48,16.65l-4.65,95.64-10.76-93.14c-1.02-8.83-8.49-15.49-17.39-15.49-.46,0-.93.02-1.39.06-9.46.76-16.52,8.77-16.09,18.24l4.34,95.42-19.72-92.58c-1.71-8.03-8.9-13.85-17.11-13.85-1.02,0-2.05.09-3.05.27-9.33,1.65-15.6,10.29-14.28,19.67l13.27,94.08-28.59-90.9c-2.3-7.33-9.01-12.25-16.69-12.25-1.57,0-3.14.21-4.67.63-9.14,2.53-14.56,11.73-12.36,20.94l21.94,91.65-37.18-88.15c-2.75-6.5-9.08-10.7-16.13-10.7-2.14,0-4.23.39-6.23,1.15-8.86,3.38-13.39,13.05-10.32,22.02l30.19,88.21-45.3-84.37c-3.05-5.69-8.96-9.22-15.42-9.22-2.67,0-5.34.62-7.74,1.81-8.5,4.2-12.11,14.25-8.21,22.89l37.86,83.87-52.77-79.66c-3.25-4.91-8.71-7.84-14.59-7.84-3.23,0-6.4.9-9.16,2.59-8.08,4.97-10.74,15.32-6.04,23.56l44.81,78.76-59.47-74.15c-3.34-4.16-8.32-6.55-13.66-6.55-3.81,0-7.43,1.21-10.48,3.49-7.6,5.69-9.3,16.24-3.86,24.03l50.96,73.03-65.29-67.97c-3.28-3.42-7.88-5.38-12.62-5.38-4.33,0-8.48,1.59-11.7,4.49-7.06,6.35-7.8,17.02-1.68,24.28l56.26,66.83-70.14-61.29c-3.19-2.79-7.28-4.32-11.51-4.32-4.84,0-9.51,2.03-12.81,5.57-6.48,6.95-6.27,17.64.47,24.34l60.7,60.32-74.02-54.27c-3.02-2.22-6.6-3.39-10.34-3.39-5.42,0-10.45,2.45-13.79,6.72-5.86,7.49-4.73,18.13,2.57,24.22l64.29,53.64-76.93-47.07c-2.75-1.68-5.91-2.57-9.13-2.57-5.93,0-11.4,2.96-14.65,7.92-5.21,7.96-3.19,18.47,4.61,23.92l67.09,46.93-78.91-39.83c-2.44-1.23-5.16-1.88-7.88-1.88-6.42,0-12.32,3.51-15.38,9.15-4.54,8.37-1.65,18.68,6.58,23.47l69.18,40.28-80.05-32.67c-2.11-.86-4.33-1.3-6.61-1.3-6.92,0-13.2,4.09-16,10.42-3.86,8.71-.15,18.76,8.45,22.87l70.65,33.79-80.42-25.7c-1.73-.55-3.52-.83-5.33-.83-7.42,0-14.05,4.7-16.51,11.7-3.16,8.99,1.33,18.72,10.24,22.14l71.61,27.5-80.17-18.99c-1.32-.31-2.68-.47-4.04-.47-7.91,0-14.87,5.34-16.91,12.99-2.46,9.22,2.78,18.57,11.92,21.28l72.17,21.45-79.39-12.59c-.9-.14-1.83-.22-2.75-.22-8.42,0-15.65,6.01-17.19,14.28-1.75,9.38,4.18,18.31,13.51,20.32l72.42,15.63-78.22-6.51c-.49-.04-.98-.06-1.46-.06-8.93,0-16.4,6.7-17.39,15.57-1.05,9.49,5.54,17.95,15,19.26l72.48,10.03-76.75-.74h-.21c-9.43,0-17.1,7.4-17.45,16.86-.35,9.55,6.85,17.5,16.38,18.11l72.4,4.6-75.1,4.74c-9.54.6-16.73,8.55-16.39,18.1.35,9.46,8.03,16.86,17.49,16.86h.17s0,0,0,0l72.26-.7-73.34,9.98c-9.47,1.29-16.07,9.74-15.04,19.24.97,8.9,8.45,15.6,17.4,15.6.47,0,.95-.02,1.42-.06l72.1-5.94-71.52,15.04c-9.35,1.97-15.33,10.87-13.61,20.27,1.52,8.32,8.76,14.36,17.21,14.36.9,0,1.81-.07,2.7-.21l71.88-11.18-69.68,19.98c-9.19,2.64-14.51,11.95-12.12,21.2,2,7.73,8.96,13.13,16.94,13.13,1.32,0,2.65-.15,3.94-.45l71.63-16.49-67.83,24.88c-8.97,3.29-13.61,12.96-10.56,22.02,2.4,7.13,9.07,11.92,16.58,11.92,1.74,0,3.47-.26,5.14-.77l71.29-21.93-65.95,29.8c-8.71,3.93-12.63,13.91-8.93,22.72,2.74,6.52,9.07,10.73,16.14,10.73,2.17,0,4.3-.4,6.34-1.19l70.81-27.53-63.98,34.78c-8.39,4.56-11.57,14.8-7.24,23.31,3,5.9,8.98,9.56,15.6,9.56,2.61,0,5.14-.57,7.51-1.69l70.07-33.31-61.86,39.86c-8.03,5.17-10.44,15.62-5.49,23.78,3.15,5.2,8.89,8.43,14.97,8.43,3.03,0,6.02-.79,8.66-2.3l69-39.28-59.51,45.06c-7.61,5.76-9.22,16.36-3.68,24.12,3.27,4.59,8.6,7.33,14.24,7.33,3.49,0,6.86-1.03,9.76-2.98l67.5-45.42-56.85,50.38c-7.14,6.33-7.94,17.01-1.82,24.33,3.33,3.98,8.23,6.27,13.43,6.27,3.92,0,7.77-1.34,10.84-3.77l65.46-51.68-53.78,55.78c-6.62,6.86-6.58,17.57.09,24.39,3.31,3.39,7.76,5.26,12.51,5.26,4.41,0,8.63-1.65,11.87-4.64l62.76-57.97-50.2,61.21c-6.04,7.37-5.14,18.04,2.04,24.29,3.19,2.77,7.27,4.3,11.49,4.3,4.87,0,9.55-2.05,12.85-5.62l59.34-64.2-46.02,66.59c-5.41,7.83-3.65,18.39,4.02,24.04,3.03,2.23,6.62,3.41,10.38,3.41,5.41,0,10.43-2.44,13.77-6.69l55.12-70.26-41.19,71.82c-4.73,8.25-2.09,18.62,6.01,23.61,2.76,1.7,5.93,2.6,9.17,2.6,5.9,0,11.37-2.94,14.62-7.87l50.08-75.99-35.65,76.77c-4,8.62-.49,18.73,8,23,2.44,1.22,5.15,1.87,7.87,1.87,6.42,0,12.31-3.5,15.38-9.14l44.19-81.25-29.4,81.32c-3.23,8.93,1.15,18.69,9.97,22.21,2.08.83,4.26,1.25,6.48,1.25,6.96,0,13.25-4.12,16.04-10.5l37.51-85.89-22.45,85.3c-2.42,9.18,2.82,18.5,11.91,21.22,1.63.49,3.32.73,5.01.73,7.53,0,14.2-4.8,16.59-11.94l30.09-89.77-14.85,88.61c-1.57,9.36,4.49,18.16,13.79,20.04,1.14.23,2.31.35,3.47.35,8.14,0,15.14-5.53,17.02-13.45l22.04-92.76-6.69,91.09c-.7,9.46,6.15,17.66,15.58,18.68.6.07,1.25.1,1.88.1,8.65,0,16.1-6.46,17.32-15.03l13.51-94.74,1.89,92.63c.2,9.47,7.76,17,17.23,17.14.11,0,.21,0,.31,0,9.32,0,16.98-7.31,17.43-16.65l4.65-95.63,10.76,93.14c1.02,8.83,8.49,15.49,17.38,15.49.47,0,.94-.02,1.41-.06,9.45-.76,16.51-8.77,16.08-18.24l-4.34-95.42,19.72,92.58c1.71,8.03,8.9,13.85,17.11,13.85,1.02,0,2.05-.09,3.05-.27,9.34-1.65,15.61-10.29,14.29-19.68l-13.27-94.08,28.59,90.9c2.3,7.33,9.01,12.25,16.69,12.25,1.57,0,3.14-.21,4.67-.63,9.14-2.53,14.56-11.73,12.36-20.94l-21.95-91.65,37.18,88.15c2.74,6.5,9.07,10.7,16.13,10.7,2.13,0,4.23-.39,6.23-1.15,8.86-3.38,13.39-13.05,10.32-22.02l-30.19-88.21,45.3,84.37c3.06,5.69,8.96,9.22,15.42,9.22,2.67,0,5.34-.62,7.74-1.81,8.5-4.2,12.11-14.25,8.21-22.9l-37.86-83.87,52.78,79.67c3.25,4.91,8.71,7.84,14.59,7.84,3.23,0,6.4-.9,9.16-2.59,8.09-4.97,10.74-15.32,6.05-23.57l-44.81-78.76,59.47,74.15c3.34,4.16,8.32,6.55,13.65,6.55,3.81,0,7.43-1.21,10.48-3.49,7.6-5.69,9.3-16.25,3.86-24.03l-50.96-73.02,65.29,67.97c3.28,3.42,7.88,5.38,12.62,5.38,4.33,0,8.48-1.59,11.7-4.49,7.06-6.35,7.8-17.02,1.69-24.28l-56.27-66.83,70.14,61.29c3.19,2.79,7.28,4.32,11.51,4.32,4.84,0,9.51-2.03,12.81-5.57,6.48-6.95,6.27-17.64-.47-24.34l-60.7-60.32,74.02,54.27c3.02,2.22,6.6,3.39,10.34,3.39,5.42,0,10.45-2.45,13.79-6.72,5.86-7.49,4.73-18.13-2.57-24.22l-64.29-53.64,76.93,47.07c2.75,1.68,5.91,2.57,9.13,2.57,5.92,0,11.4-2.96,14.65-7.91,5.21-7.97,3.19-18.48-4.61-23.93l-67.09-46.93,78.91,39.83c2.44,1.23,5.16,1.88,7.88,1.88,6.42,0,12.32-3.51,15.38-9.15,4.54-8.37,1.66-18.68-6.57-23.48l-69.18-40.28,80.04,32.67c2.11.86,4.34,1.3,6.61,1.3,6.92,0,13.2-4.09,16-10.41,3.86-8.72.15-18.76-8.45-22.87l-70.65-33.79,80.42,25.7c1.72.55,3.52.83,5.33.83,7.41,0,14.05-4.7,16.51-11.7,3.16-9-1.33-18.72-10.24-22.14l-71.61-27.5,80.17,18.99c1.32.31,2.68.47,4.04.47,7.91,0,14.86-5.34,16.9-12.99,2.46-9.22-2.78-18.57-11.92-21.29l-72.17-21.45,79.39,12.59c.91.14,1.83.22,2.75.22,8.41,0,15.64-6.01,17.19-14.28,1.75-9.38-4.18-18.31-13.51-20.32l-72.42-15.63,78.21,6.51c.48.04.98.06,1.47.06,8.92,0,16.4-6.7,17.38-15.57,1.05-9.49-5.54-17.95-15-19.26l-72.48-10.03,76.75.74h.05s.1,0,.1,0c9.47,0,17.15-7.4,17.5-16.86.35-9.55-6.85-17.5-16.38-18.11l-72.4-4.6,75.1-4.74c9.54-.6,16.73-8.55,16.39-18.1-.35-9.46-8.03-16.86-17.49-16.86-.07,0-.13,0-.2,0l-72.23.7,73.34-9.98c9.47-1.29,16.07-9.74,15.04-19.24-.97-8.9-8.45-15.6-17.39-15.6-.48,0-.97.02-1.45.06l-72.07,5.94,71.52-15.04c9.35-1.97,15.33-10.87,13.61-20.27-1.52-8.32-8.76-14.36-17.21-14.36-.9,0-1.8.07-2.69.21l-71.89,11.18,69.69-19.98c9.19-2.63,14.51-11.95,12.12-21.2-2-7.73-8.96-13.13-16.94-13.13-1.32,0-2.64.15-3.93.45l-71.64,16.49,67.83-24.88c8.97-3.29,13.61-12.96,10.56-22.02-2.4-7.13-9.07-11.92-16.58-11.92-1.74,0-3.48.26-5.15.78l-71.29,21.93,65.94-29.8c8.71-3.93,12.63-13.91,8.93-22.72-2.74-6.52-9.07-10.73-16.14-10.73-2.17,0-4.31.4-6.34,1.19l-70.8,27.53,63.97-34.78c8.39-4.56,11.57-14.8,7.24-23.31-3-5.9-8.98-9.56-15.6-9.56-2.62,0-5.14.57-7.51,1.7l-70.07,33.31,61.86-39.86c8.03-5.17,10.44-15.62,5.49-23.78-3.15-5.2-8.89-8.43-14.97-8.43-3.02,0-6.02.79-8.65,2.29l-69.01,39.29,59.51-45.06c7.61-5.76,9.22-16.36,3.68-24.12-3.27-4.59-8.6-7.33-14.24-7.33-3.49,0-6.87,1.03-9.77,2.98l-67.5,45.42,56.85-50.38c7.14-6.33,7.94-17.01,1.82-24.33-3.33-3.98-8.23-6.27-13.43-6.27-3.92,0-7.77,1.34-10.85,3.77l-65.45,51.67,53.78-55.78c6.62-6.86,6.57-17.57-.09-24.39-3.32-3.39-7.76-5.26-12.51-5.26-4.42,0-8.63,1.65-11.88,4.65l-62.76,57.97,50.2-61.21c6.04-7.37,5.14-18.04-2.04-24.29-3.18-2.77-7.26-4.3-11.49-4.3-4.87,0-9.55,2.05-12.85,5.62l-59.34,64.21,46.02-66.59c5.41-7.83,3.65-18.39-4.02-24.04-3.02-2.23-6.61-3.41-10.37-3.41-5.41,0-10.43,2.44-13.77,6.7l-55.12,70.26,41.19-71.82c4.73-8.25,2.09-18.62-6.01-23.61-2.76-1.7-5.93-2.6-9.17-2.6-5.9,0-11.37,2.94-14.62,7.87l-50.08,75.99,35.65-76.77c4-8.62.49-18.73-8-23-2.43-1.22-5.15-1.87-7.87-1.87-6.42,0-12.31,3.5-15.38,9.14l-44.19,81.25,29.4-81.32c3.23-8.93-1.15-18.69-9.98-22.21-2.07-.83-4.25-1.25-6.48-1.25-6.96,0-13.25,4.12-16.04,10.5l-37.51,85.89,22.45-85.3c2.42-9.18-2.82-18.5-11.92-21.22-1.63-.49-3.31-.73-5.01-.73-7.53,0-14.2,4.8-16.59,11.94l-30.09,89.77,14.85-88.61c1.57-9.36-4.49-18.16-13.79-20.04-1.14-.23-2.31-.35-3.48-.35-8.14,0-15.14,5.53-17.02,13.46l-22.04,92.76,6.69-91.09c.7-9.46-6.15-17.66-15.57-18.68-.62-.07-1.26-.1-1.89-.1h0ZM661.19,429.6c.18,0,.37,0,.55,0,4.01-.13,7.7-1.64,10.6-4.06,2.6,1.87,5.73,3.05,9.11,3.26.35.02.71.03,1.08.03,3.72,0,7.22-1.2,10.09-3.24,2.36,1.96,5.24,3.32,8.44,3.81.89.14,1.79.21,2.68.21,3.26,0,6.35-.89,8.99-2.47,2.12,2.01,4.76,3.52,7.75,4.27,1.39.35,2.82.52,4.24.52,2.75,0,5.39-.64,7.75-1.8,1.9,2.07,4.31,3.71,7.11,4.69,1.85.64,3.78.97,5.74.97,2.24,0,4.42-.43,6.43-1.22,1.68,2.12,3.87,3.87,6.47,5.04,2.28,1.02,4.69,1.54,7.17,1.54,1.73,0,3.43-.26,5.04-.74,1.48,2.15,3.45,4,5.86,5.34,2.6,1.45,5.55,2.22,8.52,2.22,1.22,0,2.41-.12,3.57-.37,1.28,2.19,3.06,4.12,5.28,5.62,2.9,1.96,6.28,2.99,9.78,2.99.69,0,1.37-.04,2.04-.12,1.1,2.23,2.68,4.25,4.73,5.88,3.09,2.48,6.98,3.84,10.94,3.84.16,0,.31,0,.46,0,.92,2.27,2.32,4.37,4.2,6.15,2.98,2.81,6.8,4.47,10.85,4.73.74,2.32,1.96,4.51,3.69,6.42,2.68,2.96,6.29,4.9,10.19,5.53.55,2.38,1.61,4.67,3.19,6.71,2.41,3.12,5.72,5.27,9.43,6.23.36,2.44,1.25,4.83,2.69,7.01,2.1,3.18,5.12,5.54,8.59,6.81.16,2.51.87,5.02,2.17,7.35,1.79,3.21,4.51,5.72,7.71,7.26-.06,2.59.46,5.23,1.62,7.72,1.49,3.21,3.89,5.82,6.81,7.59-.3,2.67.01,5.43,1.02,8.09,1.2,3.17,3.28,5.86,5.9,7.81-.56,2.73-.48,5.63.37,8.47.93,3.12,2.7,5.84,5.01,7.94-.85,2.78-1.01,5.81-.35,8.83.67,3.05,2.14,5.77,4.15,7.98-1.16,2.81-1.6,5.95-1.13,9.15.43,2.97,1.61,5.68,3.33,7.96-1.48,2.81-2.22,6.04-1.98,9.41.21,2.89,1.12,5.57,2.56,7.9-1.82,2.76-2.87,6.06-2.87,9.59,0,2.8.66,5.46,1.85,7.82-2.16,2.68-3.56,6.01-3.82,9.66-.2,2.71.23,5.33,1.18,7.71-2.51,2.56-4.25,5.89-4.81,9.62-.39,2.6-.18,5.16.53,7.54-2.83,2.39-4.91,5.68-5.78,9.54-.57,2.52-.56,5.05-.06,7.44-3.15,2.17-5.57,5.38-6.77,9.26-.76,2.45-.94,4.95-.63,7.36-3.44,1.92-6.19,4.99-7.72,8.84-.95,2.39-1.33,4.87-1.2,7.3-3.69,1.62-6.75,4.51-8.61,8.29-1.15,2.34-1.73,4.82-1.78,7.29-3.89,1.32-7.27,3.99-9.42,7.59-1.36,2.27-2.14,4.75-2.38,7.25-4.04.98-7.66,3.37-10.12,6.81-1.58,2.21-2.58,4.68-3.01,7.22-4.14.62-7.95,2.71-10.71,5.94-1.82,2.13-3.04,4.6-3.67,7.18-4.2.26-8.13,2.01-11.16,4.98-2.08,2.04-3.54,4.5-4.38,7.12-.12,0-.24,0-.35,0-4.04,0-7.98,1.41-11.1,3.97-2.34,1.92-4.06,4.36-5.12,7.02-.59-.06-1.18-.09-1.78-.09-3.52,0-6.91,1.04-9.83,3.02-2.62,1.78-4.61,4.17-5.9,6.87-1.03-.19-2.08-.28-3.15-.28-2.95,0-5.87.75-8.46,2.18-2.89,1.6-5.16,3.92-6.7,6.64-1.44-.38-2.94-.58-4.47-.58-2.42,0-4.77.49-7,1.46-3.16,1.38-5.72,3.61-7.52,6.32-1.81-.63-3.74-.96-5.73-.96-1.85,0-3.69.29-5.45.87-3.41,1.12-6.26,3.22-8.34,5.91-2.14-.92-4.49-1.42-6.94-1.42-1.3,0-2.6.15-3.87.43-3.64.82-6.79,2.77-9.15,5.41-2.43-1.27-5.18-1.99-8.06-1.99-.75,0-1.51.05-2.26.15-3.82.49-7.24,2.23-9.86,4.76-2.67-1.64-5.81-2.59-9.15-2.59-.21,0-.43,0-.64.01-3.98.13-7.65,1.63-10.54,4.05-2.6-1.87-5.72-3.05-9.1-3.25-.34-.02-.7-.03-1.06-.03-3.73,0-7.23,1.2-10.1,3.25-2.36-1.96-5.25-3.32-8.45-3.82-.89-.14-1.79-.21-2.68-.21-3.26,0-6.35.89-8.99,2.47-2.12-2.01-4.76-3.52-7.75-4.27-1.39-.35-2.82-.52-4.24-.52-2.75,0-5.39.64-7.75,1.81-1.9-2.07-4.31-3.71-7.11-4.69-1.85-.64-3.78-.97-5.74-.97-2.25,0-4.42.43-6.43,1.22-1.68-2.12-3.87-3.87-6.47-5.04-2.28-1.02-4.69-1.54-7.18-1.54-1.73,0-3.43.26-5.04.74-1.48-2.15-3.45-4-5.86-5.34-2.6-1.45-5.55-2.22-8.52-2.22-1.21,0-2.41.12-3.57.37-1.28-2.19-3.06-4.12-5.28-5.62-2.9-1.96-6.28-2.99-9.78-2.99-.69,0-1.37.04-2.05.12-1.1-2.23-2.68-4.25-4.73-5.88-3.09-2.48-6.98-3.84-10.94-3.84-.15,0-.31,0-.46,0-.92-2.27-2.32-4.38-4.2-6.15-2.98-2.81-6.8-4.46-10.85-4.73-.74-2.32-1.96-4.51-3.69-6.42-2.68-2.96-6.29-4.9-10.19-5.53-.55-2.38-1.61-4.67-3.19-6.71-2.41-3.12-5.72-5.27-9.43-6.23-.36-2.44-1.25-4.83-2.69-7.01-2.1-3.18-5.12-5.54-8.6-6.81-.16-2.51-.87-5.02-2.17-7.35-1.79-3.21-4.51-5.72-7.71-7.26.06-2.59-.46-5.23-1.61-7.72-1.49-3.21-3.89-5.82-6.81-7.59.3-2.67-.01-5.43-1.02-8.09-1.2-3.17-3.28-5.86-5.9-7.81.56-2.73.48-5.63-.37-8.47-.93-3.12-2.7-5.84-5.01-7.94.85-2.78,1.01-5.81.35-8.83-.67-3.05-2.14-5.77-4.15-7.98,1.16-2.81,1.59-5.95,1.13-9.15-.43-2.97-1.61-5.68-3.33-7.96,1.48-2.81,2.22-6.04,1.97-9.41-.21-2.89-1.12-5.57-2.56-7.9,1.82-2.76,2.87-6.06,2.87-9.59,0-2.8-.66-5.46-1.85-7.82,2.16-2.68,3.56-6.01,3.82-9.66.2-2.71-.24-5.33-1.18-7.71,2.51-2.56,4.25-5.9,4.81-9.63.39-2.6.18-5.16-.53-7.54,2.83-2.38,4.91-5.68,5.78-9.53.57-2.52.56-5.05.06-7.44,3.15-2.17,5.57-5.38,6.77-9.26.76-2.45.94-4.95.63-7.36,3.44-1.92,6.19-4.99,7.72-8.84.95-2.39,1.33-4.87,1.2-7.3,3.69-1.62,6.75-4.51,8.61-8.29,1.15-2.34,1.73-4.82,1.78-7.28,3.89-1.32,7.27-3.99,9.42-7.59,1.36-2.27,2.14-4.75,2.38-7.25,4.04-.98,7.66-3.37,10.12-6.81,1.58-2.21,2.58-4.68,3.01-7.22,4.14-.62,7.95-2.71,10.71-5.93,1.82-2.13,3.04-4.6,3.67-7.18,4.2-.26,8.13-2.01,11.16-4.98,2.08-2.04,3.54-4.5,4.38-7.12.12,0,.24,0,.35,0,4.04,0,7.98-1.41,11.1-3.97,2.34-1.92,4.06-4.36,5.12-7.02.59.06,1.18.09,1.78.09,3.52,0,6.92-1.05,9.83-3.02,2.62-1.78,4.61-4.17,5.9-6.87,1.03.19,2.08.28,3.15.28,2.95,0,5.87-.75,8.46-2.18,2.89-1.6,5.16-3.92,6.7-6.64,1.44.38,2.94.58,4.47.58,2.42,0,4.77-.49,6.99-1.46,3.16-1.38,5.72-3.61,7.52-6.32,1.81.63,3.74.96,5.74.96,1.85,0,3.69-.29,5.46-.87,3.41-1.12,6.26-3.22,8.33-5.9,2.14.92,4.49,1.42,6.94,1.42,1.3,0,2.6-.15,3.87-.43,3.64-.82,6.79-2.77,9.14-5.41,2.43,1.27,5.18,1.99,8.06,1.99.74,0,1.5-.05,2.24-.14,3.83-.49,7.25-2.23,9.88-4.77,2.68,1.65,5.82,2.59,9.17,2.59h0Z"/>
</svg>