<svg width="319" height="395" viewBox="0 0 319 395" fill="none" xmlns="http://www.w3.org/2000/svg">
<path d="M189.077 391.373C176.991 391.373 175.575 384.625 175.575 379.618V237.334C175.575 235.303 172.741 232.836 170.407 232.836H144.153V379.618C144.153 386.802 138.819 391.373 130.652 391.373H18.3857C10.1346 391.373 4.88379 386.729 4.88379 379.618V15.3827C4.88379 8.19952 10.2179 3.62842 18.3857 3.62842H198.161C256.003 3.62842 314.594 35.8437 314.594 97.372V156.941C314.594 190.245 292.174 211.286 265.504 220.283C298.509 227.829 314.594 249.379 314.594 285.512V379.691C314.594 385.496 313.011 391.445 301.092 391.445H189.077V391.373ZM170.324 209.255C172.658 209.255 175.491 206.788 175.491 204.756V102.959C175.491 100.855 172.658 98.4603 170.324 98.4603H144.07V209.327H170.324V209.255Z" fill="white"/>
<path d="M198.076 7.25569C271.503 7.25569 310.342 51.2978 310.342 97.3714V156.941C310.342 198.661 274.67 217.743 244.833 221.081C274.087 222.895 310.342 232.545 310.342 285.512V379.69C310.342 385.06 309.175 387.817 301.007 387.817H188.991C181.407 387.817 179.657 384.987 179.657 379.69V237.406C179.657 233.343 174.989 229.28 170.322 229.28H139.901V379.69C139.901 385.06 136.067 387.817 130.566 387.817H18.3005C11.2995 387.817 8.96586 383.754 8.96586 379.69V15.4547C8.96586 11.3915 11.2995 7.32827 18.3005 7.32827H198.076M139.901 212.882H170.322C174.989 212.882 179.657 208.819 179.657 204.756V102.958C179.657 98.8952 174.989 94.8319 170.322 94.8319H139.901V212.955M198.076 0H18.3005C7.71571 0 0.631348 6.16736 0.631348 15.3821V379.618C0.631348 388.833 7.71571 395 18.3005 395H130.566C140.984 395 148.236 388.687 148.236 379.618V236.463H170.322C170.322 236.463 171.239 237.116 171.322 237.479V379.618C171.322 392.315 180.907 395 188.991 395H301.007C312.759 395 318.676 389.848 318.676 379.618V285.439C318.676 251.773 304.591 229.715 276.67 219.775C300.257 208.819 318.676 187.922 318.676 156.941V97.3714C318.676 71.6137 307.675 47.6699 287.672 29.966C265.585 10.3757 234.581 0 198.076 0ZM148.236 102.015H170.322C170.322 102.015 171.239 102.741 171.322 103.103V204.756C171.322 204.756 170.489 205.554 170.072 205.699H148.152V102.088L148.236 102.015Z" fill="white"/>
</svg>
