<svg width="132" height="163" viewBox="0 0 132 163" fill="none" xmlns="http://www.w3.org/2000/svg">
<path d="M77.8271 161.219C72.8489 161.219 72.2652 158.439 72.2652 156.377V97.7655C72.2652 96.9287 71.0979 95.9125 70.1366 95.9125H59.3218V156.377C59.3218 159.336 57.1246 161.219 53.76 161.219H7.51407C4.11515 161.219 1.9522 159.306 1.9522 156.377V6.33658C1.9522 3.37761 4.14949 1.49463 7.51407 1.49463H81.5693C105.396 1.49463 129.532 14.7651 129.532 40.1106V64.6491C129.532 78.3679 120.296 87.0356 109.31 90.7418C122.906 93.8502 129.532 102.727 129.532 117.612V156.407C129.532 158.798 128.88 161.249 123.97 161.249H77.8271V161.219ZM70.1023 86.1987C71.0636 86.1987 72.2309 85.1825 72.2309 84.3456V42.412C72.2309 41.5453 71.0636 40.5589 70.1023 40.5589H59.2875V86.2286H70.1023V86.1987Z" fill="white"/>
<path d="M81.5344 2.98885C111.781 2.98885 127.78 21.1312 127.78 40.1104V64.6489C127.78 81.8348 113.086 89.6955 100.795 91.0704C112.846 91.8176 127.78 95.7927 127.78 117.611V156.407C127.78 158.618 127.3 159.754 123.935 159.754H77.7922C74.6679 159.754 73.9469 158.589 73.9469 156.407V97.7953C73.9469 96.1215 72.0243 94.4477 70.1017 94.4477H57.5704V156.407C57.5704 158.618 55.991 159.754 53.7251 159.754H7.47919C4.59526 159.754 3.63394 158.08 3.63394 156.407V6.36627C3.63394 4.69251 4.59526 3.01875 7.47919 3.01875H81.5344M57.5704 87.6929H70.1017C72.0243 87.6929 73.9469 86.0192 73.9469 84.3454V42.4118C73.9469 40.7381 72.0243 39.0643 70.1017 39.0643H57.5704V87.7228M81.5344 0H7.47919C3.11896 0 0.200684 2.54053 0.200684 6.33638V156.377C0.200684 160.173 3.11896 162.713 7.47919 162.713H53.7251C58.0166 162.713 61.0036 160.113 61.0036 156.377V97.4067H70.1017C70.1017 97.4067 70.4793 97.6757 70.5137 97.8251V156.377C70.5137 161.607 74.462 162.713 77.7922 162.713H123.935C128.776 162.713 131.214 160.591 131.214 156.377V117.581C131.214 103.713 125.411 94.6271 113.91 90.5323C123.626 86.0192 131.214 77.4113 131.214 64.6489V40.1104C131.214 29.5 126.682 19.6368 118.442 12.344C109.344 4.27407 96.5721 0 81.5344 0ZM61.0036 42.0233H70.1017C70.1017 42.0233 70.4793 42.3221 70.5137 42.4716V84.3454C70.5137 84.3454 70.1704 84.6742 69.9987 84.734H60.9692V42.0532L61.0036 42.0233Z" fill="white"/>
</svg>
