<?xml version="1.0" encoding="UTF-8"?>
<svg id="Layer_1" xmlns="http://www.w3.org/2000/svg" viewBox="0 0 2256.02 2251.59">
  <defs>
    <style>
      .cls-1 {
        fill: #fff;
      }
    </style>
  </defs>
  <path class="cls-1" d="M1132.53,1009.09c6.15.22,13.59-.81,19.88,2.21,9.78,4.69,20.8,6.6,30.01,11.48,18.51,9.8,35.28,22.26,44.58,42.67,3.08,6.76,7.13,13.28,10.37,20.13,3.19,6.75,4.16,13.5,4.7,20.99.69,9.49,2.51,18.92,2.05,28.54-.56,11.7-3.79,22.84-7.01,33.98-1.17,4.03-4.23,6.68-7.6,8.97-2.19,1.49-4.45,3.61-7.2,1.77-2.86-1.92-4.82-4.63-3.87-8.46,2.01-8.08,3.77-16.39,8.63-23.25,4.09-5.78,8.16-11.32,8.82-18.63.09-.96.56-1.91.95-2.82,3.52-8.18,3.63-8.41-4.02-11.74-3.82-1.66-5.86-4.26-6.59-8.06-2.15-11.26-6.61-21.58-12.33-31.43-3.25-5.6-3.69-12.12-4.86-18.22-2.43-12.68-11.43-18.03-21.95-22.26-1.91-.77-4.19-1.14-5.79.08-5.38,4.13-10,1.58-14.69-1.19-4.06-2.4-8.51-3.83-13-5.03-6.43-1.71-12.95-2.9-18.03-7.88-2.21-2.16-5.56-3.19-8.31-1.25-8.98,6.32-20.12,6.05-29.86,10.19-6.81,2.89-13.44,7.6-21.81,5.58-2.35-.57-3.67,2.15-4.96,4.22-3.46,5.57-15.32,8.37-21.07,5.21-2.14-1.18-2.53-3.03-1.3-5.01.67-1.09,1.65-2.36,2.77-2.75,9.67-3.44,16.03-11.9,24.83-16.43,17.44-8.98,36.03-13.47,56.65-11.6Z"/>
  <path class="cls-1" d="M1026.54,1127.79c-.55,20.37,4.64,36.84,14.92,51.8,1.88,2.73,3.41,5.7,5.24,8.47,2.24,3.39,1.72,5.68-1.6,8.37-7.38,5.98-8.33,6.33-13.56-2.05-14.11-22.63-22.86-46.94-21.67-74.1.23-5.33.66-10.67,3.49-15.38,1.39-2.31,3.27-4.39,6.41-3.74,2.44.5,2.13,2.95,2.99,4.64,3.91,7.67,4.49,15.79,3.77,21.99Z"/>
  <path class="cls-1" d="M1111.88,1239.37c-3.11,2.42-5.47,2.2-7.73,1.71-15.7-3.4-30.79-8.37-43.76-18.24-2.87-2.18-5.23-5.07-7.68-7.76-1.92-2.11-2.7-4.58-1.23-7.31,1.73-3.22,4.64-3.28,7.77-2.91,2.77.33,4.9,1.94,7.18,3.27,11.17,6.51,22.1,13.53,35.29,15.45,3.23.47,5.68,2.29,5.88,5.78.21,3.78,2.88,6.52,4.28,10Z"/>
  <path class="cls-1" d="M1139.42,1229.42c1.09-3.12,3.14-3.77,5.05-3.76,11.93.1,21.89-5.61,31.13-11.84,8.08-5.45,15.13-2.36,22.68-.44,2.14.54,2.41,2.64,1.29,3.94-7.55,8.76-17.27,14.22-28.14,17.75-.58.19-1.97-.7-2.23-1.38-.28-.72.1-1.95.6-2.67,1.57-2.27,4.17-3.13,6.45-4.47,2.49-1.46,6.03-3.34,3.3-6.75-2.44-3.06-5.49-.8-7.78,1.18-3.53,3.06-6.78,6.51-8.5,10.89-2.08,5.27-5.05,6.38-9.94,3.53-4.38-2.56-10.2-2.29-13.92-5.96Z"/>
  <path class="cls-1" d="M1038.89,1073.91c-2.1,5.21-4.24,10.72-6.55,16.17-.67,1.59-2.27,2.31-3.91,2.74-1.29.34-2.7.67-3.71-.4-1.09-1.15-.46-2.4.34-3.5.77-1.07,1.59-2.1,2.31-3.2,1.74-2.64,2.52-5.33.53-8.26-.73-1.08-1.4-2.27-1.79-3.5-1.1-3.51.2-6.46,2.51-9.05.96-1.08,2.59-1.61,3.44-.48,2.27,3.01,6.85,4.36,6.83,9.49Z"/>
</svg>