<?xml version="1.0" encoding="UTF-8"?>
<svg id="Layer_1" xmlns="http://www.w3.org/2000/svg" viewBox="0 0 2256.02 2251.59">
  <defs>
    <style>
      .cls-1 {
        fill: #fff;
      }
    </style>
  </defs>
  <path class="cls-1" d="M1213.68,1357.9c-4.72,12.58-15.12,15.2-26.39,16.57-4.82.59-9.36,3.16-14.62,2.53,1.54-3.83,12.61-17.95,15.08-19.08,3.02-1.38,6.32-2.97,9.49-.9,4.6,3.02,6.68,1.11,9.44-2.91,3.12-4.55,9.49-3.89,14.17-6.4,5.22-2.81,10.92-4.75,15.58-8.63.76-.63,1.6-1.35,2.52-1.59,17.16-4.35,27.86-18.69,42.28-27.26,8.27-4.92,13.59-13.28,22.16-18.33,4.48-2.64,7.25-9.82,10.74-14.95,3.03-4.46,9.79-3.58,11.08-9.2,1.06-4.59,2.86-8.8,5.03-12.96,4.93-9.41,10.97-18.23,14.76-28.24,1.42-3.75,3.64-7.22,6.68-9.84,4.12-3.56,5.83-7.66,5.41-13.16-.59-7.7,1.06-15.18,3.14-22.61,1.87-6.71,3.87-13.54,4.43-20.43.46-5.65,1.13-8.73,7.8-7.31,4.85,1.04,4.42-4.93,7.53-7.06,3.33,3.48,1.48,6.5-.78,8.74-4.8,4.77-5.74,10.22-4.24,16.49.98,4.1-.38,7.91-1.85,11.64-2.81,7.11-5,14.59-8.77,21.17-4.09,7.13-6.49,14.45-6.92,22.5-.81,15.27-9.52,27.22-16.17,40.14-3.56,6.92-12.59,8.53-14.35,17.02-1.64,7.96-8.38,12.77-14.05,17.7-11.01,9.58-19.67,21.71-32.33,29.47-8.97,5.5-18.03,10.67-26.44,17.32-8.38,6.63-19.17,10.34-29.15,14.79-6.87,3.06-7.06,2.65-11.3-5.22Z"/>
  <path class="cls-1" d="M1073.61,876.81c1.64.45,3.34.63,4.76,1.35,3.35,1.68,3.87,5.27.64,6.92-7.09,3.62-13.26,8.9-21.01,11.35-13.98,4.41-27.24,10.57-40.43,16.89-2.37,1.13-4.95,2.14-7.52,2.46-6.91.88-12.86,3.04-16.76,9.33-2.11,3.4-5.67,4.51-9.5,4.55-4.96.05-8.84,2.14-12.42,5.48-4.16,3.89-9.31,6.46-14.46,8.75-10.98,4.89-17.55,12.84-18.44,25.04-.45,6.19-1.52,11.88-8.26,14.63-2.19.89-3.36,3.26-4.15,5.45-2.93,8.23-8.73,15.03-11.91,22.97-4.26,10.64-7.54,21.35-15.84,30.06-4.64,4.87-5.13,12.14-3.36,18.98.76,2.96.74,5.84.24,8.87-1.52,9.26-6.46,13.96-15.69,14.54-2.16.14-3.01-1.28-3-3.06,0-1.63.29-3.35.85-4.88,5.38-14.71,8.34-30.07,12.27-45.17.5-1.92,1.29-3.79,2.18-5.57,11.43-22.9,23.52-45.22,40.88-64.57,11.77-13.12,24.01-25.57,37.63-36.59,12.97-10.5,26.98-19.46,44.22-21.47,2.7-.32,5.7-1.12,7.05-3.35,5.77-9.55,16.4-10.95,25.24-14.9,8.42-3.76,17.76-5.44,26.79-8.07Z"/>
  <path class="cls-1" d="M876.79,1174.6c4.65,4.65,4.18,9.04,5.93,12.41,5.97,11.55,8.66,24.26,13.14,36.34,2.23,6.01,5.59,10.79,12.71,10.71,3.26-.04,4.95,1.65,6.2,4.08,5.48,10.64,13.76,19.6,18.35,30.76.89,2.15,1.84,4.47,4.03,5.55,7.57,3.74,11.75,10.63,16.23,17.2,5.71,8.38,12.65,15.31,21.55,20.36,5.78,3.27,11.3,7.03,15.18,12.72.9,1.32,2.3,2.94,3.69,3.17,13.58,2.33,22.39,14.31,35.55,17.45,1.81.43,4.25,1.15,3.75,3.75-.4,2.1-2.42,3.06-4.4,3.59-3.14.84-5.91-.48-8.6-1.78-4.56-2.21-9.2-3.89-14.38-3.34-5.99.63-10.51-2.17-13.47-6.89-2.92-4.65-6.65-7-11.99-7.75-4.04-.57-7.35-3.06-10.24-5.89-4.27-4.18-8.33-8.55-13.5-11.75-3.61-2.23-5.03-6.12-6.17-9.97-.94-3.19-1.4-6.51-2.4-9.68-1.95-6.19-3.04-6.87-8.91-3.81-3.93,2.06-6.12.6-8.63-1.98-5.68-5.85-9.08-13.11-12.56-20.27-2.49-5.14-5.51-9.8-9.05-14.26-8.35-10.5-14.39-22.09-18.06-35.17-3.13-11.16-7.91-21.86-11.85-32.81-1.21-3.35-2.5-6.76-2.11-12.75Z"/>
  <path class="cls-1" d="M1365.35,1045.23c-3.63-2.15-3.35-5.12-4.27-7.52-2.88-7.57-7.1-13.97-13.39-19.44-10.04-8.73-18.83-18.7-21.93-32.28-.87-3.81-3.15-6.53-5.81-9.09-3.1-2.98-6.81-5.43-8.54-9.62-.55-1.32-1.44-2.39-2.86-2.47-7.32-.39-10.7-6.12-14.76-10.85-2.4-2.8-4.74-5.74-8.02-7.41-8.9-4.54-13.19-14.04-21.24-19.46-.76-.51-1.3-1.57-1.59-2.49-1.34-4.15-3.11-9.21.24-12.25,3.06-2.77,6.55,1.44,9.72,2.95.59.28,1.19.65,1.66,1.11,13.32,13.35,30.66,22.48,42.23,37.35,15.03,19.32,31.51,37.88,41.02,61.01,2.02,4.92,4.78,9.53,6.85,14.42,2.08,4.9,3.52,10,.68,16.02Z"/>
  <path class="cls-1" d="M1241.51,898.83c-14.34,6.68-26.48,6-38.28-.05-6.28-3.21-12.57-4.78-19.65-5.83-12.43-1.85-25-2.99-37.36-5.41-6.81-1.33-11.58-6.24-17.5-9.1-.42-.2-.73-1.13-.68-1.69.09-1.12,1.15-2.08,2-1.75,9.81,3.86,20.06,1.11,29.75,2.2,9.5,1.06,19.01,1.58,28.51,2.08,8.45.45,16.48,1.76,23.56,6.72,2.77,1.94,5.88,2.94,9.15,3.72,6.77,1.62,12.97,4.57,20.49,9.1Z"/>
  <path class="cls-1" d="M1156.6,1365.73c-3.54,3.35-7.54,5.36-8.79,9.68-.49,1.7-2.05,2.41-3.87,2.6-10.2,1.07-20.39,2.22-30.59,3.28-1.31.14-2.76.25-3.96-.17-11.04-3.91-23.52-2.93-33.61-10.37-3.93-2.9-8.92-4.42-13.98-4.89-1.32-.12-2.91-.06-3.36,1.42-.64,2.08,1.89,2.37,3.38,5.47-11.6-2.85-21.94-5.38-32.49-10.93,4.03-3.9,6.95-1.99,9.88-.97,9.09,3.16,10.08,2.34,9.26-7.72,2.82-1.74,5.28-.08,7.17,1.49,4.9,4.09,10.63,4.93,16.65,5.57,8.57.91,17.09,2.24,25.61,3.56,5.94.92,12,1.61,13.23,9.54.48,3.11,3.45,3.78,6.36,3.07,3.92-.94,8.08-2.1,10.5-5.32,3.98-5.29,9.36-5.86,15.09-5.77,4.14.07,8.36-1.69,13.51.45Z"/>
  <path class="cls-1" d="M1368.22,1073.8c9.83-.03,9.95-.05,11.43,9.29.98,6.2,1.71,12.45,2.23,18.71.19,2.24-.16,4.7-.95,6.8-1.46,3.87-4.44,7.42-8.39,7.6-4.02.18-3.61-4.86-5.04-7.62-1.03-2-1.85-4.46-1.72-6.65.48-7.74-1.52-15.09-2.78-22.58-.93-5.51-.81-5.53,5.21-5.55Z"/>
  <path class="cls-1" d="M888.9,1162.74c-4.72-6.36-3.09-12.46-5.21-17.57-1.63-3.94-1.92-8.93-8.43-6.23-1.25.52-2.68-.6-2.74-2.13-.1-2.41.55-5.53,3.32-5.04,7.02,1.23,6.08-3.23,5.55-7.13-1-7.32,1.16-14.52.57-21.81-.1-1.24.38-2.64.96-3.78.59-1.17,1.72-2.27,3.17-1.67.7.29,1.07,1.43,1.52,2.23.14.25.09.67,0,.97-4.44,14.93,1.33,29.33,2.24,43.98.34,5.45,1.68,11.05-.94,18.19Z"/>
</svg>