<?xml version="1.0" encoding="UTF-8"?>
<svg id="Layer_1" xmlns="http://www.w3.org/2000/svg" viewBox="0 0 2256.02 2251.59">
  <defs>
    <style>
      .cls-1 {
        fill: #fff;
      }
    </style>
  </defs>
  <path class="cls-1" d="M1464.61,1893.95c9.23-5.82,18.41-10.99,28.26-14.88,6.82-2.7,13.33-5.94,19.11-10.64,5.74-4.67,12.83-7.11,19.6-9.71,9.9-3.8,19.27-8.1,27.59-14.87,4.03-3.28,8.57-6.33,14.11-7.17,1.88-.29,4.24-1.08,5.3-2.47,9.89-12.96,24.92-18.52,38.1-26.65,7.66-4.73,14.3-10.19,20.96-16.33,11.86-10.93,22.16-23.89,36.63-31.93,7.64-4.24,14.03-10.38,19.8-16.68,5.4-5.89,12.15-10.33,16.89-16.87,1.86-2.57,4.58-5.49,8.33-2.57,3.9,3.04,6.2,10.27,4.27,13.19-1.27,1.92-2.97,3.6-4.68,5.17-18.6,17.09-37.26,34.07-56.96,49.96-15.26,12.31-31.53,23.01-47.69,33.95-3.82,2.59-7.11,6.08-10.76,8.83-16.2,12.2-33.84,22.16-51.85,31.43-3.97,2.04-7.9,3.57-11.22-1.57-1.57-2.43-4.16-1.52-6.11.17-3.79,3.31-7.07,7.08-9.56,11.45-1.92,3.38-4.53,5.57-8.37,6.54-2.22.56-4.43,1.53-6.39,2.73-3.35,2.04-5.4,6.64-9.78,6.42-11.97-.58-23.48,3.86-35.59,2.51Z"/>
  <path class="cls-1" d="M1284.65,288.08c11.28-.72,20.43,1.2,29.15,3.96,13.34,4.23,26.7,7.83,40.57,9.98,11.09,1.72,22.04,4.73,32,10.48,2.52,1.46,5.68,1.8,8.53,2.71,19.64,6.31,38.59,14.17,57.02,23.56,10.85,5.53,22.9,8.72,34.35,13.1,15.83,6.05,31.38,12.68,44.62,23.64,1.28,1.06,2.64,2.06,3.72,3.3,1.9,2.21,2.21,4.85.96,7.45-1.15,2.39-3.48,3.01-5.91,2.86-6.45-.4-12.6-2.09-17.53-6.33-6.2-5.33-13.21-8.82-21.02-10.83-4.27-1.1-8.22-2.91-11.65-5.51-7.29-5.53-15.54-8.84-24.19-11.44-7.64-2.3-14.78-5.74-22.02-9.12-8.62-4.03-18.28-5.84-27.46-8.7-12.68-3.95-25.32-7.99-37.74-12.79-8.95-3.46-18.73-4.79-27.63-8.33-12.37-4.92-25.33-7.54-38.04-11.02-8.82-2.41-12.72-8.54-17.7-16.97Z"/>
  <path class="cls-1" d="M1756.44,1677.44c6.05-5.78,10.42-11.6,14.27-17.83,1.04-1.69,2.1-3.77,3.71-4.64,9.83-5.29,14.15-15.57,21.47-23.1,1.91-1.97,3.09-4.24,4.21-6.68,3.32-7.28,7.12-14.22,13.06-19.85,2.12-2.01,3.68-4.7,5.12-7.3,7.25-13.05,17.09-24.56,23.99-37.64,6.64-12.58,15.74-23.62,20.9-37.2,4.8-12.62,12.26-24.24,18.61-36.26.77-1.46,1.89-2.74,2.92-4.04.83-1.05,1.83-2.12,3.33-1.55,1.35.51,1.78,1.87,2.14,3.16.85,3.09.67,6.09-1.86,8.29-4.91,4.27-7.21,10.33-10.91,15.42-1.77,2.44-3.45,5.07-3.34,8.19.23,6.16-3.45,11.61-4.07,16.94-1.06,9.12-6.58,15.83-8.8,23.63-3.89,13.68-12.03,24.25-19.23,35.7-4.95,7.87-9.72,15.78-17.39,21.51-1.67,1.25-2.74,3.87-3.21,6.05-1.75,8.2-6.95,13.51-14.03,17.09-4.24,2.14-6.12,5.21-7.59,9.69-2.72,8.26-9.86,13.87-14.46,21.08-6.97,10.92-16.48,19.83-24.29,30.1-1.17,1.54-2.72,3.14-4.45,3.86-4.22,1.75-7.07,4.35-8.96,8.67-2.7,6.2-10.07,7.1-14.62,11.49-2.1,2.03-4.59-1.53-6.19-3.54-2.34-2.94-2.6-6.14.02-9.07,4.42-4.95,8.92-9.84,13.48-14.66,2.05-2.17,4.33-4.12,6.54-6.14,2.11-1.93,3.87-2.85,6.89-.7,4.6,3.26,8.11,2.71,9.89-.76,2.2-4.31-1.09-5.86-4.15-7.45-.82-.43-1.46-1.18-3-2.47Z"/>
  <path class="cls-1" d="M317.07,871.15c-1.35-1.6-1.57-3.34-1.12-4.91,3.04-10.5,4.36-22.08,9.81-31.15,6.72-11.17,9.95-23.09,13.69-35.09.59-1.9.59-4.18,1.67-5.71,9.12-12.98,11.33-28.99,18.95-42.6,1.95-3.48,3.81-7.02,5.97-10.37,4.86-7.57,9.78-15.09,12.45-23.8.29-.95.63-1.96,1.22-2.73,10.01-12.91,15.95-28.26,25.34-41.63,10.64-15.13,22.05-29.72,32.38-45.01,4.96-7.34,10.95-14.17,14.57-22.5,2.16-4.96,6.8-8.12,10.38-12.04,1.6-1.75,3.66-3.43,6.07-1.68,2.72,1.98,3.56,5.05,1.97,7.99-2.22,4.08-4.19,8.87-7.66,11.57-8.56,6.67-12.23,16.43-17.66,25.07-1.62,2.57-3.51,4.77-5.46,7.04-10.64,12.3-20.85,24.9-27.54,39.95-1.2,2.71-2.53,5.85-4.76,7.52-7.64,5.72-10.72,13.27-12.74,22.44-1.74,7.91-5.66,15.64-11.84,21.62-2.19,2.13-3.71,4.67-4.71,7.55-.65,1.88-.97,4.17-2.24,5.51-11.96,12.56-11.32,30.9-20.67,44.66-6.13,9.03-7.49,20.24-13.54,29.56-4.42,6.81-6.51,15.25-6.98,23.74-.38,6.79-2.74,12.94-6.34,18.71-2.69,4.3-6.13,6.8-11.22,6.31Z"/>
  <path class="cls-1" d="M1711.07,527.19c-6.91-12.07-18.01-18.92-27.98-27.03-1.25-1.02-2.6-2.41-3.02-3.88-1.6-5.6-5.75-7.42-10.84-9.03-7.5-2.37-13.69-6.98-16.83-14.53-1.81-4.35-4.76-6.79-9.06-8.55-8.97-3.67-17.56-8.1-23.35-16.4-1.62-2.32-4.42-2.84-6.59-4.3-12.36-8.33-26.27-14.06-37.61-24.26-6.49-5.84-15.24-9.2-23.11-13.44-4.43-2.39-8.78-4.87-12.14-8.63-3.37-3.77-2.75-6.26,1.6-8.7,3.48-1.95,6.95-1.78,10.59-.52,8.54,2.96,16.65,6.75,23.73,12.42,3.95,3.16,8.24,5.5,12.89,7.46,3.95,1.66,7.96,3.72,11.18,6.48,14.41,12.39,30.95,21.81,45.92,33.38.79.61,1.72,1.17,2.24,1.97,9.9,15.32,26.62,22.33,40.18,33.17,6.16,4.92,12.93,9.55,13.74,18.7.43,4.84,3.68,7.25,8.54,8.39,6.76,1.58,6.91,2.16,4.53,8.84-.87,2.44-1.07,5.28-4.64,8.45Z"/>
  <path class="cls-1" d="M1077.07,289.93c-25.27,1.95-50.44,3.3-75.19,8.57-3.25.69-6.63,2.15-9.79.92-7.56-2.95-13.99-.52-20.89,2.53-5.38,2.37-11.46,3.72-17.34,4.27-12.91,1.21-24.61,7.09-37.31,8.9-3.24.46-7.11,1.88-8.36-2.62-1.06-3.83.5-7.79,4.19-9.22,6.72-2.6,11.6-10.95,20.63-6.88.69.31,2.37-.96,3.26-1.83,2.28-2.26,5.11-2.88,8.09-3.46,17.9-3.49,35.65-8.17,53.7-10.3,18.41-2.17,36.7-6.37,55.47-5.3,11.66.67,23.21-1.14,34.76-2.47,5.72-.65,11.27.45,16.89.82,1.76.12,3.18,1.03,3.12,3.11-.16,5.69-6.76,12.75-12.39,12.92-6.31.19-12.63.04-18.83.04Z"/>
  <path class="cls-1" d="M1963.39,963.97c-.71,5.68.42,10.48,2.62,15.06,2.78,5.78,3.44,12.13,4.85,18.26.5,2.15.96,5.3-1.96,5.9-2.87.6-3.42-2.58-4.27-4.61-.89-2.14-1.49-4.4-2.13-6.63-1.39-4.85-3.28-9.44-6.92-13.08-3.72-3.72-5.98-8.4-5.83-13.41.42-14.13-6.71-26.27-9.95-39.41-1.34-5.43-3.22-10.86-3.93-16.38-2-15.59-7.72-30.17-11.52-45.26-.8-3.16-2.62-6.1-4.23-8.99-2.49-4.47-4.94-8.46-.25-13.43,2.62-2.78,1.83-7.12-2.53-7.59-7.23-.78-9.91-5.74-10.68-11.28-2.35-16.92-10.04-31.43-18.77-45.63-2.62-4.27,2.58-15.1,7.32-15.66,2.21-.26,3.75.93,4.9,2.76,1.87,2.96,2.15,6.23,1.93,9.6-.46,7.06,1.43,13.86,2.36,20.77.51,3.81,2.24,6.92,5.99,8.58,1.81.8,4.65,1.55,4.62,3.4-.23,11.74,9.5,18.4,13.88,27.75,4.28,9.12,6.08,19.03,9.95,28.07,4.35,10.16,7.32,20.61,10.54,31.05,1.66,5.39,3.19,10.85,2.95,16.62-.11,2.7.42,5.35,1.78,7.69,4.85,8.35,6.2,17.48,6,26.91-.14,6.74,4.75,12.58,3.28,18.94Z"/>
  <path class="cls-1" d="M769.3,1898.08c12.56-1.99,23.84-.82,35.71,3.04,22.44,7.29,43.75,17.4,66.1,24.81,7.56,2.5,15.04,5.39,23.22,5.48,4.01.04,8.65.26,11.23,3.34,5.92,7.08,14.22,6.79,21.9,7.93,21,3.12,41.94,6.52,62.69,10.98,4.59.99,9.19,1.37,13.79,2.01,5.15.72,8.44,8.05,5.58,12.34-2.08,3.12-5.75,2.35-8.21,1.25-7.79-3.47-16.22-3.4-24.27-5.24-11.07-2.53-22.53-1.87-33.55-4.84-5.79-1.56-11.58-2.89-17.09-5.38-6.81-3.07-13.4-7.53-21.62-4.38-1.32.51-3.29-.25-4.83-.8-19.68-6.96-40.26-11.52-59.15-20.49-16.84-8-35.48-11.19-51.79-20.5-4.82-2.76-10.61-3.82-15.93-5.72-1.52-.55-3.11-1.16-3.77-3.83Z"/>
  <path class="cls-1" d="M406.14,1558.21c-.3,2.99-.17,6.5-3.24,7.91-3.14,1.44-5.64-.99-7.92-2.96-3.69-3.2-5.4-7.59-6.76-12.05-1.39-4.55-3.71-8.27-6.8-11.96-6.46-7.72-9.06-17.66-13.81-26.4-.63-1.15-.48-2.87-1.31-3.73-9.92-10.27-9.97-25.38-17.56-36.42-6.78-9.86-10.46-20.8-13.93-31.6-4.28-13.34-10.7-25.7-15.17-38.87-1.38-4.07-3.13-8.61,1.73-11.64,2.96-1.84,8.54,1.35,10.82,6.72,6.25,14.68,12.51,29.37,16.54,44.88.25.96,0,2.23.54,2.92,12.01,15.43,11.6,36.88,25.07,51.66,2.15,2.36,3.04,5.88,4.39,8.93,2.43,5.47,4.67,10.98,8.87,15.5,1.75,1.88,2.97,4.5,3.72,6.99,1.86,6.19,5.09,11.5,8.96,16.59,3.04,3.99,5.61,8.3,5.85,13.55Z"/>
  <path class="cls-1" d="M1876.54,751.6c-5.68-6.65-8.75-11.87-10.57-18.11-2.79-9.55-6.54-18.81-9.56-28.29-1.2-3.75-3-6.66-6.62-8.21-5.54-2.38-9.03-7-11.68-11.92-6.95-12.88-16.72-23.99-22.62-37.56-2.03-4.68-6.52-8.31-9.97-12.34-5.85-6.83-11.59-13.66-12.68-23.14-.17-1.51-1.1-3.53-2.31-4.23-9.37-5.41-9.1-16.47-14.43-24.22-1.05-1.52-1.39-4.08.51-5.49,1.93-1.42,3.74,0,5.34,1.24,8.32,6.43,14.59,14.5,19.04,24,.7,1.5.76,3.89,1.88,4.52,13.62,7.67,16.52,23.43,25.93,34.41,9.73,11.35,21.37,22.07,25.19,37.69.52,2.13,2.16,4.14,3.67,5.86,6,6.83,8.39,14.73,8.7,23.78.32,9.27,1.33,18.52,6.57,26.79,2.43,3.84,3.69,8.38,3.62,15.2Z"/>
  <path class="cls-1" d="M686.97,395.58c-2.43,5.93-4.08,10.99-6.52,15.64-3.27,6.25-7.56,11.64-14.87,13.84-2.82.85-5.95,1.95-8,3.92-9.84,9.46-21.76,15.72-33.35,22.52-1.99,1.16-3.67,3.43-5.72,3.78-5.23.88-7.74,4.57-10.58,8.27-2.18,2.85-4.1,6.14-8,7.16-2.97.78-5.92,4.02-8.9.12-2.53-3.3-2.1-7.53,1.6-10.56,5.37-4.4,11.06-8.43,16.65-12.56,1.06-.78,2.56-1.06,3.43-1.98,11.01-11.6,25.76-18.34,37.48-29,8.9-8.1,20.22-12.62,29.78-19.77,1.54-1.15,3.52-1.71,7-1.37Z"/>
  <path class="cls-1" d="M587.99,1779.04c-.21,1.7.34,4.1-1.97,5-2.24.87-3.63-1.12-5.07-2.36-10.08-8.63-20.14-17.27-29.95-26.21-12.26-11.17-23.82-22.99-35.25-34.96-3.88-4.07-7.06-8.79-10.59-13.19-1.34-1.67-2.48-3.68-.55-5.23,2.41-1.94,4.59-5.37,8.56-3.36,1.46.74,2.95,1.73,3.97,2.97,5.86,7.14,13.92,12.33,18.22,20.88,1.48,2.94,3.64,5.47,6.32,7.6,10.65,8.5,21.17,17.16,31.74,25.75,4.7,3.82,8.46,8.42,11.71,13.51,1.85,2.89,2.9,5.96,2.86,9.61Z"/>
  <path class="cls-1" d="M321.64,883.94c-.86,10.31-1.38,19.25-8.3,26.22-2.51,2.53-2.73,6-2.53,9.37.71,12.53-5.22,23.9-6.22,36.13-.2,2.41-1.91,4.19-3.59,5.84-2.07,2.03-2.75,4.57-2.36,7.31,1.61,11.37-2.51,22.33-2.35,33.65.1,6.54-5.42,11.11-8.85,16.28-1,1.51-3.21,2.76-5.25,1.45-1.51-.96-1.56-2.82-1.21-4.52,3.55-17.16,4.15-34.82,8.84-51.79.8-2.88,1.02-5.99,3.03-8.34,2.4-2.79,2.32-5.75,2.09-9.26-1.18-18.23,11.96-49.17,26.69-62.35Z"/>
  <path class="cls-1" d="M1952.63,1275.75c-2.04-5.41-1.46-10.35-.25-15.21,2.74-11.03,3.14-22.39,4.95-33.53,2.62-16.12,4.49-32.19,3.96-48.55-.18-5.52,3.86-9.8,5.98-14.6,1.68-3.8,7.6-3.17,9.79.85,2.71,4.96,2.43,10.28.48,15.48-.91,2.43-2.96,2.3-5.02,1.61-3.33-1.12-5.97-.13-7.66,2.85-1.72,3.02-.88,6.07,1.33,8.29,8.15,8.17,9.97,17.67,8.44,28.94-.84,6.19-.35,12.58-2.75,18.57-1.39,3.45-2.02,6.91-1.56,10.71.81,6.56-.84,12-8.18,13.89-5.54,1.43-7.34,6.12-9.52,10.7Z"/>
  <path class="cls-1" d="M765.92,1886.49c-.48,2.67-1.9,4-3.98,4.48-3.06.7-6.55.49-8.5-1.67-4.45-4.95-10.39-5.26-16.12-6.73-9.38-2.39-18.09-6.14-25.98-12.12-8.19-6.21-17.28-11.14-26.93-14.89-2.86-1.11-5.09-2.09-5.34-6.07-.58-8.95-2.58-10.91-11.6-13.21-1.91-.49-4.17-.15-4.53-2.79-.23-1.71.39-3.43,1.74-4.47,1.88-1.46,3.87-.66,5.42.72,11.02,9.84,25.1,14.88,36.88,23.58,4.18,3.09,9.47,4.75,14.37,6.77,4.96,2.05,9.69,4.3,13.51,8.22,2.68,2.75,6.29,3.54,9.89,4.32,5.92,1.28,11.33,3.84,16.35,7.13,2.48,1.63,4.62,3.8,4.84,6.7Z"/>
  <path class="cls-1" d="M1190.01,1975.75c-12.95-1.63-25.71,1.68-38.6,1.56-3.91-.04-9.29.09-8.98-5.17.32-5.32,5.41-4.62,9.44-3.86,2.67.51,5.38.79,7.75-.69,7.95-4.97,17.23-4.61,25.94-6.26,5-.94,10.45-1.34,15.39,2.01,3.92,2.66,8.25,2.23,11.93-1.03,2.05-1.81,4.34-3.85,6.99-3.28,9.81,2.13,19.02-1.84,28.56-2.27,2.91-.13,6.25-.96,7.21,3.24.88,3.87-1.64,8.53-5.52,9.29-3.88.76-7.92,1.06-11.88,1.01-5.63-.08-11.32-1.17-16.62,1.61-4.19,2.2-6.62-3.55-9.93-2.39-3.16,1.1-4.3,5.77-8.76,5.67-4.3-.1-8.62.36-12.93.57Z"/>
  <path class="cls-1" d="M722.95,389.69c-3.59.05-6.37-1.29-7.81-4.88-1.41-3.52.51-5.72,3.01-7.64,4.28-3.29,9.06-5.64,14.28-6.95,3.61-.91,7.12-2,9.87-4.54,5.3-4.9,11.18-8.25,18.64-8.43,3.26-.08,5.27-2.62,7.33-4.79,3.86-4.08,8.59-6.3,14.18-6.4,4.16-.07,7.7-1.59,11.28-3.53,2.87-1.56,6.04-1.28,7.99,1.67,2.15,3.25.14,5.69-2.4,7.63-3.71,2.83-7.47,5.72-12.36,6.12-5.75.47-10.79,3.35-16.32,4.57-2.73.6-4.79,2.1-6.3,4.51-1.04,1.67-2.12,3.62-3.71,4.61-11.28,7.08-23.25,12.8-35.65,17.63-.61.24-1.3.27-2.04.42Z"/>
  <path class="cls-1" d="M1213.8,275.78c8.51.89,17.17,1.05,25.35,4.38,4.72,1.93,9.83,1.4,14.79,1.36,5.72-.05,10.58,1.39,13.25,6.95,2.06,4.28,6.16,5.82,9.94,7.87,1.45.78,2.94,1.96,2.6,3.84-.4,2.23-2.45,2.01-3.99,1.76-11.14-1.78-22.44-2.99-33.35-5.74-9.78-2.47-19.54-3.77-29.53-4.01-3.32-.08-6.62-.06-9.87-1.07-3.63-1.12-5.6-3.22-5.49-7.2.12-4.25,1.94-7.07,6.27-7.61,3.28-.41,6.63-.37,10.02-.54Z"/>
  <path class="cls-1" d="M458.63,1649.26c-4.79-.22-7.44-2.95-10.06-6.91-10.13-15.34-19.51-31.3-32.86-44.25-5.7-5.53-8.76-12.48-10.97-19.82-1.56-5.18,1.38-7.6,6.64-5.85,3.99,1.33,7.07,3.65,7.82,8.17.5,3,1.21,6.09,3.99,7.73,10.35,6.13,14.77,16.84,20.39,26.5,4.32,7.43,7.33,15.62,15.49,20.13,2.29,1.27,3.54,3.88,4.62,6.36,2.55,5.86,1.03,8.29-5.06,7.93Z"/>
  <path class="cls-1" d="M1066.98,1975.94c-11.55-1.19-23.21.6-34.71-2.11-4.64-1.09-8.06-2.89-8.92-7.93-.67-3.93.58-6.55,4.85-6.98,1.64-.17,3.31-.14,4.97-.12,19.56.25,38.87,4.07,58.44,4.17.98,0,2.01.21,2.91.58,2.32.97,5.57.92,5.83,4.44.22,3.05-4.2,7.83-7.53,7.89-8.62.15-17.24.05-25.86.05Z"/>
  <path class="cls-1" d="M1979.21,1084.61c.13,2.94-.01,5.52-2.11,6.87-4.05,2.61-6.94,6.04-9.02,10.32-.6,1.24-1.97,2.03-3.28,1.21-.68-.42-1.2-1.67-1.21-2.56-.21-20.47-3.79-40.81-2.65-61.31.38-6.83-.7-13.15-3.02-19.45-.59-1.59-.68-3.77,1.02-4.41,2.35-.89,3.86,1.09,4.13,3.11,1.46,10.55,6.16,19.42,13.12,27.35,1.15,1.32,1.37,3.72,1.48,5.64.62,11.25-.35,22.57,1.56,33.22Z"/>
  <path class="cls-1" d="M556.6,501.27c-3.29,7.61-6.03,13.47-10.76,18.05-9.53,9.21-18.76,18.71-28.42,27.81-8.4,7.91-16.14,16.55-25.05,23.97-1.69,1.4-3.23,4.2-5.75,2.28-2.07-1.58-1.28-4.36-.54-6.54,1.52-4.48,4.42-8.1,7.6-11.54,14.15-15.31,29.37-29.51,44.45-43.88,5.03-4.79,11.17-6.32,18.47-10.13Z"/>
  <path class="cls-1" d="M324.24,1369.05c-.09,5.18-1.55,8.33-5.96,9.04-4.04.65-5.97-1.84-7.34-5.26-6.88-17.11-9.81-35.17-12.87-53.19-.11-.65-.09-1.34,0-1.99.57-3.9.43-9.49,4.53-10.15,5-.8,4.92,5.18,6.1,8.66,1.49,4.39,2.81,8.94,3.35,13.52.98,8.32,2.04,16.26,7.64,23.26,3.79,4.73,2.74,11.52,4.55,16.13Z"/>
  <path class="cls-1" d="M1940.3,1383.32c-3.16-11.61-8.97-23.02,2.16-33.92,5.61-5.49,6.89-13.51,8.77-20.9.58-2.28.2-4.88-2.95-5.33-2.56-.37-5.9.32-5.84-3.63.06-3.62.38-7.38,3.17-10.23.68-.69,1.6-1.17,2.45-1.68,6.75-4.06,10.04-10.28,11.44-17.83.75-4.06,1.32-8.41,6.11-11.33,1.53,4.5-.14,7.88-1.08,11.19-8.76,31-12.28,63.35-24.22,93.66Z"/>
  <path class="cls-1" d="M281.12,1224.49c7.47,4.87,12.92,10.01,14.43,17.92,2.68,13.98,5,28.03,7.23,42.09.56,3.55.86,7.29-.45,10.84-.76,2.06-2.34,3.17-4.49,3.38-2.24.21-4-.84-4.76-2.83-.94-2.46-1.59-5.05-2.08-7.64-1.42-7.48-2.89-14.97-3.98-22.5-1.51-10.41-1.46-21.09-6.23-30.9-1.25-2.58-1.17-5.79.33-10.35Z"/>
  <path class="cls-1" d="M1445.82,1902.07c1.16,3.79-.76,6.86-1,10.12-.31,4.2-2.74,6.61-6.52,7.94-12.52,4.43-25.04,8.88-37.58,13.27-1.24.43-2.61.57-3.93.65-1.64.1-3.56.26-3.97-1.93-.33-1.76.55-3.35,2.07-4.19,1.42-.79,3.09-1.11,4.65-1.66,1.67-.59,3.19-1.62,3.08-3.47-.39-6.4,4.72-7.33,8.89-9.09,1.81-.76,3.86-1.24,5.81-1.31,8.89-.33,16.91-2.61,23.29-9.27,1.06-1.11,2.71-2.01,5.21-1.04Z"/>
  <path class="cls-1" d="M1148.73,289.95c-2.35,0-4.68.1-6.99-.02-6.74-.36-14.02-6.44-15.72-12.96-.72-2.76,1.17-3.97,3.13-3.94,11.25.16,22.46-2.21,33.7-.66,5.97.82,6.95,3.37,4.64,9.1-3.58,8.89-10.57,10.04-18.76,8.48Z"/>
  <path class="cls-1" d="M1342.71,1934.63c6.01-1.69,11.95-3.7,18.05-4.99,6.5-1.38,13.09-2.23,19.22-5.02,2.97-1.35,6.04-1.67,7.33,2.25,1.09,3.32,1.33,7.76-2.5,8.51-8.18,1.6-14.31,6.5-21.1,10.52-3.59,2.13-7.81,1.86-11.06-1.43-3.02-3.07-6.51-5.53-10.29-7.66.12-.73.23-1.46.35-2.19Z"/>
  <path class="cls-1" d="M1923.19,1382.27c3.08,5.06,1.12,7.69.34,10.46-1.66,5.94-1.47,7.02,4.69,8.05,4.89.81,4.73,2.95,4.27,6.75-.95,7.81-4.68,14.41-8.28,21.1-2.32,4.32-6.9,3.44-10.62,3.78-2.77.25-3.47-2.7-3.76-5.01-.52-4.06,1.31-7.04,4.83-8.98.86-.47,1.9-.6,2.78-1.05,5.43-2.79,6.89-5.27,3.51-10.03-6.35-8.95-.77-15.86,2.25-25.07Z"/>
  <path class="cls-1" d="M814.45,347.81c-2.09-.09-5-.86-6.23-4.08-1.27-3.32-.9-6.64,1.93-9.11,4.35-3.81,9.6-6.11,15.23-6.74,4.96-.55,9.88-.41,14.01-3.89.99-.83,2.67-.96,3.46.44.41.71.26,1.96-.04,2.82-2.76,8.18-19.47,20.72-28.36,20.55Z"/>
  <path class="cls-1" d="M479.77,1663.1c2.86-.55,4.41.98,5.63,2.38,6.47,7.45,12.79,15.04,19.14,22.59,1.07,1.27,2.25,2.72,1.2,4.4-.96,1.53-2.81,1.4-4.45,1.5-13.36.78-23.16-9.11-22.19-22.57.19-2.59-.86-5.26.67-8.3Z"/>
  <path class="cls-1" d="M651.08,1834.4c-8.9-6.27-17-13.74-27.18-18.08-2.78-1.18-4.81-3.7-2.3-7.26,3.41-4.84,7.8-6.9,11.69-4.68,5.25,3,9.93,6.9,12.63,12.44,2.58,5.29,4.6,10.85,6.86,16.29-.57.43-1.14.86-1.71,1.29Z"/>
  <path class="cls-1" d="M1290.3,1961.06c-7.35-2.52-13.99-1.07-20.47,2.18-2.04,1.02-4.56,2.29-5.95-.79-1.25-2.77-1.99-5.89.97-8.15,1.55-1.18,3.42-2.23,5.3-2.64,9.27-2.01,18.43-1.95,27.19,2.34,1.2.59,2.63,1.23,2.72,2.63.14,1.99-1.47,2.85-3.14,3.23-2.24.51-4.53.82-6.63,1.19Z"/>
  <path class="cls-1" d="M292.84,1042.6c.17,5.86-1.2,11.23-4.96,15.83-1.29,1.58-2.91,2.9-5.08,2.6-2.64-.37-3.82-2.38-4.53-4.73-2.25-7.44,1.02-16.35,7.75-21.09,1.36-.96,2.75-2.07,4.51-1.53,2.47.75,2.19,3,2.3,4.94.07,1.32.01,2.66.01,3.99Z"/>
  <path class="cls-1" d="M1723.77,533.5c.19-5.71,2.91-10.85,5.85-10.34,4.97.85,5.48,5.23,5.92,9.17.42,3.78,1.44,7.04,4.38,9.7,2.32,2.1,1.89,4.76.52,7.31-.7,1.3-1.8,1.95-3.25,1.61-3.25-.76-13.31-13.11-13.47-16.44-.02-.33.03-.66.05-1Z"/>
  <path class="cls-1" d="M276.21,1095.15c0-5.33-.08-10.59.03-15.84.07-3.03.81-5.95,2.74-8.4,1.5-1.91,3.41-3.32,5.99-2.78,2.73.57,3.6,2.82,3.71,5.25.16,3.32.26,6.66-.02,9.96-.35,4.13.17,9.15-6.86,7.88-2.45-.44-2.44,3.77-5.59,3.92Z"/>
  <path class="cls-1" d="M872.25,320.63c.07,6.96-8.94,13.82-15.81,11.99-2.01-.53-2.37-2.02-1.77-3.81.94-2.79,1.68-5.57,2.15-8.52.79-4.99,7.51-8.14,12.23-6.2,2.35.96,3.16,2.63,3.2,6.54Z"/>
  <path class="cls-1" d="M1980.1,1124.36c-2.25,6.72-1.6,14.44-2.55,21.98-.41,3.22-1.52,6.95-6.18,6.03-3.38-.67-5.03-4.78-2.94-9.03,2.44-4.95,3.32-9.99,3.43-15.36.05-2.34.73-4.61,2.27-6.47,1.05-1.26,2.2-2.77,4.11-2.07,1.91.7,1.6,2.62,1.85,4.92Z"/>
  <path class="cls-1" d="M1903.03,1443.32c3.75,5.96,4.87,11.92,6.8,17.31,1.52,4.24-2.14,9.11-5.03,13.32-9.34-13.03-9.73-18.6-1.77-30.63Z"/>
  <path class="cls-1" d="M275.1,1145.5c-.31-6.06,3.55-9.94,7.18-13.67,1.93-1.98,3.57.14,4.38,2.04,3.05,7.18-.34,13.64-2.85,19.96-1.02,2.56-4.04,1.51-5.9-.22-2.37-2.2-2.33-5.33-2.81-8.11Z"/>
  <path class="cls-1" d="M891.49,305.62c3.27,0,6.09.75,6.36,4.66.21,3.06-7.62,11.42-10.2,11.13-2.17-.25-7.06-7.65-6.82-10.33.26-2.98,5.25-5.53,10.67-5.46Z"/>
  <path class="cls-1" d="M1174.07,283.98c-.3-3.71,3.45-7.68,7.42-7.86,4.88-.22,8.63,2.93,8.73,7.52.08,3.65-1.05,6.61-5.27,7.11-4.57.54-10.6-3.26-10.88-6.77Z"/>
  <path class="cls-1" d="M288.29,1182.05c2.73,10.06-2.38,17.23-7.19,25.55-5.7-11.72-3.62-18.6,7.19-25.55Z"/>
  <path class="cls-1" d="M1752.3,555.74c5.88,1.08,10.99,13.42,7.87,18.27-.8,1.25-1.83,1.83-3.32,1.28-3.81-1.39-9.61-12.2-8.4-15.88.64-1.96,1.85-3.49,3.86-3.68Z"/>
  <path class="cls-1" d="M601.01,1784.47c6.48.63,10.24,3.7,13.77,6.81,2.04,1.8,4.86,4.6,1.48,7.26-2.79,2.19-6.6,1.78-8.69-1.31-2.44-3.6-4.05-7.76-6.56-12.76Z"/>
  <path class="cls-1" d="M1109.52,1971.06c6.1-5.08,11.73-7.62,18.66-4.23,1.56.76,2.72,2.01,2.36,3.93-.43,2.22-2.3,2.49-3.85,1.88-5.26-2.06-11.05,1.19-17.16-1.58Z"/>
  <path class="cls-1" d="M1888.78,750.93c-3.5.11-5.48-2-6.63-4.91-1.05-2.66-2.93-5.41-.84-8.35.89-1.25,2.5-1.25,3.46-.23,2.94,3.13,5.33,6.69,6.31,10.92.31,1.32-.71,2.44-2.3,2.57Z"/>
</svg>