<?xml version="1.0" encoding="UTF-8"?>
<svg xmlns="http://www.w3.org/2000/svg" version="1.1" viewBox="0 0 3401.1 3402">
  <defs>
    <style>
      .cls-1 {
        fill: #fff;
      }
    </style>
  </defs>
  <!-- Generator: Adobe Illustrator 28.6.0, SVG Export Plug-In . SVG Version: 1.2.0 Build 709)  -->
  <g>
    <g id="Layer_1">
      <g>
        <path class="cls-1" d="M1396.3,3371.3c-6.6,2.8-12.8,1.3-18.6-.9-5.1-1.9-10.2-2.9-15.6-2.9-4.7,0-9.4-.3-13.8-1.8-17.7-5.8-36.6-7.1-53.8-14.5-3.5-1.5-7.2-1.3-10.8-1.9-11.8-2.1-23.7-4.1-33.6-11.6-2.6-1.9-5.5-2.4-8.6-1.7-5.1,1.2-10,.3-14.5-2-6.9-3.5-14.9-2.5-22.1-5.8-5.6-2.6-12.1-3.4-17.2-7.5-1-.8-2.5-1.3-3.7-1.3-16.2.2-30.2-7.6-44.8-13-16.8-6.2-33.7-12.3-49.7-20.5-3.5-1.8-7.6-2.4-11.5-3.1-10.3-1.7-19.8-5.6-28.5-11.4-2.2-1.5-4.7-2.6-7.2-3.3-1.9-.5-4.1-.7-5.8-1.6-22.1-11.9-47.4-17-68.1-32.1-5.5-4-13.4-4.2-17.3-11-.3-.4-1.2-.8-1.8-.7-9.1,1.9-14.8-4.9-21.7-8.5-3-1.6-6-2.8-9.2-3.9-5.4-1.8-10.7-4-15.1-7.7-5.4-4.5-11.3-8.3-18-10.5-.6-.2-1.4-.4-1.8-.9-11.1-12-28.1-13.2-40.7-21.8-10.5-7.2-22.5-12.6-31-23-4.7-5.7-12.6-8.6-19.6-11.2-11-4.1-20.4-11.1-30.9-16-1.5-.7-2.9-1.8-3.9-3.1-8.7-11.1-20.7-17.3-33-23.2-1.2-.6-2.5-1-3.5-1.8-18.1-14.6-38.5-25.9-55.5-42.2-8.1-7.7-18.4-13-27.4-19.8-15.7-11.7-30.5-24.4-44.7-38-8.5-8.1-15.4-18.4-27-23.1-.9-.4-1.9-1-2.4-1.8-6.3-9.3-16-15.3-23.1-23.7-1.3-1.5-2.5-3.2-4.2-4.2-12.8-8.1-22.3-20-33.2-30.2-.7-.7-1.6-1.4-2-2.2-3.6-8.2-9.1-14.4-17.9-17.2-1.2-.4-2.7-1.5-3-2.6-2.7-9.5-12.4-13.3-17.1-21.1-2.4-4-7.7-4.7-9.5-8.5-5.3-11.1-18.3-15.3-23.5-26.6-1.4-3-5.3-4.9-8.2-7.2-5.8-4.7-10.4-10-13.5-17-4-9-11.5-15.4-18.4-22-14.9-14.5-27.1-31.1-39.3-47.7-5.5-7.5-10.8-15.1-16.8-22.3-5.1-6.1-10.1-12.3-13.1-19.9-3.1-7.9-9.8-13.4-14.9-19.9-14.1-18.5-28.2-37-38.7-58-2.1-4.2-4.6-8.1-8-11.4-2.7-2.6-4.4-5.8-5.5-9.4-1-3.2-2.1-6.3-4.6-8.8-4.8-4.9-8.2-10.4-8.9-17.4-.3-3.3-2.2-5.6-5-7-4.2-2.1-6.7-5.6-8.1-9.8-4.1-12.6-12.6-22.6-18.8-34-1.4-2.6-3.7-4.9-4.7-7.6-1.2-3.3-6.3-6.5-2-10.4,2.3-2.1,13.8,1.6,15.1,4.8,4.9,12.3,14.2,21.7,21.1,32.7,3.7,5.9,6.8,12.2,12.6,16.5,1.7,1.3,2.8,3.7,3.8,5.8,3.5,6.8,7.3,13.4,12.2,19.4,4.2,5.2,5.7,10.8,4.6,17.7-2.2,13.6,2,20.4,14.7,25.7.9.4,1.9.8,2.8,1.1,5.5,2.2,6.9,6,4.2,11.4-2.1,4.3-1.1,8,3.6,8,11.7,0,16.4,7.7,21.9,15.8,4.3,6.3,9.1,12.2,12,19.4,1.4,3.3,4.1,6.1,6.4,8.8,2.1,2.5,4.6,4.8,7,7.1,6.7,6.7,9.1,16.4,15,23.4,6,7,13.6,12.7,17.9,21.2.5.9.8,1.9,1.5,2.6,13.3,13.6,23.6,29.6,36,43.9,7.6,8.7,15.5,17.3,21,27.6,1.6,3,3.5,5.6,6.3,7.6,11.9,8.4,21,19,25.7,33.1,1.4,4.2,5.5,5.8,9,7.5,4.5,2.1,7.6,4.9,9,9.9,1.2,4.3,4.4,7.3,7.9,10,7.9,6.1,15.4,12.9,23.8,18.2,17.4,11,29.4,26.6,39.4,44.2,5.1,9,10.7,17.6,19.4,23.8,5.9,4.1,11.8,7.6,19.2,7.4,6.4-.2,10.9,2.8,13.9,8.1,7.3,13.2,19.4,21.8,30.4,31.4,4.6,4,10.2,6.3,16.1,7.8,5.9,1.6,10.2,4.4,11.9,10.7,1.8,6.7,7.7,9.9,13.2,12.9,4.1,2.2,8.5,3.8,12.8,5.5,4.1,1.6,6.9,4.1,7.2,8.6,1.2,14.9,11.8,20.7,24.2,24.2,3.9,1.1,7.8,1.6,10.8,4.5,1.8,1.7,4.2,2.2,6.5,1.4,5.4-2,10,0,13.9,3.2,11.2,9.1,24.1,15.4,35.5,24.1,3.2,2.4,6.7,4.5,8.3,8.4,1.2,2.8,3.1,4.1,6.3,3.5,4.3-.7,7.9,1.1,11,3.7,3.4,2.9,7.6,4.1,11.2,6.4,12.8,8.2,27.1,14.3,37.4,26.2,4.8,5.5,11.5,7.8,18.3,9.6,14.3,3.8,27.2,10.7,39.4,18.5,6.5,4.2,14.3,7.4,17.8,15.5,1.3,3,4.8,3.4,7.9,2.6,6.8-1.8,12.3.8,17.8,4.4,2.5,1.6,5.3,2.8,7.9,4.1,3.3,1.6,7.9,2.4,9.6,5,5.5,8.2,12.8,9.3,21.8,9.2,5,0,10.5,2.4,15,4.9,12.2,6.7,26.3,9.5,37.3,18.8,4.1,3.5,10.1,4.7,14.1,9,2.5,2.6,6.2,1.9,9.5,2,11.2.5,22,2,28.5,12.9,1,1.7,2.6,2.1,4.3,1.4,4.8-2,9,.4,13.6,1.1,23.7,3.7,44.2,16.4,66.7,23.6,10.8,3.5,22,4.8,32.8,8.2,15.1,4.9,30.8,8.1,43.6,18.4,8.5,6.9,18.3,10.8,29.1,12.3,20.8,2.9,41.5,6.3,61.8,11.6,11.5,3,22.8,6.2,33.1,12.8h0,0Z"/>
        <path class="cls-1" d="M3151.1,820.5c-6.1-3.8-12-5.8-18.2-6.5-3.2-.3-5.4-2.5-6.9-5.3-7.4-14.2-17.9-26.3-25.1-40.8-4.6-9.4-12-17.6-19-25.6-5.2-5.9-5.3-13.9-9.4-19.4-3.9-5.3-11.3-7.8-14.5-14.4-3.8-7.9-9.3-14.5-15.6-20.6-5.7-5.6-10.2-12.1-14.6-18.9-10.7-16.4-23.4-31.3-36.5-45.8-5.1-5.7-10.5-11-12.9-18.7-1.5-4.8-4.3-8.9-9.8-10.6-4-1.2-6.9-4.4-8.3-8.2-2-5.3-6.1-8.3-10.3-11.7-9.8-8-18.6-17.1-27.1-26.6-4.6-5.2-9.2-10.5-13.8-15.8-1.7-2-4.3-3.9-4.9-6.2-2.1-8.8-9-12.8-16-16.8-4.1-2.3-7.9-5.1-10.7-8.9-5.1-7.1-11.8-12.5-18.2-18.3-8.9-8.1-18.4-15.4-27.6-22.9-6.5-5.3-11.6-11.9-17.3-17.9-9.9-10.4-21.8-18.5-33.1-27.2-12.6-9.6-22.9-21.8-36.6-30.3-10.4-6.4-20.7-13.5-27.8-23.9-.7-1-2.1-1.8-3.3-2.2-13.3-4.2-22.6-13.7-31.8-23.4-1.4-1.4-2.8-3.2-4.6-3.8-9.8-3-17.4-9.8-25.5-15.4-11.5-7.9-23.1-15.7-34.4-23.9-9.7-7-18.7-14.9-27-23.6-7.5-7.9-18.3-9.4-27.9-12.7-11.8-4.1-22.2-10.3-32.6-16.8-8.1-5.1-17.1-8.7-25.7-12.9-3.6-1.8-7.2-3.5-10.8-5.2-6.9-3.4-12-8.3-13.8-16.1-.9-3.8-3.7-7-4-10.9,2.6-2.5,4.8-1,6.8-.2,13.1,5,25.7,11,36.3,20.5,2.5,2.2,5.4,3.7,8.5,5.1,17.6,8,35.2,15.4,50.7,27.6,7.6,6,15.9,12,25.6,15.3,2.2.8,4.3,1.9,6.2,3.2,17.5,12.1,35.9,22.7,52.7,35.9,14.6,11.5,30.3,21.2,45.8,31.4,13.6,8.9,26.6,19,38.5,30.1,9.8,9.2,21.8,15.2,31.4,24.5,6.2,6,12.9,11.2,17.6,18.8,4.3,7,10.5,12.7,18.6,16.1,8.7,3.6,15.6,9.5,22.2,16.5,8.4,8.9,18.3,16.4,27.8,24.3,3.9,3.2,7.7,6.4,10.8,10.3,8.2,10.5,17,20.5,28.2,28.1,1.1.7,2.3,1.7,2.8,2.9,4,9.4,12.4,14.7,19.6,21,5.8,5.1,10.9,10.6,15.7,16.6,8.7,10.8,17.2,21.9,28.7,30.1.8.6,1.8,1.2,2.2,2,7.3,14.6,22.4,23.6,28.2,39.3.9,2.6,2.6,4.5,5,6,11.5,7.1,19.9,17.2,27.6,28.3,3.2,4.5.7,10.5,4.3,13.7,3.2,2.9,8.3,3.4,11.6,7.2,4.4,5.2,6.5,11.6,10.1,17.2,6.3,9.9,14.4,18.2,22.1,27,3.1,3.6,6.5,7,7,11.8.6,5.4,3.7,8.8,6.9,12.8,12,14.9,26.4,27.9,33.7,46.4,4.1,10.5,13.3,18.2,18.4,28.4,1.4,2.8,4,5.2,3.9,10.3h0s0,0,0,0Z"/>
        <path class="cls-1" d="M742.4,308.2c-2.5-8.4,2.1-11.8,8.2-14.3,9.7-3.9,18.1-9.3,24.9-17.6,5.5-6.7,12.5-11.9,21.6-13.4,3.3-.5,6.3-2.2,8.9-4.3,3.2-2.5,6.5-4.7,10.6-5.4,2.8-.5,5-1.9,6.4-4.4,5-8.8,13.6-12.6,22.4-15.6,5.5-1.9,10.3-4.5,14.7-8.2,8.8-7.3,18.9-12.4,28.7-18.1,1.7-1,3.6-2,5.5-2.2,10.5-.9,17.5-8.8,26.1-13.3,3.2-1.7,6-4.4,9.6-5.1,6.8-1.4,12.4-4.3,17-9.6,2.2-2.6,5.8-3,9-3.8,14.2-3.9,27.3-9.6,39.7-17.9,11.5-7.7,24-14.6,38.4-15.6,4.1-.3,6.6-2.7,9.5-4.9,9-6.9,30.2-14.5,43.4-15.1-3.8,4.4-8.4,6.3-12.5,8.8-11.2,6.6-22.2,13.5-31.7,22.5-7.3,7-17.2,8.3-26.2,11.5-2.8,1-5.8,1.6-8.3,3.2-12.4,7.9-26.3,12.7-39.5,18.9-2.2,1-4.1,2.1-5.8,3.7-1.9,1.9-4.3,3.9-6.9,3.7-7.6-.6-12.3,3.6-16.7,8.9-1.2,1.5-3,2.9-4.8,3.6-15.2,5.7-27.8,17.1-44.3,20.2-7,1.3-12.5,6-17.6,10.9-2.1,2.1-4.2,4.9-6.8,5.8-9.2,3.2-16.8,9.1-25.4,13.3-7,3.4-13.6,7-19.2,12.4-4.6,4.4-9.7,8.3-15.3,11.1-17.9,9-33.4,21.7-51.3,30.9-8.1,4.2-14.2,11.8-22.1,17-7.8,5.1-15.2,10.8-23.4,15.2-1.8.9-3.8,1.8-4.9,3.3-7.3,9-17.7,14-26.8,20.7-.5.4-1.3.6-1.6,1.1-7.4,10.9-19.6,14.4-30.5,19.8-13.6,6.8-25.3,16.1-34.1,28.6-7.3,10.4-16.1,19.3-25.8,27.6-6.6,5.6-12.7,11.6-20.3,15.9-2.6,1.5-4.6,3.7-6.4,6.2-5.5,7.9-12.5,13.8-21.9,16.2-2.9.7-4.8,2.3-5.1,5.3-1,10.1-9.2,15-15.4,21.3-11.1,11.4-24.4,20.6-33.8,33.7-2.5,3.5-5.7,6.5-9.2,9.1-3.2,2.4-6.6,4.8-9,7.9-5.1,6.5-10.8,11.6-19.4,12.8-4.1.6-7,3.6-9.5,6.9-3.5,4.5-6.8,9-10.3,13.5-1.4,1.8-2.8,3.8-5,4.7-1.6.7-3.3.8-4.7-.4-1.5-1.2-1.3-3-.8-4.6,1.1-3.2,3.1-6.2,5.8-8,10.1-6.9,16.2-17.2,23.7-26.4,4-4.8,7.9-10.1,14.8-11.2,3-.5,3.9-3.3,5.3-5.5,12.1-17.9,25-35.2,42.8-48,6.5-4.7,11-11.4,16.7-16.9,16.9-16,33.5-32.3,50.8-47.9,12.7-11.4,25.9-21.9,40.7-30.4,3.2-1.9,5.9-4.3,8.1-7.2,7.8-10.2,18-17.6,28.3-25.1,4.1-3,9.4-1.4,13.1-3.9,3.8-2.6,3.2-8.5,7.2-11.6,12.1-9.3,24-19,36.1-28.3,7.1-5.5,16.3-7.5,23.3-13.5,3.4-2.9,6.1,1.2,10.9,1.4h0Z"/>
        <path class="cls-1" d="M2383.5,3255.1c4-9.9,10.1-17.6,17.3-24.4,3.3-3.1,7.8-3.6,12.3-2.7,5.9,1.1,10.4-.9,14.2-5.2,11.8-13,27.9-18.9,43.2-26.2,3-1.4,6.6-1.9,9-4.2,7.7-7.2,17.1-9.9,27.1-11.4,7.3-1.1,14.8-2.8,20.7-6.9,10.7-7.3,21.5-14.6,32.3-21.8,16.2-11,31.2-23.7,50-30.2,3.2-1.1,6-2.9,8.3-5.3,8.4-8.8,18.1-15.6,29.1-20.7,3.7-1.7,6.7-4,9.4-7.1,4.3-5.1,9.8-8.8,15.4-12.6,11.8-8,24-15.4,35.1-24.6,10.2-8.5,20.6-16.7,32.1-23.5,2.5-1.5,4.9-3.5,7-5.6,4.3-4.3,8.5-8.4,15-9.1,3.1-.3,5.3-2.5,6.7-5.4,4.3-9.1,11.9-15.3,19.5-21.1,7.6-5.8,14.5-12.7,23.9-15.9,3.6-1.2,6.1-3.9,7.7-7.4,2.5-5.7,6.6-9.9,11.3-13.8,11-9.1,21.3-19,33-27.3,3.3-2.4,5.7-5.6,8-8.8,3-4.1,6.2-7.9,10.7-10.3.6-.3,1.5-.5,1.7-1,4.8-10.3,15.2-15.4,22.5-23.5,11.4-12.8,21.7-26.9,35.9-37.1,1.1-.8,2.3-1.6,2.9-2.7,8.7-15.3,22.6-25.8,34.3-38.4.7-.7,1.5-1.4,1.9-2.3,8.6-21,26.2-34.9,40.5-51.4,5.5-6.3,9.3-13.7,14.1-20.5,2.5-3.6,5.2-6.9,8.5-9.7,2.4-2,5-3.9,7.9-.9,2.6,2.7,5.2,5.9,2.5,9.7-4.5,6.2-7.6,13.4-13,18.9-5.4,5.5-10,11.6-13.7,18.4-.5.9-.8,1.9-1.5,2.6-11,10.1-18.5,23.3-28.9,34-3,3.1-6.4,5.9-8.9,9.4-5.1,7.2-10.9,13.3-19.5,16.4-3.6,1.3-6,4.3-7,8-1.6,5.6-4.1,10.5-9.6,13.3-1.1.6-2.3,1.7-2.7,2.8-3.6,10.7-13,16.6-20,24.5-6.1,6.9-10.9,15.2-20.4,18.6-1.4.5-2.2,3.2-3.1,4.9-1.2,2.4-2.4,5.4-4.7,6.2-8.1,2.9-12.6,9.1-16.4,16.2-.3.6-.9,1.1-1.4,1.4-10.3,5.9-16.6,16-25.1,23.9-8.8,8.2-18.5,15.2-28.2,22.3-1.3,1-3.6,1.4-4.2,2.6-4,8.1-11.9,12.2-17.8,18.2-4.4,4.5-8.9,8.9-13.7,13-9.6,8.1-20.8,14.2-29.2,24-2.7,3.1-6.9,5.3-10.9,6.9-12.3,4.8-21.9,13.1-30.6,22.7-3.1,3.4-7.1,4.8-11.3,6.1-4,1.3-7.4,3-8.1,7.8-.6,4.4-3.8,6.8-7.5,8.8-4.4,2.3-8.8,4.8-13.3,6.9-3.7,1.6-7.2,3.4-9.7,6.7-2.9,3.7-6.6,6.6-11.2,8-2.3.7-4.4,1.7-5.7,3.8-4.2,6.9-11.1,10.3-17.6,14.4-16.9,10.6-34.4,20.4-51.2,31-15.4,9.7-31.8,17.7-47,27.9-1.9,1.3-3.8,2.6-5.4,4.4-1.3,1.5-2.7,3.2-4.4,4-19.9,8.2-35.8,23.2-56,31.4-16.8,6.8-33.3,15-49.5,23.4-8.5,4.4-17.5,8.1-25.8,13-4.8,2.8-10.1,4.9-16.7,2.9h0s0,0,0,0Z"/>
        <path class="cls-1" d="M1641.6,3382.7c19.2,1.1,37.4-3.6,55.5,1.4,1.8.5,4.1.2,5.9-.4,5.8-2,11.1-1.5,16,2.4,3.3,2.7,6.6,2.6,10-.1,5.3-4.3,11.7-3.9,18.1-4.1,23.2-.7,46.4-1.6,69.6-2.3,11.9-.4,23.5-2.5,35.2-2.9,12.7-.5,25.2-1.7,37.6-4.4,2.9-.6,6-1.8,8.8-1.3,10.2,1.6,19.7-1.8,29.5-2.9,5-.6,9.8-1.2,14.8,0,3.2.8,6.6.6,9.8-1,11.8-6,24.7-7.5,37.6-8.6,1.7-.1,3.4,0,5-.5,20.4-6.4,41.6-8.9,62.3-13.6,15.2-3.4,30.3-7.5,45.6-10.4,2.6-.5,5.3-1.2,7.9-.5,3.5.9,6.3.2,9.3-1.9,4.4-3.1,9.8-4.3,15.1-4.7,6.5-.4,12.2-2.6,18.1-4.9,15.2-5.9,31-10.2,47.3-11.4,5.2-.4,9.8-1.9,13.8-5.1,8.4-6.5,18.3-9.3,28.1-12.5,4.6-1.5,9.3-1.6,13.3,1.8,3,2.5,7.6,4.8,7.3,8.9-.3,4.3-5.6,3.8-8.7,5.3-5.8,2.7-11.7,4.7-18.2,5-4.8.2-8.2,4.6-12.8,5.4-15.7,2.8-29.6,11.6-45.9,12.9-7,.6-13.8,4.5-21.4,3.4-1.1-.2-2.6.6-3.7,1.2-17.6,10-37,14.2-56.8,16.8-1.3.2-2.9-.2-3.9.4-12,7.6-26.3,6.2-39.2,10-19.8,5.8-40.2,9.3-60.7,11.4-1,.1-2.1,0-3,.3-15.9,7.3-33.3,5.1-49.9,8.1-14.4,2.6-28.8,4.6-43.3,6.3-14.5,1.7-29.1,2.8-43.7,3.9-14.9,1.1-30-.3-44.5,2.2-14.1,2.4-28.2.4-42.3,3.9-13.8,3.4-28.6.2-42.8.9-16,.9-31.9.2-47.8.4-8.3,0-15.3-1.3-17.9-10.6-.4-1.5-1.8-2.9-3-3.9-1.7-1.3-2.2-.5-1.8,1.4.5,2.4-.9,3.2-2.7,2.1-2.8-1.6-5.9-3.1-7.4-8.1h0s0,0,0,0Z"/>
        <path class="cls-1" d="M6.5,1815.1c-4.6-5.7-3.4-11.3-3.4-16.3,0-12.3-1.7-24.5-2.3-36.8-.6-11.9-.3-23.9,1.1-35.8.3-2.6,1.2-5.4.7-7.9-4.8-21.5-1.8-43,0-64.4.3-3.4,0-6.6-.6-9.9-1.4-6.6-1.6-13.3.2-19.8,2.1-7.6-.8-15.3.5-22.9,2.4-14,4.8-28,2.9-42.4-.7-5.1.8-10.6,1.8-15.8,2.4-11.8,4-23.6,3.8-35.7,0-2.6-.3-5.8.9-7.8,6-9.4,4.3-19.9,4.7-30,.2-5.7.7-11.3,3.6-16.4,1.4-2.4,1.9-4.9.7-7.6-2.5-5.7-1-11.2,1.3-16.4,2.1-4.7,3.1-9.3,2.6-14.5-.8-9.2,3.6-17.5,4.7-26.4,1.7-13.5,3.9-27.1,7.4-40.2,5.1-19.3,8.3-39,14.2-58.1,4.2-13.6,7.8-27.4,12.6-40.9,2.6-7.3,2.5-15.7,4.8-23.4,1-3.3.9-8.9,5.4-8.1,4.5.8,2.4,5.9,2.2,9.5-.7,13.2-1.2,26.5-1.7,39.8-.3,7.5-2,14.5-5.7,21-1.5,2.6-3.4,5.2-3.1,8.3,1.7,17.1-4.9,32.8-8.4,48.9-2.8,13-4.6,26.2-8,39.1-5.1,19.4-7.7,39.1-10.5,58.8-1.2,8.4-4.2,16.7-7.9,24.6-8.8,19.2-11.1,39.3-7.6,60.4,1.5,8.7.9,18-.2,26.8-1.2,10-2,19.9-1.6,29.9.4,10.9-2.7,21.1-4.4,31.6-1.9,11.6-3.2,23.1,1.7,34.4,1.4,3.1,1.4,6.7.8,9.9-2.7,14.3.6,28.5.4,42.8,0,6,.2,12-2.4,17.7-1.5,3.3-1.3,6.4.1,9.6,2.3,5.1,2.1,10.4,1,15.7-1.8,9.3-1.3,18.5.1,27.8,2.4,15.4-4.3,28.1-12.7,41.2h0Z"/>
        <path class="cls-1" d="M29.8,1900.1c-2.3,9,3.8,18.4,4.6,28.7,0,.7.4,1.3.4,1.9-.1,20.3,9.2,39.4,7.1,59.9-.2,2.3-.2,4.9.6,6.9,10.2,25.1,12.2,52.2,19.7,77.9,4.3,14.9,5.1,30.9,9.8,45.8,4.8,15.2,7.7,30.9,13.4,46,4.9,13,7.7,26.9,12.3,40.1,6.3,18.2,9.6,37.4,18.3,54.8,1.7,3.4,1.9,6.9.9,10.6-2,7.6-1.8,15.2,1.4,22.5,1.1,2.5,1.8,5,1.6,7.7-.8,10.7,3.4,19.4,10.4,27.1,2.2,2.5,4.4,5,6.6,7.5,4.9,5.8,3.2,11.6-4.2,14.2-2.5.9-3.8-.4-4.7-2.4-1.8-3.9-3.8-7.8-5.3-11.9-7.9-21.2-15.5-42.5-23.6-63.6-9-23.6-15.8-47.9-23.5-72-3.5-11.1-8.3-21.9-9.4-33.4-1.1-11.2-5.5-21-9.2-31.2-1.1-3.1-1.3-6.5-1.9-9.8-.4-2.3,0-4.8-.9-6.9-6.9-16.7-9.3-34.6-13.7-51.9-1.7-6.7-.8-13.1-.5-19.8.3-6.9-7.8-10.7-8.2-17.7-.2-4-1-7.9-1.1-11.9-.7-18.6-7.8-36-10.5-54.2-1.7-11.5-2.6-23.1-3.9-34.6-.2-1.6.5-3.4,0-5-5.6-19.6-3-40.4-8-60.1-1.1-4.4-1.3-9.2-1.3-13.9,0-5.2,2.6-6.5,7.1-3.6,4.2,2.7,8.5,5.6,9.7,10.9,2.8,13,6.6,25.8,5.8,41.1h0s0,0,0,0Z"/>
        <path class="cls-1" d="M1670.6.5c10.9,1.1,20.4,1.1,30,1,8.7-.1,17.3.3,25.9-1.3,2.2-.4,4.7-.2,6.9.2,8.2,1.5,16.5,1.1,24.6,1.9,21.5,2.2,43,.8,64.5,2.4,23.8,1.8,47.4,6.2,71.3,7.1,17.5.6,35,4.2,52.4,6.7,7.6,1.1,15,2.8,22.7,2.8s12.3.7,17.5,3.4c10.2,5.3,21.3,5,31.9,6.3,13.6,1.7,26.9,4.3,40.2,7.2,16.5,3.6,32.8,8.3,49.1,13.2,13.5,4.1,27.5,7.5,41.6,9.8,7.2,1.2,13.9,3.9,20.9,6.7-7.7,5.2-22.1,6.8-30.4,2.4-9.7-5-19.8-7.6-30.4-9.2-11.5-1.8-22.9-4.3-33.8-8.5-3.7-1.5-7.7-2-11.7-2.6-11.5-1.8-23.2-1.8-34.5-5.2-5.2-1.6-10.6-.7-15.8.8-6.9,2-13.8,2.1-20.7.5-21.7-5-43.9-7.2-65.7-11.8-11.5-2.4-23.7-2.2-35.5-4-17.1-2.6-34.5-2-51.5-5.5-7.8-1.6-15.9-.3-23.9-1.2-9.9-1.1-19.9-.9-29.8-1.4-2.3-.1-5,.3-6.9-.7-7.8-4-15.4-2.4-23.3-.3-5.9,1.5-11.8,1-18.4,0,1.3-4.7,5.4-3.9,8-5.2,3.6-1.8,9.3-3.6,8.1-7.4-1.5-4.9-6.9-1.6-10.3-.6-22.9,6.4-45.4,6.4-67.4-3.3-1.2-.5-2.4-1.1-3.6-1.7-.3-.1-.4-.5-2-2.6h0Z"/>
        <path class="cls-1" d="M3376,1976.1c-3-8.8-6-17.6-8.9-26.3-.8-2.3-.3-4.6,0-6.9,1.6-12.5,3-25.1,3.2-37.8.2-12.1,5.7-23.2,6.4-35.2,1-16,5.8-31.2,8.8-46.7,4.1-21.4,4.3-43-.4-64.5-1.9-8.8-3.2-17.5-1.5-26.7,1.5-7.9-1.9-15.8-1.5-23.8.3-5.3,0-10.7,2.4-15.6.9-1.8,1.6-3.8,1.1-5.8-4.7-19.9-1-40.3-3.6-60.3-1.3-10.2-1.4-20.6-2.9-30.7-1.1-7.5.6-14.6,1-21.8.2-3.8,2.4-6.1,6.3-6.5,3.8-.4,6.6,1.3,7.6,5,1.1,4.2,3,8.8,2.2,12.6-1.6,7.6.6,14.3,1.7,21.5,1.5,9.5,2.4,19.2-1.1,28.6-.7,1.9-1.7,3.8-.6,5.8,4.9,8.4,2.5,17.6,2.5,26.4,0,8-1,15.9,1.7,23.7.6,1.8,1,4.2.4,5.9-4.9,15-.9,30.3-1.8,45.5-.6,10.3,0,20.6,0,30.9,0,1,.2,2.1,0,3-4.9,14.8,0,30.2-2.8,44.8-2.3,11.7-.1,23.9-4.5,35.2-.6,1.5-.8,3.4-.4,4.9,1.8,6.5,0,12.5-2.4,18.4-1.9,4.8-2.2,9.7-1.9,14.7.7,11.3-.4,22.5-3,33.6-1.9,8-2,16.4-2.8,24.7-.8,7.8-3.8,15.3-2.6,23.4h-2.6c0,0,0,0,0,0h0Z"/>
        <path class="cls-1" d="M3375,1529c.7-10.5-2.2-18.9-3.7-27.3-3.5-19.7-6-39.5-7.7-59.4-.6-7-2-13.7-4.3-20.4-3.4-9.8-3.4-20.3-5.1-30.4-.2-1.3.1-2.8-.3-4-5-14.9-6.2-30.6-9.6-45.8-.4-1.6-1.6-3.3-1.3-4.8,2.6-12.7-5.7-23.8-5-36.2,0-1.3,0-3-.8-3.8-8.6-9.8-7.9-23.1-12.7-34.3-1.3-3-2.1-6.4-2.1-9.7,0-5.2-1.4-9.7-3.3-14.4-2.4-6.1.4-10.3,6.8-11.8,3.4-.8,6.1,0,7.4,3.3,1.9,4.6,3.7,9.5,0,14.1-3.6,4.3-2.3,8,1.6,11.2,5.2,4.2,7,10,9.1,16.1,4,11.6,7.3,23.4,10.3,35.3.6,2.3,1.7,4.5,1.8,6.8.3,21.3,10.4,40.3,13.4,61,1.1,7.6,3,15,2.4,22.8-.2,2.8.1,5.4,1.3,7.8,8.2,16.7,8.3,34.9,9.7,52.7,1.1,13.6,4.2,26.9,5.3,40.5,1.1,13.5,3.2,27,2.2,40.6-.3,4.5.8,8.5,1.8,12.7.6,2.7,1,5.5-2.2,6.8-2.8,1.1-5.2,0-7.4-1.8-2.5-2-3.2-5-4.1-7.9-2.3-7-3.2-14.3-3.3-19.9h0,0Z"/>
        <path class="cls-1" d="M1631.9,4.3c-16.9,11.8-32.6,24.3-54.7,18.9-14.8,2.9-30-.7-44.5,2.3-11.4,2.4-23.2,2.1-34.3,6.2-4.3,1.6-8.5.4-11.8-3.1-1.4-1.5-2.8-2.9-4.3-4.1-5.3-4.2-8.2-4.5-13.4-.5-15,11.6-31.3,18.7-50.7,19.1-8.6.2-17.1,2.8-25.6,4.2-2,.3-4,.6-5.9.7-2.7,0-5.6,0-6.7-3-1.1-3.2-1.6-6.5-.3-9.8.5-1.3,2.1-2,3.3-1.7,10.4,2.3,18.7-3.8,27.5-7,11.1-4,23.2-2.5,34.2-6.5,9.3,4.8,17.1-1.1,25.4-3.3,3.2-.8,6.6-.7,9.9-1.2,9.4-1.4,19,0,28.4-3.6,5.3-2,11.7-2.5,17.7-1,2.2.5,4.8.7,6.9.2,23.2-5.7,46.7-5.8,70.4-5.7,7.6,0,15.1-2,22.7-3.1,1.7-.2,3.3-.2,5.9,2.1h0Z"/>
        <path class="cls-1" d="M121.6,1074.2c1.7-12.5,6.5-22,11.6-31.2,2.1-3.8,4.1-7.5,5.1-11.8.4-1.9.9-4,1.8-5.7,9.3-17.3,14.8-36.3,24.5-53.4,6.7-11.8,10.9-25,17.5-36.9,10.5-18.9,19.3-38.7,31.1-56.9,2.9-4.5,5.2-9.3,7.8-14,1.6-2.9,2.6-6.4,4.9-8.7,13.1-13.2,16.6-32.3,28.9-46.1,4.1-4.5,4.4-11.8,8.4-16.9,1.4-1.8,2.6-3.9,4-5.8,1.2-1.6,2.9-3.2,5-2.3,2.1.8,2.5,3.1,2.4,5.1-.5,5.9-2.9,11.3-7.2,15-21.1,17.7-29.5,42-36.6,67.3-4,14.2-11.8,26.8-18.1,40-5,10.5-11.4,20.4-14.7,31.7-.9,3-2.8,5.3-4.9,7.4-9.3,9-15.4,20-20.7,31.6-5.3,11.5-9.1,23.6-17,33.8-2.4,3.2-3.5,7.2-3.6,11.3-.5,14.9-7.4,26.7-18.1,36.6-3.3,3.1-6,7.1-12,9.9h0Z"/>
        <path class="cls-1" d="M1135.9,98c11.1-4.2,22.2-8.6,33.4-12.3,9.4-3.1,19-6.4,28.6-8.7,9.2-2.1,18.2-6.2,28-5.6,2.4.1,4.6-.5,6.5-2.1,5.3-4.3,11.7-6.3,18.1-8,11.9-3,24-5.5,35.7-9.3,4.9-1.6,10.3-2.8,15.7-1.5,6.3,1.6,11.8-.3,16.9-4,5.3-3.8,11.1-6,17.7-5.6,4.1.3,7.8-1.4,11.6-2.7,5-1.8,10.2-3,15.6-2.9,4.7,0,7.4,2.1,7.8,7,.5,5.2,0,6.1-5.8,6.2-3,0-6.1-.1-8.7,1.5-6.5,4.2-13.8,4.8-21.1,4.3-8.3-.7-15.9,1.2-22.8,5.6-14.6,9.3-31.2,12.7-47.7,16.5-9,2.1-17.7,5.5-26.7,8.1-10.8,3.2-21.4,7.3-33.1,4-4.9-1.4-9.9.4-14.5,2.6-4.8,2.3-9.6,4.7-14.3,7.1-13.3,6.8-26.8,6.1-40.4,1.8-.2-.8-.4-1.5-.6-2.2h0Z"/>
        <path class="cls-1" d="M3228.6,961.3c3.8,4.3,5.2,8.8,7.2,12.8,8.4,16.5,16.1,33.2,22.2,50.9,3.5,10.4,6.8,21.6,14.5,30.4,1.9,2.2,2.9,5.3,3.7,8.1,4,13.7,9.6,26.8,14.5,40.2,8.6,23.6,19,46.5,26.7,70.4,2.8,8.9,4.6,18,8.3,26.7,1.8,4.3,2.4,9,1.6,13.7-.6,3.5-2.1,6.5-6,7.1-3.9.6-6-2.2-7.8-5.1-.2-.3-.4-.6-.4-.9-4-20.7-16.9-38.2-21.5-58.6-1.7-7.4-5.3-14.3-7.1-21.4-2.9-11.4-3.6-23.2-10-33.7-1.4-2.3-.4-5.9-1-8.8-1.6-8.2-4.4-15.9-9.8-22.6-4.7-5.7-8.9-12-2.7-19.6,1.2-1.5.5-3.4-1.3-4.2-10.9-4.5-12.2-15.1-15.3-24.3-2-5.9-3-12.3-3.6-18.6-1.1-13.2-4.9-25.4-11.6-36.8-.8-1.3-1.9-2.7-.6-5.7h0Z"/>
        <path class="cls-1" d="M3297.6,2282.9c-5.1,8.3-4.3,20.2-11.1,29.3-4.3,5.8-7.2,11.9-7.4,19.2-.1,4.1-1.2,8.1-3.4,11.4-11.4,17.7-15.1,38.8-25.7,56.6-5.4,9-8.6,19.5-16.4,27-2.7,2.6-2.8,5.9-3.1,9.2-1.1,9.6-9.1,13.5-15.7,18.2-2.4,1.7-4.5-1.1-3.8-3.8,1.9-7.1,3.1-14.5,7.3-20.6,5.7-8.4,8.9-17.8,12.1-27.3,2.8-8.2,6-16.3,10.8-23.6,3.2-4.9,4.3-10.4,6.6-15.6,5-11.4,11.7-21.8,14.6-34.5,2.1-9.3,7.2-18.4,11-27.7,1.5-3.7,3.6-7.3,4.5-11.1,1.6-7.4,6.6-11.2,13.2-13.7,5.1-1.9,7.4-.2,6.8,6.9h0,0Z"/>
        <path class="cls-1" d="M3164.6,2563.2c-.4,1.2-.6,2.7-1.4,3.6-5.2,6.4-6.9,15.2-13.8,20.6-2.4,1.9-3.6,4.7-4.9,7.5-1.1,2.4-2,5.3-3.8,6.9-8.7,7.8-12.8,19.2-21.6,26.9-3.8,3.3-6.4,7.6-7,12.9-.6,5.5-3.1,9.3-9.1,10.2-4.7.7-5.9,4.2-4.9,8.2,1.1,4.5-.8,7.6-3.4,10.8-4.9,6.2-9.5,12.7-15.5,18.1-4.9,4.4-9.2,9.7-10.2,16.7-.1.6-.3,1.3-.5,1.9-2.2,5.9-5.9,9.2-8.7,7.7-3.8-2-6.4-10-4.5-14.1.9-1.8,1.9-3.8,3.5-4.8,5.5-3.5,7.5-8.9,9.8-14.5,2.5-6.1,6.4-11.6,11.2-16.4,9.8-9.9,18.7-20.6,25.4-33,1.3-2.3,2.9-4.4,3.2-7.2.6-4.9,3.4-8.5,7.3-11.4,2.4-1.8,4.7-3.9,5.8-6.8,4.3-12,12-22.2,17.6-33.4,3-6,6.8-11.4,11.3-16.3,2.7-2.9,5.9-2.5,9.2-1.2,3.2,1.2,4.6,3.6,5,7h0,0Z"/>
        <path class="cls-1" d="M3373.6,1995.1c2.4,5.2.8,9.3-.7,13.3-4.4,11.2-7.2,22.7-7.3,34.8,0,.7.1,1.5-.2,2-8.6,10.7-4,24.1-7.7,36-3.7,12-6.1,24.6-9.8,36.5-4.5,14-4.9,28.7-9.8,42.5-4.9,13.8-9.3,27.8-12.3,42.1-.2,1-.5,1.9-.9,2.9-.5,1.2-1.1,2.6-2.8,2.3-1.4-.2-2-1.5-2.6-2.7-1.3-2.9-.8-5.9-.3-8.8,2.1-12.4,3.6-25,8.1-36.9,4.1-11,5.4-22.6,5-34.3-.2-5.6.1-11.2,1-16.9,1.3-8.6,4.4-15.8,10.9-21.8,7.3-6.7,10-14.7,8.7-25.1-1.5-11.5-1-23.3-.7-34.9.2-8.3,3.3-15.5,10.4-20.7,3.7-2.7,6.8-6.2,11-10.1h0Z"/>
        <path class="cls-1" d="M110.5,1108.2c8.5,10.7,10.9,22.3,4.2,34.7-7.1,13.2-10.1,28-18.1,40.8-4.1,6.5-5.4,14.2-5.2,22.1,0,3.4-.2,6.6-1.4,9.8-1,2.6-2.7,4.6-5.7,4.9-2.7.2-4.2-1.5-5.5-3.6-3.3-5.3-5.1-10.9-2.5-17,3.7-8.6,5-17.9,8.3-26.4,4.4-11,7.9-22.4,11.9-33.5,3.3-9.3,8.1-18.1,11-27.5.5-1.6.8-3.3,2.9-4.2h0Z"/>
        <path class="cls-1" d="M1441.6,3382.2c-.7-3.4,1.4-5.5,2.2-8,2.9-9.4,3.8-9.7,13-8.8,26.2,2.8,51.5,9.7,77.1,15,8,1.7,14.4,5.9,20,13.2-7.8,2.5-14.1-.2-20.4-.7-4.9-.4-9.8-1.2-14.8-1.3-5,0-10.2.5-14.8-1.5-14.2-6-29.3-4.3-44.1-5.8-6.1-.6-12.4-.2-18.2-2.2h0Z"/>
        <path class="cls-1" d="M3163,2544.4c-1-4.5-.2-8.6,2.2-12.5,9.6-15.1,17.9-30.9,24.7-47.5,1.9-4.6,5-8.6,7.7-12.7,3.8-5.9,12-5.4,15.9-11.1.1-.1,1.5.1,1.7.5.4.8,1,2.1.6,2.7-6.9,12.2-6.7,27.6-17.9,38.2-5,4.8-8.4,12.1-10.8,18.9-3.6,10.3-10.2,18.6-15.4,27.8-.7,1.1-1.5,2.2-2.3,3.3-1.1,1.3-2.4,2.6-4.1,2.2-2.6-.6-2.3-2.8-2.4-4.8,0-1.7,0-3.3,0-4.9h0Z"/>
        <path class="cls-1" d="M187.7,2475.2c-5.6-11.2-13.4-20.6-16.6-32.8-2.5-9.7-7.1-19.1-12.6-27.8-1.2-1.9-2.8-3.7-3.8-5.8-1.3-3.1-.6-5.4,3.3-5,8.2.8,15.5,3.1,19.5,11.5,5.7,12,11.8,23.8,17.7,35.6.9,1.9,1.1,3.8.6,5.8-1.8,6.3-3.5,12.7-8.1,18.5h0Z"/>
        <path class="cls-1" d="M1643.5,3397.9c-2.5,3.7-4.7,3.3-6.5,3-9.5-1.9-19.2-1.1-28.8-1.3-5.3,0-10.6-.3-15.7-1.9-6.1-1.9-12.1-3-18.6-1.4-4,1-7.6.3-6.2-5.5,1.2-4.6-4.1-6.5-4.8-11.4,6.1-2.2,12.3-1.3,18.3-.5,7.6,1,15.2,1.5,22.8,1.6,15.6.3,27.2,8.9,39.5,17.3h0Z"/>
        <path class="cls-1" d="M2168.2,85.3c4.3-3.2,7.6-3.1,10.9-2.5,13.7,2.6,27.8,2.8,41.6,4.8,6.1.8,12.1,2.2,16.3,6.7,12.6,13.4,28.6,20.1,45.8,24.9,6.8,1.9,13.1,4.4,20.6,10.1-12.1-2-21.8-4.7-31.1-8.2-18-6.9-36.4-12.4-54.1-20.4-9.5-4.3-20.4-5.6-30.7-8.5-6.3-1.7-12.9-2.8-19.3-6.9h0Z"/>
        <path class="cls-1" d="M2305.2,3289.6c5.9-11.1,11.2-19.9,22.3-24.6,8.9-3.8,18.2-6.1,27.1-9.7,4.3-1.8,13,3.1,14.2,7.6.6,2-.8,3.3-2.3,3.8-12.4,3.8-23.4,11-35.8,14.4-8,2.2-14.6,7.8-25.4,8.4h0Z"/>
        <path class="cls-1" d="M2411.7,159.7c-24.5-6.6-49.5-5.1-67.9-23.9-6.1-6.3-15.2-8-23.4-14,6.1-1,10.6-.3,14.7,2.3,4.3,2.7,9,4.2,14,5,6.7,1,12.4,4.4,18.3,7.6,10.8,5.9,21.8,11.2,33.7,14.8,3.6,1.1,7.6,2.1,10.7,8.2h0Z"/>
        <path class="cls-1" d="M3144.6,833.3c9,5.1,17.1,10.2,24.6,16.2,2.9,2.3,5.5,4.9,7.3,8.1,3.3,6,.3,14-6.2,16.3-1.9.7-3.3,0-4.4-1.3-3-3.5-6.7-6.6-8.4-11.1-3-8.2-6.8-15.9-12.4-22.7-1-1.2-1.7-2.8-.6-5.6h0Z"/>
        <path class="cls-1" d="M362.1,656.2c3.7-10.4,9.4-17.7,17.3-22.7,4.9-3.1,8.1-6.4,9.2-12,.5-2.3,1.9-4.2,4-5.6,4.2,10.5.2,28.9-7.5,35.6-1.6,1.4-3.3,2.3-5.4,2.3-5.6-.1-11.1.6-17.7,2.3h0Z"/>
        <path class="cls-1" d="M310.9,726.1c-2.4,11.1-4.3,20.8-6.7,30.4-2.1,8.2-12.2,12.3-19.7,8.6-1.5-.7-2.1-2.4-1.2-3.2,11.2-10,13.2-26.9,27.6-35.8h0Z"/>
        <path class="cls-1" d="M3305.5,2207.9c8.2,16.2.5,40.1-15.6,51.1-1.2-4.2-.2-8,1.4-11.5,5.6-12.4,8.1-26.1,14.2-39.6h0Z"/>
        <path class="cls-1" d="M2290.8,3277.3c1.6,0,2.3.9,2.9,2.2,3.6,7.5,1.5,13-6.4,16.4-.3.1-.6.3-.9.4-7.1,3.1-8.6,2.8-10.6-1.7-2.9-6.7-1.4-11.4,4.6-13.8,3.4-1.4,6.9-2.4,10.2-3.6h0Z"/>
        <path class="cls-1" d="M138.5,2371.2c9.1,2.3,15.4,5.9,21.7,9.5,2.9,1.6,3.6,4.6,4.1,7.6.4,2.5-.7,3.8-3.2,3.8-3.6,0-7.3,0-10.9.1-2.1,0-4.2-.7-5-2.7-2.3-5.6-4.2-11.3-6.7-18.3h0Z"/>
        <path class="cls-1" d="M2428.1,182.6c10.3,3.1,18.6,5.5,26.8,8.1,5.6,1.7,10,4.7,11.1,11.2-7.9-.9-29.2-11.5-37.9-19.3h0Z"/>
        <path class="cls-1" d="M3185.9,906.9c9.5,4.6,14.8,15.3,15.9,30.1-5.9-2.1-12.8-15-15.9-30.1Z"/>
        <path class="cls-1" d="M20.3,1815.1c3,6.8,4.1,13,3.4,19.5-.4,3.4-2.7,4.2-5.8,2.9-4.9-2.1-6.9-6-4.8-11.2,1.4-3.6,2.6-7.5,7.3-11.3h0Z"/>
        <path class="cls-1" d="M1137.9,114.5c-10.8,10.8-25.8,8.3-38.4,13.4,11.8-7.5,23.6-14.7,38.4-13.4Z"/>
        <path class="cls-1" d="M200.9,2481.2c.1-1.1.1-2.1.3-3,.4-1.9.7-4.2,2.8-4.9,2.8-1,3.9,1.7,5.3,3.4,1,1.3,1.9,2.7,2.5,4.3,1,2.8,4.5,6-.1,8.3-3.6,1.8-9.2-1.3-10.3-5.2-.3-.9-.3-1.9-.4-2.9h0Z"/>
        <path class="cls-1" d="M328.3,698.4c5.8-4.1,7.5-9.8,10.3-14.9.8-1.4,2.2-2.8,4-2.1,2,.8,1.5,2.7,1.1,4.2-1.1,3.5-2.2,7-3.8,10.2-2.3,4.7-6,5.3-11.7,2.6h0Z"/>
        <path class="cls-1" d="M1669.8,19.7c-10.1,1.6-20.1-.3-30.2.7,8-6.2,18.4-6.6,30.2-.7Z"/>
        <path class="cls-1" d="M151.7,2364.8c-3,.1-7.5-3.4-7.3-5.8.2-2.7,2.1-4.4,4.6-4.2,3.7.2,4.4,3.6,5,6.5.4,1.9-.4,3.2-2.3,3.6h0Z"/>
      </g>
      <g>
        <path class="cls-1" d="M-139.9,5061.4c-1.7-2-.6-4,0-5.7,9.3-22.9,14.8-47,23.5-70,9.2-24.3,19.3-48.1,29.9-71.8,5.1-11.5,12.5-22,15.5-34.4.4-1.6,1.2-3.2,2.2-4.5,12.3-16.1,17.6-35.7,26.8-53.3,4.9-9.5,10.3-18.6,15.5-27.9.3-.6.6-1.3,1.1-1.6,8.4-5.5,10.2-15.2,14.4-23.3,12.6-24.1,25-48.5,43.1-69.2,2-2.3,3.2-5,4.5-7.7,1.2-2.7,2.3-5.8,4.3-7.8,9.2-9.4,13.8-21.9,22.4-31.7,10.5-12,18.7-25.8,30.2-36.9,1.2-1.1,2.5-2.4,3.2-3.8,7.8-16.2,20.2-28.8,32-41.9,3.3-3.7,6.2-7.8,9.5-11.6,5-5.9,10.5-11.1,17.3-14.9,5.4-3,9.6-7,10.8-13.6.4-2.2,1.6-4.6,3.2-6.1,13-11.9,24.4-25.4,36.3-38.3,2.7-2.9,6-5.4,9.4-7.4,5.1-3,8.9-6.9,11.5-12.1.9-1.8,2.1-3.5,3.6-4.8,17.2-14.6,32.1-32,50.5-44.9,8.8-6.2,19.7-9.2,24.1-20.5,14.7-7.8,23.7-22.2,37.3-31.4,6.9-4.6,13.5-9.5,21.8-11.7,5.5-1.5,9.7-4.6,12.5-10.4,3.4-7.1,11.2-10.3,17.7-14,6.8-3.8,13.1-7.9,18.5-13.4,4.5-4.5,10-7.7,15.4-10.9,11.4-6.9,22.5-14.1,33.5-21.6,8.9-6,17.8-11.7,28.7-13.2,2.7-.4,4.9-2,7.2-3.4,2-1.2,3.8-2.9,6-3.6,3.7-1.4,7.8-3.2,10.8,1.1,2.4,3.3,1.1,9.8-2.4,12.8-1,.9-2.2,1.8-3.4,2-13.9,2.4-23.5,13.4-36.3,17.9-1.5.5-3.2,1.4-4.2,2.7-8,9.6-19.5,13.6-30.2,19-7.9,4-13.4,10.8-19.9,16.4-6.4,5.5-12.6,11.1-22,9.6-2.6-.4-3.7,1.1-3.9,3.4-.7,6.3-5.2,9.9-9.7,13.3-14.7,11-29.4,21.8-43.7,33.4-16.7,13.6-33.8,26.8-49.4,41.8-5.5,5.3-11.7,9.9-18.5,13.5-7.1,3.7-13.4,8.4-17.2,16-1.9,3.7-5.4,6.8-8.6,9.6-10.5,8.7-17.9,20.5-29.1,28.5-3.8,2.7-7.2,6.1-9.9,9.8-7.9,10.9-18.6,19.1-27.1,29.3-10.2,12.3-21.8,23.1-32.1,35.4-18.8,22.4-35.6,46.4-55.4,68.1-7.8,8.5-14.1,18.5-20.4,28.3-7.4,11.4-15.1,22.6-24.4,32.5-3,3.2-6,6.4-7.4,10.6-5.4,16.5-16,29.8-26.7,42.9-3.7,4.6-5.7,9.8-7.4,15.1-3.9,12.5-12.1,21.8-22.8,28-12.3,7.1-14.2,17.9-13.7,29.8.3,7.3-1.4,13-4.7,19.6-5.1,10-10.1,20.2-15.2,30.2-6.9,13.6-12.8,27.7-18.4,41.9-2,5-5.4,9.2-9.2,13-10.2,10.3-16.8,23.1-24,35.5-3.5,6.1-3.3,12.2-.2,18.1,3.2,6.2,2,11.5-.1,18-4.6,13.5-10.4,25.5-22.7,33.9-4.6,3.1-7,8.8-9.8,13.7-1.1,1.9-1.3,4.7-4.4,4.9h0Z"/>
        <path class="cls-1" d="M2182.9,4486.8c13.1-5.7,22.8-2.1,30.6,8,11.1,14.2,25.4,25.6,36,40,9.8,13.2,23,23.2,32.3,36.4,9.3,13,21.6,23.4,30.3,36.8.7,1.1,1.9,2,2.3,3.2,3.9,11.1,13.5,17.8,20.1,26.8,6.7,9.2,14.3,18.2,19.3,28.6,2.5,5.2,4.9,10,10,13.2,3.4,2.2,5.8,5.5,7.8,9,6.2,10.2,12.4,20.5,18.5,30.8,3.9,6.6,7.6,13.2,12.6,19.1,5.9,6.9,9.8,14.8,13.1,23.3,2.9,7.3,7.3,14.2,12.3,20.3,7.9,9.7,14.2,20.1,18.8,31.6,1.4,3.5,3.2,6.6,5.4,9.5,4.7,6.2,8.3,12.9,9.3,20.7.4,3,1.6,5.8,3.5,8.2,8,9.6,11.9,21.5,17.5,32.4,3.2,6.3,2.7,13.5,5.9,20,7.9,16.4,18.6,31.3,24.7,48.5,5.1,14.3,11.2,28.3,15.7,43,4.5,14.8,10.8,29.2,16.6,43.7,2.6,6.5,4.5,13.1,4.5,20.3,0,6.7,3.1,12.9,6.1,18.8,3.1,6,5.7,12,5.2,19-.2,3.4,1.1,6.4,2.6,9.5,6.8,13.2,10.7,27.3,11.3,42.1.3,6.8,3.1,12.9,4.7,19.3,3.3,13.2,4.6,26.8,9.5,39.6,1.1,2.8,1.8,5.8,2.1,8.7,1.4,14.2,3.9,28.2,7.1,42.2.5,2.3,1,4.6,1.1,6.9.1,3.1,2.6,7-1.3,9.1-3.1,1.7-5.4-1.6-8-2.9-11.2-5.8-12-17.2-13.5-27.4-1.4-9.9-2.7-19.8-5.1-29.4-1.2-5-.7-8.7,3.2-12.6,5.5-5.4,5.1-8.5-1.7-12.4-5.5-3.2-7.2-7.7-8.9-13.4-3-9.8-6.5-19.5-8.3-29.7-3.8-20.9-11.3-40.8-16.4-61.4-3.2-13.2-8.2-25.9-11.1-39.2-1.1-5.1-3.8-9.9-5.8-14.8-7.6-18.5-13.2-37.6-20.3-56.3-5-13-11.8-25.3-16.9-38.3-10.1-26-21.9-51.4-34.5-76.3-5.1-10.1-9.5-20.5-12.9-31.2-.6-2-1.3-3.8-2.8-5.2-3.7-3.5-6-8-8.5-12.3-10.4-17.3-21.2-34.4-30.5-52.4-6.2-12-15.3-21.6-22.1-33.1-8.4-14-18.7-26.8-27.3-40.6-8.8-14.1-18.8-27.4-28-41.2-5.6-8.4-13-15-19.1-22.9-10.9-14.2-22.7-27.9-33.8-42-4.1-5.2-8.2-10.4-13.3-14.8-3-2.6-5.8-5.6-7.9-8.9-8.5-12.9-19.5-23.3-31.1-33.4-9-7.9-16.8-17.1-24.9-25.9-2.7-2.9-4.9-6.2-6.2-10.8h0Z"/>
        <path class="cls-1" d="M-132.7,5919.9c-5.2-3.9-6.7-8.7-8-13.3-6.5-23.1-14.6-45.6-20.1-69-3.5-15.2-4.5-31-10.8-45.5-.3-.6-.6-1.3-.5-1.9.4-9.8-2.1-18.9-6.5-27.6-.4-.9-.8-2-.6-2.9,2-10.1-3-18.8-4.9-28.2-3.6-18.2-8.1-36.4-7.1-55.2,0-.7,0-1.4-.2-2-7.2-21.8-5.5-44.8-8.3-67.1-3.9-31.1-5.5-62.3-6.5-93.5-.7-22.9-.2-45.9-.1-68.8,0-2,.1-4.1.9-5.9,2.3-5.2,2.2-10.2.5-15.5-.9-2.9-1.3-6-.4-8.9,4.4-13.7,2.2-27.8,3-41.6.7-12.6.5-25.3,5-37.4.4-1.2.8-2.6.6-3.9-2.2-18.8,2.9-37.1,5.4-55.4,2.2-16,4.2-32.2,7.6-48.1,6.5-29.9,12.2-60,20.7-89.5,1.2-4.1,1.4-8.5,2.4-12.7.7-3.1,1.7-6.3,4.6-7.9,2.6,1.2,2.3,3,2.4,4.6.3,9,1.8,17.7,3.1,26.6,2.3,15.5,1,31.4-8.4,45.2-5.1,7.4-8.3,16-14.4,22.7-.9,1-1.4,2.4-.6,3.7,1.1,1.7,2.6,1.7,4.4,1.2,2.2-.6,3.8-2.9,7-1.8,1.2,6.2-1,12.2-2.1,18.2-3.7,22-7.9,43.9-10.9,65.9-1.2,9.2-.6,18.6-1.9,27.8-.3,2,0,4.1-.6,6-4.6,15.4-3.3,31.5-5,47.3-.5,4.7-.8,9.3-3.4,13.4-1.1,1.7-1.9,3.5-1.4,5.7,4.5,20.1,1.7,40.3,1.3,60.5-.2,9.6,1.1,19.3.6,28.9-1.7,29,1.6,57.9,3.1,86.7,1.4,26.8,2.3,53.8,5.8,80.6.4,3.3,1.3,6.5,2.2,9.7,2.6,9.3,4.4,18.7,3.8,28.6-.5,8.1,3.5,15.4,5.1,23.2,1.6,7.9,2.9,15.7,2.3,23.7-1.1,13.6,2,26.4,6.9,39,6.7,17,12.5,34.3,17,52.1,2.1,8.3,3,17,4.2,25.6.3,2.2-.3,4.7-1.1,6.8-3.5,9.3-.9,16.9,5.8,23.7,1.2,1.2,2.2,2.5,3.2,3.8,2.1,2.6,2.6,5.3.9,8.3-2.5,4.3-4.3,8.8-5.8,14.5h0Z"/>
        <path class="cls-1" d="M2032.6,6621.2c-10.3,6.3-15.6,17.8-26.4,23-11.4,5.5-21.1,13.8-32.4,19.6-9.1,4.7-17.1,11.5-25.7,17.1-20.4,13.1-41.4,25.5-63,36.5-7.7,3.9-16,6.5-22.3,12.8-2.1,2.1-5.2,2.8-8.2,3.6-2.2.6-4.6,1.2-6.4,2.6-22.7,17-50.5,23.7-75.1,36.8-12.3.9-22.2,7.6-32.5,13.6-3.7,2.1-8.1,2.9-12.2,4.3-2.2.7-4.8.8-6.6,2.1-7.5,5.5-15.5,8.9-25,8.3-2.1-.1-3.9.9-5.3,2.3-5.9,5.9-13.4,8.6-21.2,10.5-15.8,3.9-30.8,10.3-46.3,15.2-23.4,7.4-47,14.4-71,20.2-12.6,3.1-25,7.1-38.2,6.1-4.8-.4-9.1,1.8-13.1,4.2-6.5,3.9-13.4,5.7-21,4.6-2.4-.3-4.6-.3-6.9.6-15.8,5.8-32.4,7.3-48.7,10.3-16.4,2.9-32.7,6.4-49.3,7.3-11.6.6-23,3.1-34.7,3.1-3,0-6,.4-8.9.9-13.8,2.1-27.6,4.6-41.6,1.3-2.2-.5-4.8-.6-6.9.1-7,2.5-13.8,1-20.6-.5-3-.6-6.2-.8-6.2-5,0-4.2,1.9-7.2,6.2-7.7,5.6-.7,11.4-2.1,16.8-1.4,11.8,1.7,23.1-1.1,34.7-2.2,3-.3,6.1-1,8.9-.4,14.9,2.9,29-.5,43-4.8,4.2-1.3,8.5-1.4,12.8-1.8,26.1-2.6,51.8-8.4,78.1-10.3,4.6-.3,9-2.2,13.5-3.4,2.9-.7,5.9-2.1,8.7-1.8,10.7,1,20.2-3.7,30-6.4,6.1-1.7,12-3.8,18.4-4.1,3-.1,6-.6,8.8-1.6,10.6-4,21.2-7.6,32.9-6.3,2.1.2,4.4-1.3,6.6-2.1,13.7-5.2,27.1-11.1,41.5-14.1,3.2-.7,6.5-1.7,9.4-3.3,13-7.1,28-8.5,41.2-15.1,3.1-1.5,6.5-1.3,9.8-.6,8.3,1.9,15.2-.8,20.6-7.1,5.8-6.6,14.3-6.6,21.6-9.6,1.9-.8,3.8.9,5.5,1.9,4.9,3.1,9.5,2,13.9-1.1,1.3-1,2.8-1.9,3.9-3.2,9.8-10.8,22.3-17.6,34.8-24.6,2-1.1,4.1-2.4,6.3-2.9,21.2-4.7,38.5-17.7,57.5-27.1,5.1-2.5,10.1-5.2,15.5-6.9,3.2-1,6-2.7,8.8-4.5,12.3-7.9,24.2-16.6,37.2-23.1,9.9-5,19-10.6,28.3-16.6,15.1-9.7,30-19.6,45.2-29.2,9.8-6.2,20.3-11.4,28.9-19.3,3.1-2.8,7-3.9,11.2-2.5,4.8,1.6,9.8,1.3,15.1,1.8h0Z"/>
        <path class="cls-1" d="M2503,6030c2.4,4.1.3,7.1-1.1,9.9-11,22.8-20.1,46.4-32.3,68.7-5.1,9.3-10.2,18.6-15.3,27.9-4.9,8.9-8.9,18.5-13.7,27.6-10.3,19.5-23.4,37.2-35,55.8-2.3,3.7-4.4,7.3-5.7,11.6-.6,2.2-1.4,4.6-2.8,6.3-8.2,10.5-13.7,22.7-22.1,33.2-5.6,7-10,14.9-15.4,22.1-5.5,7.4-12,14.1-15.7,23-1.3,3.2-4.1,6.1-6.7,8.6-12.1,11.6-21.5,25.2-30.7,39.1-8.7,13-19.6,24.3-29.9,36.1-8.1,9.2-15.6,18.9-23.8,28.1-12.3,13.6-24.9,26.8-38.1,39.5-8.9,8.6-16,18.7-25.6,26.6-9.8,8-17.9,17.9-28.1,25.4-4.3,3.2-7.2,7.7-11.1,11.4-8.7,8.4-20.4,12.5-29.1,20.9-5.2,5.1-10,10.7-17.3,13.2-1.4.5-2.7,2-3.7,3.3-11.6,14.7-26.4,26-40.8,37.6-4.7,3.8-10.4,5.9-16.1,7.8-3.5,1.1-5.1-.5-4.4-4.1.6-3.2.5-6.7,3.4-9.1,7.9-6.5,13.5-15.2,22.1-21.1,13.7-9.3,25.9-20.8,38.5-31.5,8.3-7.1,17.8-12.1,25-21.1,5.7-7.1,12.9-14.4,21.9-18.5.6-.3,1.2-.7,1.6-1.2,8.8-12.8,21.8-21.3,32.4-32.3,14.5-15.1,27.8-31.3,42.8-45.9,2.2-2.1,4.2-4.9,7.1-5.3,6.7-.8,9.4-5.2,11.9-10.6,3.7-7.9,8.4-15.1,16.2-19.8,2.2-1.3,4.7-3.4,5.5-5.7,4.4-12.3,15.9-19.4,21.9-30.7,3.4-6.5,9-11.4,14.6-16.2,6.5-5.6,12.6-11.9,15.7-20.2,1.5-4.1,3.6-8,6.8-10.9,8.9-7.9,13.9-18.6,20.6-28.1,6.5-9.2,13.1-18.3,18.1-28.5,2.4-4.9,6.4-8.3,11.5-10.7,3.6-1.7,6.9-4,10.3-6.1,2.6-1.7,5.1-4.1,4.4-7.3-1.4-5.7,2.5-8.5,5.4-12,4-4.9,8.1-9.8,11.8-14.9,2.8-3.8,4.1-7.9,3.3-13.1-1.1-7.9,4.8-13.5,8.5-19.5,2.9-4.7,7.2-8.7,11.1-12.8,4.3-4.7,8-9.8,11.1-15.4,2-3.6,3.4-7.4,2.1-11.5-1.5-4.6.1-8.4,2.4-12.3,9.6-16.5,17.7-33.5,23.1-51.9,2-6.9,5.8-12.7,11.3-17.4,7.2-6.1,13.3-13.7,22.1-18.1h0Z"/>
        <path class="cls-1" d="M1198.9,4074.1c.6-2.1,1.6-2.6,2.5-2.5,14.2,1.4,28.5-.2,42.8.7,13.8.8,27.5,2.3,41.3,3.1,14.9.8,29.9,0,44.8,1.8,1.3.2,2.9-.2,3.9.4,13.8,7.7,29.1,3.8,43.7,5.6,18.4,2.4,36.9,4,55.3,7,14.7,2.5,29.3,5.8,44.2,7.4,1.7.2,3.3.4,4.9.8,19.2,4.6,38.4,9.9,57.8,13.8,11.4,2.3,22.6,5.3,33.5,9.3,5.7,2.1,10.8,5.4,17.3,5.4,4.4,0,5.3,5.4,8.4,9.2,2.4-7.8,7.8-7.4,13.6-5.5,10.1,3.3,20.3,6.3,29.4,12.2,6.2,4,13.9,4.1,20.9,5.8,15.3,3.8,29.7,9.4,43.9,16,2.4,1.1,4.7,3.1,7.1,3.5,18.5,2.5,34.1,12.7,51.1,19.1,18.4,6.9,35.8,16.2,53.7,24.2,3.6,1.6,7.1,3.4,9.8,6.6-2.8,3.2-6.1-.8-8.7,1.4,0,3.1,3.8,3.8,4.2,6.5.3,2.3,1.1,4.8-.7,6.6-1.7,1.7-3.9.4-5.6-.3-6.2-2.5-12.5-4.8-18.3-7.9-21.4-11.7-44.7-19-66.6-29.6-7.1-3.4-15.2-5.3-18.4-13.9-.6-1.7-2.6-3.1-4.3-4-17-9.3-34.4-18.7-54.5-16.5-13,1.4-24.3-1.8-35.7-6.4-2.4-1-5-2.1-7-3.8-4.3-3.7-9.2-5.1-14.7-5.4-10.1-.5-19.7-3.3-29.2-6-13.4-3.8-27.5-5.2-40.5-10.4-15.9-6.3-33.1-6.5-49.5-10.5-4.6-1.1-8.9-2.6-12.6-5.6-3.3-2.7-6.9-4-11.1-1.9-5.6,3-11.1,1.7-16.4-.6-5.3-2.3-10.7-3.5-16.5-3.2-6.2.3-11.7-2-16.8-5.4-5-3.3-9.8-6.9-15-10-7.1-4.2-10.6-3.9-15.6,2.3-4.1,5.1-8,7-14.6,4.5-6-2.4-13.4.6-18.9-4.5-1.1-1-2.4.2-3.6.6-11.1,3.5-22.3,3.3-33.1-.7-3.6-1.3-6.7-2.3-10.6-1.6-5,.9-9.9-.7-14.8-1.5-14.7-2.3-29.2.4-43.8.6-7.4.1-13.7-1.4-19.1-6.7-5-4.8-11.7-7-17.7-9.9h0Z"/>
        <path class="cls-1" d="M626.9,4199.4c3.2-4.8,6.7-6.7,10.2-8.4,6.9-3.3,13.7-7,21-9.2,14.1-4.3,26.9-11.4,40.4-17,4-1.7,8-3.5,12.2-4.3,8.9-1.6,17.3-3.5,25.1-8.9,4.1-2.9,10-3.3,15.1-4.6,15.7-4.2,30-12.9,46.3-15.3,13.3-2,26.5-3.3,38.5-11.1,6.7-4.3,15.6-5.5,24-6.1,3.3-.2,6.6-1,9.8-1.9,8.3-2.4,16.5-4.6,25.1-6,8.3-1.4,16.4-5.1,24.8-6.9,6.2-1.3,12.3-2.8,18.8-2.3,1.6.1,3.4.2,5-.3,23.2-8.1,47.9-7.1,71.5-12.7,9.2-2.2,19-3.6,28.5-4.1,10.8-.7,21.6-1.8,32.4-2.5,12.6-.9,25.1-2.1,37.5-4,7.4-1.1,15.1.7,22.8-.5,14.1-2.1,28.4.3,42.6-2,3.5-.6,7.3-.3,12.2,1.3-9.2,4-16.9,8.3-22.9,15.4-2.8,3.3-8.4,3.6-13.1,4.1-2.6.2-5.3.4-8,.1-17-1.5-33.7,1.1-50.4,3.4-10.9,1.5-21.9,1.5-32.7-1.5-4.7-1.3-9.2-1.7-12.8,2.6-2.7,3.2-6.1,3.8-9.9,2.6-4.7-1.4-9.2-1-13.6,1.1-1.5.7-3.4,1.8-4.7,1.4-8.1-2.6-14.6,1.2-21.7,3.9-6.8,2.6-14.2,3.7-21.6,1.5-4.4-1.3-8.5-.6-12.2,2.3-3.3,2.6-7.3,3.5-11.3,2.4-4.9-1.3-9.2,0-13.4,2.1-13.7,6.9-27.9,6.3-41.6,1.2-7.9-2.9-13.4-1.6-18.9,3.8-3.3,3.2-6.6,6.7-10.2,9.6-5.3,4.3-8.2,4.7-13.3,0-6.3-5.7-12.4-8.3-20.8-4.6-7.2,3.2-13.8,6.7-16.3,15-1.5,5-5.2,7.6-10.2,8.4-5.3.8-10.2,2.8-15.2,4.6-6.4,2.3-12.4,4.6-20.1,1.9-6.2-2.2-13.5,1.5-19.7,5-6.7,3.8-13.4,7.4-20.1,11.1-.3.2-.6.4-.9.4-12.4.2-20.9,9.1-31.1,14.1-6.9,3.4-13.7,4.8-21.2,3.1-7.3-1.7-13.3-1.4-17.5,6.9-2.5,5-8.6,7.4-14.5,7.6-7.6.2-15.2-.3-23.8-2.7h0Z"/>
        <path class="cls-1" d="M131.6,6397.4c-1.1-.8-2.5-1.4-3.1-2.4-7.2-12.1-18.2-21.1-26.1-32.7-6.2-9-13.2-17.5-20.4-25.8-6.5-7.6-12.4-15.6-17.9-24-7.8-12-16.4-23.4-24.6-35.1-.4-.5-1-1-1.2-1.6-5.8-12.6-14-23.7-22.3-34.7-11.2-14.8-19-31.8-29.4-47.2-12.4-18.4-23.8-37.7-32.9-58.1-7.6-17-14.6-34.2-21.9-51.2-.9-2.1-2-4.3-3.6-5.9-6.2-6.4-9.7-14.2-13-22.3-5.8-14.1-11.9-28.1-18-42.1-7.8-18-14-36.7-19.7-55.4-1.4-4.5-3.6-8.6-5.5-12.8-2.8-6.4-5.6-12.8-3.7-21.2,7.8,5.8,14.2,11.9,20.4,18,2.1,2.1,1.9,4.5-.5,5.9-6.4,3.9-4.6,8.7-2.1,13.8,1.5,3,2.8,6.1,4.2,9,4.2,8.4,7.8,16.8,8.6,26.4.7,8,3.7,15.5,7.6,22.6,3.2,5.7,7.2,10.7,13.1,13.3,8.6,3.8,12.3,10.8,14.4,19.2,1.2,4.9,2.1,9.8,5.8,13.6,3.9,4.1,0,9.5,2.1,13.1,1.7,3.1,8.3,1.5,9.9,6.7.5,1.6,1.6,2.9,2.1,4.5,4.9,15.3,13.2,28.9,21.3,42.6,6.8,11.5,12,23.8,17.4,35.9,4.2,9.4,9.9,17.9,15.7,26.4,7.4,10.9,14.7,22,21.7,33.3,10.7,17.2,21.3,34.5,32.3,51.6,2.3,3.5,6.3,5.9,9,9.2,14,17.8,27.6,36,39.3,55.3,9.6,15.9,16.1,33.6,21.4,51.6l-.6.6h0Z"/>
        <path class="cls-1" d="M2610,5352.4c-.9,7.2,1.8,15.9,2.7,24.8.3,2.7.9,5.3.9,7.9-.4,19.3,2,38.5,2.2,57.8,0,6,.7,12-1.2,17.8-.4,1.2-.7,2.8-.3,3.9,4.2,11,1.3,22.4,2.4,33.6.7,7.2-.9,14.5-1,21.9-.2,18.3-.9,36.5-3.1,54.7-1.4,11.3-3.3,23-2,34.7,0,.3.1.7,0,1-.9,3.3.9,8.2-3.7,9.4-4.5,1.2-8.4-1.3-11.2-5-2-2.8-2.6-6-2.9-9.4-.9-9.1,1.2-17.9,2.4-26.7.4-3.2,3-5,4.9-7.4,4.8-6.1,4.9-8.5,1-15.1-1.2-2-2.5-3.9-2.6-6.4-.5-10.6-1.1-21.2-1.7-31.8-.3-6.1.2-11.9,2.5-17.6,2.1-5.1,2.2-10.2.6-15.6-2-6.7-2.6-13.7-3.1-20.7-.4-5.8.4-11.2,3.1-16.4,1.5-3,2.7-6.1,3.8-9.2,2.8-7.9,4.7-15.6-4.9-20.6-1.1-.6-2.3-1.9-2.5-3-1.2-9.7-4.7-20,2.6-28.6,9.4-11,10-22.8,4.5-35.3-4-9.2-7.8-18.1-7-28.7.4-5.4-2.3-11-3.4-16.5-.8-4-.9-8,2.6-11.1,1.5-1.3,3.4-2.2,5.5-1.5,1.9.7,2.2,2.4,2.3,4,1.7,17.8,6.5,35.3,6.5,55.2h0Z"/>
        <path class="cls-1" d="M2142.6,4430.2c-17.4-7-33.9-15.5-53.3-21.2,12-7.5,11.9-9.5,1.9-15.9-17.4-11-35.8-20.6-52-33.4-28-22.2-58.9-40-89.1-58.8-15.5-9.6-32.4-17-48.7-25.1-16.7-8.2-32.4-18.4-49.5-26-2.8-1.2-6.3-2.3-6.8-6.4,3.6-1.9,6,.2,8.5,1.6,6.4,3.6,12.7,7.4,19.1,10.8,3.1,1.6,6.5,4.5,10.2,2.1,4.4-2.9-.4-6.7.3-10.8,6.9.5,11.9,4.9,17.1,8.4,4.7,3.2,9.5,5.8,14.9,7.7,9.2,3.3,17.1,8.9,25,14.4,9.9,6.8,19.7,13.5,30.3,19.2,15,8.1,28.9,18,41.7,29,6.2,5.3,12.7,8.8,19.5,12.6,10.5,5.8,19.1,14.3,28.7,21.3,14.2,10.4,28.3,21,41.6,32.6,3.8,3.3,7.4,6.6,10.1,10.9,4.4,6.8,9.5,12.6,17.6,15.5,5.6,2,8.8,7.4,13,11.5h0Z"/>
        <path class="cls-1" d="M2495.6,6015.3c.8-12.1,4-21.1,9.1-30.1,4.7-8.3,5.8-18.2,9.6-27.1,3.5-8.2,6-16.9,9.8-25.1,2.6-5.7,4.2-11.9,5.2-18.2.4-2.6.5-5.5,1.7-7.8,10.1-18.8,10-41.3,21.4-59.6,2.1-3.4,3.4-7.6,2.7-11.5-1.6-9,3.1-16.8,4.2-25.3.4-3.4,2.3-4.2,5.6-3.8,14.1,1.6,13.8,1.4,9.7,15-3.3,10.8-5.9,21.8-8.6,32.8-1.7,7.1-3,14.3-7,20.7-1.8,2.9-2.4,6.2-2.4,9.6,0,5.2-1.2,9.9-4.5,13.9-2.1,2.5-2.2,5.4-2.6,8.4-1.1,8.3-2.4,16.5-10.3,21.8-2.3,1.5-3.8,4.1-2.9,6.9,2.6,8.2-1.6,14.3-6.2,20-3.2,3.9-5.3,7.6-2.9,12.6.1.3.3.7.2,1-2.5,9.1-3.9,19.1-9.7,26.5-5.6,7.1-13.7,12.2-22,19.3h0Z"/>
        <path class="cls-1" d="M868.9,6836c-5.5,2.1-9.9,1.4-14.2,1.5-5.4,0-10.7.3-15.2,3.8-3,2.3-6.2,2.1-9.4.9-4.1-1.4-8.3-2.6-12.2-4.3-20.1-8.6-42.6-9.7-62.4-19.6-7.3-3.7-14.8-7.5-23.4-8-1.3,0-2.8-.5-3.7-1.3-10.9-9.8-25.9-9.5-38.4-15.4-8.3-4-17.4-6.6-25.5-11.2-6.1-3.5-12.2-6.5-19.4-7.4-6.3-.8-10.8-4.9-13.7-10.6-2.1-4.2-.3-7.1,4.4-7.6,3.4-.4,6.7.5,9.6,2.1,5.8,3.2,11.8,6.2,16.2,11.4,3.6,4.2,8,6.5,13.9,6.4,8-.2,15.9,2.4,23.2,4.8,14.7,4.9,30.1,8.5,43.6,16.8,1.9,1.2,4.2,2,6.4,2.5,18.2,4.2,35.8,10.2,53.3,16.4,16.3,5.7,33.4,8.8,50,13.2,5.3,1.4,10.4,3.5,16.7,5.7h0Z"/>
        <path class="cls-1" d="M2580.6,5786.6c-3-1.1-2.7-4.2-3.4-6.5-1.5-5.4-2.6-11-4.1-16.5-2.2-7.6-2.3-15,1-22.4,1.2-2.7,2.3-5.7,2.3-8.6.3-24.5,7.5-47.9,11.1-71.9.2-1.3.5-2.6.6-3.9.6-8.5,6.1-15.3,14.2-17.7,3.9-1.1,4.8,1.2,4.7,4.3-.3,6.1-2.9,11.6-4.8,17.2-1.3,3.9-1.5,7.4-1.2,11.6,1,11,.6,21.8-3.2,32.5-3,8.5-3,17.6-4,26.4-.4,3,.1,6.1-.7,8.9-4.1,14.4-6.4,29.2-10,43.7-.3,1.3-.8,2.6-2.5,2.9h0Z"/>
        <path class="cls-1" d="M1249.1,6890.5c-4.4,2.1-8.8,2.5-13,2.3-11.6-.6-23.2-1.4-34.7-2.6-4.4-.4-8.5-.6-12.7,1-5.7,2.2-11.7,2.7-17.7,2-22.8-2.8-45.9-.6-68.6-5-1-.2-2.1-.3-3,0-8.7,2.7-15.5-.9-22.1-6.4,2.1-4.7,6.8-6.2,10.7-8.4,7-3.8,8.3-3.2,11.8,4.4,3,6.5,5.6,7.9,12.6,6.1,5.8-1.6,11.3-3.9,16.9-5.9,4.3-1.6,8.4-1.7,12.2,1.4,4.8,3.8,9.7,3.4,14.8.4,7.8-4.8,16.2-5.9,25-3.7,10.2,2.6,20.5,1.3,30.8,1,7.3-.2,14.6-.2,21.9-.6,6.4-.4,11.1,1.2,12.8,8.1.4,1.9,2.6,3.1,2.3,6.1h0Z"/>
        <path class="cls-1" d="M421.6,6637.7c1.2.6,3.1,1.3,4.8,2.3,10.2,6.3,20.9,11.9,30.2,19.4,9.2,7.4,21,10.1,30.2,17.4,2.6,2,5.7,3.6,7.9,6,3.3,3.6,7.2,5.8,11.8,7,4.6,1.1,8.7,3.4,12.5,6,2.9,2,5.2,4.7,3.4,8.4-1.9,3.9-6,5.2-9.3,3.2-6.7-3.9-16-3.5-19.9-12.1-1.4-3.1-4.7-3.4-7.6-4.1-16.5-4.2-30.2-13.7-43.4-23.8-5.3-4-10.2-8.5-16.1-11.7-4.2-2.2-7.9-5.1-9.6-9.8-1.5-4.3.6-8.3,4.9-8.3h0Z"/>
        <path class="cls-1" d="M868.3,6847.9c5-1.9,9.5.4,14.1.4,7,0,14,.6,21,.6,7.8,0,15.3.2,21.1,6.7,1.2,1.4,3.5,2,5.3,2.5,14.4,4,29.1,7.3,44.1,8.2,6.7.4,13.3.1,19.6-2.5,5-2.1,10.3-2.5,15.7-1.1,5.9,1.6,11.9,0,17.9,1.1,7,1.2,10.3,5.6,12.7,11.3,1.3,3.2,0,5.1-3.3,5.7-5.3,1-10.7,1.1-15.9.3-17.4-2.7-34.8-5.5-52.2-8.6-7.8-1.4-14.7-5.7-23-5.6-12.4.1-24.4-2.7-35.5-8.5-.9-.4-2-.8-2.9-.7-12.4,1.9-23.2-5-35-6.6-1.3-.2-2.6-.7-3.6-3.3h0Z"/>
        <path class="cls-1" d="M627.2,6756.5c-.3,4.9-4.1,7.6-9.1,6.4-4.4-1.1-7.8-3.7-10.4-7.3-1.9-2.6-4.3-4.1-7.6-3.9-11.5.8-20.3-5.2-28.8-11.8-4.2-3.3-8.6-5.4-13.9-7-8.5-2.5-16.5-6.8-24.6-10.6-2-.9-3.8-2.7-5.2-4.5-2.1-2.5-2.5-5.4-.6-8.3,1.7-2.7,4.1-4.4,7.4-4,3,.4,6,1.2,8.3,3.2,9.4,8.2,20.6,12.6,32.2,16.6,5.6,1.9,10.7,5.2,16,8.1,8.4,4.6,16,10.6,25.7,12.6,2.8.6,5.3,2.7,7.7,4.4,2,1.4,3.2,3.4,2.9,6h0Z"/>
        <path class="cls-1" d="M535.9,4256.3c-3.2,0-6.1-.6-7.3-4-1.1-3.1-.1-6.1,2.5-8.1,6.1-4.7,12.4-9.3,19.5-12,10.3-4,19.8-9.4,29.4-14.7,5.3-2.9,10.8-5.4,16.9-5.8,3.7-.2,7.6-.2,9,4.3,1.2,3.9,0,7.1-3.4,9.6-9,7-19.2,12-29.8,15.8-9.7,3.5-19.7,5.9-28.3,12.1-2.4,1.8-5.3,2.7-8.5,2.7h0Z"/>
        <path class="cls-1" d="M402.4,6636.7c-7.1-.9-13.2-3.5-18.3-7.9-8.3-7.2-17.5-13.1-26.2-19.7-7.8-6-14.6-13.4-21.8-20.2-1.2-1.1-2.2-2.8-1.4-4.5,1.1-2.4,3.3-1.3,5.2-1.2,15.1.9,24.4,12.3,35.6,20.1,10.5,7.4,18.9,17.4,29.6,24.6,2.3,1.5,4.4,3.4,3,6.5-1.1,2.5-3.7,2.5-5.7,2.3h0Z"/>
        <path class="cls-1" d="M326.8,6579.2c-6.4,1.2-9-2.1-11.1-5.4-2.4-3.9-5.6-6.4-9.8-8-10.7-4.1-18.1-12.1-24.8-20.9-1.8-2.4-2.8-5.7-5.7-6.7-9.7-3.5-14.1-12.9-21.7-18.8-1.3-1-2.6-2.3-1.8-4.2.8-1.9,2.6-1.8,4.2-1.9,8.7-.7,13.8,3.2,15.6,11.7,2.2,10.2,3,11.2,13.6,12.1,6.6.6,12.2,2.6,16.5,7.9,1.6,2,3.9,3.6,6.1,5,5.7,3.5,9.7,8.1,10.7,14.9.8,5.5,5.8,8.6,8.1,14.2h0Z"/>
        <path class="cls-1" d="M132.2,6396.9c3.9.9,7.6,2.4,11.6.2,4.2-2.3,6.7.1,9.2,3.3,5.5,7.1,10.8,14.3,15.3,22.1,2.9,5,6.3,9.1,12.2,11.1,5.2,1.7,6.5,11,2.8,15.1-1.7,1.8-3.6,1.3-5.4.3-3.2-1.8-5.7-4.6-8.1-7.2-11.4-12.5-22.7-25-34.1-37.5-1.8-2-3.4-4.1-4-6.8l.6-.6h0Z"/>
        <path class="cls-1" d="M2119.1,4432.6c6.5-.5,10.8,2.1,15,4.6,9.9,6,19.7,12.2,30.3,17,2.1.9,4.9,2,4.4,4.7-.6,3.6-2.1,7-5,9.4-1.1.9-3,.2-3.3-1.1-2.6-11.2-14.1-11.9-21-18-6.5-5.9-13.6-11.1-20.5-16.6h0Z"/>
        <path class="cls-1" d="M221.2,6479.4c3.5,0,6.3.7,9.1,1.9,8.3,3.6,9.8,11.8,3.4,18.2-2,2-4,1.9-6.2.6-4.4-2.4-7.8-6-10.9-9.9-1.8-2.2-4.3-4.8-2.7-7.9,1.5-3,4.9-2.8,7.4-3h0Z"/>
        <path class="cls-1" d="M2188.2,4481.5c-4.4-.3-8.3-2-11.9-4.4-4.4-3-5-7.2-1.9-10.9,2.9-3.5,6.2-3.5,10.1.3,2.6,2.5,4.9,5.3,7.2,8.1,1.2,1.5,2.9,3,1.7,5.2-1.1,2-3.3,1.8-5.3,1.8h0Z"/>
        <path class="cls-1" d="M204.4,6453.6c2.1.6,3.3,1.7,2.9,3.6-.9,4.3-3.3,8-6.2,11.1-2.2,2.4-5.9.9-8.8-3.4-1.9-2.8-1.6-4.7,1.7-6.2,3.6-1.6,7-3.5,10.3-5.2h0Z"/>
        <path class="cls-1" d="M-122.4,5057.8c1.4,8.8-1.6,15-4.3,21.3-.5,1.2-1.4,2.5-2.9,2.2-2-.4-2.6-2.3-2.3-3.9,1.5-6.7,4.1-12.9,9.5-19.6Z"/>
        <path class="cls-1" d="M1848.7,4232.4c6.4.7,12.8,1.5,17.7,6.6,1.1,1.2,2.2,2.8,1.3,4.4-1.1,1.8-3,1-4.4.2-5.3-3-10.5-6.1-15.8-9.1.4-.7.8-1.4,1.1-2.1h0Z"/>
      </g>
      <g>
        <path class="cls-1" d="M-288.8,7362.1c5.8-9.3,15.3-11.7,23.4-15.7,6.5-3.2,13.7-5.3,18.6-11.2.8-1,2.1-1.8,3.3-2.1,15.7-4.4,28.8-15.4,45.4-17.6,2.6-.3,4.3-1.8,5.3-4,2.5-5.4,7.2-7.5,12.5-9.1,14.3-4.5,27.9-10.4,41.2-17.4,8.7-4.6,18.2-8.4,28.8-5.7,2.8.7,5.1-.4,7.2-2.5,4.3-4.5,9.8-6.6,16-7.2,4.4-.4,8-2.8,11.8-4.7,11.5-5.7,23-11.6,36.2-13.3,13.2-1.7,25.9-5.5,38.8-8.8,15.8-4,31-9.5,47-13,14.2-3,28.5-5.8,42.9-8.4,4.3-.8,8.5-1.2,12.8,0,3.3.9,6.6.5,9.7-1,4.6-2.2,9.1-4,14.3-1.6,2,.9,4,0,5.5-1.4,5.7-5.3,12.6-5.6,19.7-4.4,4.4.7,8.5.6,12.8-.5,6.8-1.8,13.8-1.9,20.7-2.8,19.5-2.5,39-5.2,58.6-3.2,13.7,1.4,27.1-1.7,40.5-1.2,18.5.7,37.3-2,55.6,3.2,1.2.3,2.8.6,3.9.2,12.1-3.9,23.6,2.2,35.5,1.6.9,0,2,.4,2.9.8,2.2,1.1,6.2.1,6.2,3.7s-3.3,2.8-5.4,3.5c-1.2.4-2.6.5-3.2,3.2,9.5-2.2,18.7,1.6,28.2-1,7.9-2.2,16.7,0,24.3-4.2,1-.6,2.8-.6,3.9-.1,13.2,5.8,27.6,2.3,41.1,5.6,8.3,2,17.2,2,24.9,6.7,2.6,1.6,5.8,1.5,8.8,1.5,14.2,0,27.7,2.5,40.5,8.9,7.1,3.5,15.1,2,22.5,3.6,4.7,1.1,9.2,2,10.2,7.9.7,4.5,3.8,9.9,1.1,13.4-3,3.9-8-.2-11.9-1.2-11.5-2.9-22.9-6.4-34.3-9.7-2.2-.6-4.5-1.7-6.7-1.8-27.4-1.3-53.5-10.2-80.2-15-17.1-3.1-34.1-3.6-51.2-5.6-3-.3-6.2,0-8.8-1.2-7-3.1-14.2-3.2-21.6-2.9-5.5.3-10.5,0-14.6-4.6-3.1-3.4-6.6-3.3-10.6-.3-6.2,4.6-6.9,4.5-10.9-1.2-2.8-4.1-6.3-5.7-11-5.3-7.3.5-14.6.8-21.9,1.9-6.2.9-12.1,3.7-18.4.7-1.8-.8-4.2.2-5.5,1.7-4.2,4.7-7.2,2.7-11.8-.2-9-5.7-19.3-4.2-29.1-1.9-5.6,1.4-10.7,3.2-16.4.3-3.2-1.6-6,0-6.1,4-.1,3.4-1.8,4.9-5,4.6-3.2-.3-5.9-1.1-5.7-5.3.2-3.6-2.5-4.4-5.4-4.4-6.4,0-13,.5-17.4,5.8-3.8,4.5-8.1,5.5-13.3,3.9-11.3-3.3-22.2-.5-31.9,4.3-8.4,4.2-16.3,5.3-24.9,3.3-4.6-1.1-8.4-.6-12.2,2.1-6.4,4.5-13.1,6.5-20.4,1.7-3-2-5.8-1-7.9,1.7-4.4,5.4-10.3,7.5-16.8,7.1-12.4-.8-23.6,3.8-34.9,7.5-11.3,3.7-22.1,9.2-34.5,8.9-2.7,0-5.3,1-7.5,2.5-6.2,4.3-13.2,6-20.4,7.7-8.1,1.8-16.1,3.6-23.9,6.8-7.6,3-16.2,3.8-24.6,2.6-5.7-.8-10.8-.2-12.5,6.6-1.2,4.6-4.2,5.5-8.4,4.3-2.7-.8-5.5-.4-7.3,2-5.2,6.8-13.1,7.8-20.5,9.1-7.6,1.3-15.4,4.3-23.1-.9-2.6-1.8-5.9,0-8.1,2.3-1.9,1.9-3.6,3.9-5.2,6.1-11.3,15.4-26.7,25.2-43.8,32.8-7,3.1-13.8,6.5-20.6,10.1-6,3.2-11.9,3.7-18.2,1-1.5-.7-3.2-.9-4.8-1.4-4.9-1.5-8.1,0-10.7,4.6-3.4,6.2-3.7,6-13.1,3.3h0Z"/>
        <path class="cls-1" d="M265.6,9437.4c.9,2-.3,3-.6,4.2-2.7,10.7-2.9,11.6-13.9,10.8-12.6-.9-25.4,1.3-37.7-2.4-.9-.3-2.1-.5-3-.2-15.1,4.8-29.6-1.6-44.3-2.8-10.3-.8-20.6-.4-30.9-1.2-9-.7-17.5-2.2-26.2-4.8-11.7-3.4-24.3-3.5-36.4-5.7-21.6-3.8-43.3-6.9-64.2-14.3-5.3-1.9-10.8-3.4-16.3-4.7-12.6-2.9-25.3-5.8-38-8.3-5.3-1.1-10.4-2.9-15-5.2-13.5-6.7-28.1-10.1-42.3-15-4.7-1.6-9.7-2.5-12.9-7-2.2-3-5.8-2.9-9.1-3.2-8.8-.7-16.8-3.3-24.6-7.4-9.7-5.1-20.2-8.5-29.5-14.4-1.9-1.2-4.4-1.4-6.7-1.9-7.3-1.4-13.8-4.6-20-8.7-2.8-1.9-5.4-4-8.4-5.3-20.7-9.2-40-20.9-60.1-31-12.3-6.1-22.2-15.7-34.8-21-5.7-2.4-6.5-15.5-1.9-19.3,2.3-1.9,4.6-.5,6.4.9,8.7,6.7,19,10.6,28,17,15.4,11,32.9,18.6,49.9,26.9,5.1,2.5,10.6,4.1,14.3,8.8.4.5,1,1.1,1.6,1.2,9.5,2.3,17.2,8.2,25.8,12.5,11.8,5.9,24.2,10.7,36.2,16.4,8.6,4.1,18.7,4.8,27.3,9.3,2.7,1.4,5.7,2.2,8,4,8,6.2,16.9,8.9,26.8,9.5,8,.5,15.6,2.6,23,6.1,7.5,3.5,15.7,5.4,23.5,8.1,16,5.6,32.9,7.6,48.6,14.6,9.9,4.4,20.5,7.3,31.8,7.7,15.7.4,30.8,5.1,46.2,7.9,11.1,2.1,22.4,2.9,33,7.3,2.1.9,4.7,1.6,6.8,1.1,9.1-1.9,17.8-1.5,26,3.3,1.3.7,3.3.6,4.9.4,12.4-1.7,24.6,1,36.8,1.7,12.2.8,24.3,2.4,36.3,5.2,3.5.8,6.6-.3,9.7-1.3,8.8-2.7,17.6-2.6,26,.2h0Z"/>
        <path class="cls-1" d="M803.5,7332.5c8,4.7,14.7,8.7,21.5,12.6,12.6,7.3,24.1,16.5,38.1,21.4,4.1,1.4,7.7,3.7,11.1,6.6,8.1,6.9,17.8,11.5,26.6,17.4,7.7,5.2,15.4,10.4,23.1,15.6,10.4,7.2,19.6,16,31,21.8,4.6,2.3,7.1,7,11,10,5.2,4.1,10.7,7.9,16.2,11.6,4.5,3.1,8.5,6.5,9.3,12.3.9,6.4,5.3,9.1,10.8,10.1,9.5,1.6,16.2,7.1,22.1,14.2,13.2,15.8,29.1,28.8,44.8,42,1.3,1.1,2.5,2.2,3.5,3.5,4.8,6.8,10.8,12.6,16.8,18.4,2.4,2.3,5.5,4.4,6.7,7.3,3.5,8.3,10.3,12.6,17.8,16.3,3.1,1.6,5.2,4.1,6.9,7,8.2,14.4,20.3,25.4,31.8,36.9,3.4,3.4,5.8,7.2,7.9,11.4,1.7,3.3.4,5-3.2,5.2-2,.1-4,0-6,.3-12,1.1-12.8.8-17.4-10.8-2.6-6.5-5.2-12.3-12.3-16-5.3-2.8-9.2-8.5-13.4-13.1-11-12-20.9-24.8-33.7-35.2-7-5.7-12.1-14-18.1-21.1-3.9-4.6-7.9-8.9-12.1-13.2-4.2-4.3-8.6-8.3-9.1-15-.2-3.9-3-5.2-6.4-3.6-5.2,2.5-8.7.1-12.5-3.1-5.4-4.4-9.9-9.9-15.1-14.3-8.5-7.2-15.4-16.4-26.1-21.1-10.7-4.8-19.1-13.2-28.4-20.2-15.1-11.4-29.8-23.2-45.8-33.2-5.7-3.6-10.8-8-15.6-12.2-7.9-7-18.2-9.6-25.9-16.4-1.9-1.6-4.8-2.3-7.3-3.1-7.2-2.2-13.6-5.4-17.6-12.1-1.2-2.1-2.9-3.9-5.4-4-5.8-.4-8.7-4-10.8-9-2.1-4.9-5-9.3-9.4-12.7-3.2-2.5-5.6-5.7-5.4-12.5h0Z"/>
        <path class="cls-1" d="M-297.5,7367.6c-3.3,7.5-6,13.9-8.9,20.2-.7,1.5-1.6,3.2-2.9,4-17.1,10.6-31.1,25.8-50.4,33.2-3.3,1.3-7.2,3.4-8.8,6.3-3.8,6.8-10.1,10.6-15.8,14.9-11.9,9.1-23.9,18-35.5,27.4-1,.8-2.3,1.4-3.5,2-7.7,3.9-15.4,7.9-18.7,16.7-.1.3-.4.6-.6.8-12.5,7-20.7,19.1-32.3,27.1-6,4.2-11.7,8.4-15.6,15.1-3.2,5.7-8.3,10.8-13.3,14.5-12.4,9.4-19.7,23.4-31.7,33-6.5,5.2-10.9,12.5-17.8,17.2-3.7,2.5-5.2,6.9-7.7,10.3-11.1,15.4-26.2,27.2-37,42.8-2.7,4-6.9,5.2-11.2,5.8-4.4.7-6.1-1.4-5.2-5.9.9-4.8,3.3-8.9,7.2-11.6,4.1-2.8,5.9-7,8.7-10.5,9.2-11.5,15.4-25.6,27.7-34.6,1.7-1.2,2.8-2.8,3.5-4.7,1.1-2.9,2.8-5.4,5-7.4,9.1-8.2,15.6-18.8,25-26.7,4.3-3.6,8-7.8,11.2-12.6,4.9-7.6,12.2-13.1,19.2-18.7,7.2-5.9,13.3-13,20-19.2,10.5-9.9,20.6-20.5,32-29.3,10.8-8.3,21.1-17.1,31.5-25.8,15-12.6,30-25.2,46.7-35.6,11-6.8,21.4-14.6,31.7-22.4,4.3-3.3,9.2-5.2,13.7-8,7-4.4,14.1-8.7,20.2-14.4,3.1-2.8,7.1-4.8,13.4-3.9h0Z"/>
        <path class="cls-1" d="M-834.1,8183.5c-2.7-6.4-1-12.9,1.7-18.3,4.6-9.4,4.5-19.3,5.4-29.2,1.1-12.9,2.3-25.5,7.7-37.7,3.7-8.3,4.3-18.1,5.7-27.3,1.5-10,4.3-19.5,9.6-28.2,2.6-4.2,3.6-8.5,3.3-13.3-.5-6.1,1.5-11.7,3.3-17.5,3.3-10.4,6.8-20.8,8.9-31.6,2.5-13.4,8.9-25.7,14.9-37.9,2.1-4.2,4.4-8.1,4.5-13,.2-6.6,2.7-12.3,7.3-17.1,3.1-3.3,4.9-7,5.2-11.5.5-6.8,2.9-12.7,6.9-18.4,3.9-5.6,6.7-12.2,9.3-18.7,2.8-6.8,4.7-13.9,9.8-19.5.4-.5.8-1.2.8-1.8-.3-15.6,11.6-25.7,17.4-38.5,5.2-11.5,14.2-20.8,18.2-33,1.1-3.5,3.7-6.1,8.4-7.4.8,6.8-2,12.1-4.4,17.3-3.2,7-6.5,13.8-6.8,21.7,0,1.9-.8,4.2-2,5.5-8.6,8.6-11,20.3-15.4,30.9-1,2.5-1.3,5.5-3.5,7-5.5,3.9-6.8,9.7-7.7,15.6-1.5,9.4-5.3,17.8-10.8,25.5-3.1,4.3-6,8.8-5.8,14.6,0,1-.2,2-.7,2.9-10.1,18.1-12.2,39.2-21.9,57.4-6.5,12.1-8.6,25.7-12.9,38.5-6.2,18.6-9.4,38.1-16.2,56.5-1.4,3.8-2.1,7.7-2.1,11.8,0,6.1-1,12-4.7,17-4,5.6-3,12.1-3.5,18.3-.3,3.3,1,7.2-1.6,9.6-7.1,6.5-6.5,15.7-8.3,23.9-1.1,4.9-1.4,9.7-5.1,13.6-2.9,3.1-3.4,7.1-2.8,11.2.2,1.3.5,2.6.7,3.9,2,12.9,1,14.4-12.7,17h0Z"/>
        <path class="cls-1" d="M615.1,9403.2c-2.9-.5-3.8-2.3-2.1-4.2,3.4-3.8,5.5-8.3,8.2-12.5,1.3-2,3.3-3.6,5.8-3.4,10.5.8,18.1-6.1,26.6-10.2,7.2-3.4,14.1-7.5,22-9.2,16.3-3.7,30.4-13.3,46.6-17.5,2.1-.5,3.9-2.5,5.8-3.8,4.4-3.1,9.1-5.9,14.5-6.4,12.9-1.2,23-7.9,32.6-15.7.5-.4,1-.9,1.6-1.1,14.5-5,26.6-15.1,41.1-20.2,6.1-2.2,10.6-6.8,15.6-10.6,10.2-7.7,22.3-11.7,32.7-19,13.5-9.6,27.9-18,41.9-26.8,4.5-2.8,9.1-5.5,13.7-8.2,3.4-2,6.3-2,8.3,1.9,1.7,3.3,5.4,6.3,1.2,10.6-4.9,4.9-9.3,10.2-16.6,12.3-7.4,2.1-13.3,7.6-19.4,11.9-7.8,5.5-16.2,10.3-23.7,16.4-4.7,3.9-11.3,5.6-17,8.1-3.1,1.4-5.9,3.2-8.1,5.7-5.1,5.6-11.7,8.6-18.7,11-2.8,1-6.1,1.6-8.2,3.5-8.3,7.4-18.2,11.8-28,16.5-6,2.9-12.3,5.3-17.9,8.5-13.6,7.8-28.1,12.9-42.2,19.2-10.4,4.6-21.3,8.9-31.5,14.6-3.1,1.7-6.9,2.7-10.5,3.1-5.8.6-11.2,1.7-15.4,6.1-.7.7-1.7,1.3-2.6,1.4-15.7,1.8-28.4,12.9-44.1,14.5-4.4.4-8.1,3.1-12.1,3.8h0Z"/>
        <path class="cls-1" d="M-540.9,9075.8c-1.3,4.6-3.9,7.4-6.5,9.8-2.9,2.6-4.7-1.1-6.6-2.5-9-7-16.4-15.5-23.1-24.6-8.6-11.8-17.3-23.6-28.3-33.4-.7-.7-1.7-1.4-1.9-2.2-3.7-13.6-16.4-20.6-23.1-32-1.2-2-2.9-3.8-3.6-6-3.9-11.4-12.1-19.7-19.9-28.2-5.2-5.6-8.5-12.6-12.6-18.9-9.9-14.9-19-30.2-25.6-47.2-3.8-9.8-9.3-19.8-17.4-27.6-4-3.8-6.3-8.5-8.1-13.5-1.4-3.8-3-7.4-5.8-10.4-1.3-1.4-2.5-3.2-3.3-5-5.5-12.8-10.9-25.7-16.3-38.5-.7-1.8-1.9-3.8-.3-5.6,1.7-1.8,3.7-.6,5.6,0,5.8,2,9.5,5.8,13.5,10.8,7.8,10,11.1,21.8,16.9,32.5,5.2,9.6,11.7,18.5,16.3,28.4,1.8,3.9,4.6,7.6,5.4,11.7,1.5,7.7,6.2,13,11.3,18.3,2.1,2.2,4.4,4.2,5.3,7.2,4.2,14.8,14.7,25.8,22.4,38.5,2.6,4.2,6.5,7.6,9.6,11.4,1.4,1.8,2.9,3.8,3.6,6,4,13.6,15.3,22.2,22.2,33.8,5.1,8.5,13.5,14.6,17.2,24.1,1.9,4.8,6.8,7.2,10.1,10.9,11.1,12.7,22.5,25.2,33.6,37.9,3.9,4.5,4.7,11,9.4,14.4h0Z"/>
        <path class="cls-1" d="M-809,8536c-3.2-1.8-3.6-4.6-5-6.9-2.1-3.4-4.5-6-8.9-3.8-1.9,1-3.9,1.7-5-.9-1.1-2.5-1.2-5.1.9-7.4,7.6-8.4,8.4-12.2,3.1-21.3-2.3-3.9-3.6-7.8-3.3-12.2.5-6.7-1.1-12.5-6.1-17.3-2.9-2.7-3.6-6.2-3.5-10,.3-13.4-1-26.6-4.9-39.5-2.5-8.5.7-17.2-.6-25.8-1.5-9.8,0-20-2.5-29.8-.6-2.2-1-5.3.7-6.7,5-4.3,2.9-9,1.3-13.6-3.7-10.4-2.8-21.1-1.7-31.6.8-7.6,2.2-15.3,1.5-22.8-1.4-14.5,3.5-28.2,4.2-42.4.3-5,2.2-5.8,6.5-3.9,3.9,1.7,6.1,4.3,6.7,9,1.2,8.7,1.1,17.3-1.1,25.8-1.5,5.6-1.2,11-.5,16.8,1.7,13.6,2.2,27.2-.7,40.7-.6,2.9-1.5,5.8-.5,8.8,2.4,7.4,2.1,15.1,2.2,22.8.6,30.3,2.6,60.4,5.5,90.6.9,9.1.5,17.8,5.1,26.3,2.1,3.8,1.1,9.2,1.9,13.7,2,11,0,22.7,5.3,33.3,1.1,2.1,1.2,5.2-.7,8.4h0Z"/>
        <path class="cls-1" d="M1359,8637.8c-3.5-2.6-1.9-4.9-1-6.8,4.2-9.1,1.8-17.8-2.1-25.9-1.9-4-2.6-7.3-.9-11.2,6.1-14.5,9.9-29.2,9.8-45.3,0-9.4,3.2-19,5.6-28.3,3.3-12.2,5.4-24.5,6.5-37.2.8-9.4,5.2-18.4,7.9-27.6,1.2-4.1,2.3-8.3,3.5-12.5.5-1.7,1.5-3.3,3.4-3,1.8.3,2.6,2.1,2.8,3.7.3,2,.3,4,.4,5.9,0,3-.7,6.2,0,8.9,3.9,13.3,1,26.4-.4,39.6-.1,1.3,0,2.8-.5,3.9-6.4,15.3-7.1,31.6-9.3,47.7-.1,1-.1,2-.5,2.9-7.9,21.5-9.9,44.6-17.6,66.2-2.3,6.4-3.6,13.1-7.6,18.9h0Z"/>
        <path class="cls-1" d="M438.3,9428.2c4.6-.8,9.2-1.2,13.7-2.5,24.6-7.1,49.8-11.5,75-15.7,19.4-3.2,38-9,56.9-14,2.2-.6,4.5-1.1,6.8-1.4,7.8-1.1,10.3,1.1,10.3,8.9,0,3.4-1.2,5.6-4.7,6.5-3.5.9-6.9,2.9-10.4,3.3-19.2,2.4-36.8,11.5-56.2,12.8-2.9.2-6,1-8.7,2.1-9.3,4.1-19.1,5.6-29.2,5.7-11.7,0-22.8,4.3-34.5,4.8-7.8.3-15.8.6-23.2,4.8-3,1.7-7.1,1.8-10.7,2.2-2.8.3-6.5,1.6-8.1-1.6-1.4-3,2.1-4.4,3.8-6.3,1.5-1.8,3.2-3.4,4.9-5,5.3-4.9,6.3-5.2,14.3-4.5h0Z"/>
        <path class="cls-1" d="M1168,7648.1c5.3-.5,8.9,2.2,11.7,6.2,6.2,9,12.4,18,18.4,27.1,1.7,2.5,2.9,5.3,3,8.4.1,6.2,3.7,11,8.2,14.2,5.3,3.7,8.8,8.9,13.3,13.3.9.9,1.8,2,2.8,2.9,5.7,5,1.1,14.9,8.8,19,6.9,3.7,9.4,10.9,13.7,16.7,4.7,6.3,2.5,12-.5,17.7-2.3,4.4-5.4,4.6-8.5.6-5.4-7.1-11.1-14.1-12.4-23.5-.4-2.7-1.1-5.2-3.9-6.5-5.9-2.6-9.3-7.8-11.7-13.1-9.5-20.5-24.9-36.5-38.3-54.1-4.4-5.8-7.5-12.5-11-18.8-4.1-7.5-2.6-9.7,6.3-9.9h0Z"/>
        <path class="cls-1" d="M730.1,7301.1c-2.7,2.4-5.1,2-7.1,1-10.2-5.2-20.8-2.4-31.3-2.1-3.7,0-7.3.9-10.7-1-11.1-6.3-23.8-8.3-35.4-13-6.1-2.5-12.7-3.9-17.8-8.6-3.2-2.9-7.3-2.8-11.3-3.1-11.4-.7-11.4-.8-14.9-11.7-.6-1.9-1.6-3.7-2.3-5.5-.8-1.8-1.9-3.8,0-5.5,1.7-1.5,3.8-.8,5.7-.1,2.5.8,5.2,1.5,7.4,2.9,12.3,8,26.7,9.8,40.2,14.2,7.9,2.6,16,4.4,23.1,9.1,2.4,1.6,5.6,2,8.5,2.7,16.4,4.3,31.6,11.3,46,20.8h0Z"/>
        <path class="cls-1" d="M1138.9,9033c-.2-2.9,1.2-5.2,2.7-7.4,5.8-8.6,14.1-14.9,21.1-22.4,1.1-1.1,2.9-1.7,4.4-2.2,5-1.7,11.3-2.2,6-10.3-1.7-2.5,1.1-5.2,3.1-6.7,5.4-4.3,7.7-10.4,11-16.2,6.1-10.6,13.4-20.5,20.1-30.7,1.1-1.7,2.4-3.2,4.3-4,4.6-2.1,8.2,0,8.2,4.9,0,4.7-1.3,9.2-3.5,13.4-8.2,16-19.2,30.1-31,43.4-8.8,10-14.9,21.9-22.6,32.7-4.6,6.5-9.9,12.5-14.9,18.7-2.2,2.8-4.6,3-5.9-.7-1.4-4.1-2.2-8.3-3.2-12.5h0Z"/>
        <path class="cls-1" d="M-780.6,8653.4c3.7,6.1,1.4,12.4,4.6,17.2,3,4.4,6.2,9,7.3,14.1,3.3,15,12,28.1,15.1,43.1.5,2.6,1.9,5.1,2.1,7.7.3,4.8.4,9.2,5.7,11.4.7.3,1.3,1.5,1.6,2.4,2.3,7.9,4.4,15.8,6.9,24.9-9.3-1.5-17.2-2.6-19.4-13-.8-3.8-4.1-7.5-4-11.1.3-8.5-3-14.3-9.4-19.5-6.9-5.6-7.5-13.9-7.2-21.9.2-7.3-.5-13.1-6.6-18.6-6.8-6.1-7-16.8-1.4-24.5,2.6-3.5,1.2-7.8,4.7-12.2h0Z"/>
        <path class="cls-1" d="M-462.1,9169.5c-14.6-5.2-24.8-15-34.5-25.5-11.5-12.4-23.3-24.4-34.9-36.8-2.1-2.2-5.8-4.2-4-8.2,1.5-3.2,8.4-4.6,12.5-3,9,3.5,14.8,10.8,21.3,17.5,11.5,11.8,21.2,25.4,35.3,34.8,8,5.4,8.6,9.8,4.3,21.3h0Z"/>
        <path class="cls-1" d="M1127.6,9068.1c0,2-.8,3.5-1.9,4.8-8.3,9.9-16.2,20.2-26,28.6-9.6,8.2-16.1,19.4-26.2,27.1-1.6,1.2-2.8,2.8-4.3,4.1-.7.6-1.8,1.1-2.7,1.1-2.3,0-10.2-11.8-9-13.7,2-3.4,3.8-7.4,6.8-9.7,7.3-5.4,12.2-13.2,18.9-18.8,9.8-8.3,17.9-18.5,28.6-25.7,2.9-2,11.6-2,14.2.1.7.6,1.1,1.6,1.5,2.2h0Z"/>
        <path class="cls-1" d="M965.9,9208.3c-1.9-7.5,3.4-12.6,10.2-17.1,12.8-8.3,22.7-20.1,34-30.3,4.3-3.8,8.5-6,14.1-5.9,4.7,0,7.3,2.9,9.1,6.6,1.9,4-2.2,4.8-4.1,6.8-8.3,9-16.6,18.3-27.1,24.7-9.5,5.7-17,13.5-25,20.9-.5.4-1,.9-1.5,1.3-2.4,1.6-4.9,4.2-8,2.7-3.5-1.8-1.7-5.2-1.6-9.7h0Z"/>
        <path class="cls-1" d="M1299.8,8801.7c-.6,4.3-1.1,7.9-2.9,11.2-4.3,8.2-9,16.3-13,24.5-5.6,11.6-11.4,21.8-22.4,29.1-4.8,3.2-7.2,9.3-5.2,16.1.8,2.6.7,7-3.3,6.8-3.5-.2-3.8-4-3.4-7.2,1.3-10.4,4.1-20.5,7.8-30.3,2.7-7.2,9.4-10.9,12.9-17.5,2.2-4.1,4.6-8.1,5.5-12.6,1.7-8.3,6.2-15.4,9.1-23.2,1.7-4.5,5.8-5.3,10-4,3.7,1.1,5,4.1,4.9,7.1h0Z"/>
        <path class="cls-1" d="M386.6,9447.1c-.6.6-1.2,1.5-1.6,1.4-11.2-1.6-22.4,1.5-33.6.1-3.8-.5-7.2-.4-10.5,1.8-3.4,2.3-7.4,3.4-11.4,3.3-10.2-.3-20.4-1.4-30.8-.5-4.8.4-5.6-1.8-3.6-6.4,2.8-6.2,6.8-9.6,14.4-10.2,12.9-.9,25.9,1.4,38.8-1,5.2-1,10.6-1.1,15.8-2,8.6-1.6,15.9-.8,19.7,8.6.7,1.7,2.7,2.9,2.7,5h0Z"/>
        <path class="cls-1" d="M1402.7,8265.2c2.8,12.4,5.2,22.9,3,33.9-1.8,8.9-1.1,17.8-.2,26.8,2,19.9,2.2,39.9-1.9,59.7-.8,4.1-1.7,8-7.1,8-5.3,0-9.1-3.4-10-9.1-.3-2-.3-4-.3-6,0-4.3,1.5-7.4,6.5-6.5,4.9.9,6.9-1.5,7.4-5.7.6-5.6,1.4-11.3,1.1-16.9-.3-5.6-1.3-10.9-5.8-15.4-6.7-6.6-6.7-9.8-2-18.6,2.5-4.8,6.2-10.1,4.6-14.9-3-8.8-1.3-16.4,2-24.3,1.1-2.7,0-6,2.7-10.9h0Z"/>
        <path class="cls-1" d="M1338.4,7950.3c-5.6-1.4-9.8-2.2-14-.6-4.1,1.5-6.4-1-7.5-4.5-3-8.8-5.9-17.5.1-26.6,3.8-5.8,3-6.1-3.7-8.6-7.8-2.9-13.7-7.9-15.9-16.4-1.3-5.2,0-6.7,5.5-6,4.8.6,9.3,1.7,10.1,7.7.2,2,1,4,2.6,5.3,11.9,9.3,13.6,24,18.9,36.7,1.5,3.6,2.3,7.6,3.9,13.1h0Z"/>
        <path class="cls-1" d="M1350.5,7990.1c3.3,1.6,4.6,4.6,5.4,7.9,3.4,13.2,6.8,26.3,10.1,39.5.6,2.2,1.3,6.1-.2,6.6-6.3,1.8-3.7,9.8-9.1,11.9-2.2.9-4,.7-5.1-1.3-.9-1.7-1.3-3.7-1.8-5.6-2.6-10-3.5-20.3-7.4-29.9-1.6-3.8-.3-7.2,1.5-10.5,3.2-5.8,5.7-12,6.7-18.7h0c0,0,0,0,0,0Z"/>
        <path class="cls-1" d="M792.3,7329.3c-.3,1.5-1.6,2-2.8,2.6-2,1-4.7,1.4-4.8,4.4,0,3.5,2.5,5.3,5.4,6.5,3.4,1.4,6.8,2.6,10.2,4,.6.3,1.2,1.7,1.1,2.5-.2,1.6-1.6,2.2-2.9,2-1.2-.2-2.7-.6-3.6-1.4-9.7-8.6-22.7-10.6-33.6-17.1-8.9-5.3-19.2-16.4-22-27.3,10.2,0,44.8,15.7,53,23.8h0Z"/>
        <path class="cls-1" d="M1379.5,8095.1c-.7,5.9,0,10.7-3,14.8-1.4,2-3.1,3.6-5.8,3.1-2.4-.4-3.1-2.3-3-4.5.2-2.8-1.3-4.9-2.8-7.2-7.2-11.1-8.9-23.3-6.1-36.2.6-3,2-5.7,4.9-7.1,3-1.5,5.8-1.5,7.8,1.7.9,1.4,2,2.8,2.3,4.4,2.3,10.7,4.9,21.3,5.5,31Z"/>
        <path class="cls-1" d="M-371.8,9242.9c-8.1-.2-13.8-4.7-17.3-11.3-3.2-6.1-7.8-9.8-14-11.8-9.3-3.1-16-10.5-24.6-14.7-2-1-3.9-3-2.7-5.7,1-2.3,3.4-1.5,5.2-1.9,12.6-2.8,22,3.8,29.5,12.1,5.2,5.8,11.1,10.2,17.2,14.7,7.8,5.8,9,8.2,6.8,18.7h0Z"/>
        <path class="cls-1" d="M-624.1,7684.1c-.2,4.3-2.5,6.2-4.9,8-4.4,3.3-6.4,7.4-7.9,13-3,11.7-11.6,20.6-18.7,30-1.4,1.9-3.1,1.8-5.2.8-8.4-3.9-10.6-10.6-3.4-16.5,9-7.4,13.5-19,24.2-24.5,2.3-1.2,2.6-3.7,3.1-6,1-4.5,4.3-6.5,8.3-7.6,2.9-.8,4.3.7,4.5,2.7Z"/>
        <path class="cls-1" d="M1307.4,7870c.3,3.2-.6,4.8-2.8,5.6-.9.3-1.9.5-2.9.7-11.3,2.8-11.2,2.8-15.6-7.8-2.6-6.4-5.4-12.6-7.2-19.4-1.9-7,2.2-10.5,5.2-15,1.1-1.6,3.4-1.6,4.2.1,5.1,11.6,13.2,21.4,18.4,32.8.5,1.2.6,2.6.7,3h0Z"/>
        <path class="cls-1" d="M1300.1,8764.1c0-3.1.7-6,2.3-8.6,6.4-10.1,12.1-20.5,14.6-32.5.6-3.1,2.1-6.4,6.5-6.4,6.9,0,11,6.3,6.2,11.4-6.9,7.5-7.6,16.7-9.9,25.4-1.6,6.1-5,10.7-9,15.2-2.2,2.4-4.6,3.9-7.9,2.3-2.8-1.4-2.9-4.2-2.9-6.9h0Z"/>
        <path class="cls-1" d="M1254,7778.3c1.8,0,3.6.4,4.1,2.1,1.3,4.4,4.1,7.4,7.7,10,1.7,1.2,2.5,3,1.7,5.2-.4,1.1-1.2,3.2.6,3.1,8.7-.5,7.4,7,9.4,11.6,1.1,2.6-4.5,16.5-6.7,17.8-1.4.8-2.7.3-3.4-.8-2-3.1-4.2-6.1-5.5-9.4-2.1-6-4.2-11.8-8.9-16.3-1.5-1.5-2.1-3.7-.7-5.5,3.4-4.2,1.5-6.6-1.8-9.9-3-3-.6-7.6,3.5-7.9h0Z"/>
        <path class="cls-1" d="M1350.6,7990c-2.9-1.4-5.9-2-8.6-.1-5.8,4.2-8.1,1.1-9.9-4.1-.8-2.2-2.5-4-3.3-6.1-1.5-4-2.6-8.2-2.5-12.7.2-5.9,6.1-5.3,9.1-8.1,1.2-1.1,2.2-2.5,4.8-2.9,8.1,9.7,9.8,21.7,10.3,34h0c0,0,0,0,0,0Z"/>
        <path class="cls-1" d="M-324.6,9268.5c0,.4,0,1.7-.2,3-.8,4.6-3.5,6-6.8,3.1-7-6.1-15.5-9.9-22.7-15.7-1.8-1.4-4.4-2.3-3.7-5.2.9-3.6,3.9-2.7,6.5-2.6,2.3,0,4.6,0,6.9-.3,12.6-1.5,19.8,4.6,20,17.7h0Z"/>
        <path class="cls-1" d="M1397.1,8215.7c-1.5-8.7-2.9-17.5-4.4-26.2-.5-2.9-.9-6-1.9-8.7-2.5-7.1-5.1-14.3-16.3-11.8,3.9-7.8,8.4-13.5,11.2-20.1,1.3-3.1,4-1.7,4.9,1.1,1.1,3.5,2.4,7.1,2.2,10.6-.4,9.5,1.9,18.5,4,27.5,2.1,9.2,2.4,18.3.3,27.7h0Z"/>
        <path class="cls-1" d="M-817.4,8574.1c-.1-3.3-.2-5.5,2.6-5.5,2.2,0,4.5,1.6,4.1,3.5-2.5,11.8,2.7,21.1,9,30.3,1.9,2.7-.4,5-3.1,6.1-2.2.9-4.4.4-4.7-1.9-1.8-11.5-6.9-22.1-7.9-32.5h0Z"/>
        <path class="cls-1" d="M-426.3,9184.4c-11.8,5.9-21.3,1.3-21.6-10.2,0-2,.2-4.1,2.3-5,1.7-.7,3.4,0,4.4,1.4,4.2,5.3,12.5,6.4,14.8,13.9h0Z"/>
        <path class="cls-1" d="M952.9,9228.7c0,3-1,5.4-3.6,6.7-2.5,1.3-4.3-.4-6.1-1.9-1-.8-2-1.7-3-2.6-2.3-2.1-6.3-3.8-4.3-7.8,1.8-3.6,5.4-5.6,9.5-6.4,2.2-.4,3.9.7,4.8,2.7,1.4,3,2.5,6.1,2.7,9.3h0Z"/>
        <path class="cls-1" d="M1030.9,9146.7c1.1-3.8,4.4-4.6,6.6-6.4,2.2-1.8,4.2-4.6,7.7-3.1,2.2.9,5.3,8.8,4.5,11.6-.9,3.3-3,5.3-6.6,3.7-4.2-1.8-8.2-3.9-12.2-5.8h0Z"/>
        <path class="cls-1" d="M289.7,9436.8c2.6-.2,3.9.1,4.4,1.6.8,1.9-.4,3.4-2,4-4.6,1.7-9.8,1.2-14.3,3.6-1.7.9-2.9-1.1-3.2-2.8-.5-2.2,0-4.5,2.5-4.5,4.7,0,9.2-1.5,12.6-1.9h0Z"/>
        <path class="cls-1" d="M403.5,9435.7c-.8,4-3.6,6.4-7.1,7.5-3.7,1.2-4.2-2.2-4.7-4.8-.7-3.3.8-5.1,4.1-5.3,2.8-.1,6-1.1,7.8,2.6h0Z"/>
        <path class="cls-1" d="M-825.3,8220.4c-3.7-5.7-4.1-11.1-3.6-16.7.1-1.3.8-2.6,2.4-2.7,1.6-.2,2.2,1.1,2.5,2.4,1.1,5.5,3.7,11-1.2,17h0Z"/>
        <path class="cls-1" d="M1240.8,8908c-4.2.9-6.6-1.6-9.1-3.3-3.1-2.1-2.3-5.1-.8-7.8,1.2-2.1,3.5-2.4,4.7-.3,2,3.5,4.6,6.9,5.2,11.4Z"/>
        <path class="cls-1" d="M1342.1,8659.2c-.3-7.5,7.8-10.7,7.4-17.7,4.1,7.1,1.6,12.6-7.4,17.7Z"/>
      </g>
      <g>
        <path class="cls-1" d="M-1857,9079.9c9.2-5.8,18.4-11,28.3-14.9,6.8-2.7,13.3-5.9,19.1-10.6,5.7-4.7,12.8-7.1,19.6-9.7,9.9-3.8,19.3-8.1,27.6-14.9,4-3.3,8.6-6.3,14.1-7.2,1.9-.3,4.2-1.1,5.3-2.5,9.9-13,24.9-18.5,38.1-26.7,7.7-4.7,14.3-10.2,21-16.3,11.9-10.9,22.2-23.9,36.6-31.9,7.6-4.2,14-10.4,19.8-16.7,5.4-5.9,12.2-10.3,16.9-16.9,1.9-2.6,4.6-5.5,8.3-2.6,3.9,3,6.2,10.3,4.3,13.2-1.3,1.9-3,3.6-4.7,5.2-18.6,17.1-37.3,34.1-57,50-15.3,12.3-31.5,23-47.7,33.9-3.8,2.6-7.1,6.1-10.8,8.8-16.2,12.2-33.8,22.2-51.8,31.4-4,2-7.9,3.6-11.2-1.6-1.6-2.4-4.2-1.5-6.1.2-3.8,3.3-7.1,7.1-9.6,11.4-1.9,3.4-4.5,5.6-8.4,6.5-2.2.6-4.4,1.5-6.4,2.7-3.3,2-5.4,6.6-9.8,6.4-12-.6-23.5,3.9-35.6,2.5h0Z"/>
        <path class="cls-1" d="M-2037,7474c11.3-.7,20.4,1.2,29.2,4,13.3,4.2,26.7,7.8,40.6,10,11.1,1.7,22,4.7,32,10.5,2.5,1.5,5.7,1.8,8.5,2.7,19.6,6.3,38.6,14.2,57,23.6,10.8,5.5,22.9,8.7,34.3,13.1,15.8,6,31.4,12.7,44.6,23.6,1.3,1.1,2.6,2.1,3.7,3.3,1.9,2.2,2.2,4.9,1,7.5-1.2,2.4-3.5,3-5.9,2.9-6.4-.4-12.6-2.1-17.5-6.3-6.2-5.3-13.2-8.8-21-10.8-4.3-1.1-8.2-2.9-11.7-5.5-7.3-5.5-15.5-8.8-24.2-11.4-7.6-2.3-14.8-5.7-22-9.1-8.6-4-18.3-5.8-27.5-8.7-12.7-4-25.3-8-37.7-12.8-8.9-3.5-18.7-4.8-27.6-8.3-12.4-4.9-25.3-7.5-38-11-8.8-2.4-12.7-8.5-17.7-17h0Z"/>
        <path class="cls-1" d="M-1565.2,8863.4c6.1-5.8,10.4-11.6,14.3-17.8,1-1.7,2.1-3.8,3.7-4.6,9.8-5.3,14.2-15.6,21.5-23.1,1.9-2,3.1-4.2,4.2-6.7,3.3-7.3,7.1-14.2,13.1-19.8,2.1-2,3.7-4.7,5.1-7.3,7.2-13.1,17.1-24.6,24-37.6,6.6-12.6,15.7-23.6,20.9-37.2,4.8-12.6,12.3-24.2,18.6-36.3.8-1.5,1.9-2.7,2.9-4,.8-1.1,1.8-2.1,3.3-1.6,1.3.5,1.8,1.9,2.1,3.2.8,3.1.7,6.1-1.9,8.3-4.9,4.3-7.2,10.3-10.9,15.4-1.8,2.4-3.4,5.1-3.3,8.2.2,6.2-3.4,11.6-4.1,16.9-1.1,9.1-6.6,15.8-8.8,23.6-3.9,13.7-12,24.2-19.2,35.7-4.9,7.9-9.7,15.8-17.4,21.5-1.7,1.2-2.7,3.9-3.2,6.1-1.8,8.2-6.9,13.5-14,17.1-4.2,2.1-6.1,5.2-7.6,9.7-2.7,8.3-9.9,13.9-14.5,21.1-7,10.9-16.5,19.8-24.3,30.1-1.2,1.5-2.7,3.1-4.4,3.9-4.2,1.8-7.1,4.3-9,8.7-2.7,6.2-10.1,7.1-14.6,11.5-2.1,2-4.6-1.5-6.2-3.5-2.3-2.9-2.6-6.1,0-9.1,4.4-4.9,8.9-9.8,13.5-14.7,2.1-2.2,4.3-4.1,6.5-6.1,2.1-1.9,3.9-2.8,6.9-.7,4.6,3.3,8.1,2.7,9.9-.8,2.2-4.3-1.1-5.9-4.2-7.4-.8-.4-1.5-1.2-3-2.5h0Z"/>
        <path class="cls-1" d="M-3004.6,8057.1c-1.4-1.6-1.6-3.3-1.1-4.9,3-10.5,4.4-22.1,9.8-31.2,6.7-11.2,10-23.1,13.7-35.1.6-1.9.6-4.2,1.7-5.7,9.1-13,11.3-29,19-42.6,2-3.5,3.8-7,6-10.4,4.9-7.6,9.8-15.1,12.5-23.8.3-1,.6-2,1.2-2.7,10-12.9,16-28.3,25.3-41.6,10.6-15.1,22-29.7,32.4-45,5-7.3,11-14.2,14.6-22.5,2.2-5,6.8-8.1,10.4-12,1.6-1.8,3.7-3.4,6.1-1.7,2.7,2,3.6,5,2,8-2.2,4.1-4.2,8.9-7.7,11.6-8.6,6.7-12.2,16.4-17.7,25.1-1.6,2.6-3.5,4.8-5.5,7-10.6,12.3-20.9,24.9-27.5,40-1.2,2.7-2.5,5.8-4.8,7.5-7.6,5.7-10.7,13.3-12.7,22.4-1.7,7.9-5.7,15.6-11.8,21.6-2.2,2.1-3.7,4.7-4.7,7.5-.6,1.9-1,4.2-2.2,5.5-12,12.6-11.3,30.9-20.7,44.7-6.1,9-7.5,20.2-13.5,29.6-4.4,6.8-6.5,15.2-7,23.7-.4,6.8-2.7,12.9-6.3,18.7-2.7,4.3-6.1,6.8-11.2,6.3h0Z"/>
        <path class="cls-1" d="M-1610.6,7713.1c-6.9-12.1-18-18.9-28-27-1.2-1-2.6-2.4-3-3.9-1.6-5.6-5.8-7.4-10.8-9-7.5-2.4-13.7-7-16.8-14.5-1.8-4.4-4.8-6.8-9.1-8.5-9-3.7-17.6-8.1-23.3-16.4-1.6-2.3-4.4-2.8-6.6-4.3-12.4-8.3-26.3-14.1-37.6-24.3-6.5-5.8-15.2-9.2-23.1-13.4-4.4-2.4-8.8-4.9-12.1-8.6-3.4-3.8-2.8-6.3,1.6-8.7,3.5-2,6.9-1.8,10.6-.5,8.5,3,16.7,6.8,23.7,12.4,3.9,3.2,8.2,5.5,12.9,7.5,3.9,1.7,8,3.7,11.2,6.5,14.4,12.4,30.9,21.8,45.9,33.4.8.6,1.7,1.2,2.2,2,9.9,15.3,26.6,22.3,40.2,33.2,6.2,4.9,12.9,9.5,13.7,18.7.4,4.8,3.7,7.2,8.5,8.4,6.8,1.6,6.9,2.2,4.5,8.8-.9,2.4-1.1,5.3-4.6,8.5h0Z"/>
        <path class="cls-1" d="M-2244.6,7475.9c-25.3,2-50.4,3.3-75.2,8.6-3.2.7-6.6,2.1-9.8.9-7.6-3-14-.5-20.9,2.5-5.4,2.4-11.5,3.7-17.3,4.3-12.9,1.2-24.6,7.1-37.3,8.9-3.2.5-7.1,1.9-8.4-2.6-1.1-3.8.5-7.8,4.2-9.2,6.7-2.6,11.6-11,20.6-6.9.7.3,2.4-1,3.3-1.8,2.3-2.3,5.1-2.9,8.1-3.5,17.9-3.5,35.7-8.2,53.7-10.3,18.4-2.2,36.7-6.4,55.5-5.3,11.7.7,23.2-1.1,34.8-2.5,5.7-.6,11.3.5,16.9.8,1.8.1,3.2,1,3.1,3.1-.2,5.7-6.8,12.8-12.4,12.9-6.3.2-12.6,0-18.8,0h0Z"/>
        <path class="cls-1" d="M-1358.3,8149.9c-.7,5.7.4,10.5,2.6,15.1,2.8,5.8,3.4,12.1,4.8,18.3.5,2.2,1,5.3-2,5.9-2.9.6-3.4-2.6-4.3-4.6-.9-2.1-1.5-4.4-2.1-6.6-1.4-4.8-3.3-9.4-6.9-13.1s-6-8.4-5.8-13.4c.4-14.1-6.7-26.3-9.9-39.4-1.3-5.4-3.2-10.9-3.9-16.4-2-15.6-7.7-30.2-11.5-45.3-.8-3.2-2.6-6.1-4.2-9-2.5-4.5-4.9-8.5-.2-13.4,2.6-2.8,1.8-7.1-2.5-7.6-7.2-.8-9.9-5.7-10.7-11.3-2.3-16.9-10-31.4-18.8-45.6-2.6-4.3,2.6-15.1,7.3-15.7,2.2-.3,3.8.9,4.9,2.8,1.9,3,2.2,6.2,1.9,9.6-.5,7.1,1.4,13.9,2.4,20.8.5,3.8,2.2,6.9,6,8.6,1.8.8,4.7,1.5,4.6,3.4-.2,11.7,9.5,18.4,13.9,27.8,4.3,9.1,6.1,19,9.9,28.1,4.3,10.2,7.3,20.6,10.5,31,1.7,5.4,3.2,10.8,2.9,16.6-.1,2.7.4,5.3,1.8,7.7,4.8,8.3,6.2,17.5,6,26.9-.1,6.7,4.8,12.6,3.3,18.9h0Z"/>
        <path class="cls-1" d="M-2552.3,9084c12.6-2,23.8-.8,35.7,3,22.4,7.3,43.8,17.4,66.1,24.8,7.6,2.5,15,5.4,23.2,5.5,4,0,8.7.3,11.2,3.3,5.9,7.1,14.2,6.8,21.9,7.9,21,3.1,41.9,6.5,62.7,11,4.6,1,9.2,1.4,13.8,2,5.2.7,8.4,8.1,5.6,12.3-2.1,3.1-5.8,2.3-8.2,1.2-7.8-3.5-16.2-3.4-24.3-5.2-11.1-2.5-22.5-1.9-33.5-4.8-5.8-1.6-11.6-2.9-17.1-5.4-6.8-3.1-13.4-7.5-21.6-4.4-1.3.5-3.3-.2-4.8-.8-19.7-7-40.3-11.5-59.2-20.5-16.8-8-35.5-11.2-51.8-20.5-4.8-2.8-10.6-3.8-15.9-5.7-1.5-.6-3.1-1.2-3.8-3.8h0Z"/>
        <path class="cls-1" d="M-2915.5,8744.1c-.3,3-.2,6.5-3.2,7.9-3.1,1.4-5.6-1-7.9-3-3.7-3.2-5.4-7.6-6.8-12.1-1.4-4.6-3.7-8.3-6.8-12-6.5-7.7-9.1-17.7-13.8-26.4-.6-1.2-.5-2.9-1.3-3.7-9.9-10.3-10-25.4-17.6-36.4-6.8-9.9-10.5-20.8-13.9-31.6-4.3-13.3-10.7-25.7-15.2-38.9-1.4-4.1-3.1-8.6,1.7-11.6,3-1.8,8.5,1.3,10.8,6.7,6.2,14.7,12.5,29.4,16.5,44.9.2,1,0,2.2.5,2.9,12,15.4,11.6,36.9,25.1,51.7,2.1,2.4,3,5.9,4.4,8.9,2.4,5.5,4.7,11,8.9,15.5,1.8,1.9,3,4.5,3.7,7,1.9,6.2,5.1,11.5,9,16.6,3,4,5.6,8.3,5.9,13.6h0Z"/>
        <path class="cls-1" d="M-1445.1,7937.5c-5.7-6.7-8.8-11.9-10.6-18.1-2.8-9.5-6.5-18.8-9.6-28.3-1.2-3.8-3-6.7-6.6-8.2-5.5-2.4-9-7-11.7-11.9-6.9-12.9-16.7-24-22.6-37.6-2-4.7-6.5-8.3-10-12.3-5.8-6.8-11.6-13.7-12.7-23.1-.2-1.5-1.1-3.5-2.3-4.2-9.4-5.4-9.1-16.5-14.4-24.2-1.1-1.5-1.4-4.1.5-5.5,1.9-1.4,3.7,0,5.3,1.2,8.3,6.4,14.6,14.5,19,24,.7,1.5.8,3.9,1.9,4.5,13.6,7.7,16.5,23.4,25.9,34.4,9.7,11.3,21.4,22.1,25.2,37.7.5,2.1,2.2,4.1,3.7,5.9,6,6.8,8.4,14.7,8.7,23.8.3,9.3,1.3,18.5,6.6,26.8,2.4,3.8,3.7,8.4,3.6,15.2h0Z"/>
        <path class="cls-1" d="M-2634.7,7581.5c-2.4,5.9-4.1,11-6.5,15.6-3.3,6.2-7.6,11.6-14.9,13.8-2.8.9-6,2-8,3.9-9.8,9.5-21.8,15.7-33.3,22.5-2,1.2-3.7,3.4-5.7,3.8-5.2.9-7.7,4.6-10.6,8.3-2.2,2.9-4.1,6.1-8,7.2-3,.8-5.9,4-8.9.1-2.5-3.3-2.1-7.5,1.6-10.6,5.4-4.4,11.1-8.4,16.7-12.6,1.1-.8,2.6-1.1,3.4-2,11-11.6,25.8-18.3,37.5-29,8.9-8.1,20.2-12.6,29.8-19.8,1.5-1.1,3.5-1.7,7-1.4h0Z"/>
        <path class="cls-1" d="M-2733.7,8965c-.2,1.7.3,4.1-2,5-2.2.9-3.6-1.1-5.1-2.4-10.1-8.6-20.1-17.3-30-26.2-12.3-11.2-23.8-23-35.2-35-3.9-4.1-7.1-8.8-10.6-13.2-1.3-1.7-2.5-3.7-.5-5.2,2.4-1.9,4.6-5.4,8.6-3.4,1.5.7,3,1.7,4,3,5.9,7.1,13.9,12.3,18.2,20.9,1.5,2.9,3.6,5.5,6.3,7.6,10.7,8.5,21.2,17.2,31.7,25.8,4.7,3.8,8.5,8.4,11.7,13.5,1.8,2.9,2.9,6,2.9,9.6h0Z"/>
        <path class="cls-1" d="M-3000,8069.9c-.9,10.3-1.4,19.2-8.3,26.2-2.5,2.5-2.7,6-2.5,9.4.7,12.5-5.2,23.9-6.2,36.1-.2,2.4-1.9,4.2-3.6,5.8-2.1,2-2.8,4.6-2.4,7.3,1.6,11.4-2.5,22.3-2.4,33.7.1,6.5-5.4,11.1-8.9,16.3-1,1.5-3.2,2.8-5.2,1.5-1.5-1-1.6-2.8-1.2-4.5,3.5-17.2,4.1-34.8,8.8-51.8.8-2.9,1-6,3-8.3,2.4-2.8,2.3-5.8,2.1-9.3-1.2-18.2,12-49.2,26.7-62.3h0Z"/>
        <path class="cls-1" d="M-1369,8461.7c-2-5.4-1.5-10.3-.2-15.2,2.7-11,3.1-22.4,4.9-33.5,2.6-16.1,4.5-32.2,4-48.6-.2-5.5,3.9-9.8,6-14.6,1.7-3.8,7.6-3.2,9.8.8,2.7,5,2.4,10.3.5,15.5-.9,2.4-3,2.3-5,1.6-3.3-1.1-6-.1-7.7,2.8-1.7,3-.9,6.1,1.3,8.3,8.2,8.2,10,17.7,8.4,28.9-.8,6.2-.3,12.6-2.8,18.6-1.4,3.4-2,6.9-1.6,10.7.8,6.6-.8,12-8.2,13.9-5.5,1.4-7.3,6.1-9.5,10.7h0Z"/>
        <path class="cls-1" d="M-2555.7,9072.4c-.5,2.7-1.9,4-4,4.5-3.1.7-6.5.5-8.5-1.7-4.5-4.9-10.4-5.3-16.1-6.7-9.4-2.4-18.1-6.1-26-12.1-8.2-6.2-17.3-11.1-26.9-14.9-2.9-1.1-5.1-2.1-5.3-6.1-.6-8.9-2.6-10.9-11.6-13.2-1.9-.5-4.2-.2-4.5-2.8-.2-1.7.4-3.4,1.7-4.5,1.9-1.5,3.9-.7,5.4.7,11,9.8,25.1,14.9,36.9,23.6,4.2,3.1,9.5,4.8,14.4,6.8,5,2.1,9.7,4.3,13.5,8.2,2.7,2.8,6.3,3.5,9.9,4.3,5.9,1.3,11.3,3.8,16.3,7.1,2.5,1.6,4.6,3.8,4.8,6.7h0Z"/>
        <path class="cls-1" d="M-2131.6,9161.7c-12.9-1.6-25.7,1.7-38.6,1.6-3.9,0-9.3,0-9-5.2.3-5.3,5.4-4.6,9.4-3.9,2.7.5,5.4.8,7.8-.7,7.9-5,17.2-4.6,25.9-6.3,5-.9,10.4-1.3,15.4,2,3.9,2.7,8.2,2.2,11.9-1,2.1-1.8,4.3-3.8,7-3.3,9.8,2.1,19-1.8,28.6-2.3,2.9-.1,6.2-1,7.2,3.2.9,3.9-1.6,8.5-5.5,9.3s-7.9,1.1-11.9,1c-5.6,0-11.3-1.2-16.6,1.6-4.2,2.2-6.6-3.6-9.9-2.4-3.2,1.1-4.3,5.8-8.8,5.7-4.3,0-8.6.4-12.9.6h0Z"/>
        <path class="cls-1" d="M-2598.7,7575.6c-3.6,0-6.4-1.3-7.8-4.9-1.4-3.5.5-5.7,3-7.6,4.3-3.3,9.1-5.6,14.3-7,3.6-.9,7.1-2,9.9-4.5,5.3-4.9,11.2-8.2,18.6-8.4,3.3,0,5.3-2.6,7.3-4.8,3.9-4.1,8.6-6.3,14.2-6.4,4.2,0,7.7-1.6,11.3-3.5,2.9-1.6,6-1.3,8,1.7,2.2,3.2.1,5.7-2.4,7.6-3.7,2.8-7.5,5.7-12.4,6.1-5.8.5-10.8,3.4-16.3,4.6-2.7.6-4.8,2.1-6.3,4.5-1,1.7-2.1,3.6-3.7,4.6-11.3,7.1-23.2,12.8-35.7,17.6-.6.2-1.3.3-2,.4h0Z"/>
        <path class="cls-1" d="M-2107.8,7461.7c8.5.9,17.2,1,25.3,4.4,4.7,1.9,9.8,1.4,14.8,1.4,5.7,0,10.6,1.4,13.2,7,2.1,4.3,6.2,5.8,9.9,7.9,1.4.8,2.9,2,2.6,3.8-.4,2.2-2.4,2-4,1.8-11.1-1.8-22.4-3-33.3-5.7-9.8-2.5-19.5-3.8-29.5-4-3.3,0-6.6,0-9.9-1.1-3.6-1.1-5.6-3.2-5.5-7.2.1-4.2,1.9-7.1,6.3-7.6,3.3-.4,6.6-.4,10-.5h0Z"/>
        <path class="cls-1" d="M-2863,8835.2c-4.8-.2-7.4-2.9-10.1-6.9-10.1-15.3-19.5-31.3-32.9-44.2-5.7-5.5-8.8-12.5-11-19.8-1.6-5.2,1.4-7.6,6.6-5.8,4,1.3,7.1,3.7,7.8,8.2.5,3,1.2,6.1,4,7.7,10.4,6.1,14.8,16.8,20.4,26.5,4.3,7.4,7.3,15.6,15.5,20.1,2.3,1.3,3.5,3.9,4.6,6.4,2.5,5.9,1,8.3-5.1,7.9h0Z"/>
        <path class="cls-1" d="M-2254.7,9161.9c-11.6-1.2-23.2.6-34.7-2.1-4.6-1.1-8.1-2.9-8.9-7.9-.7-3.9.6-6.6,4.9-7,1.6-.2,3.3-.1,5-.1,19.6.2,38.9,4.1,58.4,4.2,1,0,2,.2,2.9.6,2.3,1,5.6.9,5.8,4.4.2,3.1-4.2,7.8-7.5,7.9-8.6.2-17.2,0-25.9,0h0Z"/>
        <path class="cls-1" d="M-1342.4,8270.5c.1,2.9,0,5.5-2.1,6.9-4.1,2.6-6.9,6-9,10.3-.6,1.2-2,2-3.3,1.2-.7-.4-1.2-1.7-1.2-2.6-.2-20.5-3.8-40.8-2.7-61.3.4-6.8-.7-13.2-3-19.5-.6-1.6-.7-3.8,1-4.4,2.3-.9,3.9,1.1,4.1,3.1,1.5,10.6,6.2,19.4,13.1,27.3,1.2,1.3,1.4,3.7,1.5,5.6.6,11.2-.3,22.6,1.6,33.2h0Z"/>
        <path class="cls-1" d="M-2765,7687.2c-3.3,7.6-6,13.5-10.8,18.1-9.5,9.2-18.8,18.7-28.4,27.8-8.4,7.9-16.1,16.5-25,24-1.7,1.4-3.2,4.2-5.8,2.3-2.1-1.6-1.3-4.4-.5-6.5,1.5-4.5,4.4-8.1,7.6-11.5,14.1-15.3,29.4-29.5,44.5-43.9,5-4.8,11.2-6.3,18.5-10.1h0Z"/>
        <path class="cls-1" d="M-2997.4,8555c0,5.2-1.5,8.3-6,9-4,.7-6-1.8-7.3-5.3-6.9-17.1-9.8-35.2-12.9-53.2-.1-.7,0-1.3,0-2,.6-3.9.4-9.5,4.5-10.2,5-.8,4.9,5.2,6.1,8.7,1.5,4.4,2.8,8.9,3.4,13.5,1,8.3,2,16.3,7.6,23.3,3.8,4.7,2.7,11.5,4.5,16.1h0Z"/>
        <path class="cls-1" d="M-1381.3,8569.3c-3.2-11.6-9-23,2.2-33.9,5.6-5.5,6.9-13.5,8.8-20.9.6-2.3.2-4.9-2.9-5.3-2.6-.4-5.9.3-5.8-3.6,0-3.6.4-7.4,3.2-10.2.7-.7,1.6-1.2,2.4-1.7,6.8-4.1,10-10.3,11.4-17.8.8-4.1,1.3-8.4,6.1-11.3,1.5,4.5-.1,7.9-1.1,11.2-8.8,31-12.3,63.3-24.2,93.7h0Z"/>
        <path class="cls-1" d="M-3040.5,8410.4c7.5,4.9,12.9,10,14.4,17.9,2.7,14,5,28,7.2,42.1.6,3.6.9,7.3-.5,10.8-.8,2.1-2.3,3.2-4.5,3.4-2.2.2-4-.8-4.8-2.8-.9-2.5-1.6-5.1-2.1-7.6-1.4-7.5-2.9-15-4-22.5-1.5-10.4-1.5-21.1-6.2-30.9-1.2-2.6-1.2-5.8.3-10.3h0Z"/>
        <path class="cls-1" d="M-1875.8,9088c1.2,3.8-.8,6.9-1,10.1-.3,4.2-2.7,6.6-6.5,7.9-12.5,4.4-25,8.9-37.6,13.3-1.2.4-2.6.6-3.9.7-1.6,0-3.6.3-4-1.9-.3-1.8.6-3.3,2.1-4.2,1.4-.8,3.1-1.1,4.7-1.7,1.7-.6,3.2-1.6,3.1-3.5-.4-6.4,4.7-7.3,8.9-9.1,1.8-.8,3.9-1.2,5.8-1.3,8.9-.3,16.9-2.6,23.3-9.3,1.1-1.1,2.7-2,5.2-1h0Z"/>
        <path class="cls-1" d="M-2172.9,7475.9c-2.3,0-4.7.1-7,0-6.7-.4-14-6.4-15.7-13-.7-2.8,1.2-4,3.1-3.9,11.2.2,22.5-2.2,33.7-.7,6,.8,6.9,3.4,4.6,9.1-3.6,8.9-10.6,10-18.8,8.5h0Z"/>
        <path class="cls-1" d="M-1978.9,9120.6c6-1.7,11.9-3.7,18.1-5,6.5-1.4,13.1-2.2,19.2-5,3-1.3,6-1.7,7.3,2.2,1.1,3.3,1.3,7.8-2.5,8.5-8.2,1.6-14.3,6.5-21.1,10.5-3.6,2.1-7.8,1.9-11.1-1.4-3-3.1-6.5-5.5-10.3-7.7.1-.7.2-1.5.3-2.2h0Z"/>
        <path class="cls-1" d="M-1398.5,8568.2c3.1,5.1,1.1,7.7.3,10.5-1.7,5.9-1.5,7,4.7,8.1,4.9.8,4.7,2.9,4.3,6.8-.9,7.8-4.7,14.4-8.3,21.1-2.3,4.3-6.9,3.4-10.6,3.8-2.8.2-3.5-2.7-3.8-5-.5-4.1,1.3-7,4.8-9,.9-.5,1.9-.6,2.8-1.1,5.4-2.8,6.9-5.3,3.5-10-6.3-8.9-.8-15.9,2.2-25.1h0Z"/>
        <path class="cls-1" d="M-2507.2,7533.7c-2.1,0-5-.9-6.2-4.1-1.3-3.3-.9-6.6,1.9-9.1,4.3-3.8,9.6-6.1,15.2-6.7,5-.5,9.9-.4,14-3.9,1-.8,2.7-1,3.5.4.4.7.3,2,0,2.8-2.8,8.2-19.5,20.7-28.4,20.5h0Z"/>
        <path class="cls-1" d="M-2841.9,8849c2.9-.6,4.4,1,5.6,2.4,6.5,7.4,12.8,15,19.1,22.6,1.1,1.3,2.2,2.7,1.2,4.4-1,1.5-2.8,1.4-4.5,1.5-13.4.8-23.2-9.1-22.2-22.6.2-2.6-.9-5.3.7-8.3Z"/>
        <path class="cls-1" d="M-2670.6,9020.3c-8.9-6.3-17-13.7-27.2-18.1-2.8-1.2-4.8-3.7-2.3-7.3,3.4-4.8,7.8-6.9,11.7-4.7,5.2,3,9.9,6.9,12.6,12.4,2.6,5.3,4.6,10.8,6.9,16.3-.6.4-1.1.9-1.7,1.3h0Z"/>
        <path class="cls-1" d="M-2031.3,9147c-7.3-2.5-14-1.1-20.5,2.2-2,1-4.6,2.3-5.9-.8-1.2-2.8-2-5.9,1-8.2,1.6-1.2,3.4-2.2,5.3-2.6,9.3-2,18.4-1.9,27.2,2.3,1.2.6,2.6,1.2,2.7,2.6.1,2-1.5,2.8-3.1,3.2-2.2.5-4.5.8-6.6,1.2h0Z"/>
        <path class="cls-1" d="M-3028.8,8228.5c.2,5.9-1.2,11.2-5,15.8-1.3,1.6-2.9,2.9-5.1,2.6-2.6-.4-3.8-2.4-4.5-4.7-2.2-7.4,1-16.3,7.8-21.1,1.4-1,2.8-2.1,4.5-1.5,2.5.8,2.2,3,2.3,4.9,0,1.3,0,2.7,0,4h0Z"/>
        <path class="cls-1" d="M-1597.9,7719.4c.2-5.7,2.9-10.8,5.8-10.3,5,.8,5.5,5.2,5.9,9.2.4,3.8,1.4,7,4.4,9.7,2.3,2.1,1.9,4.8.5,7.3-.7,1.3-1.8,2-3.2,1.6-3.2-.8-13.3-13.1-13.5-16.4,0-.3,0-.7,0-1h0Z"/>
        <path class="cls-1" d="M-3045.4,8281.1c0-5.3,0-10.6,0-15.8,0-3,.8-5.9,2.7-8.4,1.5-1.9,3.4-3.3,6-2.8,2.7.6,3.6,2.8,3.7,5.2.2,3.3.3,6.7,0,10-.4,4.1.2,9.2-6.9,7.9-2.5-.4-2.4,3.8-5.6,3.9h0Z"/>
        <path class="cls-1" d="M-2449.4,7506.6c0,7-8.9,13.8-15.8,12-2-.5-2.4-2-1.8-3.8.9-2.8,1.7-5.6,2.2-8.5.8-5,7.5-8.1,12.2-6.2,2.3,1,3.2,2.6,3.2,6.5Z"/>
        <path class="cls-1" d="M-1341.5,8310.3c-2.2,6.7-1.6,14.4-2.6,22-.4,3.2-1.5,6.9-6.2,6-3.4-.7-5-4.8-2.9-9,2.4-4.9,3.3-10,3.4-15.4,0-2.3.7-4.6,2.3-6.5,1.1-1.3,2.2-2.8,4.1-2.1,1.9.7,1.6,2.6,1.8,4.9h0Z"/>
        <path class="cls-1" d="M-1418.6,8629.3c3.8,6,4.9,11.9,6.8,17.3,1.5,4.2-2.1,9.1-5,13.3-9.3-13-9.7-18.6-1.8-30.6Z"/>
        <path class="cls-1" d="M-3046.5,8331.4c-.3-6.1,3.5-9.9,7.2-13.7,1.9-2,3.6.1,4.4,2,3,7.2-.3,13.6-2.9,20-1,2.6-4,1.5-5.9-.2-2.4-2.2-2.3-5.3-2.8-8.1Z"/>
        <path class="cls-1" d="M-2430.2,7491.6c3.3,0,6.1.8,6.4,4.7.2,3.1-7.6,11.4-10.2,11.1-2.2-.2-7.1-7.6-6.8-10.3.3-3,5.2-5.5,10.7-5.5h0Z"/>
        <path class="cls-1" d="M-2147.6,7469.9c-.3-3.7,3.4-7.7,7.4-7.9,4.9-.2,8.6,2.9,8.7,7.5,0,3.6-1.1,6.6-5.3,7.1-4.6.5-10.6-3.3-10.9-6.8Z"/>
        <path class="cls-1" d="M-3033.4,8368c2.7,10.1-2.4,17.2-7.2,25.6-5.7-11.7-3.6-18.6,7.2-25.6Z"/>
        <path class="cls-1" d="M-1569.3,7741.7c5.9,1.1,11,13.4,7.9,18.3-.8,1.2-1.8,1.8-3.3,1.3-3.8-1.4-9.6-12.2-8.4-15.9.6-2,1.8-3.5,3.9-3.7h0Z"/>
        <path class="cls-1" d="M-2720.6,8970.4c6.5.6,10.2,3.7,13.8,6.8,2,1.8,4.9,4.6,1.5,7.3-2.8,2.2-6.6,1.8-8.7-1.3-2.4-3.6-4-7.8-6.6-12.8Z"/>
        <path class="cls-1" d="M-2212.1,9157c6.1-5.1,11.7-7.6,18.7-4.2,1.6.8,2.7,2,2.4,3.9-.4,2.2-2.3,2.5-3.8,1.9-5.3-2.1-11.1,1.2-17.2-1.6h0Z"/>
        <path class="cls-1" d="M-1432.9,7936.9c-3.5.1-5.5-2-6.6-4.9-1.1-2.7-2.9-5.4-.8-8.3.9-1.2,2.5-1.2,3.5-.2,2.9,3.1,5.3,6.7,6.3,10.9.3,1.3-.7,2.4-2.3,2.6h0Z"/>
      </g>
      <g>
        <path class="cls-1" d="M-4677,7858.4c-1.3-7.9,1.2-13.7,8.8-16.9,1.8-.8,3.7-2,4.7-3.6,6.7-10.5,16.4-17.2,26.9-23.2,1.7-1,3.4-2.2,4.7-3.7,9.5-11.7,22.5-18.3,35.9-24.3,2.7-1.2,5.8-1.9,7.5-4.5,6.7-10.5,18.3-14,28.6-19,5.4-2.7,10.5-5.3,15.3-9,8.5-6.5,18.2-11,27.8-15.4,12.1-5.5,25-9,36.6-15.7,8.9-5.1,19.5-6.6,29.2-9.4,17.5-5.1,34.5-11.5,51.8-17.3,1.6-.5,3.2-1.2,4.8-1.2,15.8-.4,30.7-5.7,45.9-8.9,3.9-.8,7.9-1.5,11.9-1.2,4.7.2,9.2-.3,13.7-1.9,2.8-1,5.8-1.7,8.8-1.9,24.5-1.7,49.1-3.4,73.7-2.8,11.6.3,22.7,4.3,35.1,1.5,8-1.8,17.4,2.4,26.5,1.8,3.8-.2,7,1.7,9.3,5,1.8,2.6,4.1,3,6.9,1.3,4.9-2.9,10.1-2.7,15.5-1.8,17.7,3.1,35.4,6.1,53.1,9.2,4.9.8,8.6,3.5,11.2,7.6-1.7.2-3.3.2-4.9.5-2.6.4-3.4,2-2.3,4.2,1.4,2.9,2.6,6.5,6.9,5.8,3.2-.5,3.6-3.8,1.2-8.9-.3-.6-.7-1.2-1-1.7,7.4-.1,14.5,2,21.5,3.9,28.7,7.8,55.7,19.8,82.6,32.2,3.6,1.7,7.1,3.9,10,6.5,4.6,4.1,9.5,6.9,15.6,8.4,8.2,2.1,13.9,9,21.3,12.7,4.2,2.1,7.9,4.8,12.6,5.9,4.6,1.1,8.6,3.8,12.2,6.6,15.9,12,31.8,24,47.4,36.5,11.4,9.1,21.3,20,33.6,28.2.5.3,1.1.9,1.3,1.5,2.1,8.7,8.6,12.9,15.8,17.2,5.9,3.5,10.2,9.3,14.6,14.9,9,11.6,20.9,20.6,29.4,32.5,8.3,11.5,18.2,22,24.2,35.2,1.7,3.8,4.9,7.1,7.7,10.4,4.2,4.8,8,9.8,9.6,16.1.7,2.6,1.8,5,4,6.8,9,7.7,13.1,18.2,16.5,29.1.9,2.8,1.2,6.2,3,8.4,7.6,9.5,11.1,21.1,17.4,31.3,5.1,8.3,8.3,17.5,9.1,27.2.3,3.7,1,6.2,3.8,8.6,2.9,2.4,4.6,5.8,5.5,9.4,3.9,14.8,10.4,28.7,14.7,43.4,2.1,7.1,2.9,14.3,3.6,21.6,1.4,16.6,7,32.5,9.7,48.9,4.7,28.4,7.3,56.7,4.2,85.4-.3,2.7-.8,5.4.2,7.9,3.4,9.2,2.2,18.4.3,27.6-.9,4.3-1.2,8.6-1,12.9.7,18.1-1.7,35.9-3.7,53.8-.8,7.4-3.5,14.2-6.1,21.1-.6,1.5-.7,3.5-2.9,3.5-1.9,0-2.7-1.6-3.8-2.9-2.7-3.2-2.6-6.7-1.1-10.3,3.7-8.6,3.3-17.6,1.9-26.6-1.6-10.6-2.4-21.2,1.5-31.5,1.1-2.9,1.3-5.9.9-8.9-2.8-21.2-.1-42.6-1.3-63.9-1.2-20.6-1.2-41.4-4.8-61.7-4.3-24.8-8.4-49.8-15.7-74.1-3.1-10.2-4.2-20.9-7.5-31-3.1-9.5-3.7-19.4-5.7-29.1-1-4.6-2.5-8.7-7.3-11.3-6-3.2-7.9-8.9-6.3-15.3,1.4-5.6-.2-9.5-4.1-13.4-5.1-5.2-9.8-10.8-14.3-16.6-3.5-4.5-6.3-9-2.8-15.4,2.9-5.2,0-10.5-2.7-15.1-3.5-6-8.1-11.4-9.6-18.5-.5-2.4-2.6-3.9-4.7-5-6.8-3.5-9.8-9.8-11.4-16.8-1.2-5.1-3-9.4-7.7-12.2-1.4-.8-2.8-2.2-3.3-3.6-5.2-15-18.4-22.4-30.2-30.6-10.7-7.4-20.6-15.2-29.5-24.9-10.8-11.7-24.2-20.9-35.3-32.3-14.7-15.1-32.8-25.8-48.6-39.6-10-8.7-21.5-15.5-32.4-23.2-4.6-3.2-9.9-5.5-13.9-9.6-2.4-2.5-5.6-3.5-8.8-4.4-12.2-3.6-23.1-10-34.6-15.3-12.6-5.8-24.5-13.2-38-17.3-9.4-2.8-19.3-5.7-24.6-15.6-1.9-3.5-6.1-4.9-9.6-3.2-9.2,4.4-17.5,1.1-26-1.7-3.2-1-6.2-2.4-9.4-3.4-4.4-1.4-7.5-3.1-3.8-8.3,1.8-2.5.2-4.5-2.3-5.4-5.2-2-10.9-2.8-14.9,1.6-4.7,5.1-9.1,5-15.1,2.5-6.2-2.7-13.2-.5-19.8-1.9-21.8-4.6-44-6.5-66.2-7.5-11.6-.5-23.3,0-35-.4-13.6-.5-27.2-.7-40.7,1.8-5.3,1-10.7-.6-15.6-2.5-6.3-2.5-12.6-2-18.6,0-3.9,1.2-6.5,1.5-10.1-.9-7-4.7-11.8-2.5-14.1,6.3-.7,2.8-1.8,4.4-4.3,4.5-6.7.3-12.8,3.4-18.9,4.4-2.3-1.2-1.7-3.1-2.3-4.6-2.1-5.3-6.4-6.4-9.5-1.6-3.5,5.5-7.1,5.9-12.5,3.8-4.5-1.8-8.7-.4-11.2,4-1.7,3-3.9,5.7-7.3,6.4-11.8,2.3-22.2,8.6-34.1,11-11.1,2.3-20.5,9.3-31.3,12.8-7.2,2.4-14.2,5.8-21.3,8.6-5.9,2.3-11.2,5.5-16.7,8.8-8.7,5.3-18.1,9.8-27.9,12.7-3.3,1-5.8,2.3-8.2,4.8-6.8,6.9-14.2,13.2-24.6,14-.7,0-1.3.4-1.9.5-6.2,1.4-9.2,8.7-14.5,9.8-5.9,1.2-11.2,2.3-16.5,5.4-15.1,8.7-27.9,20.2-41.3,31.1-2.9,2.4-4.6,5.7-6.8,8.5-4,5.1-6.4,11.8-13.1,14.6-.3-.3-.5-.5-.8-.8h0Z"/>
        <path class="cls-1" d="M-4738.6,8660.6c9.7,3.7,13.9,13.1,20.3,20,8.6,9.2,15.2,20.4,24.5,28.8,9.2,8.3,17.4,17.4,26.6,25.5,3.2,2.8,6.3,6,9,9.4,3.5,4.6,7.1,8.8,12.8,10.6,2.2.7,3.9,2.5,5.5,4.2,3.6,4,1.8,6.2-2.7,7.4,4.4,7.2,10.9,10.4,18.1,12.2,12.5,3.1,21.5,11.2,29.3,20.7,5.5,6.7,12.9,10.8,20.6,13.6,18.9,6.8,35.8,17.5,53.4,26.8,2.6,1.4,5.4,2.5,8.3,3.4,8.6,2.7,16.8,6.2,24.7,10.8,2.3,1.3,4.6,2.9,7.1,3.4,18.8,3.7,35.8,11.9,52.9,20.1,3.3,1.6,6.8,2.7,10.5,3,14,1,27.6,4.4,41.2,7.7,9.3,2.3,18.7,4.9,28.3,5.5,5.8.4,10.8,3.3,16.2,4.8,13.4,3.6,27.2,1.3,40.7,3.5,2.8.4,5,0,6.8,3.9,2.1,4.6,8.4,4.3,12.4,2.3,11.5-5.7,23.4-6.4,35.9-5.8,16,.8,31.9-.3,47.8-2.8,6.6-1.1,13.2-1.5,19.9-1.4,7.1,0,14-.5,20.3-4,2.3-1.3,5-2.2,7.7-1.2,8.2,3.2,16.4,6.6,25.9,10.4-8.2,4.7-16.1,4-23.4,5-6.6.9-13.2,1.3-19.6,3.3-6.7,2.2-13.9,1.5-20.8,1.2-7.4-.3-14.5.9-21.8,2-12.1,1.8-24.4,1.6-36.6,2.8-12.3,1.2-24.5-.8-36.8-.6-2.9,0-6.1-.3-8.8-1.3-6.8-2.3-13.1-2.4-20.4-1.1-7.9,1.5-16.7.5-24.8-1.1-16.7-3.3-33.6-4.7-50.3-7.5-14.3-2.4-28.6-4.9-42.2-11.3-15-7.1-31.9-9.1-47.7-14.6-9.8-3.4-19.1-7.8-28.1-12.8-6.2-3.4-12.4-6.3-19-8.6-6.6-2.3-13.3-4.3-18.5-9.4-1.7-1.7-4-2.2-6.3-2.9-2.2-.7-4.8-1-6.5-2.4-12-9.7-26.6-14.8-39.6-22.8-1.7-1-4-1.7-5.1-3.1-9.1-12.2-23.7-16.7-35.3-25.2-4.9-3.6-7.9-8.9-12.8-12.5-5.4-3.9-10.2-8.5-15.9-12.1-2.5-1.6-5.3-3.3-6.3-6.2-2.3-6.4-7-9.9-12.8-13.1-7-3.8-12.9-9.2-18.1-15.5-6.1-7.4-12.9-14.3-19.8-21-3.7-3.5-6.5-7.3-8.8-12,3.6-1.3,3.7,2.6,6.6,3.1.5-3.6-.1-7-1.5-10.2-2-4.7-4.9-5.3-9.2-1.7-2.2,1.8-3.6,1.3-5-.4-3.3-4-6.5-8.2-10-12.7,4.5-1.2,7.4,2.6,11.7,1.9.9-4-2.1-6.4-4.2-9.1-2.7-3.3-6-6.4-6-11.2h0c0,0,0,.1,0,.1ZM-4658.9,8752c-3.7-7-8.1-10.4-12.1-14.2-.6-.6-1.8-.8-2.8-.9-1.4-.2-2.6.3-3.2,1.7-.5,1-.2,2.2.7,2.6,5.6,2.5,8.5,9,17.4,10.8h0Z"/>
        <path class="cls-1" d="M-4869,8305.9c-.1-12.6-.3-25.3,2-37.8,0-.3.1-.7,0-1-3.1-17.3,1.2-34.4,1.9-51.6.3-9.1,3-17.7,4.6-26.5,2.3-12.4,4.9-24.8,7.5-37.1,1.4-6.5,3.8-12.6,6.6-18.7,3.4-7.4,6.5-15.2,6.6-23.8,0-7.4,2.9-14,6.5-20.6,8.5-15.5,14.3-32.2,19.6-49,4-12.6,11.9-23,16.9-35,.9-2.2,2.3-5.4,5.9-3.6,3.1,1.5,5.3,7.5,3.1,9.3-6.4,5.2-6,12-6.1,19-.1,4.4-1.5,8.6-5,11.6-3.8,3.3-5,7.7-6.1,12.3-2.8,12.4-6.7,24.3-13.9,35-1.1,1.6-2.4,3.6-2.4,5.4,0,10.9-5.8,20.4-7.3,30.9-1.2,8.4-4.2,15.9-9.1,22.9-4,5.7-7.7,11.8-5.2,19.5.9,2.8-.4,5.2-2.5,7.2-3.5,3.3-3.5,7-.9,10.8,3.3,4.8,1.8,8.6-1.8,12.5-4.7,4.9-6.4,10.8-4.4,17.4,1.3,4.3.9,8.4-.4,12.7-2.2,7.1-3.6,14.2-.5,21.4,1.2,2.8,1.3,5.9.5,8.9-4.6,17.5-4.2,35.5-5.2,53.3-.2,3.3,0,6.7-2.8,9.2-3.1,2.8-3.4,6.3-2.2,10.1.6,1.9,1,3.9-.2,5.8-.5.8-1.4,1.7-2.2,1.7-.7,0-2-.8-2.1-1.5-.6-2.6-1.2-5.2-1.2-7.8-.2-7.7,0-15.3,0-23h0Z"/>
        <path class="cls-1" d="M-3768,8685.7c-2.4-7.7-1.4-12.9,4.3-17,5.1-3.7,7.9-8.9,8.3-15.3.4-5.6,2.5-10.3,6.6-14.1,1-.9,2.3-1.8,2.6-3,3.3-12,11.7-21.3,17-32.1,2.4-4.8,4.2-9.8,8.4-13.3,4.6-3.9,5.1-10,7.8-14.9,6.1-11.1,11.4-22.3,14.5-34.8,1.8-7.3,6.6-13.6,12.7-18.6,6.1-5,9.5-10.7,6.7-19.1-1.6-4.6-1-9.6,3.9-12.2,8.8-4.6,11.4-13.4,15.4-21.3.7-1.5.8-3.2,1.4-4.8,3.9-9.9,6.7-19.7-1.9-29.1,4.3-3.2,8.6-1.1,12.1-4,2.7,8.9,1.2,16.7-1.3,23.6-6,16.9-10.2,34.3-16.4,51.2-4.7,12.7-12.7,24.1-14.2,38.1-.6,5.5-4.3,10.6-8,14.8-8.6,9.8-11.2,22.5-16.7,33.7-1.7,3.5-2.8,7.5-5.2,10.7-10.5,14.4-18.5,30.5-30.2,44.4-6.4,7.6-12.8,16-17.2,25.4-2.2,4.6-5.6,8.1-10.9,11.7h0Z"/>
        <path class="cls-1" d="M-3899,8806.4c-4.1,7.7-10.8,12.5-18.4,15.9-9.5,4.2-18.1,9.8-27.2,14.7-17.7,9.6-34.8,20.3-53.9,27.2-3.1,1.1-5.9,3-8.7,4.9-9,6-19.1,9.3-29.3,12.2-1.6.5-3.3.7-4.7-.6,0-.6-.3-1.6,0-1.8,7.6-5.9,15.2-11.8,20.3-20.2.6-1,2-2.1,3.2-2.2,12.3-2,21.1-11,32.1-15.7,4-1.7,7.8-3.8,12.1-4.5,1.3-.2,2.8-.3,3.8-1,11.8-8.6,25.5-14,36.8-23.2,3.3-2.7,6.6-5.7,10.3-7.8,5.3-3,10.9-7.4,16.2.6,1.5,2.2,4.9,1.7,7.5,1.8h0c0,0,0,0,0,0Z"/>
        <path class="cls-1" d="M-4676.2,7859.2c.5,4.7-1.2,8.2-4.9,11.3-5.9,5-9.8,11.5-14.3,17.7-5.5,7.6-9.6,16.8-19,21-2.5,1.1-4.6,3.2-5.1,5.8-1.8,9.2-8.7,14.8-14.7,20.8-3.3,3.3-6.2,6.8-8.5,11-5.4,9.8-13,17.5-22.7,23.2-1.8,1-3.6,2.1-5.5.4-1.7-1.5-1.5-3.6-.8-5.5.7-1.9,1.2-4,2.5-5.4,7.2-8.3,11-19,18.9-26.8,3.5-3.5,6.5-7.6,9-11.9,7-12.2,16.6-22.6,25.7-32.9,8.8-10,19.1-19.3,30.1-27.4,2.5-1.8,5.5-2.2,8.5-2.2.2.3.5.5.8.8h0Z"/>
        <path class="cls-1" d="M-4738.5,8660.5c-3.7-.2-6.1-2.6-7.9-5.5-3.4-5.4-8.9-9-12.1-14.6-.8-1.3-2.3-2.8-3.7-3.1-11.1-2.1-14-12.6-20.1-19.6-1.8-2-1.7-4.4,1.5-5.4,2.1-.7,3.7-1.8,3.3-4.2-.4-2.5-1.9-4.5-4.5-4.7-3.9-.4-7.9.5-10.4-4.1-2.8-5.2-4.6-10.3-2.9-16.2.4-1.5-.2-3.3,1.9-4.9,9.6,5.4,15.2,14.3,19,24.3,1.5,3.8,2.9,7.4,5.3,10.6,2.4,3.3,4.3,6.6,3.6,11-.7,4.8,1.2,7.5,6.3,8.1,7.1.9,10.8,5.6,13.2,12.1,2.1,5.6,5,10.8,7.5,16.2h0c0,0,0-.1,0-.1Z"/>
        <path class="cls-1" d="M-4847.4,8452.1c-2.8-14.8-8.3-27.1-7.8-40.6,0-2.4-.6-4.8-2.1-6.5-5-5.5-3.2-12.6-4.4-19-.5-2.5,1.1-4.6,3.1-5.8,2.7-1.7,4.2.9,5.9,2.3,4,3.3,5.4,7.4,3.7,12.4-1.9,5.5-4.1,11,3.5,14.1,4.1,10.4,8.2,20.9,8.6,32.3,0,2.2-1.4,4.5-3.5,3.8-5.2-1.6-4.6,2.8-6.9,7h0Z"/>
        <path class="cls-1" d="M-4049.7,8870.9c-3.9,5.6-7.7,10.5-13.1,13.8-5.1,3.1-10.3,6-15.6,8.7-9.1,4.6-20.5,2.6-27.2-4.7-2.6-2.8-.5-4,2.1-4.7,6.1-1.7,12.1-3.7,18.2-4.8,8.2-1.5,16.1-3.6,23.6-7.3,3.4-1.7,7.1-3.3,12-1h0Z"/>
        <path class="cls-1" d="M-3833.9,8737.6c2-4,3.7-5.9,7.8-6.4,12.1-1.7,22.2-7.8,31.1-16.1,5.7-5.4,6.1-8.3,1.8-14.8-1.3-2-1.3-3.7-.2-5.4,1.3-1.9,2.9-3.6,4.4-5.4,2.2-2.6,4.4-5.3,8.2-2.3,4.2,3.3,4.4,6.3,2.1,10.8-9.9,18.9-27.2,31.5-40.4,47.4-2.9,3.4-5.9,3.2-7.1-1.5-1-3.9-4.5-4.3-7.7-6.2h0Z"/>
        <path class="cls-1" d="M-3898.9,8806.5c.7-2.6,1.3-5.1,2-7.7.5-1.8,1.6-3.3,3.5-2.6,5.6,1.9,6.4-1.4,6.3-5.6-.2-5.3,2.2-8.3,7.6-8.2,4.4,0,7.4-2.5,10.8-4.6,1.9-1.2,4.1-.6,5.5.9,1.8,2,0,3.6-1.4,5-9.7,10.2-20.9,18.2-34.4,22.7h0c0,0,0,.1,0,.1Z"/>
        <path class="cls-1" d="M-4855.7,8334.4c4.2,3.1,3.5,6.3,3.1,9.1-.9,5.9-2.4,11.6-3.3,17.5-.7,4.5-4.4,5.1-7.3,5.2-3.5,0-3-3.8-3.3-6.2-.6-4.7-.7-9.3,4.4-12.1,4.9-2.7,4.3-8.4,6.5-13.5h0Z"/>
        <path class="cls-1" d="M-4844.7,8456.1c3.8,5.2,6.7,10,13.5,8-.3,2.8-.3,4.2-.7,5.4-1.2,3.4-1.4,8.3-5.3,8.9-4.1.6-3.7-4.7-5.2-7.4-2.4-4.1-6.4-8-2.3-14.9h0Z"/>
      </g>
      <g>
        <path class="cls-1" d="M-5780.7,7884.3c-5.9.9-10.8.2-15.3-1.6-6.9-2.8-14-4-21.2-5.3-13.2-2.5-25.1-8.5-37-14.3-.3-.2-.6-.3-.8-.5-5.2-5.1-13.2-1.1-18.6-5.7-5.2-4.3-11.2-5-17.8-4.7-7.7.5-15.2-1.7-22.6-3.5-8.4-2-17.2-2-25.2-5.8-3.5-1.7-7.2.5-10.8.2-1.7-.2-3.5-.7-4-2.5-.5-1.8,1.1-2.9,2.1-4.2,2.3-3.1,7.6,0,9.3-4.5-7.9-2.7-10-2.8-13.4,2.8-3.3,5.4-7.7,6.5-12.7,5-7.6-2.3-16.2,1.5-23-4.3-9.2,7.5-17.5-3.8-26.9-1.3-5.1,1.4-10.5,1.2-14.9,4.7-2.7,2.1-5.8,3.5-9.2,3.5-16.3.4-31.5,8-48,7.7-1.3,0-2.7.3-3.9.8-20.8,8.8-43,13.6-63.5,23.6-10.8,5.2-22.8,7.6-31.7,16.6-1.7,1.8-4.7,2.4-7.2,3.2-6.2,1.9-11.7,4.7-16.1,9.5-2.5,2.7-5.5,4.8-9,6.2-1.5.6-3.3,1.3-4.5-.4-1.5-1.9-.7-3.8.3-5.6.9-1.5,2.4-2.6,4.1-2.5,5.8.2,9.1-3.5,12.5-7.2,4.3-4.7,9.2-8.6,15.1-11.3,6.4-3,10.9-8.6,16.6-12.6,17.4-12.3,36.8-19.8,56.9-25.9,7-2.1,13.7-4.9,20.7-7.3,12-4.1,25.1-3.9,37.1-7.6,25.3-7.9,51.3-5.5,77.2-6.7,20.4-.9,40.6,1.1,60.5,4.5,11.4,2,22.9,4,34.2,6.2,8.5,1.7,16.7,4.6,24.2,9.1,3.2,1.9,6.4,3.9,10.1,4.2,14.7,1.2,27,9.1,40.6,13.7,1.2.4,2.9,1,3.4,2,4.2,8.1,11.3,9.4,19.6,10.1,5.9.5,10.4,5.1,13,11.8h0Z"/>
        <path class="cls-1" d="M-6259.5,8571c-15.6-13.6-34.2-23.9-45.5-42.1-2.4-3.9-6.2-7-9.1-10.6-2.7-3.3-5.8-6.4-6.8-10.9-.5-2.3-1.7-4.4-3.8-5.7-10.8-6.8-16.4-17.6-23.4-27.8-7.7-11.3-13.4-23.7-21-35-.7-1.1-1.9-2.2-2-3.4-1.8-17.3-15.4-29.9-18.1-46.9-1.3-8.1-5-15.9-8.5-23.4-7.2-15.7-9-32.6-10.9-49.4-.5-4.3-1.5-8.5-1.9-12.8-1.2-12.9,2.5-26.2-3.6-38.7-1.8-29.3-.3-58.4,4.8-87.4,2.5-14.4,2.9-29.2,8.6-42.9,2.9-7,5.6-14,9.1-22.9,2.6,8.7,1.5,15.7-1.9,21.3-4.7,7.6-4.8,14.8-2.7,22.9,1.2,4.8,2.5,9.6,3.9,14.4,2,6.8.6,8.9-6.8,10.2-3.2.5-4,2.6-4.1,4.8-.7,14.3-3.5,28.4-2.6,42.8,0,1.3,0,2.9.6,3.9,5.7,7.9,3.4,16,1.7,24.7-1.7,8.7-2,17.9,3.6,26,2.2,3.1,1.5,6.3-.9,9.2-2.6,3.1-3.2,6.7-1.9,10.3,2.6,7.4,2.7,15.9,10.1,21.1,2.7,1.9,2.2,4.6.2,7-2.6,3.1-3,6.6-2,10.3,3.5,13.1,3.6,27,8.6,39.8,1.1,2.8,1.8,5.8,4.1,7.9,5.2,4.6,7.5,10.9,10.2,16.9,2.3,5,3.1,10.7,10,12.7,3.6,1,3.6,6,0,8.4-4.3,2.9-2.7,5.4-.7,8.2,2,2.9,4.9,4.5,8.1,5.6,3.8,1.2,6.2,3.3,6.9,7.6,1.7,10.3,7.6,18.1,15,25.3,10.8,10.4,21,21.3,29.6,33.7,3,4.3,6.7,8.3,10.4,12.1,4.5,4.5,8.7,9.1,11.1,15.2.5,1.2,1.1,2.7,2.1,3.4,12,8.2,13.1,22.6,19.4,34.4h0Z"/>
        <path class="cls-1" d="M-5630.9,8461.8c-9.2-6.6-11.3-6.1-12.2,4.7-1,11.6-5.8,20.7-13.4,29.2-7.7,8.6-14.8,17.9-20.3,28.3-2.8,5.3-7,9.8-11.7,13.5-3.9,3.1-7.6,6.5-10.9,10.2-1.1,1.2-2.2,2.7-3.7,3.3-13.6,6.2-23.9,17.7-38,23.2-7.6,2.9-13.7,8.3-15.3,17.1-1,5.4-4,8.3-9.5,8.1-5.3-.2-8.9,2.5-11.4,6.7-2.5,4.2-6.2,6.6-10.6,8.6-5.2,2.3-9.8,5.6-14.8,8.2-5.9,3.1-11.4,6.8-18.4,7.2-4.2.2-6.9,3.8-10.6,5.4-27.1,11.1-54.2,22.1-83.5,25.9-1.3.2-2.6.4-4,.4-2.2,0-5.2,1.2-5.8-2.1-.6-2.9.1-6,2.6-8.2,1.8-1.6,3.8-1,5.4.4,5.5,5.1,11.3,3.5,16.5,0,6.4-4.1,13.3-7.5,18.5-13.4,1.6-1.8,3.6-2.7,5.8-3.6,15.2-5.8,30.4-11.7,45.4-17.9,10.3-4.3,20.1-8.9,30-14.2,18.5-10,35.5-22.2,53.7-32.6,2.8-1.6,5.1-4.2,7.5-6.5,1.7-1.6,2.8-4,4.7-5.2,11.8-7.1,19.7-18.8,31.2-26,4.1-2.6,7.1-6,9.4-10.1,3.7-6.5,9.1-11.6,14.8-16,12.7-9.6,20-23,26.8-36.6,3.4-6.8,7.3-13.4,11-20.1,2.8-5,7.7-4.7,10.8.3,1.4,2.3,1.4,4.5,0,11.4h0Z"/>
        <path class="cls-1" d="M-5639.2,8044.7c5.8,0,7.8,2.9,9,6.5,2.7,8.5,8.3,14.2,16.8,17.1,4.2,1.4,6.8,4.2,7.1,8.7.3,4.9,2.4,8.9,5.5,12.5,1.1,1.2,2,2.8,2.4,4.3,5.9,20.8,16.7,40,19.3,61.8,1.1,9.4,2.3,18.9,3.5,28.2-3.5.8-3.7-1.3-4-2.6-2-8.8-5.7-16.5-11.3-24-7.6-10.2-12.2-22.4-13.9-35.3-.7-4.7-2.1-9-4.7-13-1.3-1.9-2.4-4.1-3-6.3-4.5-16.2-12.2-30.9-21-45-2.3-3.6-4.1-7.5-5.6-13h0Z"/>
        <path class="cls-1" d="M-5944.8,8664.8c-8.2,1-16.3,2.6-24.4,2.8-14.6.4-29.2-.1-43.9,0-8.8,0-17.1-2-25.2-5.3-9.9-4.1-18.9-9.8-28.4-14.5-1.4-.7-2.9-1.6-2.6-4.9,9.1,4.2,19.2,1.5,27.9,4.7,11.7,4.1,23.8,2,35.4,4.9,2.1.5,4.6-.2,6.9-.4,12.8-1.7,25.2-1.2,36.9,4.9,5.5,2.9,12.3,2.2,17.6,5.5,0,.8-.2,1.6-.3,2.4h0Z"/>
        <path class="cls-1" d="M-6168.6,8629.4c4.6-3,8.3-2.2,11.7-1.7,6.3,1.1,12.5,1.2,18.9,1,7.3-.3,14.7-.5,21,4.4,2,1.5,4.3,1.6,6.7,1,4.9-1.1,9.1,1.2,13.4,3,1.5.6,2.6,1.7,2.8,3.7,1.2,9.2,2.1,10.1,10.6,11.7,3.2.6,6.7.3,9.1,3.3-.4,3.1-2.8,2.1-4.6,2.2-14.4.4-27.6-3.1-39.4-11.7-3.6-2.6-7.7-4.5-12-4.2-7.7.5-14.3-2.2-20.9-5.4-5.2-2.5-10.7-4.6-17.1-7.3h0Z"/>
        <path class="cls-1" d="M-6307.8,7971.4c-.5-.2-1.7-.4-2.3-1-1-1.1-.7-2.5.2-3.6,8.6-10.2,16.2-21.3,27.3-28.9,9-6.3,18.1-12.4,24.8-21.3.6-.8,1.3-1.5,2.2-2,3.1-1.8,5.5-6.3,9.2-5,4.5,1.6,2.5,7,3.8,10.6,1.5,4.3-2.5,6.5-5.1,8.8-1.8,1.6-3.8,1-4.9-1.2-2.5-4.5-5.2-2.9-8-.5-2.3,2-5.1,3.5-6.8,5.8-3.4,4.8-7.7,8.1-13.1,10.3-5.4,2.2-9.6,6.1-11.9,11.5-2.2,5-6.3,8.6-9.1,13.1-1.3,2.1-3.3,3.2-6.2,3.4h0Z"/>
        <path class="cls-1" d="M-6235.6,8572.5c21.5,10.5,37.9,26.6,61.2,33.6-6,5-11.8,6.4-15.3,11.5-1.6,2.3-6-.4-8.3-3,.3-.8.4-1.5.8-1.9,1.9-2,6.6-1.3,5.9-5.6-.6-3.8-4-5.4-7.2-6-6.8-1.3-12.4-4.1-17-9.4-1.4-1.6-4-2.7-6.1-3-9-1.1-10.8-8.1-14-16.3Z"/>
        <path class="cls-1" d="M-5617.1,8434.5c-.4-7.8,5-13.4,7.2-20.2.7-2.2,2.1-4.2,3.1-6.2,2-3.8,1.2-6.7-2-9.7-6-5.6-4.9-13.3,2-17.9,3.5-2.3,10.2,1,10.4,5.5.1,2.9-.4,6-1.3,8.8-4.5,14.2-10.6,27.5-19.4,39.6h0Z"/>
        <path class="cls-1" d="M-5718.8,7928.7c-3.8.6-5.9-2.3-7.7-4.8-5.8-7.8-13.3-11.7-23-11.2-2.7.1-5.8.7-5.3-3.5.4-3.6,4.9-7.4,7.3-6.3,11.9,5.2,23.6,10.8,29.4,23.6.2.4-.3,1.2-.6,2.2h0Z"/>
        <path class="cls-1" d="M-5641.2,8010.9c-14-5.1-18.9-16.8-22.3-29.5,7.8,9.6,16.2,18.7,22.3,29.5Z"/>
        <path class="cls-1" d="M-5586.5,8360.3c.3-8.3-5.1-18,5.4-25.1,2.6,9.6-1.3,17.3-5.4,25.1Z"/>
        <path class="cls-1" d="M-5572.7,8212.5c-1.7-6.8-8-12.8-3.7-21.5,5.9,7.1,4,14.6,3.7,21.5Z"/>
      </g>
      <g>
        <path class="cls-1" d="M-6922.4,8414.9c-4.3,11.4-13.7,13.8-24,15.1-4.4.5-8.5,2.9-13.3,2.3,1.4-3.5,11.5-16.3,13.7-17.3,2.7-1.3,5.7-2.7,8.6-.8,4.2,2.7,6.1,1,8.6-2.6,2.8-4.1,8.6-3.5,12.9-5.8,4.7-2.6,9.9-4.3,14.2-7.8.7-.6,1.5-1.2,2.3-1.4,15.6-4,25.3-17,38.4-24.8,7.5-4.5,12.3-12.1,20.1-16.6,4.1-2.4,6.6-8.9,9.8-13.6,2.8-4.1,8.9-3.3,10.1-8.4,1-4.2,2.6-8,4.6-11.8,4.5-8.5,10-16.6,13.4-25.7,1.3-3.4,3.3-6.6,6.1-8.9,3.7-3.2,5.3-7,4.9-12-.5-7,1-13.8,2.9-20.5,1.7-6.1,3.5-12.3,4-18.6.4-5.1,1-7.9,7.1-6.6,4.4.9,4-4.5,6.8-6.4,3,3.2,1.3,5.9-.7,7.9-4.4,4.3-5.2,9.3-3.9,15,.9,3.7-.3,7.2-1.7,10.6-2.6,6.5-4.5,13.3-8,19.2-3.7,6.5-5.9,13.1-6.3,20.4-.7,13.9-8.6,24.7-14.7,36.5-3.2,6.3-11.4,7.7-13,15.5-1.5,7.2-7.6,11.6-12.8,16.1-10,8.7-17.9,19.7-29.4,26.8-8.1,5-16.4,9.7-24,15.7-7.6,6-17.4,9.4-26.5,13.4-6.2,2.8-6.4,2.4-10.3-4.7h0Z"/>
        <path class="cls-1" d="M-7049.6,7977.9c1.5.4,3,.6,4.3,1.2,3,1.5,3.5,4.8.6,6.3-6.4,3.3-12,8.1-19.1,10.3-12.7,4-24.7,9.6-36.7,15.3-2.2,1-4.5,1.9-6.8,2.2-6.3.8-11.7,2.8-15.2,8.5-1.9,3.1-5.2,4.1-8.6,4.1-4.5,0-8,1.9-11.3,5-3.8,3.5-8.5,5.9-13.1,7.9-10,4.4-15.9,11.7-16.7,22.7-.4,5.6-1.4,10.8-7.5,13.3-2,.8-3.1,3-3.8,5-2.7,7.5-7.9,13.7-10.8,20.9-3.9,9.7-6.8,19.4-14.4,27.3-4.2,4.4-4.7,11-3.1,17.2.7,2.7.7,5.3.2,8.1-1.4,8.4-5.9,12.7-14.3,13.2-2,.1-2.7-1.2-2.7-2.8,0-1.5.3-3,.8-4.4,4.9-13.4,7.6-27.3,11.1-41,.5-1.7,1.2-3.4,2-5.1,10.4-20.8,21.4-41.1,37.1-58.7,10.7-11.9,21.8-23.2,34.2-33.2,11.8-9.5,24.5-17.7,40.2-19.5,2.5-.3,5.2-1,6.4-3,5.2-8.7,14.9-9.9,22.9-13.5,7.6-3.4,16.1-4.9,24.3-7.3h0Z"/>
        <path class="cls-1" d="M-7228.4,8248.4c4.2,4.2,3.8,8.2,5.4,11.3,5.4,10.5,7.9,22,11.9,33,2,5.5,5.1,9.8,11.5,9.7,3,0,4.5,1.5,5.6,3.7,5,9.7,12.5,17.8,16.7,27.9.8,2,1.7,4.1,3.7,5,6.9,3.4,10.7,9.7,14.7,15.6,5.2,7.6,11.5,13.9,19.6,18.5,5.3,3,10.3,6.4,13.8,11.6.8,1.2,2.1,2.7,3.4,2.9,12.3,2.1,20.3,13,32.3,15.9,1.6.4,3.9,1,3.4,3.4-.4,1.9-2.2,2.8-4,3.3-2.9.8-5.4-.4-7.8-1.6-4.1-2-8.4-3.5-13.1-3-5.4.6-9.5-2-12.2-6.3-2.7-4.2-6-6.4-10.9-7-3.7-.5-6.7-2.8-9.3-5.4-3.9-3.8-7.6-7.8-12.3-10.7-3.3-2-4.6-5.6-5.6-9.1-.9-2.9-1.3-5.9-2.2-8.8-1.8-5.6-2.8-6.2-8.1-3.5-3.6,1.9-5.6.5-7.8-1.8-5.2-5.3-8.2-11.9-11.4-18.4-2.3-4.7-5-8.9-8.2-13-7.6-9.5-13.1-20.1-16.4-31.9-2.8-10.1-7.2-19.9-10.8-29.8-1.1-3-2.3-6.1-1.9-11.6h0Z"/>
        <path class="cls-1" d="M-6784.6,8130.9c-3.3-2-3-4.7-3.9-6.8-2.6-6.9-6.4-12.7-12.2-17.7-9.1-7.9-17.1-17-19.9-29.3-.8-3.5-2.9-5.9-5.3-8.3-2.8-2.7-6.2-4.9-7.8-8.7-.5-1.2-1.3-2.2-2.6-2.2-6.6-.4-9.7-5.6-13.4-9.9-2.2-2.5-4.3-5.2-7.3-6.7-8.1-4.1-12-12.8-19.3-17.7-.7-.5-1.2-1.4-1.4-2.3-1.2-3.8-2.8-8.4.2-11.1,2.8-2.5,5.9,1.3,8.8,2.7.5.3,1.1.6,1.5,1,12.1,12.1,27.8,20.4,38.4,33.9,13.7,17.5,28.6,34.4,37.3,55.4,1.8,4.5,4.3,8.7,6.2,13.1,1.9,4.5,3.2,9.1.6,14.6h0Z"/>
        <path class="cls-1" d="M-6897.1,7997.9c-13,6.1-24.1,5.4-34.8,0-5.7-2.9-11.4-4.3-17.8-5.3-11.3-1.7-22.7-2.7-33.9-4.9-6.2-1.2-10.5-5.7-15.9-8.3-.4-.2-.7-1-.6-1.5,0-1,1-1.9,1.8-1.6,8.9,3.5,18.2,1,27,2,8.6,1,17.3,1.4,25.9,1.9,7.7.4,15,1.6,21.4,6.1,2.5,1.8,5.3,2.7,8.3,3.4,6.1,1.5,11.8,4.2,18.6,8.3h0Z"/>
        <path class="cls-1" d="M-6974.2,8422c-3.2,3-6.8,4.9-8,8.8-.4,1.5-1.9,2.2-3.5,2.4-9.3,1-18.5,2-27.8,3-1.2.1-2.5.2-3.6-.2-10-3.6-21.4-2.7-30.5-9.4-3.6-2.6-8.1-4-12.7-4.4-1.2-.1-2.6,0-3.1,1.3-.6,1.9,1.7,2.2,3.1,5-10.5-2.6-19.9-4.9-29.5-9.9,3.7-3.5,6.3-1.8,9-.9,8.3,2.9,9.2,2.1,8.4-7,2.6-1.6,4.8,0,6.5,1.4,4.5,3.7,9.7,4.5,15.1,5.1,7.8.8,15.5,2,23.3,3.2,5.4.8,10.9,1.5,12,8.7.4,2.8,3.1,3.4,5.8,2.8,3.6-.9,7.3-1.9,9.5-4.8,3.6-4.8,8.5-5.3,13.7-5.2,3.8,0,7.6-1.5,12.3.4h0Z"/>
        <path class="cls-1" d="M-6782,8156.9c8.9,0,9,0,10.4,8.4.9,5.6,1.6,11.3,2,17,.2,2-.1,4.3-.9,6.2-1.3,3.5-4,6.7-7.6,6.9-3.7.2-3.3-4.4-4.6-6.9-.9-1.8-1.7-4.1-1.6-6,.4-7-1.4-13.7-2.5-20.5-.8-5-.7-5,4.7-5h0Z"/>
        <path class="cls-1" d="M-7217.4,8237.6c-4.3-5.8-2.8-11.3-4.7-16-1.5-3.6-1.7-8.1-7.7-5.7-1.1.5-2.4-.5-2.5-1.9,0-2.2.5-5,3-4.6,6.4,1.1,5.5-2.9,5-6.5-.9-6.6,1.1-13.2.5-19.8,0-1.1.3-2.4.9-3.4.5-1.1,1.6-2.1,2.9-1.5.6.3,1,1.3,1.4,2,.1.2,0,.6,0,.9-4,13.6,1.2,26.6,2,39.9.3,5,1.5,10-.9,16.5h0Z"/>
      </g>
      <g>
        <path class="cls-1" d="M-7736.6,8071.3c4.5.2,10-.6,14.7,1.6,7.2,3.5,15.3,4.9,22.1,8.5,13.7,7.2,26,16.4,32.9,31.5,2.3,5,5.3,9.8,7.6,14.8,2.4,5,3.1,10,3.5,15.5.5,7,1.9,14,1.5,21.1-.4,8.6-2.8,16.8-5.2,25.1-.9,3-3.1,4.9-5.6,6.6-1.6,1.1-3.3,2.7-5.3,1.3-2.1-1.4-3.6-3.4-2.9-6.2,1.5-6,2.8-12.1,6.4-17.1,3-4.3,6-8.3,6.5-13.7,0-.7.4-1.4.7-2.1,2.6-6,2.7-6.2-3-8.7-2.8-1.2-4.3-3.1-4.9-5.9-1.6-8.3-4.9-15.9-9.1-23.2-2.4-4.1-2.7-8.9-3.6-13.4-1.8-9.4-8.4-13.3-16.2-16.4-1.4-.6-3.1-.8-4.3,0-4,3-7.4,1.2-10.8-.9-3-1.8-6.3-2.8-9.6-3.7-4.7-1.3-9.6-2.1-13.3-5.8-1.6-1.6-4.1-2.4-6.1-.9-6.6,4.7-14.8,4.5-22,7.5-5,2.1-9.9,5.6-16.1,4.1-1.7-.4-2.7,1.6-3.7,3.1-2.6,4.1-11.3,6.2-15.5,3.8-1.6-.9-1.9-2.2-1-3.7.5-.8,1.2-1.7,2-2,7.1-2.5,11.8-8.8,18.3-12.1,12.9-6.6,26.6-9.9,41.8-8.6h0Z"/>
        <path class="cls-1" d="M-7814.7,8158.9c-.4,15,3.4,27.2,11,38.2,1.4,2,2.5,4.2,3.9,6.2,1.7,2.5,1.3,4.2-1.2,6.2-5.4,4.4-6.1,4.7-10-1.5-10.4-16.7-16.9-34.6-16-54.7.2-3.9.5-7.9,2.6-11.3,1-1.7,2.4-3.2,4.7-2.8,1.8.4,1.6,2.2,2.2,3.4,2.9,5.7,3.3,11.6,2.8,16.2h0Z"/>
        <path class="cls-1" d="M-7751.8,8241.2c-2.3,1.8-4,1.6-5.7,1.3-11.6-2.5-22.7-6.2-32.3-13.5-2.1-1.6-3.9-3.7-5.7-5.7-1.4-1.6-2-3.4-.9-5.4,1.3-2.4,3.4-2.4,5.7-2.1,2,.2,3.6,1.4,5.3,2.4,8.2,4.8,16.3,10,26,11.4,2.4.3,4.2,1.7,4.3,4.3.2,2.8,2.1,4.8,3.2,7.4h0Z"/>
        <path class="cls-1" d="M-7731.5,8233.8c.8-2.3,2.3-2.8,3.7-2.8,8.8,0,16.1-4.1,23-8.7,6-4,11.2-1.7,16.7-.3,1.6.4,1.8,1.9,1,2.9-5.6,6.5-12.7,10.5-20.8,13.1-.4.1-1.5-.5-1.6-1-.2-.5,0-1.4.4-2,1.2-1.7,3.1-2.3,4.8-3.3,1.8-1.1,4.4-2.5,2.4-5-1.8-2.3-4-.6-5.7.9-2.6,2.3-5,4.8-6.3,8-1.5,3.9-3.7,4.7-7.3,2.6-3.2-1.9-7.5-1.7-10.3-4.4h0Z"/>
        <path class="cls-1" d="M-7805.6,8119.1c-1.5,3.8-3.1,7.9-4.8,11.9-.5,1.2-1.7,1.7-2.9,2-1,.3-2,.5-2.7-.3-.8-.8-.3-1.8.3-2.6.6-.8,1.2-1.5,1.7-2.4,1.3-1.9,1.9-3.9.4-6.1-.5-.8-1-1.7-1.3-2.6-.8-2.6.1-4.8,1.9-6.7.7-.8,1.9-1.2,2.5-.4,1.7,2.2,5.1,3.2,5,7h0Z"/>
      </g>
    </g>
  </g>
</svg>