<svg width="319" height="395" viewBox="0 0 319 395" fill="none" xmlns="http://www.w3.org/2000/svg">
<path d="M189.313 391.373C177.228 391.373 175.811 384.625 175.811 379.618V237.334C175.811 235.303 172.978 232.836 170.644 232.836H144.39V379.618C144.39 386.802 139.056 391.373 130.888 391.373H18.6225C10.3713 391.373 5.12061 386.729 5.12061 379.618V15.3827C5.12061 8.19952 10.4547 3.62842 18.6225 3.62842H198.398C256.239 3.62842 314.831 35.8437 314.831 97.372V156.941C314.831 190.245 292.411 211.286 265.741 220.283C298.745 227.829 314.831 249.379 314.831 285.512V379.691C314.831 385.496 313.248 391.445 301.329 391.445H189.313V391.373ZM170.644 209.255C172.978 209.255 175.811 206.788 175.811 204.756V102.959C175.811 100.855 172.978 98.4603 170.644 98.4603H144.39V209.327H170.644V209.255Z" fill="white"/>
<path d="M198.399 7.25569C271.826 7.25569 310.665 51.2978 310.665 97.3714V156.941C310.665 198.661 274.993 217.743 245.155 221.081C274.409 222.895 310.665 232.545 310.665 285.512V379.69C310.665 385.06 309.498 387.817 301.33 387.817H189.314C181.73 387.817 179.98 384.987 179.98 379.69V237.406C179.98 233.343 175.312 229.28 170.645 229.28H140.224V379.69C140.224 385.06 136.39 387.817 130.889 387.817H18.6232C11.6222 387.817 9.28861 383.754 9.28861 379.69V15.4547C9.28861 11.3915 11.6222 7.32827 18.6232 7.32827H198.399M140.224 212.882H170.645C175.312 212.882 179.98 208.819 179.98 204.756V102.958C179.98 98.8952 175.312 94.8319 170.645 94.8319H140.224V212.955M198.399 0H18.6232C8.0384 0 0.954102 6.16736 0.954102 15.3821V379.618C0.954102 388.833 8.0384 395 18.6232 395H130.889C141.307 395 148.558 388.687 148.558 379.618V236.463H170.645C170.645 236.463 171.562 237.116 171.645 237.479V379.618C171.645 392.315 181.23 395 189.314 395H301.33C313.082 395 318.999 389.848 318.999 379.618V285.439C318.999 251.773 304.914 229.715 276.993 219.775C300.58 208.819 318.999 187.922 318.999 156.941V97.3714C318.999 71.6137 307.998 47.6699 287.995 29.966C265.908 10.3757 234.904 0 198.399 0ZM148.558 102.015H170.645C170.645 102.015 171.562 102.741 171.645 103.103V204.756C171.645 204.756 170.811 205.554 170.395 205.699H148.475V102.088L148.558 102.015Z" fill="white"/>
</svg>
