<svg width="132" height="163" viewBox="0 0 132 163" fill="none" xmlns="http://www.w3.org/2000/svg">
<path d="M78.5781 161.219C73.5999 161.219 73.0162 158.439 73.0162 156.377V97.7655C73.0162 96.9287 71.8489 95.9125 70.8875 95.9125H60.0728V156.377C60.0728 159.336 57.8756 161.219 54.511 161.219H8.26505C4.86613 161.219 2.7032 159.306 2.7032 156.377V6.33658C2.7032 3.37761 4.90046 1.49463 8.26505 1.49463H82.3203C106.147 1.49463 130.283 14.7651 130.283 40.1106V64.6491C130.283 78.3679 121.047 87.0356 110.061 90.7418C123.657 93.8502 130.283 102.727 130.283 117.612V156.407C130.283 158.798 129.631 161.249 124.721 161.249H78.5781V161.219ZM70.8875 86.1987C71.8489 86.1987 73.0162 85.1825 73.0162 84.3456V42.412C73.0162 41.5453 71.8489 40.5589 70.8875 40.5589H60.0728V86.2286H70.8875V86.1987Z" fill="white"/>
<path d="M82.3206 2.98885C112.568 2.98885 128.566 21.1312 128.566 40.1104V64.6489C128.566 81.8348 113.872 89.6955 101.581 91.0704C113.632 91.8176 128.566 95.7927 128.566 117.611V156.407C128.566 158.618 128.086 159.754 124.721 159.754H78.5783C75.4541 159.754 74.7331 158.589 74.7331 156.407V97.7953C74.7331 96.1215 72.8104 94.4477 70.8878 94.4477H58.3564V156.407C58.3564 158.618 56.7772 159.754 54.5112 159.754H8.26529C5.38136 159.754 4.42007 158.08 4.42007 156.407V6.36627C4.42007 4.69251 5.38136 3.01875 8.26529 3.01875H82.3206M58.3564 87.6929H70.8878C72.8104 87.6929 74.7331 86.0192 74.7331 84.3454V42.4118C74.7331 40.7381 72.8104 39.0643 70.8878 39.0643H58.3564V87.7228M82.3206 0H8.26529C3.90506 0 0.986816 2.54053 0.986816 6.33638V156.377C0.986816 160.173 3.90506 162.713 8.26529 162.713H54.5112C58.8028 162.713 61.7897 160.113 61.7897 156.377V97.4067H70.8878C70.8878 97.4067 71.2655 97.6757 71.2999 97.8251V156.377C71.2999 161.607 75.2481 162.713 78.5783 162.713H124.721C129.562 162.713 132 160.591 132 156.377V117.581C132 103.713 126.198 94.6271 114.696 90.5323C124.412 86.0192 132 77.4113 132 64.6489V40.1104C132 29.5 127.468 19.6368 119.228 12.344C110.13 4.27407 97.3582 0 82.3206 0ZM61.7897 42.0233H70.8878C70.8878 42.0233 71.2655 42.3221 71.2999 42.4716V84.3454C71.2999 84.3454 70.9565 84.6742 70.7848 84.734H61.7554V42.0532L61.7897 42.0233Z" fill="white"/>
</svg>
